<svg viewBox="0 0 15 12" xmlns="http://www.w3.org/2000/svg">
<path d="M0.159245 6.17926L2.22227 7.03122L1.78473 7.23512C1.66173 7.29786 1.60724 7.44398 1.66173 7.57112L2.25612 8.84823C2.28501 8.91097 2.33867 8.9605 2.40306 8.98362C2.46663 9.01086 2.53928 9.01086 2.60284 8.98362L7.12515 6.86281L7.18211 6.26099L7.26136 5.45609C7.27044 5.34877 7.36538 5.27034 7.47188 5.28025C7.54122 5.28602 7.60149 5.32895 7.63038 5.39334C7.64689 5.42306 7.65432 5.45774 7.65184 5.49241L7.12763 11.0466C7.24485 11.1325 7.3918 11.1639 7.53379 11.1366C7.73357 11.0838 7.91106 10.8502 8.05801 10.4655L10.1557 4.22273L10.216 4.04524C10.2465 3.94122 10.3555 3.88178 10.4603 3.91233C10.5643 3.9437 10.6238 4.05267 10.5932 4.15669C10.5908 4.16164 10.5899 4.16659 10.5883 4.17072L10.3836 4.76924L10.1532 5.45609L13.6948 3.79675C14.7176 3.31876 15.2435 2.35123 14.8902 1.59669C14.6896 1.20208 14.3057 0.933779 13.8657 0.880945C13.377 0.807472 12.8775 0.884247 12.4334 1.10136L8.4229 2.97286L4.11771 1.29206C3.57533 1.08816 3.14522 1.09311 2.8439 1.31105C2.59129 1.51826 2.44764 1.83032 2.45342 2.15805C2.4559 2.23978 2.498 2.31738 2.56569 2.36444L5.46582 4.35151L3.80318 5.13825L1.01616 4.44067C0.902231 4.41343 0.783353 4.46461 0.725565 4.56615L0.0337625 5.80942C-0.0372338 5.93572 0.00734532 6.09505 0.133653 6.16605C0.141908 6.171 0.150989 6.17513 0.159245 6.17926Z" />
</svg>
