<svg xmlns="http://www.w3.org/2000/svg" viewBox="0 0 32 32"><path d="M22.563 31.313a8.75 8.75 0 1 1 8.75-8.75 8.76 8.76 0 0 1-8.75 8.75zm0-15a6.25 6.25 0 1 0 6.25 6.251 6.259 6.259 0 0 0-6.25-6.251z"/><path d="M25.878 23.813h-3.316a1.25 1.25 0 0 1-1.25-1.25v-3.314a1.25 1.25 0 0 1 2.5 0v2.064h2.066a1.25 1.25 0 0 1 0 2.5z"/><path d="M14.119 31.188a1.244 1.244 0 0 1-.169-.012A15.314 15.314 0 0 1 6.72 3.82a15.314 15.314 0 0 1 24.46 10.146 1.25 1.25 0 0 1-2.48.334 12.813 12.813 0 1 0-14.415 14.4 1.25 1.25 0 0 1-.166 2.488z"/><path d="M12.612 30.9a1.25 1.25 0 0 1-1.034-.546A19.177 19.177 0 0 1 9 23.813H3.56a1.25 1.25 0 0 1 0-2.5h4.987a38.383 38.383 0 0 1-.359-5H1.969a1.25 1.25 0 0 1 0-2.5h6.277a35.65 35.65 0 0 1 .618-5H4.749a1.25 1.25 0 1 1 0-2.5h4.73a16.987 16.987 0 0 1 2.1-4.667 1.25 1.25 0 0 1 2.066 1.407 13.461 13.461 0 0 0-1.545 3.26h7.783a20.057 20.057 0 0 0-1.572-3.327 1.25 1.25 0 1 1 2.15-1.273 22.481 22.481 0 0 1 2.063 4.6h4.726a1.25 1.25 0 0 1 0 2.5h-4.078a22.146 22.146 0 0 1 .337 2.345 1.25 1.25 0 1 1-2.49.223 19.875 19.875 0 0 0-.4-2.567h-9.2a32.831 32.831 0 0 0-.669 5h3.122a1.25 1.25 0 0 1 0 2.5h-3.184a35.544 35.544 0 0 0 .388 5h.235a1.25 1.25 0 0 1 .247 2.476 16.056 16.056 0 0 0 2.085 5.158 1.25 1.25 0 0 1-1.031 1.952z"/></svg>
