<svg viewBox="0 0 64 64" xmlns="http://www.w3.org/2000/svg"><path d="M23.1213 44.364C21.9497 43.1924 21.9497 41.2929 23.1213 40.1213C24.2929 38.9497 26.1924 38.9497 27.364 40.1213L29.602 42.3594L36.8401 35.1213C38.0117 33.9497 39.9112 33.9497 41.0827 35.1213C42.2543 36.2929 42.2543 38.1924 41.0827 39.364L31.7236 48.7231C30.552 49.8947 28.6525 49.8947 27.4809 48.7231C27.4628 48.705 27.445 48.6867 27.4275 48.6683C27.4061 48.6481 27.3849 48.6275 27.364 48.6066L23.1213 44.364Z"/><path fill-rule="evenodd" clip-rule="evenodd" d="M22 6H42V3C42 1.34315 43.3431 0 45 0C46.6569 0 48 1.34315 48 3V6H54C59.5228 6 64 10.4772 64 16V54C64 59.5229 59.5228 64 54 64H10C4.47715 64 0 59.5228 0 54V16C0 10.4772 4.47715 6 10 6H16V3C16 1.34315 17.3431 0 19 0C20.6569 0 22 1.34315 22 3V6ZM19 18C20.6569 18 22 16.6569 22 15V12H42V15C42 16.6569 43.3431 18 45 18C46.6569 18 48 16.6569 48 15V12H54C56.2091 12 58 13.7909 58 16V20H6V16C6 13.7909 7.79086 12 10 12H16V15C16 16.6569 17.3431 18 19 18ZM6 26V54C6 56.2091 7.79086 58 10 58H54C56.2091 58 58 56.2091 58 54V26H6Z"/></svg>