<svg xmlns="http://www.w3.org/2000/svg" viewBox="0 0 64 64"><path d="M64 61a3 3 0 01-3 3h-9a3 3 0 110-6h9a3 3 0 013 3zM61 0a3 3 0 013 3v9a3 3 0 11-6 0V3a3 3 0 013-3zM3 64a3 3 0 01-3-3v-9a3 3 0 116 0v9a3 3 0 01-3 3zM3 0a3 3 0 00-3 3v9a3 3 0 106 0V6h6a3 3 0 100-6H3z"/><path d="M64 61a3 3 0 11-6 0v-9a3 3 0 016 0v9zM61 0a3 3 0 110 6h-9a3 3 0 110-6h9zM3 64a3 3 0 110-6h9a3 3 0 110 6H3z"/><path d="M32 22c-5.523 0-10 4.477-10 10s4.477 10 10 10 10-4.477 10-10-4.477-10-10-10zM16 32c0-8.837 7.163-16 16-16s16 7.163 16 16-7.163 16-16 16-16-7.163-16-16z"/></svg>