<svg width="64" height="64" viewBox="0 0 64 64" xmlns="http://www.w3.org/2000/svg">
<path fill-rule="evenodd" clip-rule="evenodd" d="M61 53V18C61 16.3431 59.6569 15 58 15H32.6164C30.1138 15 27.7242 13.958 26.0213 12.1241L23.082 8.95865C22.5143 8.34735 21.7178 8 20.8836 8H6C4.34315 8 3 9.34315 3 11V53C3 54.6569 4.34315 56 6 56H58C59.6569 56 61 54.6569 61 53ZM6 5C2.68629 5 0 7.68629 0 11V53C0 56.3137 2.68629 59 6 59H58C61.3137 59 64 56.3137 64 53V18C64 14.6863 61.3137 12 58 12H35.9061H32.6164C30.948 12 29.3549 11.3053 28.2197 10.0827L26.2857 8L25.2803 6.91729C24.1451 5.69469 22.552 5 20.8836 5H6Z"/>
<path d="M35.9061 12H42.6164C40.948 12 39.3549 11.3053 38.2197 10.0827L35.2803 6.91729C34.1451 5.69469 32.552 5 30.8836 5H20.8836C22.552 5 24.1451 5.69469 25.2803 6.91729L26.2857 8H30.8836C31.7178 8 32.5143 8.34735 33.082 8.95865L35.9061 12Z"/>
<path d="M45.9061 12H52.6164C50.948 12 49.3549 11.3053 48.2196 10.0827L45.2803 6.91729C44.1451 5.69469 42.552 5 40.8836 5H30.8836C32.552 5 34.1451 5.69469 35.2803 6.91729L36.2857 8H40.8836C41.7178 8 42.5143 8.34735 43.0819 8.95865L45.9061 12Z"/>
</svg>
