<svg xmlns="http://www.w3.org/2000/svg" fill="currentColor" viewBox="0 0 64 64"><path fill-rule="evenodd" d="M33 15.658a2.5 2.5 0 0 0-2.5-2.5H15a8 8 0 0 0-8 8v28a8 8 0 0 0 8 8h28a8 8 0 0 0 8-8V33.5a2.5 2.5 0 0 0-5 0v15.658a3 3 0 0 1-3 3H15a3 3 0 0 1-3-3v-28a3 3 0 0 1 3-3h15.5a2.5 2.5 0 0 0 2.5-2.5Z"/><path fill-rule="evenodd" d="M42.68 7.657a2.5 2.5 0 0 1 2.5-2.5h11.315a2.496 2.496 0 0 1 2.5 2.5V18.97a2.5 2.5 0 1 1-5 0v-5.277l-13.41 13.41a2.5 2.5 0 1 1-3.536-3.536l13.41-13.41h-5.278a2.5 2.5 0 0 1-2.5-2.5Z"/></svg>