<svg xmlns="http://www.w3.org/2000/svg" viewBox="0 0 64 64"><path fill-rule="evenodd" d="M29 24a7 7 0 11-14 0 7 7 0 0114 0zm-3.5 0a3.5 3.5 0 11-7 0 3.5 3.5 0 017 0zM42 47a7 7 0 100-14 7 7 0 000 14zm0-3.5a3.5 3.5 0 100-7 3.5 3.5 0 000 7z"/><path d="M45.591 17.591a2.25 2.25 0 00-3.182 0L17.307 42.693a2.25 2.25 0 103.182 3.182L45.59 20.773a2.25 2.25 0 000-3.182z"/><path fill-rule="evenodd" d="M64 32c0 17.673-14.327 32-32 32C14.327 64 0 49.673 0 32 0 14.327 14.327 0 32 0c17.673 0 32 14.327 32 32zm-6 0c0 14.36-11.64 26-26 26S6 46.36 6 32 17.64 6 32 6s26 11.64 26 26z"/></svg>