<svg xmlns="http://www.w3.org/2000/svg" viewBox="0 0 64 64"><path d="M32.784 51.192l-.71-.71-.71.71a3 3 0 01-4.243-4.242l2.829-2.829a2.99 2.99 0 012.117-.878 2.99 2.99 0 012.13.878l2.83 2.829a3 3 0 01-4.243 4.242z"/><path fill-rule="evenodd" d="M37.676 6.98a4.88 4.88 0 00-1.578 1.394c7.662-1.342 14.068.4 18.833 4.326 5.654 4.659 8.516 11.998 8.755 19.454.24 7.48-2.136 15.424-7.406 21.539C50.954 59.873 42.825 64 32 64c-10.825 0-18.953-4.126-24.28-10.307C2.45 47.578.074 39.633.314 32.153.554 24.699 3.415 17.36 9.07 12.7c4.765-3.926 11.17-5.668 18.833-4.326a4.88 4.88 0 00-1.578-1.394C24.8 6.109 23.04 6 22.5 6a3 3 0 010-6c.96 0 3.95.141 6.8 1.77.97.554 1.892 1.264 2.7 2.15a11.088 11.088 0 012.7-2.15C37.55.141 40.54 0 41.5 0a3 3 0 110 6c-.54 0-2.3.109-3.824.98zM33 15.329a2.997 2.997 0 01-2.002 0c-8.306-2.713-14.227-1.201-18.115 2.002-4.018 3.31-6.375 8.846-6.573 15.015-.018.55-.018 1.101-.001 1.654H16v-2a3 3 0 016 0v2h7v-6a3 3 0 016 0v6h7v-2a3 3 0 016 0v2h9.69c.017-.553.017-1.104 0-1.654-.199-6.169-2.556-11.704-6.574-15.015-3.888-3.203-9.809-4.715-18.115-2.002zM7.185 40c.94 3.55 2.63 6.933 5.08 9.776C16.39 54.564 22.825 58 32 58c9.175 0 15.609-3.436 19.735-8.224 2.45-2.843 4.14-6.226 5.08-9.776H7.185z"/></svg>