<svg width="64" height="64" viewBox="0 0 64 64" fill="currentColor" xmlns="http://www.w3.org/2000/svg">
<path fill-rule="evenodd" clip-rule="evenodd" d="M28.2358 4.86133C15.3264 4.86133 4.86133 15.3264 4.86133 28.2358C4.86133 41.1452 15.3264 51.6103 28.2358 51.6103C32.3047 51.6103 36.1308 50.5706 39.4628 48.7425C40.2873 48.2902 41.3215 48.3937 41.9865 49.0587L52.3211 59.3933C54.2738 61.3459 57.4396 61.3459 59.3922 59.3933C61.3448 57.4407 61.3448 54.2748 59.3922 52.3222L49.0579 41.9879C48.3929 41.3229 48.2894 40.2886 48.7418 39.4641C50.5704 36.1317 51.6103 32.3052 51.6103 28.2358C51.6103 15.3264 41.1452 4.86133 28.2358 4.86133ZM12.8613 28.2358C12.8613 19.7447 19.7447 12.8613 28.2358 12.8613C36.7269 12.8613 43.6103 19.7447 43.6103 28.2358C43.6103 36.7269 36.7269 43.6103 28.2358 43.6103C19.7447 43.6103 12.8613 36.7269 12.8613 28.2358Z"/>
</svg>
