<svg xmlns="http://www.w3.org/2000/svg" viewBox="0 0 64 64"><path d="M3.879 13.879A3 3 0 108.12 18.12L3.88 13.88zM18.12 8.12A3 3 0 1013.88 3.88L18.12 8.12zm-10 5.758A3 3 0 103.88 18.12L8.12 13.88zM13.88 28.12a3 3 0 104.242-4.242L13.88 28.12zM53 27a3 3 0 106 0h-6zm3-11h3a3 3 0 00-3-3v3zM6 13a3 3 0 100 6v-6zm2.121 5.121l10-10L13.88 3.88l-10 10L8.12 18.12zm-4.242 0l10 10 4.242-4.242-10-10L3.88 18.12zM59 27V16h-6v11h6zm-3-14H6v6h50v-6zM60.121 50.121a3 3 0 10-4.242-4.242l4.242 4.242zM45.88 55.88a3 3 0 104.242 4.242L45.88 55.88zm10-5.758a3 3 0 104.242-4.242L55.88 50.12zM50.12 35.88a3 3 0 10-4.242 4.242l4.242-4.242zM11 37a3 3 0 10-6 0h6zM8 48H5a3 3 0 003 3v-3zm50 3a3 3 0 100-6v6zm-2.121-5.121l-10 10 4.242 4.242 10-10-4.242-4.242zm4.242 0l-10-10-4.242 4.242 10 10 4.242-4.242zM5 37v11h6V37H5zm3 14h50v-6H8v6z"/></svg>