<svg xmlns="http://www.w3.org/2000/svg" fill="currentColor" viewBox="0 0 64 64"><path fill-rule="evenodd" d="M12 8h40a8 8 0 0 1 8 8v32a8 8 0 0 1-8 8H12a8 8 0 0 1-8-8V16a8 8 0 0 1 8-8Zm0 5a3 3 0 0 0-3 3v32a3 3 0 0 0 3 3h40a3 3 0 0 0 3-3V16a3 3 0 0 0-3-3H12Z"/><path fill-rule="evenodd" d="M12 19.5a2.5 2.5 0 0 1 2.5-2.5h3a2.5 2.5 0 0 1 0 5h-3a2.5 2.5 0 0 1-2.5-2.5Zm10.667 0a2.5 2.5 0 0 1 2.5-2.5h3a2.5 2.5 0 0 1 0 5h-3a2.5 2.5 0 0 1-2.5-2.5Zm10.666 0a2.5 2.5 0 0 1 2.5-2.5h3a2.5 2.5 0 0 1 0 5h-3a2.5 2.5 0 0 1-2.5-2.5ZM44 19.5a2.5 2.5 0 0 1 2.5-2.5h3a2.5 2.5 0 0 1 0 5h-3a2.5 2.5 0 0 1-2.5-2.5ZM32 27a2 2 0 0 1 2 2v10.172l2.586-2.586a2 2 0 1 1 2.828 2.828l-6 6a2 2 0 0 1-2.828 0l-6-6a2 2 0 0 1 2.828-2.828L30 39.172V29a2 2 0 0 1 2-2Z "/></svg>
