<svg xmlns="http://www.w3.org/2000/svg" fill="currentColor" viewBox="0 0 64 64"><path fill-rule="evenodd" d="M26.5 7h3a6.5 6.5 0 0 1 6.5 6.5v37a6.5 6.5 0 0 1-6.5 6.5h-3a6.5 6.5 0 0 1-6.5-6.5v-37A6.5 6.5 0 0 1 26.5 7Zm0 5a1.5 1.5 0 0 0-1.5 1.5v37a1.5 1.5 0 0 0 1.5 1.5h3a1.5 1.5 0 0 0 1.5-1.5v-37a1.5 1.5 0 0 0-1.5-1.5h-3Zm18.257-4.03 2.935-.623a6.5 6.5 0 0 1 7.709 5.007l7.693 36.191a6.5 6.5 0 0 1-5.007 7.71l-2.934.623a6.5 6.5 0 0 1-7.71-5.006L39.751 15.68a6.5 6.5 0 0 1 5.006-7.71Zm1.04 4.891a1.5 1.5 0 0 0-1.156 1.78l7.693 36.191a1.5 1.5 0 0 0 1.78 1.155l2.934-.623a1.5 1.5 0 0 0 1.155-1.78l-7.693-36.19a1.5 1.5 0 0 0-1.779-1.156l-2.934.623ZM9.5 7h-3A6.5 6.5 0 0 0 0 13.5v37A6.5 6.5 0 0 0 6.5 57h3a6.5 6.5 0 0 0 6.5-6.5v-37A6.5 6.5 0 0 0 9.5 7ZM5 13.5A1.5 1.5 0 0 1 6.5 12h3a1.5 1.5 0 0 1 1.5 1.5v37A1.5 1.5 0 0 1 9.5 52h-3A1.5 1.5 0 0 1 5 50.5v-37Z"/></svg>
