<svg viewBox="0 0 64 64" xmlns="http://www.w3.org/2000/svg"><path fill-rule="evenodd" clip-rule="evenodd" d="M25 9C26.6569 9 28 7.65685 28 6V3C28 1.34315 26.6569 0 25 0C23.3432 0 22 1.34315 22 3V6C22 7.65685 23.3432 9 25 9ZM0.50002 14.0312C-0.328407 15.4661 0.163218 17.3009 1.5981 18.1293L4.19617 19.6293C5.63105 20.4577 7.46582 19.9661 8.29425 18.5312C9.12268 17.0963 8.63105 15.2616 7.19617 14.4332L4.5981 12.9332C3.16322 12.1047 1.32845 12.5963 0.50002 14.0312ZM45.3013 19.5669C43.8664 20.3953 42.0316 19.9037 41.2032 18.4688C40.3748 17.0339 40.8664 15.1992 42.3013 14.3707L44.8994 12.8707C46.3342 12.0423 48.169 12.5339 48.9974 13.9688C49.8259 15.4037 49.3342 17.2385 47.8994 18.0669L45.3013 19.5669ZM0.536091 42.0312C1.36452 43.4661 3.19929 43.9577 4.63417 43.1293L7.23224 41.6293C8.66712 40.8008 9.15875 38.9661 8.33032 37.5312C7.50189 36.0963 5.66712 35.6047 4.23224 36.4331L1.63417 37.9331C0.199289 38.7615 -0.292336 40.5963 0.536091 42.0312ZM16 28C16 23.0294 20.0295 19 25 19C29.9706 19 34 23.0294 34 28C34 28.338 33.9814 28.6717 33.9451 29.0001C28.4852 29.0184 23.6703 31.7708 20.7969 35.9603C17.9439 34.4507 16 31.4524 16 28ZM17.7466 41.1328C13.1275 38.5762 10 33.6533 10 28C10 19.7157 16.7157 13 25 13C33.2843 13 40 19.7157 40 28C40 28.7143 39.9501 29.417 39.8535 30.1047C42.9591 31.3263 45.5891 33.4907 47.3923 36.243C48.2385 36.0834 49.1104 36 50 36C57.732 36 64 42.268 64 50C64 57.732 57.732 64 50 64H19C18.8232 64 18.6499 63.9847 18.4814 63.9553C12.6059 63.4385 8.00002 58.5082 8.00002 52.5C8.00002 46.7449 12.2276 41.9771 17.7466 41.1328ZM19.2946 58C19.2546 57.9961 19.2143 57.9929 19.1737 57.9906C16.2895 57.8233 14 55.4279 14 52.5C14 49.4624 16.4625 47 19.5 47C19.8412 47 20.1726 47.0307 20.4923 47.0888C21.3337 47.2415 22.2003 47.0279 22.8744 46.5017C23.5484 45.9754 23.9659 45.1865 24.0218 44.3332C24.3633 39.1227 28.7014 35 34 35C38.0915 35 41.6156 37.4576 43.1642 40.9895C43.8144 42.4725 45.5241 43.1718 47.0273 42.5697C47.9423 42.2031 48.9438 42 50 42C54.4183 42 58 45.5817 58 50C58 54.4183 54.4183 58 50 58H19.2946Z" /></svg>