<svg width="72" height="26" fill="none" xmlns="http://www.w3.org/2000/svg"><path d="M31.251 6.315h2.717v10.86h2.716V3.6h-2.716a2.724 2.724 0 00-2.717 2.715zM39.401 17.175h2.717v-5.43A2.724 2.724 0 0039.4 9.03v8.145zM44.834 9.03v8.145h2.717v-5.43h2.716v2.715a2.724 2.724 0 002.717 2.715v-5.43a2.724 2.724 0 00-2.717-2.715h-5.433zM69.283 9.03h-2.716V6.315A2.724 2.724 0 0063.85 3.6v10.86h-5.433v-2.715h2.717V9.03h-2.717a2.724 2.724 0 00-2.717 2.715v2.715a2.724 2.724 0 002.717 2.715h8.15v-5.43h2.716v2.715A2.724 2.724 0 0072 17.175v-5.43a2.724 2.724 0 00-2.717-2.715zM39.401 6.315h2.717A2.724 2.724 0 0039.4 3.6v2.715z" fill="#fff"/><path fill-rule="evenodd" clip-rule="evenodd" d="M35.487 19.89v1.777h-.25l-.977-1.231v1.23h-.292V19.89h.249l.978 1.236V19.89h.292zm5.526 1.777h-1.054V19.89h1.028v.292h-.716v.442h.64v.292h-.64v.46h.742v.29zm4.472-1.485h.576v1.485h.313v-1.485h.576v-.292h-1.465v.292zm8.114-.292h.3l-.509 1.777h-.292l-.429-1.284-.422 1.284h-.294l-.531-1.777h.35l.359 1.267.396-1.267h.31l.406 1.27.356-1.27zm5.03.264a.895.895 0 00-.259.652c0 .273.087.494.262.663.174.17.395.254.663.254a.908.908 0 00.663-.26.882.882 0 00.264-.657.882.882 0 00-.264-.662.913.913 0 00-.663-.254.902.902 0 00-.666.264zm.242 1.1a.62.62 0 01-.17-.448c0-.182.055-.332.167-.449a.57.57 0 01.427-.175c.167 0 .309.058.424.175a.618.618 0 01.172.45c0 .179-.054.328-.162.446a.555.555 0 01-.434.178c-.17 0-.311-.06-.424-.178zm6.135-.247v.665h-.312v-1.777c.088 0 .183 0 .287-.002l.254-.003c.43 0 .645.183.645.548a.525.525 0 01-.104.335.529.529 0 01-.24.173l.557.726h-.378l-.49-.665h-.219zm.213-.825c-.008 0-.022 0-.04.003-.019 0-.045 0-.079.002h-.094v.528h.203c.1 0 .181-.024.244-.073a.239.239 0 00.097-.201c0-.173-.11-.259-.33-.259zm5.346 1.485h.312v-.916l.727.916H72l-.777-.95.731-.827h-.376l-.7.843v-.843h-.313v1.777z" fill="#2F7AEA"/><path d="M6.425 13.995l.713-5.368L.943 4.33l5.66 1.915L7.94 4.195l4.88-3.029L23.585 7.09l.557 9.043-4.791 6.66-3.788.578 1.96-3.585v-3.453l-1.425-2.695-1.449-.957-2.229 2.294v2.428l-1.738 1.625-2.206.268-.98.556-1.605-.512-.668-2.405 1.203-1.693v-1.247z" fill="#fff"/><path d="M16.32 4.284c-1.182-.245-2.474-.178-2.474-.178s-.424 1.96-3.053 2.472c.022 0 3.476 1.18 5.526-2.294zM17.389 22.057c1.426-1.113 2.496-2.65 2.986-4.387.022-.067.223-.178.357-.268.223-.133.445-.245.49-.423.09-.512.134-1.046.134-1.581 0-.2-.2-.4-.402-.601-.155-.134-.312-.29-.312-.401a8.485 8.485 0 00-2.651-5.301l-.156.156c1.448 1.359 2.384 3.207 2.585 5.167.022.178.2.356.378.535.157.133.335.334.335.423 0 .512-.045 1.024-.134 1.537-.022.088-.223.178-.379.267-.223.111-.423.223-.468.4a8.232 8.232 0 01-3.387 4.611c.29-.624 1.203-2.65 1.694-3.675l-.09-3.296-2.83-2.74-1.604.223-1.76 2.85s.824 1.048-.335 2.273c-1.136 1.202-2.028 1.47-2.028 1.47l-.824-.446c.245-.312.735-.78 1.114-1.091.646-.535 1.293-.58 1.293-1.158.022-1.203-1.27-.869-1.27-.869l-.469.445-.2 1.649-.98 1.225-.112-.023-1.605-.356s.98-.512 1.137-1.091c.156-.557-.312-2.406-.334-2.517.022.022.468.4.668 1.024.357-.98.825-1.915.958-2.004.134-.09 1.94-1.047 1.94-1.047l-.603 1.581.446-.245 1.07-2.628s1.047-.512 1.827-.512c1.404-.022 3.476-1.737 2.54-4.81.268.11 4.903 2.427 5.705 6.97.602 3.497-1.381 6.771-4.724 8.664z" fill="#94A6C3"/><path d="M12.085 4.774c.513-.601.312-1.492.312-1.492l-1.493 2.205c-.022 0 .535.022 1.181-.713zM7.071 16.823l.179-.89s-.736 1.291-.803 1.47c-.066.2.045.556.335.534.29-.022.646-.445.646-.757 0-.401-.357-.357-.357-.357z" fill="#1B314F"/><path d="M20.308 2.658s1.114.045 2.273.178C19.974.787 17.501.186 15.495.186c-2.763 0-4.635 1.136-4.747 1.203l.87-1.381S8.14-.326 6.914 3.348c-.312-.779-.601-1.915-.601-1.915s-1.805 1.582-.959 4.21C3.283 4.886.32 3.839.208 3.816c-.156-.022-.2.045-.2.045s-.045.067.088.178c.245.2 4.925 3.653 5.95 4.321-.223.802-.223 1.18 0 1.559.312.512.334.78.29 1.158-.045.379-.446 3.653-.535 4.054-.09.4-1.025 1.826-.98 2.25.044.422.624 2.226 1.136 2.427.379.134 1.315.423 1.939.423.223 0 .423-.045.512-.134.38-.334.49-.4.758-.4h.067c.111 0 .245.022.401.022.357 0 .825-.067 1.159-.379.49-.49 1.337-1.158 1.604-1.47a2.072 2.072 0 00.424-1.581c-.067-.535.223-1.002.557-1.47.423-.557 1.203-1.56 1.203-1.56 1.538 1.159 2.496 2.918 2.496 4.878 0 3.475-3.03 6.281-6.774 6.281-.58 0-1.137-.067-1.694-.2 1.716.601 3.164.802 4.345.802 2.518 0 3.856-.913 3.856-.913s-.468.6-1.226 1.291h.022c4.167-.579 6.195-4.009 6.195-4.009s-.156 1.114-.356 1.871c5.549-4.165 4.613-9.377 4.59-9.555.045.067.602.735.892 1.092.891-9.177-6.619-12.139-6.619-12.139zm-8.535 14.655c-.089.112-.468.446-.735.69-.268.246-.557.49-.78.713-.09.09-.267.134-.535.134H9.055c.334-.445 1.314-1.47 1.649-1.693.4-.267.601-.534.356-1.002-.245-.468-.891-.356-.891-.356s.379-.156.713-.156c-.423-.111-.958 0-1.203.245-.268.245-.223 1.114-.335 1.67-.111.58-.49.869-1.07 1.404-.311.29-.534.378-.712.378a7.677 7.677 0 01-1.137-.29c-.223-.289-.557-1.247-.646-1.648.067-.222.334-.69.468-.957.267-.513.423-.802.468-1.07.089-.378.379-2.716.49-3.697.29.38.69 1.003.602 1.404.646-.914.178-1.804-.045-2.16-.2-.357-.468-1.07-.245-1.827.223-.757 1.025-2.85 1.025-2.85s.267.467.646.378c.38-.09 3.432-4.677 3.432-4.677s.825 1.804-.044 3.118c-.892 1.314-1.76 1.559-1.76 1.559s1.225.222 2.361-.602c.468 1.092.914 2.228.936 2.384-.067.155-.958 2.293-1.047 2.427-.045.045-.357.134-.58.178-.378.112-.601.178-.69.245-.156.134-.87 2.094-1.204 3.052a1.84 1.84 0 00-1.092.78c.156-.112.647-.179 1.003-.223.312-.023 1.27.49 1.515 1.447v.045c.045.356-.066.69-.245.957zm-2.094.268c.2-.29.178-.78.2-.936.022-.156.067-.445.245-.49.179-.044.602.022.602.334 0 .29-.312.357-.535.557-.156.156-.468.49-.512.535zm8.891-4.254c.223-1.136.245-2.116.178-2.918a8.16 8.16 0 011.56 4.009c.023.178.2.356.38.535.155.133.333.311.333.423 0 .512-.044 1.024-.133 1.537-.023.066-.223.178-.38.267-.222.111-.423.223-.467.4a8.293 8.293 0 01-2.942 4.3c2.073-2.161 3.076-5.725 1.471-8.553zm-1.404 8.753c1.449-1.114 2.563-2.673 3.053-4.432.022-.067.223-.179.357-.268.223-.111.445-.245.49-.423.089-.512.134-1.047.134-1.581 0-.2-.2-.401-.401-.602-.112-.133-.29-.29-.29-.4A8.698 8.698 0 0018.68 9.94c-.445-2.672-2.228-3.496-2.273-3.519.045.067 1.204 1.738.402 3.698-.825 1.982-2.942 1.67-3.12 1.692-.178 0-.87.891-1.738 2.54-.112-.045-.58-.157-1.115-.068.402-1.113 1.003-2.695 1.115-2.828.044-.045.378-.134.601-.2.424-.112.624-.179.691-.268.045-.067.268-.579.49-1.114.2 0 .713-.044.758-.066.045-.045.468-1.136.468-1.27 0-.111-.87-2.272-1.203-3.096.156-.178.312-.4.468-.646 4.568.49 8.133 4.366 8.133 9.065 0 3.608-2.117 6.749-5.192 8.219z" fill="#1B314F"/><path d="M11.239 10.053c.423-.49.2-1.403-.58-1.56.2-.467.49-1.403.49-1.403s-2.273 3.564-2.473 3.63c-.2.068-.401-.712-.401-.712-.424 1.626.713 1.849.846 1.337.624-.157 1.694-.825 2.117-1.292z" fill="#1B314F"/><path d="M9.3 10.921l1.159-1.982s.668.334.334.869C10.369 10.43 9.3 10.92 9.3 10.92z" fill="#FFD923"/><path d="M23.629 20.097c-.335.446-.713.914-1.16 1.359 2.875-5.524.135-10.58.023-10.78.2.2.401.424.58.624 2.206 2.45 2.473 6.125.557 8.797zM26.303 12.993c-1.003-2.695-2.43-4.99-5.571-7.06-3.031-2.005-6.284-1.85-6.463-1.827h-.044c.111-.045.223-.067.334-.09.69-.222 1.582-.4 2.473-.511 2.363-.334 4.747.467 6.374 2.182l.044.045c1.85 1.96 2.808 4.41 2.853 7.26zM20.019 1.968c-3.32-.624-5.46-.312-6.998.267-.044-.178-.2-.534-.334-.824-.468.557-.958 1.225-1.27 1.648-.847.58-1.204 1.136-1.204 1.136.49-1.67 1.917-2.918 3.655-3.23a8.988 8.988 0 011.605-.133c1.537.022 3.075.4 4.546 1.136zM7.74 6.244c-2.607-.089-1.738-3.118-1.694-3.296 0 .022.179 2.383 1.694 3.296zM10.303.787C8.297 1.99 8.698 4.863 8.698 4.863 6.782 1.946 10.147.854 10.303.787z" fill="#D82122"/><path d="M7.004 7.046c.134.111.268.312.112.601-.09.156-.223.134-.424.045-.267-.134-1.871-1.07-3.32-2.027 1.65.58 3.32 1.203 3.588 1.336l.044.045z" fill="#fff"/></svg>