<svg width="24" height="24" viewBox="0 0 54 54" fill="none" xmlns="http://www.w3.org/2000/svg"><path d="M26.973 53.667C12.25 53.652.323 41.707.333 26.982.343 12.258 12.285.328 27.01.333 41.733.338 53.667 12.276 53.667 27c-.01 14.734-11.96 26.672-26.694 26.667zM5.667 27.459c.126 11.736 9.71 21.166 21.447 21.104 11.737-.064 21.218-9.596 21.218-21.334 0-11.737-9.481-21.27-21.219-21.333C15.376 5.833 5.793 15.263 5.667 27v.459zm24 12.874h-5.334V35h5.334v5.333zm0-10.666h-5.334v-16h5.334v16z" fill="#EE6559"/></svg>