<svg width="23" height="23" viewBox="0 0 23 23" fill="none" xmlns="http://www.w3.org/2000/svg">
<mask id="path-1-inside-1_10126_40936" fill="white">
<path fill-rule="evenodd" clip-rule="evenodd" d="M21.5625 5.4375C21.5625 3.22836 19.7716 1.4375 17.5625 1.4375H5.4375C3.22836 1.4375 1.4375 3.22836 1.4375 5.4375V17.5625C1.4375 19.7716 3.22836 21.5625 5.4375 21.5625H11.1359C12.1968 21.5625 13.2142 21.1411 13.9643 20.3909L20.3909 13.9643C21.1411 13.2142 21.5625 12.1968 21.5625 11.1359V5.4375Z"/>
</mask>
<path d="M13.9643 20.3909L15.3785 21.8051L13.9643 20.3909ZM5.4375 3.4375H17.5625V-0.5625H5.4375V3.4375ZM3.4375 17.5625V5.4375H-0.5625V17.5625H3.4375ZM11.1359 19.5625H5.4375V23.5625H11.1359V19.5625ZM15.3785 21.8051L21.8051 15.3785L18.9767 12.5501L12.5501 18.9767L15.3785 21.8051ZM19.5625 5.4375V11.1359H23.5625V5.4375H19.5625ZM21.8051 15.3785C22.9304 14.2533 23.5625 12.7272 23.5625 11.1359H19.5625C19.5625 11.6663 19.3518 12.175 18.9767 12.5501L21.8051 15.3785ZM11.1359 23.5625C12.7272 23.5625 14.2533 22.9304 15.3785 21.8051L12.5501 18.9767C12.175 19.3518 11.6663 19.5625 11.1359 19.5625V23.5625ZM-0.5625 17.5625C-0.5625 20.8762 2.12379 23.5625 5.4375 23.5625V19.5625C4.33293 19.5625 3.4375 18.6671 3.4375 17.5625H-0.5625ZM17.5625 3.4375C18.6671 3.4375 19.5625 4.33293 19.5625 5.4375H23.5625C23.5625 2.12379 20.8762 -0.5625 17.5625 -0.5625V3.4375ZM5.4375 -0.5625C2.12379 -0.5625 -0.5625 2.12379 -0.5625 5.4375H3.4375C3.4375 4.33293 4.33293 3.4375 5.4375 3.4375V-0.5625Z" fill="#B4C5D5" mask="url(#path-1-inside-1_10126_40936)"/>
<path d="M12.2188 20.8438V14.8726C12.2188 13.4069 13.4069 12.2188 14.8726 12.2188H20.8438" stroke="#B4C5D5" stroke-width="2"/>
</svg>
