<svg width="114" height="30" fill="none" xmlns="http://www.w3.org/2000/svg"><g clip-path="url(#prefix__clip0_5907_21591)"><path d="M3.632 8.122l-1.816 1.83L0 8.121l1.816-1.83 1.816 1.83zm4.43-4.463l3.113 3.156 1.816-1.83L9.878 1.83 8.062 0 3.113 4.986l1.816 1.83 3.133-3.157zm6.246 2.633l-1.816 1.83 1.816 1.83 1.816-1.83-1.816-1.83zm-6.246 6.273L4.949 9.429l-1.836 1.83 4.929 4.965 1.816-1.83 3.133-3.136-1.816-1.83-3.113 3.137zm0-2.614l1.816-1.83-1.816-1.829-1.816 1.83 1.816 1.83zm19.216.181v-.02c0-1.186-.638-1.789-1.656-2.191.639-.362 1.157-.925 1.157-1.93v-.02c0-1.407-1.117-2.312-2.913-2.312h-4.11v8.906h4.21c1.995 0 3.312-.804 3.312-2.433zm-2.434-3.8c0 .664-.539.946-1.397.946h-1.796v-1.89h1.916c.818 0 1.277.321 1.277.925v.02zm.499 3.56c0 .663-.52.964-1.377.964H21.65v-1.95h2.255c.998 0 1.437.362 1.437.965v.02zm6.006 2.673V3.659h-1.935v8.906h1.935zm10.457-8.906H39.89v5.488L35.74 3.66h-1.797v8.906h1.916v-5.65l4.29 5.67h1.657V3.659zm10.775 8.906L48.79 3.599h-1.796l-3.792 8.966h1.976l.818-1.99h3.732l.818 1.99h2.035zm-3.532-3.72h-2.354l1.177-2.894 1.177 2.895zM61.84 3.66h-1.915v5.488L55.774 3.66h-1.796v8.906h1.916v-5.65l4.29 5.67h1.656V3.659zm10.058 7.478L70.66 9.871c-.698.643-1.317 1.045-2.314 1.045-1.517 0-2.555-1.266-2.555-2.794v-.02c0-1.528 1.078-2.774 2.555-2.774.878 0 1.576.381 2.254 1.005l1.238-1.448c-.818-.824-1.816-1.367-3.492-1.367-2.714 0-4.61 2.07-4.61 4.604v.02c0 2.553 1.936 4.584 4.53 4.584 1.696 0 2.714-.603 3.632-1.589zm8.28 1.428v-1.75H75.39V8.947h4.17V7.197h-4.17v-1.81h4.73V3.64h-6.666v8.906h6.725v.02z" fill="#F0B90B"/><path d="M29.997 27.64l-1.482-1.521c-1.125 1.065-2.156 1.73-3.769 1.73-2.513 0-4.332-2.13-4.332-4.756 0-2.626 1.82-4.719 4.332-4.719 1.5 0 2.625.666 3.676 1.655l1.481-1.731c-1.256-1.218-2.72-2.074-5.138-2.074-3.976 0-6.77 3.101-6.77 6.907 0 3.844 2.85 6.87 6.676 6.87 2.457 0 3.957-.914 5.326-2.36zM45.2 23.093c0-3.768-2.812-6.87-6.844-6.87s-6.883 3.14-6.883 6.908c0 3.768 2.813 6.87 6.845 6.87s6.883-3.14 6.883-6.908zm-2.419.038c0 2.607-1.819 4.719-4.425 4.719-2.607 0-4.463-2.15-4.463-4.757 0-2.607 1.819-4.719 4.425-4.719 2.607 0 4.464 2.15 4.464 4.757zM57.157 25.662l-7.032-9.21h-2.138v13.32h2.27v-9.476l7.238 9.476h1.932v-13.32h-2.27v9.21zM71.973 25.662l-7.032-9.21h-2.138v13.32h2.269v-9.476l7.238 9.476h1.932v-13.32h-2.27v9.21zM87.35 16.452h-9.732v13.32h9.826v-2.093h-7.52V24.1h6.583v-2.093h-6.582v-3.463h7.425v-2.093zM101.601 27.64l-1.481-1.521c-1.125 1.065-2.157 1.73-3.77 1.73-2.512 0-4.33-2.13-4.33-4.756 0-2.626 1.818-4.719 4.33-4.719 1.501 0 2.626.666 3.676 1.655l1.482-1.731c-1.257-1.218-2.72-2.074-5.139-2.074-3.975 0-6.77 3.101-6.77 6.907 0 3.844 2.851 6.87 6.676 6.87 2.458 0 3.958-.914 5.326-2.36zM109.577 18.622h4.163v-2.17h-10.652v2.17h4.163v11.15h2.326v-11.15z" fill="#fff"/></g><defs><clipPath id="prefix__clip0_5907_21591"><path fill="#fff" d="M0 0h114v30H0z"/></clipPath></defs></svg>