<svg width="57" height="63" fill="none" xmlns="http://www.w3.org/2000/svg"><path fill-rule="evenodd" clip-rule="evenodd" d="M23.895.302c-.433.182-.977.466-1.208.63-1.129.804-2.082 2.333-2.27 3.642-.09.63-.113.657-.796.889-5.507 1.872-10.237 6.78-11.937 12.388-.81 2.672-.885 13.415-.885 13.415l-.063 9.844L0 47.867l.075 8.15 18.065.072c.66 2.982 2.647 5.595 5.706 6.392 1.052.274 3.005.276 4.045.005 3.148-.82 4.964-3.39 5.733-6.397l18.06-.073.074-8.156-6.754-6.748V36.85h-2.25v3.627H16.88v2.11h26.652l4.427 4.536L3.8 47.12l4.433-4.533h6.395v-2.11H9.004v-9.403s.026-10.614.788-12.892c2.014-6.026 7.372-10.562 13.536-11.46 1.662-.243 5.116-.1 6.489.267 3.726.998 6.707 2.821 8.89 5.438.483.578.929 1.05.992 1.05.47 0 1.272-.855 1.657-1.139-2.287-2.91-5.087-5.24-8.568-6.608l-1.354-.533-.093-.637c-.24-1.637-1.475-3.28-3.053-4.057-.817-.402-1.08-.46-2.264-.494-1.144-.032-1.455.01-2.129.293zm3.486 2.078c.887.43 1.517 1.259 1.834 2.168H22.544c.315-.906.942-1.729 1.82-2.164.819-.405 2.185-.406 3.017-.004zm22.123 51.597H2.254v-4.64h47.25v4.64zM28.298 60.07c-1.59.753-3.865.68-5.231-.165-1.47-.91-2.263-2.227-2.796-3.817h11.22c-.605 1.717-1.48 3.172-3.193 3.982z" fill="#0ED3DF"/><path d="M40.2 31.304l4.191-4.672V25h-6.336v1.632h4l-4.176 4.672v1.632h6.784v-1.632H40.2zM49.663 19.84l6.696-7.776V10h-9.192v2.064h6.408L46.88 19.84v2.064h9.864V19.84h-7.08z" fill="#0ED3DF"/></svg>