<svg width="30" height="27" viewBox="0 0 30 27" fill="none" xmlns="http://www.w3.org/2000/svg">
<path fill-rule="evenodd" clip-rule="evenodd" d="M0 4.5885C0 2.59735 1.59318 0.9832 3.55848 0.9832H18.5041V2.42532H3.55848C2.4973 2.42532 1.61693 3.20968 1.45137 4.2374C1.86371 4.00201 2.33977 3.86772 2.84678 3.86772H18.5041C20.0763 3.86772 21.3509 5.15904 21.3509 6.75196V13.3883C20.9813 12.7685 20.4971 12.2251 19.9275 11.7872V6.75196C19.9275 5.9555 19.2902 5.30984 18.5041 5.30984H2.84678C2.06067 5.30984 1.42339 5.9555 1.42339 6.75196V16.8468C1.42339 17.6433 2.06067 18.2889 2.84678 18.2889H11.1493C11.3451 18.8104 11.6153 19.2954 11.947 19.731H2.84678C1.27455 19.731 0 18.4397 0 16.8468V4.5885Z" fill="#DC1A60"/>
<path fill-rule="evenodd" clip-rule="evenodd" d="M16.4688 20.8495C18.9852 20.8495 21.0251 18.8096 21.0251 16.2932C21.0251 13.7768 18.9852 11.7369 16.4688 11.7369C13.9525 11.7369 11.9125 13.7768 11.9125 16.2932C11.9125 18.8096 13.9525 20.8495 16.4688 20.8495ZM16.4688 21.9732C19.6058 21.9732 22.1489 19.4302 22.1489 16.2932C22.1489 13.1562 19.6058 10.6131 16.4688 10.6131C13.3318 10.6131 10.7888 13.1562 10.7888 16.2932C10.7888 19.4302 13.3318 21.9732 16.4688 21.9732Z" fill="#DC1A60"/>
<rect x="18.1629" y="13.9742" width="0.886828" height="5.67529" rx="0.443414" transform="rotate(45 18.1629 13.9742)" fill="#DC1A60"/>
<rect x="18.789" y="17.987" width="0.886828" height="5.67529" rx="0.443414" transform="rotate(135 18.789 17.987)" fill="#DC1A60"/>
</svg>
