<svg width="26" height="24" viewBox="0 0 26 24" fill="none" xmlns="http://www.w3.org/2000/svg">
<path d="M25.1984 17.4878L24.0961 11.3066L19.2929 15.3618L21.4451 16.1361C19.8572 19.4957 16.4582 21.7135 12.6918 21.7135C8.64979 21.7135 4.98836 19.1544 3.58415 15.3487C3.43979 14.9418 2.98047 14.7319 2.57365 14.8762C2.16682 15.0206 1.95685 15.4799 2.1012 15.8867C3.72851 20.3093 7.9805 23.2883 12.6918 23.2883C17.1144 23.2883 21.1039 20.6505 22.9149 16.6741L25.1984 17.5009V17.4878Z" fill="#0ED3DF"/>
<path d="M3.96466 7.86711C5.5526 4.50751 8.95156 2.28965 12.7049 2.28965C16.7469 2.28965 20.4083 4.84872 21.8125 8.65451C21.9569 9.06134 22.4162 9.27131 22.823 9.12696C23.2298 8.9826 23.4398 8.52328 23.2955 8.11645C21.6682 3.68074 17.4162 0.714844 12.7049 0.714844C8.28227 0.714844 4.30587 3.35265 2.48172 7.32905L0.198242 6.50227L1.30061 12.6834L6.10378 8.62827L3.95154 7.85398L3.96466 7.86711Z" fill="#0ED3DF"/>
<path d="M12.6916 19.1397C13.1247 19.1397 13.479 18.7854 13.479 18.3523V17.3156C14.3058 17.145 15.0276 16.7513 15.5 16.1607C15.9856 15.557 16.1824 14.7959 16.0774 13.9822C15.8675 12.4468 14.3189 11.5413 13.0459 11.2394C12.2323 11.0426 11.3005 10.5045 11.2086 9.80898C11.1561 9.41527 11.248 9.07407 11.4711 8.79847C11.7729 8.44414 12.2716 8.20792 12.8228 8.18167C13.7283 8.11606 14.6601 8.82472 14.6732 8.82472C15.0144 9.08719 15.5131 9.02157 15.7756 8.68036C16.0381 8.33915 15.9724 7.84046 15.6312 7.578C15.5131 7.48613 14.6207 6.85621 13.479 6.67248V5.6751C13.479 5.24203 13.1247 4.8877 12.6916 4.8877C12.2585 4.8877 11.9042 5.24203 11.9042 5.6751V6.77747C11.248 6.9612 10.6706 7.31553 10.2506 7.81422C9.73881 8.44414 9.51572 9.2053 9.63383 10.0452C9.8438 11.5806 11.3924 12.4862 12.6653 12.788C13.479 12.9848 14.4108 13.5229 14.5026 14.2184C14.5551 14.599 14.4764 14.9271 14.2533 15.1896C13.9646 15.557 13.4396 15.7933 12.8491 15.8457C11.9042 15.8982 10.933 15.1371 10.6443 14.8352C10.3425 14.5203 9.8438 14.5072 9.52884 14.809C9.21388 15.1108 9.20075 15.6095 9.50259 15.9245C9.55509 15.977 10.5393 16.9744 11.8911 17.3156V18.3786C11.8911 18.8116 12.2454 19.166 12.6785 19.166L12.6916 19.1397Z" fill="#0ED3DF"/>
</svg>
