<svg width="30" height="27" viewBox="0 0 30 27" fill="none" xmlns="http://www.w3.org/2000/svg">
<path fill-rule="evenodd" clip-rule="evenodd" d="M16.4686 20.1191C18.985 20.1191 21.0249 18.0791 21.0249 15.5628C21.0249 13.0464 18.985 11.0065 16.4686 11.0065C13.9522 11.0065 11.9123 13.0464 11.9123 15.5628C11.9123 18.0791 13.9522 20.1191 16.4686 20.1191ZM16.4686 21.2428C19.6056 21.2428 22.1486 18.6997 22.1486 15.5628C22.1486 12.4258 19.6056 9.88272 16.4686 9.88272C13.3316 9.88272 10.7886 12.4258 10.7886 15.5628C10.7886 18.6997 13.3316 21.2428 16.4686 21.2428Z" fill="#A851FF"/>
<path fill-rule="evenodd" clip-rule="evenodd" d="M0 3.85796C0 1.8668 1.59318 0.252655 3.55848 0.252655H18.5041V1.69478H3.55848C2.4973 1.69478 1.61693 2.47914 1.45137 3.50685C1.86371 3.27147 2.33977 3.13718 2.84678 3.13718H18.5041C20.0763 3.13718 21.3509 4.42849 21.3509 6.02142V12.9056C20.9962 12.2438 20.5101 11.6631 19.9275 11.1983V6.02142C19.9275 5.22496 19.2902 4.5793 18.5041 4.5793H2.84678C2.06067 4.5793 1.42339 5.22496 1.42339 6.02142V16.1163C1.42339 16.9127 2.06067 17.5584 2.84678 17.5584H11.3981C11.6105 18.0843 11.9019 18.5699 12.2576 19.0005H2.84678C1.27455 19.0005 0 17.7092 0 16.1163V3.85796Z" fill="#A851FF"/>
<path fill-rule="evenodd" clip-rule="evenodd" d="M16.6617 12.5927C16.972 12.5927 17.2236 12.8442 17.2236 13.1545V16.0807L15.2234 18.0809C15.004 18.3003 14.6482 18.3003 14.4288 18.0809C14.2094 17.8614 14.2094 17.5057 14.4288 17.2863L16.0998 15.6152V13.1545C16.0998 12.8442 16.3514 12.5927 16.6617 12.5927Z" fill="#A851FF"/>
</svg>
