<svg width="30" height="27" viewBox="0 0 30 27" fill="none" xmlns="http://www.w3.org/2000/svg">
    <g clip-path="url(#clip0_8436_22766)">
        <mask id="mask0_8436_22766" style="mask-type:luminance" maskUnits="userSpaceOnUse" x="0" y="0" width="33" height="27">
            <path d="M32.765 0H0.210938V27H32.765V0Z" fill="white"/>
        </mask>
        <g mask="url(#mask0_8436_22766)">
            <path fill-rule="evenodd" clip-rule="evenodd" d="M0.148438 6.97695C0.148438 5.01622 1.72905 3.42676 3.67884 3.42676H18.5065V4.84683H3.67884C2.50897 4.84683 1.5606 5.80055 1.5606 6.97695V18.3376H0.148438V6.97695Z" fill="#F5CC3A"/>
            <path fill-rule="evenodd" clip-rule="evenodd" d="M2.97276 7.68671H18.5065C19.2865 7.68671 19.9187 8.3225 19.9187 9.10678V11.7637H21.3309V9.10678C21.3309 7.53821 20.0664 6.2666 18.5065 6.2666H2.97276C1.41293 6.2666 0.148438 7.53821 0.148438 9.10678V19.0473C0.148438 20.6159 1.41293 21.8875 2.97276 21.8875H18.5065C20.0664 21.8875 21.3309 20.6159 21.3309 19.0473V16.2074H19.9187V19.0473C19.9187 19.8316 19.2865 20.4674 18.5065 20.4674H2.97276C2.19285 20.4674 1.5606 19.8316 1.5606 19.0473V9.10678C1.5606 8.3225 2.19285 7.68671 2.97276 7.68671Z" fill="#F5CC3A"/>
            <path d="M29.5455 14.4685C29.7632 14.2524 29.7632 13.9021 29.5455 13.686L25.998 10.165C25.7803 9.94891 25.4274 9.94891 25.2097 10.165C24.992 10.381 24.992 10.7314 25.2097 10.9474L28.363 14.0773L25.2097 17.2071C24.992 17.4231 24.992 17.7735 25.2097 17.9895C25.4274 18.2056 25.7803 18.2056 25.998 17.9895L29.5455 14.4685ZM16.4844 14.6305H29.1513V13.524H16.4844V14.6305Z" fill="#F5CC3A"/>
        </g>
    </g>
    <defs>
        <clipPath id="clip0_8436_22766">
            <rect width="30" height="27" fill="white"/>
        </clipPath>
    </defs>
</svg>
