<svg width="30" height="27" viewBox="0 0 30 27" fill="none" xmlns="http://www.w3.org/2000/svg">
<path fill-rule="evenodd" clip-rule="evenodd" d="M2.8479 5.23809H18.5113C19.2978 5.23809 19.9353 5.88401 19.9353 6.68078V9.37891L21.3592 9.37891V6.68078C21.3592 5.08723 20.0842 3.79541 18.5113 3.79541H2.8479C1.27505 3.79541 0 5.08723 0 6.68078V16.7796C0 18.3731 1.27505 19.6649 2.8479 19.6649H18.5113C20.0842 19.6649 21.3592 18.3731 21.3592 16.7796V13.8934H19.9353V16.7796C19.9353 17.5763 19.2977 18.2222 18.5113 18.2222H2.8479C2.06147 18.2222 1.42395 17.5763 1.42395 16.7796V6.68078C1.42395 5.88401 2.06147 5.23809 2.8479 5.23809Z" fill="#08987D"/>
<path fill-rule="evenodd" clip-rule="evenodd" d="M0 4.51699C0 2.52506 1.59381 0.910278 3.55987 0.910278H18.5113V2.35296H3.55987C2.38023 2.35296 1.42395 3.32183 1.42395 4.51699V16.0585H0V4.51699Z" fill="#08987D"/>
<path fill-rule="evenodd" clip-rule="evenodd" d="M16.9832 15.5174L13.4061 11.9403C13.1866 11.7208 13.1866 11.3649 13.4061 11.1454L16.9832 7.5683C17.2027 7.34879 17.5586 7.34879 17.7781 7.5683C17.9976 7.78781 17.9976 8.1437 17.7781 8.36321L15.1605 10.9808L26.5762 10.9808L26.5762 12.1049L15.1605 12.1049L17.7781 14.7225C17.9976 14.942 17.9976 15.2979 17.7781 15.5174C17.5586 15.7369 17.2027 15.7369 16.9832 15.5174Z" fill="#08987D"/>
</svg>
