<svg width="24" height="24" fill="none" xmlns="http://www.w3.org/2000/svg"><path d="M16.829 3.518a9.741 9.741 0 00-2.24-.93v-.8C14.59.804 13.787 0 12.802 0H11.21C10.224 0 9.42.804 9.42 1.788v.8a9.53 9.53 0 00-2.24.93l-.568-.563a1.78 1.78 0 00-1.264-.525 1.78 1.78 0 00-1.264.525L2.957 4.082a1.78 1.78 0 00-.524 1.264c0 .475.186.926.524 1.264l.564.564a9.742 9.742 0 00-.931 2.239h-.8c-.984 0-1.788.803-1.788 1.788v1.593c0 .985.804 1.788 1.789 1.788h.799a9.53 9.53 0 00.93 2.24l-.563.568a1.792 1.792 0 000 2.528l1.127 1.127a1.78 1.78 0 001.264.525 1.78 1.78 0 001.264-.525l.564-.563a9.741 9.741 0 002.24.93v.8c0 .984.803 1.788 1.788 1.788h1.592c.985 0 1.789-.804 1.789-1.788v-.8a9.53 9.53 0 002.239-.93l.563.563a1.78 1.78 0 001.265.525 1.78 1.78 0 001.264-.525l1.127-1.127a1.792 1.792 0 000-2.528l-.564-.564a9.741 9.741 0 00.931-2.239h.8c.984 0 1.787-.803 1.787-1.788v-1.593c0-.985-.803-1.788-1.788-1.788h-.799a9.53 9.53 0 00-.93-2.24l.563-.563a1.792 1.792 0 000-2.528L19.916 2.96a1.78 1.78 0 00-1.264-.525 1.78 1.78 0 00-1.265.525l-.558.558zm1.754.622a.104.104 0 01.152 0l1.127 1.127a.104.104 0 010 .152l-1.034 1.034a.839.839 0 00-.103 1.064 7.944 7.944 0 011.2 2.9.84.84 0 00.824.677h1.465c.059 0 .108.049.108.107v1.593a.109.109 0 01-.108.108h-1.465a.84.84 0 00-.823.676 7.994 7.994 0 01-1.2 2.9.839.839 0 00.102 1.064l1.034 1.034a.104.104 0 010 .152l-1.127 1.127c-.04.044-.108.039-.152 0L17.55 18.82a.839.839 0 00-1.063-.103 7.98 7.98 0 01-2.9 1.2.84.84 0 00-.677.823v1.466a.109.109 0 01-.108.107H11.21a.109.109 0 01-.108-.107V20.74a.84.84 0 00-.676-.823 8.03 8.03 0 01-2.901-1.2.839.839 0 00-1.058.103l-1.034 1.034a.104.104 0 01-.152 0l-1.127-1.127a.104.104 0 010-.152l1.034-1.034a.839.839 0 00.103-1.063 7.98 7.98 0 01-1.201-2.901.84.84 0 00-.823-.676H1.79a.109.109 0 01-.108-.108V11.2c0-.059.05-.107.108-.107h1.465a.84.84 0 00.823-.677 8.03 8.03 0 011.2-2.9.845.845 0 00-.102-1.064L4.143 5.42a.103.103 0 01-.03-.078.1.1 0 01.03-.074L5.27 4.14a.104.104 0 01.152 0l1.034 1.034a.839.839 0 001.063.103 7.98 7.98 0 012.9-1.2.84.84 0 00.677-.823V1.788c0-.058.049-.107.108-.107h1.592c.059 0 .108.049.108.107v1.466a.84.84 0 00.676.823 8.03 8.03 0 012.901 1.2c.333.22.78.182 1.063-.103l1.04-1.034z" fill="#0ED3DF"/><path d="M12.002 7.12c-2.69 0-4.88 2.19-4.88 4.88s2.19 4.88 4.88 4.88 4.88-2.19 4.88-4.88-2.19-4.88-4.88-4.88zm0 8.08a3.204 3.204 0 01-3.2-3.2c0-1.764 1.436-3.2 3.2-3.2 1.764 0 3.2 1.436 3.2 3.2 0 1.764-1.436 3.2-3.2 3.2z" fill="#0ED3DF"/></svg>