<svg width="144" height="144" fill="none" xmlns="http://www.w3.org/2000/svg"><path fill-rule="evenodd" clip-rule="evenodd" d="M63.244 70.38c-2.625-1.236-4.823-2.994-6.372-5.098-1.647-2.154-2.595-4.683-2.595-7.388 0-2.042.54-3.984 1.513-5.74-11.662-9.972 8.839-17.53 9.02-7.243a21.612 21.612 0 017.444-1.298c2.712 0 5.283.486 7.585 1.355.107-10.399 20.81-2.766 8.931 7.262.063.181.105.353.127.515a11.896 11.896 0 011.221 5.23c0 5.29-3.557 9.912-8.852 12.405.568.32 1.116.671 1.643 1.05 1.887-1.775 12.67-11.507 16.74-6.273 4.465 5.745 0 11.49-8.933 14.363-.514.165-1.008.288-1.483.372.574 1.69.885 3.497.885 5.373 0 1.74-.267 3.421-.765 5.005 6.674 1.486 10.302 5.473 7.981 11.021-2.187 5.229-12.084 1.044-16.281-1.023a18.284 18.284 0 01-8.798 2.232c-3.22 0-6.241-.821-8.85-2.26-4.164 2.056-14.141 6.304-16.339 1.051-2.333-5.576 1.345-9.576 8.083-11.043a16.676 16.676 0 01-.758-4.983c0-1.87.309-3.67.88-5.356a11.174 11.174 0 01-1.587-.39c-8.932-2.872-13.398-8.617-8.932-14.362 4.104-5.28 15.04 4.669 16.787 6.317.545-.395 1.114-.76 1.705-1.094zm9.431 6.136l-.121.001h-.122v.002c-6.266.146-11.109 5.915-9.706 11.683 1.401 5.759 4.183 10.098 9.706 10.222v.003l.122-.001h.121v-.002c5.523-.124 8.305-4.463 9.706-10.222 1.403-5.768-3.44-11.537-9.706-11.683v-.003zM56.461 48.997c.905.886 2.164.653 3.477-.631 1.312-1.285 2.18-3.136 1.275-4.021-.904-.886-3.248-1.097-4.56.188-1.312 1.284-1.096 3.578-.192 4.464zm28.11-.631c1.312 1.284 2.571 1.517 3.476.631.904-.886 1.12-3.18-.192-4.465-1.312-1.284-3.656-1.073-4.56-.187-.905.886-.037 2.736 1.275 4.02zM65.84 58.989c1.03 0 1.865-.818 1.865-1.826s-.835-1.826-1.865-1.826-1.865.817-1.865 1.826c0 1.008.835 1.826 1.865 1.826zm15.292-1.826c0 1.008-.835 1.826-1.865 1.826s-1.864-.818-1.864-1.826.834-1.826 1.864-1.826c1.03 0 1.865.817 1.865 1.826zm-8.205 12.78c3.296 0 5.968-2.615 5.968-5.842 0-3.227-2.672-5.843-5.968-5.843s-5.968 2.616-5.968 5.843 2.672 5.843 5.968 5.843zm2.238-9.532c0 .933-1.002 1.69-2.238 1.69s-2.238-.757-2.238-1.69c0-.934 1.002-1.692 2.238-1.692s2.238.758 2.238 1.691z" fill="#7D9BB5"/></svg>