<svg width="22" height="22" fill="none" xmlns="http://www.w3.org/2000/svg"><path fill-rule="evenodd" clip-rule="evenodd" d="M5.321 10.742c.054-2.382.842-4.505 2.058-5.94 1.578-2.05 3.924-3.349 6.544-3.349A7.94 7.94 0 0118.332 2.8a10.96 10.96 0 00-7.29-2.8H11C4.925 0 0 4.925 0 11c0 5.9 4.644 10.715 10.476 10.989a10.961 10.961 0 007.855-2.787 7.938 7.938 0 01-4.408 1.346c-2.62 0-4.966-1.299-6.544-3.348-1.216-1.436-2.004-3.558-2.058-5.94v-.518zm13.01 8.459A10.973 10.973 0 0022 11a10.97 10.97 0 00-3.669-8.2c-2.821-1.375-5.451-.413-6.321.187 2.772.609 4.865 3.959 4.865 8.012 0 4.053-2.094 7.404-4.865 8.012.87.6 3.5 1.563 6.321.189z" fill="#0ED3DF"/></svg>