<svg width="143" height="91" fill="none" xmlns="http://www.w3.org/2000/svg"><path opacity=".2" d="M121.817 73.87c11.53 0 20.877-9.107 20.877-20.34 0-11.235-9.347-20.342-20.877-20.342-11.529 0-20.876 9.107-20.876 20.341 0 11.234 9.347 20.342 20.876 20.342z" fill="#B4C5D5"/><path d="M74.712 91c25.129 0 45.5-20.371 45.5-45.5S99.841 0 74.712 0c-25.13 0-45.5 20.371-45.5 45.5S49.582 91 74.712 91z" fill="#404E59" fill-opacity=".35"/><path d="M28.676 65.306c15.669 0 28.37-12.702 28.37-28.37 0-15.67-12.701-28.371-28.37-28.371-15.668 0-28.37 12.702-28.37 28.37 0 15.669 12.702 28.37 28.37 28.37z" fill="#636F7A" fill-opacity=".2"/></svg>