<svg width="36" height="36" fill="none" xmlns="http://www.w3.org/2000/svg"><rect width="36" height="36" rx="18" fill="#EEE"/><path d="M9.336 15.763c.255.543.894 1.629.894 1.629l7.313-12.103-7.121 4.982c-.415.287-.767.67-1.022 1.117-.67 1.373-.67 2.97-.064 4.375z" fill="url(#prefix__paint0_linear_3241_13321)"/><path d="M6.462 19.723a8.153 8.153 0 003.193 5.907l7.888 5.493s-4.95-7.121-9.101-14.21a7.059 7.059 0 01-.83-2.427 3.473 3.473 0 010-1.15c-.096.192-.32.607-.32.607a10.188 10.188 0 00-.862 2.746 13.746 13.746 0 00.032 3.034z" fill="#A0A8D4"/><path d="M26.58 20.68c-.256-.542-.895-1.628-.895-1.628l-7.312 12.07 7.153-4.949c.415-.287.766-.67 1.021-1.117.64-1.374.671-2.97.032-4.375z" fill="url(#prefix__paint1_linear_3241_13321)"/><path d="M29.485 16.69a8.153 8.153 0 00-3.193-5.908l-7.887-5.493s4.95 7.121 9.1 14.21a7.06 7.06 0 01.83 2.427c.065.383.065.767 0 1.15.097-.192.32-.607.32-.607.415-.862.703-1.788.862-2.714a19.618 19.618 0 00-.032-3.066z" fill="#A0A8D4"/><path d="M9.4 11.388c.255-.447.575-.83 1.022-1.117l7.12-4.982-7.312 12.07s-.639-1.085-.894-1.628a5.163 5.163 0 01.064-4.343zm-2.938 8.335a8.153 8.153 0 003.193 5.907l7.888 5.493s-4.95-7.121-9.101-14.21a7.059 7.059 0 01-.83-2.427 3.473 3.473 0 010-1.15c-.096.192-.32.607-.32.607a10.188 10.188 0 00-.862 2.746 13.746 13.746 0 00.032 3.034zm20.117.958c-.255-.543-.894-1.629-.894-1.629l-7.312 12.07 7.153-4.949a3.43 3.43 0 001.021-1.117c.64-1.374.671-2.97.032-4.375zm2.874-3.96a8.154 8.154 0 00-3.193-5.907l-7.855-5.525s4.95 7.121 9.1 14.21c.416.735.703 1.565.83 2.427.065.383.065.767 0 1.15.096-.192.32-.607.32-.607.415-.862.703-1.788.862-2.714.064-1.054.064-2.044-.064-3.034z" fill="url(#prefix__paint2_linear_3241_13321)"/><defs><linearGradient id="prefix__paint0_linear_3241_13321" x1="17.875" y1="5.592" x2="8.493" y2="15.763" gradientUnits="userSpaceOnUse"><stop offset=".58" stop-color="#A0A8D4"/><stop offset=".73" stop-color="#8791C7"/><stop offset=".91" stop-color="#6470B4"/></linearGradient><linearGradient id="prefix__paint1_linear_3241_13321" x1="18.072" y1="30.841" x2="27.451" y2="20.677" gradientUnits="userSpaceOnUse"><stop offset=".58" stop-color="#A0A8D4"/><stop offset=".73" stop-color="#8791C7"/><stop offset=".91" stop-color="#6470B4"/></linearGradient><linearGradient id="prefix__paint2_linear_3241_13321" x1="17.965" y1="5.162" x2="17.965" y2="31.218" gradientUnits="userSpaceOnUse"><stop stop-color="#513EFF"/><stop offset=".18" stop-color="#5157FF"/><stop offset=".57" stop-color="#5298FF"/><stop offset="1" stop-color="#52E5FF"/></linearGradient></defs></svg>