<svg width="20" height="20" viewBox="0 0 20 15" fill="none" xmlns="http://www.w3.org/2000/svg"><path d="M10 .001c-1.64-.02-3.263.334-4.746 1.035a10.075 10.075 0 00-3.041 2.282A10.589 10.589 0 00.1 6.685l-.1.316.105.316a10.662 10.662 0 002.109 3.367c.86.947 1.891 1.722 3.04 2.282A10.785 10.785 0 0010 14.001c1.64.02 3.263-.333 4.746-1.035a10.074 10.074 0 003.041-2.282A10.5 10.5 0 0019.9 7.317l.1-.316-.105-.316A10.423 10.423 0 0010 .001zm0 12a8.308 8.308 0 01-7.883-5 8.307 8.307 0 017.883-5 8.309 8.309 0 017.883 5 8.3 8.3 0 01-7.883 5zm0-8a3.02 3.02 0 102.115.884A2.976 2.976 0 0010 4.001z" fill="#0ED3DF"/></svg>