<svg width="20" height="20" viewBox="0 0 20 10" fill="none" xmlns="http://www.w3.org/2000/svg"><path fill-rule="evenodd" clip-rule="evenodd" d="M0 0h2.116l.001.001a8.308 8.308 0 007.883 5 8.3 8.3 0 007.883-5V0H20v.002l-.1.315a10.5 10.5 0 01-2.112 3.367c-.058.064-.116.127-.176.189l1.11 1.585a1 1 0 11-1.639 1.147l-.997-1.425c-.425.295-.872.559-1.34.786-.436.207-.886.384-1.344.53l.376 1.402a1 1 0 01-1.932.518l-.4-1.494c-.478.059-.961.085-1.445.08-.484.005-.967-.021-1.444-.08l-.4 1.494a1 1 0 01-1.932-.518l.375-1.402a10.788 10.788 0 01-1.345-.53c-.44-.214-.862-.46-1.265-.735L2.854 6.584a1 1 0 11-1.532-1.286l1.136-1.354a10.095 10.095 0 01-.244-.26A10.662 10.662 0 01.104.317L0 .002V0z" fill="#0ED3DF"/></svg>