<svg width="56" height="56" fill="none" xmlns="http://www.w3.org/2000/svg"><path fill-rule="evenodd" clip-rule="evenodd" d="M29.209 35.089v16.36c0 .868-.546 1.284-1.22.918l-9.254-5.075a2.789 2.789 0 01-1.226-2.248V29.058c.135.109.279.203.43.288l11.27 5.743z" fill="#425CC7"/><mask id="prefix__a" style="mask-type:alpha" maskUnits="userSpaceOnUse" x="17" y="3" width="22" height="25"><path d="M17.5 3.5h20.632v23.87H17.5V3.5z" fill="#fff"/></mask><g mask="url(#prefix__a)"><path fill-rule="evenodd" clip-rule="evenodd" d="M18.535 27.27l18.578-9.527a2.19 2.19 0 001.02-1.802V4.362c0-.717-.46-1.047-1.02-.761l-17.12 8.78c-1.767.948-2.585 1.393-2.485 3.395v10.732c0 .682.467 1.05 1.027.761z" fill="#005CB9"/></g><path fill-rule="evenodd" clip-rule="evenodd" d="M18.534 14.02l18.578 9.525a2.2 2.2 0 011.02 1.81v11.571c0 .718-.46 1.055-1.02.769l-18.578-9.528a2.197 2.197 0 01-1.026-1.807V14.786c0-.709.466-1.055 1.026-.767z" fill="#3CB4E5"/><path fill-rule="evenodd" clip-rule="evenodd" d="M18.534 27.27l12.922-6.625-12.922-6.625a.65.65 0 00-.717 0 2.548 2.548 0 00-.31 1.119v11.22c.008.247.059.489.152.719a.61.61 0 00.875.193z" fill="#00A0DF"/></svg>