<svg width="19" height="19" viewBox="0 0 18 19" fill="none" xmlns="http://www.w3.org/2000/svg"><path d="M9.527 18.47c1.24 0 2.36-.157 3.363-.472v-1.923c-.416.143-.9.25-1.45.323-.545.078-1.103.118-1.676.118-1.533 0-2.865-.28-3.996-.838a6.206 6.206 0 01-2.622-2.439c-.615-1.06-.923-2.327-.923-3.802v-.022c0-1.06.168-2.027.505-2.9a6.536 6.536 0 011.428-2.267 6.298 6.298 0 012.202-1.472c.86-.343 1.805-.515 2.836-.515 1.332 0 2.489.265 3.47.795a5.454 5.454 0 012.267 2.234c.537.96.805 2.098.805 3.416v.022c0 .988-.132 1.768-.397 2.341-.265.573-.623.86-1.074.86a.838.838 0 01-.73-.398c-.18-.272-.27-.655-.27-1.15V5.216h-2.47v1.332h-.14a2.44 2.44 0 00-.999-1.16c-.45-.28-.974-.42-1.568-.42-.702 0-1.325.187-1.87.56-.544.372-.973.891-1.288 1.557-.308.666-.462 1.44-.462 2.32v.011c0 .924.154 1.733.462 2.428.315.687.748 1.224 1.3 1.611.558.38 1.203.57 1.933.57.652 0 1.21-.151 1.676-.452.465-.3.827-.744 1.085-1.332h.14l.075.161c.2.495.54.885 1.02 1.171.487.287 1.064.43 1.73.43.823 0 1.54-.222 2.148-.666.609-.444 1.082-1.074 1.418-1.89.337-.817.505-1.787.505-2.912v-.021c0-1.633-.365-3.062-1.096-4.286-.73-1.225-1.75-2.174-3.061-2.847C12.499.7 10.974.36 9.227.36c-1.361 0-2.607.218-3.739.655a8.334 8.334 0 00-2.922 1.847A8.43 8.43 0 00.665 5.72C.221 6.823-.001 8.044-.001 9.383v.021c0 1.375.23 2.621.688 3.739A8.07 8.07 0 002.63 16c.845.795 1.851 1.404 3.018 1.826 1.168.43 2.46.645 3.878.645zm-.644-6.66c-.322 0-.605-.093-.849-.279-.236-.186-.419-.45-.548-.795-.129-.35-.193-.766-.193-1.246v-.01c0-.487.064-.903.193-1.247.13-.343.312-.605.548-.784.244-.186.53-.28.86-.28.487 0 .877.205 1.17.613.294.408.44.97.44 1.687v.021c0 .716-.146 1.282-.44 1.697a1.36 1.36 0 01-1.181.623z" fill="#0ED3DF"/></svg>