<svg width="477" height="255" fill="none" xmlns="http://www.w3.org/2000/svg"><g opacity=".9"><path d="M321.163 70.98c-4.391 2.884-9.484 3.4-13.165 1.716-1.191-.545-2.414-1.982-3.797-3.286-1.384-1.304-.458-11.597 5.671-15.622 6.128-4.025 13.622-3.706 16.256.385.685 1.656 1.644 3.88 1.835 5.238.158 4.092-2.348 8.645-6.8 11.57z" fill="#5AB5ED"/><ellipse cx="314.321" cy="60.536" rx="10.284" ry="13.429" transform="rotate(56.704 314.321 60.536)" fill="#D7EFF9"/><path d="M311.746 61.397l-1.79-3.347-2.24 2.82a5.001 5.001 0 00-.801 4.77l.428 1.214 4.403-5.457z" fill="#425CC7"/><path d="M310.957 59.228l-1.001-1.178 1.79 3.347.99 1.066-1.779-3.235z" fill="#314494"/><path d="M321.957 53.778l-.433-.9-3.541 2.734 1.323 2.743 2.561-3.56a.999.999 0 00.09-1.017z" fill="#0050A1"/><path d="M314.56 58.603l4.746-.248-.72-1.5-4.499-.836.473 2.584z" fill="#004387"/><path d="M311.948 55.49l1.648-2.008 7.928-.604-2.909 4.04-5.86.205c-.86.03-1.354-.969-.807-1.634z" fill="#005CB9"/><path d="M316.594 58.459l-.913-1.413 1.275 2.297.685 1.167-1.047-2.051z" fill="#2F8CB3"/><path d="M317.332 59.948l-.358-.651-3.184 4.204.011.016a1 1 0 001.609.003l1.849-2.495a1 1 0 00.073-1.077z" fill="#3296BF"/><path d="M309.053 67.006l3.683-4.543-.99-1.066-4.403 5.457.222.225a1 1 0 001.488-.073z" fill="#374DA6"/><path d="M310.961 56.693l2.637-3.21 3.377 5.814-3.184 4.205-2.947-5.716a1 1 0 01.117-1.093z" fill="#3CB4E5"/><path fill-rule="evenodd" clip-rule="evenodd" d="M315.647 57.01l-4.904.184a.993.993 0 01.213-.495l2.642-3.216 2.049 3.528z" fill="#00A0DF"/></g><path d="M321.361 212.219c-5.66 3.716-12.224 4.383-16.969 2.211-1.535-.703-3.111-2.554-4.894-4.235-1.784-1.681-.589-14.948 7.309-20.135 7.899-5.188 17.558-4.776 20.952.497.883 2.134 2.12 5 2.366 6.75.203 5.275-3.026 11.143-8.764 14.912z" fill="#5AB5ED"/><ellipse cx="312.542" cy="198.757" rx="13.255" ry="17.309" transform="rotate(56.704 312.542 198.757)" fill="#D7EFF9"/><path d="M309.224 199.866l-2.307-4.313-3.383 4.259a4.999 4.999 0 00-.801 4.77l.816 2.319 5.675-7.035z" fill="#425CC7"/><path d="M308.206 197.072l-1.29-1.519 2.308 4.313 1.275 1.375-2.293-4.169z" fill="#314494"/><path d="M322.459 190.202l-.633-1.315-4.563 3.523 1.704 3.536 3.402-4.726c.214-.298.248-.688.09-1.018z" fill="#0050A1"/><path d="M312.85 196.266l6.117-.32-.928-1.934-5.799-1.076.61 3.33z" fill="#004387"/><path d="M309.077 192.747l2.532-3.081 10.217-.779-3.749 5.208-8.192.286c-.861.03-1.354-.969-.808-1.634z" fill="#005CB9"/><path d="M315.471 196.08l-1.176-1.821 1.644 2.961.883 1.504-1.351-2.644z" fill="#2F8CB3"/><path d="M316.513 198.161l-.551-1.001-4.104 5.419.246.335a1 1 0 001.61.004l2.726-3.679c.233-.314.261-.735.073-1.078z" fill="#3296BF"/><path d="M305.549 207.347l4.949-6.106-1.275-1.375-5.675 7.034.513.52a1 1 0 001.488-.073z" fill="#374DA6"/><path d="M308.09 193.951l3.519-4.285 4.353 7.494-4.104 5.419-3.884-7.535a.999.999 0 01.116-1.093z" fill="#3CB4E5"/><path fill-rule="evenodd" clip-rule="evenodd" d="M314.25 194.214l-6.379.238c.024-.172.091-.338.202-.48l3.537-4.305 2.64 4.547z" fill="#00A0DF"/><g opacity=".4"><path d="M166.55 103.201c.314 4.477-1.429 8.488-4.223 10.528-.903.659-2.485.97-4.034 1.457-1.55.486-8.834-4.506-9.272-10.754-.439-6.248 2.93-11.699 7.079-11.952 1.52.181 3.578.395 4.67.82 3.115 1.593 5.461 5.362 5.78 9.901z" fill="#5AB5ED"/><ellipse cx="155.908" cy="103.936" rx="8.786" ry="11.473" transform="rotate(-4.017 155.908 103.936)" fill="#D7EFF9"/><path d="M155.473 106.214l-3.241-.063 1.012 2.474a5 5 0 003.769 3.031l.688.12-2.228-5.562z" fill="#425CC7"/><path d="M153.528 105.897l-1.296.254 3.241.063 1.209-.291-3.154-.026z" fill="#314494"/><path d="M153.977 95.417l-.766-.048.558 3.78 2.596.161-1.545-3.317a.999.999 0 00-.843-.576z" fill="#0050A1"/><path d="M154.568 102.951l1.797-3.64-1.418-.091-2.502 3.003 2.123.728z" fill="#004387"/><path d="M151.038 103.296l-.689-1.767 2.862-6.16 1.796 3.856-2.148 4.165c-.395.766-1.508.708-1.821-.094z" fill="#005CB9"/><path d="M155.31 101.375l-1.435.09 2.246.009 1.155-.023-1.966-.076z" fill="#2F8CB3"/><path d="M156.634 101.446l-.541-.004 1.803 4.129a.867.867 0 00.684-1.215l-1.042-2.32a1 1 0 00-.904-.59z" fill="#3296BF"/><path d="M158.468 110.414l-1.786-4.491-1.209.291 2.227 5.562.104-.028a1 1 0 00.664-1.334z" fill="#374DA6"/><path d="M151.606 104.745l-1.256-3.217 5.744-.087 1.802 4.129-5.394-.189a1 1 0 01-.896-.636z" fill="#3CB4E5"/><path fill-rule="evenodd" clip-rule="evenodd" d="M153.835 101.475l-1.899 3.706a1 1 0 01-.328-.429l-1.258-3.224 3.485-.053z" fill="#00A0DF"/></g><path d="M287.549 178.059c-16.073 22.033-39.881 33.844-60.851 32.378-6.781-.474-15.347-5.224-24.453-9.034-9.106-3.81-23.399-55.529-.965-86.28 22.434-30.752 59.437-42.884 79.708-27.81 6.352 6.797 15.076 15.853 18.483 22.103 8.24 19.6 4.376 46.303-11.922 68.643z" fill="#5AB5ED"/><ellipse cx="235.226" cy="139.794" rx="53.393" ry="69.721" transform="rotate(36.112 235.226 139.794)" fill="#D7EFF9"/><path d="M274.375 168.376c-10.301 14.12-23.999 23.69-37.801 27.764-13.801 4.073-27.677 2.645-38.4-5.178-10.723-7.823-16.319-20.6-16.654-34.986-.335-14.386 4.596-30.353 14.897-44.473 10.301-14.12 24-23.69 37.801-27.763 13.802-4.074 27.677-2.646 38.401 5.177 10.723 7.823 16.319 20.6 16.654 34.986.335 14.387-4.597 30.353-14.898 44.473z" stroke="#000" stroke-opacity=".1"/><path d="M224.459 148.824l-14.82-13.524-9.3 29.357a4.997 4.997 0 00.936 4.723l11.749 14.009 11.435-34.565z" fill="#425CC7"/><path d="M217.339 139.5l-7.7-4.2 14.82 13.524 6.757 3.378-13.877-12.702z" fill="#314494"/><path d="M261.973 94.876l-5.548-5.306-12.215 19.751 11.435 10.915 6.602-24.376c.095-.353-.01-.73-.274-.984z" fill="#0050A1"/><path d="M233.035 130.112l22.61-9.876-6.237-5.977-23.39 4.158 7.017 11.695z" fill="#004387"/><path d="M211.659 128.535l7.342-21.553 37.424-17.412-6.757 24.949-36.679 15.262c-.794.331-1.608-.431-1.33-1.246z" fill="#005CB9"/><path d="M242.651 125.694l-7.017-5.198 10.395 8.836 4.942 4.001-.182-.219-8.138-7.42z" fill="#2F8CB3"/><path d="M251 133.333l-4.971-4.261-7.796 26.249 4.842 3.158a1 1 0 001.507-.563l6.729-23.549a1 1 0 00-.311-1.034z" fill="#3296BF"/><path d="M220.134 185.447l11.082-33.245-6.758-3.378-11.435 34.565 5.743 2.65a1 1 0 001.368-.592z" fill="#374DA6"/><path d="M211.156 130.009l7.845-23.027 27.028 22.09-7.797 26.249-26.8-24.248a1.002 1.002 0 01-.276-1.064z" fill="#3CB4E5"/><path fill-rule="evenodd" clip-rule="evenodd" d="M235.401 120.386l-24.273 10.169a1.008 1.008 0 01.028-.546l7.845-23.027 16.4 13.404z" fill="#00A0DF"/><path fill-rule="evenodd" clip-rule="evenodd" d="M275.646 64.98l62.667-62.667.147-.146h132.587a2.668 2.668 0 110 1H338.874l-62.52 62.52-.708-.707zM168.192 44.313l24.833 24.833-.707.708-24.687-24.687H16.286a2.667 2.667 0 110-1h151.759l.147.146zM395.38 129.5H323v1h72.38a2.668 2.668 0 100-1zm-239.92 75.667H28.286a2.668 2.668 0 110-1h127.588l.146.146 31.5 31.5-.707.707-31.353-31.353zm158.186 46.687l.521-.521v.834h128.88a2.668 2.668 0 100-1H314.333l.021-.021-35-35-.708.708 35 35zM329 239.667a2.667 2.667 0 005.287.5h126.76a2.668 2.668 0 100-1h-126.76a2.668 2.668 0 00-5.287.5zm5.313-48.647l-17.166-17.166.707-.708 17.02 17.021h132.173a2.668 2.668 0 110 1H334.46l-.147-.147zm-180.959-42.5l-25.334 25.334-.146.146H-4.713a2.668 2.668 0 110-1H127.46l25.186-25.187.708.707zm-13.021-20.853a2.667 2.667 0 01-4.165 2.206L114.02 152.02l-.146.147H-18.713a2.668 2.668 0 110-1H113.46l22.001-22.002a2.667 2.667 0 114.872-1.498zM171.667 235a2.667 2.667 0 11-2.206 1.168l-20.001-20.001H17.286a2.668 2.668 0 110-1h132.588l.146.146 20.148 20.148a2.652 2.652 0 011.499-.461z" fill="url(#prefix__paint0_radial_5416_16066)"/><defs><radialGradient id="prefix__paint0_radial_5416_16066" cx="0" cy="0" r="1" gradientUnits="userSpaceOnUse" gradientTransform="matrix(-169.83356 4.1803 -7.05111 -286.46623 238 127)"><stop stop-color="#EFF7FF"/><stop offset="1" stop-color="#06F" stop-opacity="0"/></radialGradient></defs></svg>