<svg width="24" height="24" viewBox="0 0 10 24" fill="none" xmlns="http://www.w3.org/2000/svg"><path fill-rule="evenodd" clip-rule="evenodd" d="M9.527 7.235l-2.184 1.12L.998 5.072s.35-.208.574-.328L9.527.664c.26-.133.473.02.473.354v5.38c-.007.34-.186.655-.473.837zm0 2.696L7.327 8.804.895 12.078l8.631 4.427c.26.133.474-.024.474-.357V10.77a1.022 1.022 0 00-.474-.84zm-3.673 5.363v7.601c0 .404-.254.597-.567.427l-4.3-2.358a1.296 1.296 0 01-.569-1.044v-7.428c.063.05.13.095.2.134l5.236 2.668zm1.044-6.71L.895 11.661l-.019.012a.284.284 0 01-.388-.102.961.961 0 01-.07-.334V6.025c.007-.183.056-.36.143-.52a.302.302 0 01.334 0l6.003 3.078z" fill="#B4C5D5"/></svg>