<svg width="40" height="40" fill="none" xmlns="http://www.w3.org/2000/svg"><path d="M20 40c11.046 0 20-8.954 20-20S31.046 0 20 0 0 8.954 0 20s8.954 20 20 20z" fill="#0ED3DF" fill-opacity=".2"/><path d="M18.542 18.333c4.717 0 8.541-1.305 8.541-2.916S23.26 12.5 18.542 12.5C13.824 12.5 10 13.806 10 15.417c0 1.61 3.824 2.916 8.542 2.916zM23.221 22.5c4.573 0 8.279-1.309 8.279-2.924 0-1.099-1.718-2.056-4.257-2.556-1.19-.234.17 1.617-.368 2.556-.28.488-.113.975-2.4 1.462-2.286.488-5.826 1.462-1.254 1.462zM19.823 27c3.557 0 6.588-.81 7.742-1.945.322-.317-3.758 1.652-7.742.958-5.493-.958-6.242-2.469-5.98-4.013-1.4.531-2.26 1.248-2.26 2.038 0 1.636 3.69 2.962 8.24 2.962z" fill="#0ED3DF" fill-opacity=".4"/><path fill="#0ED3DF" d="M16.5 18H20v3.5h-3.5zM21.5 22.5H25V26h-3.5zM19 27h3.5v3.5H19z"/><path fill-rule="evenodd" clip-rule="evenodd" d="M29.331 25.244v2.368c0 1.87-4.058 3.388-9.063 3.388-5.006 0-9.064-1.517-9.064-3.388v-3.534c0-.84.818-1.606 2.17-2.198v-.181c-2.342-.613-3.874-1.628-3.874-2.777v-3.534c0-1.87 4.058-3.388 9.063-3.388 5.006 0 9.064 1.517 9.064 3.388v1.347c2.34.613 3.873 1.628 3.873 2.777v3.535c0 .839-.818 1.605-2.169 2.197zm-17.197 2.369h.006c-.002.024-.006.049-.006.073 0 1.342 3.641 2.43 8.134 2.43 4.492 0 8.133-1.088 8.133-2.43 0-.024-.003-.049-.006-.073h.006v-2.017l-.063.02c-1.5 1.098-4.548 1.85-8.07 1.85-3.57 0-6.656-.772-8.134-1.893v2.04zm0-3.462c0 1.343 3.641 2.43 8.134 2.43.967.002 1.934-.051 2.895-.159-.24.008-.482.012-.726.012-5.006 0-9.064-1.517-9.064-3.387v-.185c-.784.374-1.24.816-1.24 1.29zm14.563-8.69c0-1.342-3.64-2.43-8.133-2.43-4.493 0-8.134 1.088-8.134 2.43s3.641 2.43 8.134 2.43c4.492 0 8.133-1.087 8.133-2.43zm0 3.462v-2.04c-1.477 1.12-4.564 1.892-8.133 1.892-3.57 0-6.657-.771-8.134-1.892v2.04h.006c-.003.024-.006.049-.006.073 0 1.342 3.641 2.43 8.134 2.43 4.492 0 8.133-1.088 8.133-2.43 0-.024-.003-.049-.006-.073h.006zm3.874.662c0-.752-1.146-1.425-2.944-1.87v1.208c0 1.377-2.201 2.562-5.36 3.091l.17.002c4.493 0 8.134-1.088 8.134-2.43zm0 3.462v-2.04c-1.478 1.12-4.565 1.892-8.134 1.892a20.787 20.787 0 01-5.25-.628 20.882 20.882 0 01-2.884-.358v1.134h.006c-.002.024-.006.049-.006.073 0 1.343 3.642 2.43 8.134 2.43 4.492 0 8.134-1.087 8.134-2.43 0-.024-.004-.049-.007-.073h.007z" fill="#0ED3DF"/></svg>