<svg width="22" height="22" viewBox="0 0 64 64" fill="#B4C5D5" xmlns="http://www.w3.org/2000/svg">
<path d="M31.974 58.6668C17.2499 58.6521 5.32418 46.7065 5.33399 31.9824C5.34381 17.2583 17.2854 5.3286 32.0095 5.3335C46.7337 5.3384 58.6673 17.276 58.6673 32.0002C58.6585 46.7345 46.7083 58.6727 31.974 58.6668ZM10.6673 32.4588C10.7935 44.1955 20.3769 53.6256 32.1141 53.5628C43.8512 53.4994 53.3328 43.9668 53.3328 32.2295C53.3328 20.4922 43.8512 10.9595 32.1141 10.8961C20.3769 10.8334 10.7935 20.2635 10.6673 32.0002V32.4588Z"/>
<path d="M30.0469 43H33.9375V26.4375H30.0469V43ZM31.9844 24.0625C32.599 24.0625 33.1146 23.8542 33.5312 23.4375C33.9479 23.0208 34.1562 22.5208 34.1562 21.9375C34.1562 21.3438 33.9479 20.8438 33.5312 20.4375C33.1146 20.0208 32.599 19.8125 31.9844 19.8125C31.3802 19.8125 30.8698 20.0208 30.4531 20.4375C30.0365 20.8438 29.8281 21.3438 29.8281 21.9375C29.8281 22.5208 30.0365 23.0208 30.4531 23.4375C30.8698 23.8542 31.3802 24.0625 31.9844 24.0625Z"/>
</svg>
