<svg width="24" height="24" fill="none" xmlns="http://www.w3.org/2000/svg"><path d="M21.926 19.215l-4.018-9.733a.982.982 0 00-1.816 0l-4.018 9.733a.983.983 0 101.816.75l.818-1.982h4.584l.818 1.981a.982.982 0 101.816-.75zm-6.406-3.197L17 12.431l1.481 3.587H15.52zM12.529 15.166a.982.982 0 00-.218-1.37c-.01-.007-.67-.497-1.63-1.55 1.77-2.397 2.773-5.124 3.182-6.407h1.441a.982.982 0 000-1.964h-5.179v-.893a.982.982 0 10-1.964 0v.893H2.982a.982.982 0 100 1.964h8.806c-.425 1.204-1.207 3.103-2.401 4.838-1.402-1.86-1.923-3.065-1.927-3.075a.982.982 0 00-1.812.76c.026.061.65 1.528 2.36 3.746l.122.157c-1.752 1.98-3.47 3.208-4.19 3.605a.982.982 0 10.94 1.724c.097-.053 2.17-1.2 4.538-3.82 1.006 1.074 1.697 1.581 1.738 1.61a.983.983 0 001.373-.218z" fill="#0ED3DF"/></svg>