<svg width="24" height="24" fill="none" xmlns="http://www.w3.org/2000/svg"><path fill-rule="evenodd" clip-rule="evenodd" d="M15 4c0 .523-.134 1.014-.369 1.442a8.003 8.003 0 015.114 9.568 2.986 2.986 0 011.936.504C21.89 14.712 22 13.869 22 13c0-4.497-2.968-8.3-7.052-9.559.034.181.052.368.052.559zm3.5 16.599a3.011 3.011 0 01-1.3-1.52A7.968 7.968 0 0112 21a7.968 7.968 0 01-5.2-1.92 3.01 3.01 0 01-1.3 1.52 9.96 9.96 0 006.5 2.4 9.961 9.961 0 006.5-2.4zM4 12.999a8.003 8.003 0 015.369-7.557 2.987 2.987 0 01-.317-2C4.968 4.7 2 8.502 2 13c0 .868.11 1.711.319 2.515a2.986 2.986 0 011.936-.505A8.013 8.013 0 014 13z" fill="#0ED3DF"/><circle cx="12" cy="4" r="2" fill="#0ED3DF"/><circle cx="4" cy="18" r="2" fill="#0ED3DF"/><circle cx="20" cy="18" r="2" fill="#0ED3DF"/></svg>