<svg width="213" height="217" viewBox="0 0 213 217" fill="none" xmlns="http://www.w3.org/2000/svg">
<g opacity="0.9">
<path fill-rule="evenodd" clip-rule="evenodd" d="M121.31 4.9368C112.145 -0.354259 100.855 -0.354257 91.6901 4.9368L23.8099 44.1275C14.6455 49.4185 9 59.1968 9 69.7789V148.16C9 158.742 14.6455 168.521 23.8099 173.812L91.6901 213.002C100.855 218.294 112.145 218.294 121.31 213.002L189.19 173.812C198.355 168.521 204 158.742 204 148.16V69.7789C204 59.1968 198.355 49.4185 189.19 44.1275L121.31 4.9368ZM106.499 43.8261C93.2833 43.8261 82.5701 54.5393 82.5701 67.7546V150.612C82.5701 163.827 93.2833 174.54 106.499 174.54C119.714 174.54 130.427 163.827 130.427 150.612V67.7547C130.427 54.5393 119.714 43.8261 106.499 43.8261Z" fill="url(#paint0_linear_8143_20944)"/>
</g>
<defs>
<linearGradient id="paint0_linear_8143_20944" x1="106.503" y1="4.49072" x2="106.503" y2="213.827" gradientUnits="userSpaceOnUse">
<stop stop-color="#FFFEC9"/>
<stop offset="0.5" stop-color="#DDAD33"/>
<stop offset="1" stop-color="#885315"/>
</linearGradient>
</defs>
</svg>
