<svg width="13" height="14" viewBox="0 0 13 14" fill="none" xmlns="http://www.w3.org/2000/svg">
<path fill-rule="evenodd" clip-rule="evenodd" d="M7.79065 0.340672C6.99199 -0.113542 6.00801 -0.113542 5.20935 0.340672L1.29065 2.56931C0.491995 3.02352 0 3.86295 0 4.77137V9.22865C0 10.1371 0.491995 10.9765 1.29065 11.4307L5.20935 13.6594C6.00801 14.1136 6.992 14.1136 7.79065 13.6594L11.7093 11.4307C12.508 10.9765 13 10.1371 13 9.22865V4.77137C13 3.86295 12.508 3.02352 11.7093 2.56931L7.79065 0.340672ZM6.47538 2.29102C5.50003 2.29102 4.70936 3.06987 4.70936 4.03063V10.0062C4.70936 10.967 5.50003 11.7458 6.47538 11.7458C7.45072 11.7458 8.24139 10.967 8.24139 10.0062V4.03063C8.24139 3.06987 7.45072 2.29102 6.47538 2.29102Z" fill="#B4C5D5"/>
</svg>
