<svg width="129" height="20" fill="none" xmlns="http://www.w3.org/2000/svg"><g clip-path="url(#prefix__clip0_2964_12707)"><path d="M24.717 15.386c-.298 0-.509-.061-.632-.185-.113-.124-.17-.32-.17-.589V5.645c0-.268.062-.464.185-.588.124-.134.33-.202.617-.202h3.778c1.439 0 2.498.305 3.176.914.679.61 1.018 1.518 1.018 2.726 0 1.198-.34 2.1-1.018 2.71-.668.599-1.727.898-3.176.898H27.03v2.51c0 .268-.062.464-.185.588-.123.123-.334.185-.632.185h-1.496zm3.531-5.528c.422 0 .745-.114.972-.341.236-.227.354-.568.354-1.022 0-.465-.118-.81-.354-1.038-.227-.227-.55-.34-.972-.34H27.03v2.74h1.218zM36.33 15.619c-.966 0-1.742-.31-2.328-.93-.576-.63-.864-1.512-.864-2.648 0-.867.196-1.626.586-2.276a3.97 3.97 0 011.681-1.502c.73-.362 1.568-.543 2.514-.543.78 0 1.47.088 2.066.264a6.047 6.047 0 011.665.728v6.194c0 .197-.036.326-.108.388-.072.062-.216.092-.432.092h-1.572a.594.594 0 01-.262-.046.465.465 0 01-.155-.186l-.2-.464c-.298.32-.658.552-1.08.697-.41.154-.914.232-1.51.232zm1.157-2.106c.4 0 .714-.098.94-.295.227-.196.34-.475.34-.836V9.966c-.196-.093-.442-.14-.74-.14-.545 0-.982.192-1.311.574-.319.382-.478.919-.478 1.61 0 1.002.416 1.503 1.249 1.503zM43.796 15.386c-.298 0-.51-.061-.632-.185-.124-.124-.185-.32-.185-.589v-6.18c0-.185.03-.309.092-.37.072-.073.216-.11.432-.11h1.588c.123 0 .216.021.278.063.072.03.113.093.123.186l.077.464c.288-.289.663-.516 1.126-.681a4.49 4.49 0 011.572-.264c.833 0 1.506.238 2.02.713.514.464.771 1.156.771 2.075v4.104c0 .269-.061.465-.185.589-.113.123-.318.185-.616.185H48.76c-.298 0-.514-.061-.648-.185-.123-.124-.185-.32-.185-.589V10.71c0-.31-.067-.531-.2-.665-.134-.135-.345-.202-.632-.202-.309 0-.556.083-.74.248-.175.165-.263.392-.263.681v3.841c0 .269-.061.465-.185.589-.113.123-.318.185-.617.185h-1.495zM56.509 15.619c-1.44 0-2.55-.336-3.331-1.007-.781-.67-1.172-1.647-1.172-2.927 0-.785.18-1.476.54-2.075.36-.599.879-1.064 1.557-1.394.689-.33 1.501-.496 2.436-.496.71 0 1.306.068 1.789.202.493.134.93.34 1.31.62.114.072.17.164.17.278 0 .083-.04.191-.123.325l-.632 1.1c-.072.144-.16.217-.262.217-.062 0-.16-.042-.293-.124a3.67 3.67 0 00-.787-.387c-.236-.083-.534-.124-.894-.124-.514 0-.93.165-1.249.495-.308.33-.463.785-.463 1.363 0 .589.16 1.043.478 1.363.32.31.756.465 1.311.465.329 0 .627-.047.894-.14.268-.093.54-.222.818-.387.143-.083.246-.124.308-.124.093 0 .175.072.247.217l.694 1.192a.602.602 0 01.077.248c0 .093-.062.18-.185.264a4.86 4.86 0 01-1.419.619c-.504.145-1.11.217-1.82.217zM63.841 15.619c-.966 0-1.742-.31-2.328-.93-.576-.63-.864-1.512-.864-2.648 0-.867.196-1.626.586-2.276a3.97 3.97 0 011.68-1.502c.73-.362 1.569-.543 2.514-.543.781 0 1.47.088 2.067.264a6.048 6.048 0 011.665.728v6.194c0 .197-.036.326-.108.388-.072.062-.216.092-.432.092h-1.573a.595.595 0 01-.262-.046.467.467 0 01-.154-.186l-.2-.464c-.299.32-.658.552-1.08.697-.411.154-.915.232-1.51.232zm1.157-2.106c.4 0 .714-.098.94-.295.226-.196.34-.475.34-.836V9.966c-.196-.093-.443-.14-.74-.14-.545 0-.982.192-1.311.574-.319.382-.478.919-.478 1.61 0 1.002.416 1.503 1.249 1.503zM78.847 14.798a.413.413 0 01.108.279c0 .093-.031.17-.093.232a.372.372 0 01-.247.078h-2.39c-.143 0-.251-.01-.323-.031a.708.708 0 01-.2-.17l-2.098-2.866v2.292c0 .269-.062.465-.185.589-.123.123-.334.185-.632.185H71.29c-.298 0-.509-.061-.632-.185-.113-.124-.17-.32-.17-.589V5.645c0-.268.062-.464.185-.588.124-.134.33-.202.617-.202h1.496c.298 0 .509.068.632.202.123.124.185.32.185.588v5.188L75.64 8.17a.507.507 0 01.2-.17.86.86 0 01.325-.047h2.39c.102 0 .18.03.231.093a.267.267 0 01.093.217.414.414 0 01-.108.278l-2.637 3.036 2.714 3.221zM83.853 15.619c-.863 0-1.634-.145-2.313-.434a3.592 3.592 0 01-1.588-1.3c-.39-.579-.586-1.286-.586-2.122 0-1.312.37-2.313 1.11-3.005.74-.692 1.805-1.038 3.192-1.038 1.357 0 2.385.341 3.084 1.023.71.67 1.064 1.605 1.064 2.803 0 .516-.226.774-.678.774h-4.842c0 .444.164.785.493 1.022.34.238.849.356 1.527.356.421 0 .77-.036 1.049-.108.287-.083.575-.201.863-.356a.842.842 0 01.247-.078c.092 0 .17.062.23.186l.525.991c.052.104.077.181.077.233 0 .093-.061.18-.185.263-.421.279-.9.48-1.434.604a8.17 8.17 0 01-1.835.186zm1.188-4.832c0-.392-.113-.697-.34-.914-.226-.217-.565-.325-1.017-.325-.453 0-.797.114-1.033.34-.237.217-.355.517-.355.899h2.745zM93.101 15.619c-.863 0-1.68-.088-2.451-.263-.772-.186-1.393-.444-1.866-.775-.175-.113-.262-.232-.262-.356 0-.083.03-.17.092-.263l.756-1.208c.082-.124.164-.186.246-.186.052 0 .14.036.263.108.38.217.811.393 1.295.527.483.134.96.201 1.434.201.483 0 .837-.072 1.064-.217.236-.144.354-.377.354-.697a.834.834 0 00-.385-.727c-.247-.176-.715-.398-1.403-.666-1.039-.393-1.85-.832-2.437-1.317-.575-.495-.863-1.166-.863-2.013 0-1.022.365-1.802 1.095-2.339.73-.536 1.7-.805 2.914-.805.843 0 1.562.078 2.159.232.606.145 1.12.372 1.541.682.175.134.263.258.263.372 0 .072-.031.154-.093.247l-.755 1.208c-.093.124-.175.186-.247.186-.052 0-.139-.036-.262-.108-.596-.393-1.306-.589-2.128-.589-.442 0-.781.072-1.018.217-.236.145-.354.382-.354.712 0 .228.061.413.185.558.123.145.287.274.493.387.216.103.545.238.987.403l.293.108c.76.3 1.357.589 1.788.867.442.269.776.604 1.003 1.007.226.392.339.888.339 1.487 0 .919-.344 1.652-1.033 2.199-.679.547-1.68.82-3.007.82zM100.417 15.386a.673.673 0 01-.355-.077c-.082-.051-.144-.155-.185-.31l-1.989-6.69a.495.495 0 01-.03-.14c0-.144.102-.216.308-.216h2.035c.134 0 .231.026.293.077.062.042.103.114.123.217l.833 3.516 1.048-2.835a.65.65 0 01.155-.247c.062-.052.165-.078.309-.078h.97c.144 0 .243.026.294.078.062.041.118.124.17.247l1.032 2.835.849-3.516a.42.42 0 01.123-.217c.051-.051.144-.077.277-.077h2.051c.206 0 .309.072.309.217a.48.48 0 01-.031.139l-2.005 6.69c-.041.155-.103.258-.185.31-.072.052-.185.078-.339.078h-1.511c-.144 0-.252-.026-.324-.078a.728.728 0 01-.185-.31l-1.018-2.803L102.421 15a.568.568 0 01-.185.31c-.072.052-.179.078-.323.078h-1.496zM112.945 15.619c-.967 0-1.742-.31-2.328-.93-.576-.63-.864-1.512-.864-2.648 0-.867.195-1.626.586-2.276a3.968 3.968 0 011.681-1.502c.73-.362 1.568-.543 2.513-.543.782 0 1.47.088 2.066.264a6.03 6.03 0 011.665.728v6.194c0 .197-.036.326-.108.388-.072.062-.215.092-.431.092h-1.573a.595.595 0 01-.262-.046.462.462 0 01-.154-.186l-.2-.464c-.298.32-.659.552-1.08.697-.411.154-.915.232-1.511.232zm1.157-2.106c.4 0 .714-.098.94-.295.227-.196.34-.475.34-.836V9.966c-.196-.093-.443-.14-.741-.14-.545 0-.981.192-1.311.574-.318.382-.478.919-.478 1.61 0 1.002.417 1.503 1.25 1.503zM120.395 18.515c-.298 0-.508-.062-.633-.186-.113-.124-.169-.32-.169-.588V8.867c.463-.33 1.044-.604 1.742-.821a7.354 7.354 0 012.19-.326c3.105 0 4.657 1.322 4.657 3.965 0 1.198-.329 2.153-.987 2.865-.658.713-1.588 1.069-2.791 1.069-.339 0-.668-.041-.987-.124a2.416 2.416 0 01-.771-.34v2.586c0 .268-.062.464-.185.588-.123.124-.334.186-.632.186h-1.434zm3.346-4.987c.442 0 .771-.165.987-.495.226-.341.339-.795.339-1.363 0-.671-.133-1.141-.4-1.41-.258-.278-.659-.418-1.203-.418-.35 0-.628.047-.833.14v2.462c0 .351.097.62.292.805.197.186.469.279.818.279z" fill="#fff"/><path fill-rule="evenodd" clip-rule="evenodd" d="M9.762 19.96c-2.921-.002-5.274-.706-6.918-1.97C1.18 16.71.297 14.894.297 12.839c0-1.98.88-3.408 1.877-4.373a8.265 8.265 0 012.243-1.52 31.424 31.424 0 01-.456-1.53c-.203-.757-.402-1.645-.402-2.296 0-.77.167-1.544.618-2.145C4.653.34 5.37 0 6.233 0a2.38 2.38 0 011.695.684c.428.415.713.965.91 1.538.346 1.007.48 2.273.518 3.536h.826c.038-1.263.173-2.529.519-3.536.196-.573.481-1.123.91-1.538A2.38 2.38 0 0113.305 0c.863 0 1.58.34 2.056.975.451.601.618 1.375.618 2.145 0 .65-.199 1.539-.401 2.295-.152.566-.321 1.114-.457 1.532.6.278 1.462.763 2.243 1.52.996.964 1.877 2.392 1.877 4.372 0 2.055-.882 3.871-2.546 5.15-1.644 1.265-3.997 1.97-6.919 1.971h-.014z" fill="#633001"/><path d="M6.233.732c-1.263 0-1.845.957-1.845 2.28 0 1.05.676 3.156.953 3.976a.37.37 0 01-.214.457c-1.013.405-4.001 1.889-4.001 5.286 0 3.578 3.037 6.276 8.636 6.28h.014c5.6-.004 8.636-2.702 8.636-6.28 0-3.397-2.988-4.88-4-5.286a.37.37 0 01-.215-.457c.278-.82.953-2.925.953-3.977 0-1.322-.581-2.279-1.845-2.279-1.818 0-2.272 2.614-2.304 5.42a.34.34 0 01-.336.339H8.873a.34.34 0 01-.336-.34C8.505 3.347 8.052.733 6.233.733z" fill="#D1884F"/><path d="M9.776 17.865c-4.115 0-8.643-2.235-8.65-5.128v.014c0 3.581 3.041 6.28 8.65 6.28 5.608 0 8.65-2.699 8.65-6.28v-.014c-.007 2.893-4.536 5.128-8.65 5.128z" fill="#FEDC90"/><path d="M7.49 11.849c0 .976-.455 1.485-1.016 1.485-.561 0-1.016-.508-1.016-1.485 0-.977.455-1.486 1.016-1.486.56 0 1.016.51 1.016 1.486zM14.094 11.849c0 .976-.455 1.485-1.016 1.485-.561 0-1.016-.508-1.016-1.485 0-.977.455-1.486 1.016-1.486.561 0 1.016.51 1.016 1.486z" fill="#633001"/></g><defs><clipPath id="prefix__clip0_2964_12707"><path fill="#fff" d="M0 0h128.182v20H0z"/></clipPath></defs></svg>