<svg width="96" height="96" fill="none" xmlns="http://www.w3.org/2000/svg"><path opacity=".1" d="M48 96c26.51 0 48-21.49 48-48S74.51 0 48 0 0 21.49 0 48s21.49 48 48 48z" fill="#B4C5D5"/><mask id="prefix__a" fill="#fff"><path fill-rule="evenodd" clip-rule="evenodd" d="M50.499 50.265h5.267l.202-2.681a10.99 10.99 0 003.342-1.276l1.953 1.68 3.724-3.725-1.679-1.953a10.989 10.989 0 001.276-3.342l2.68-.202v-5.267l-3.014-.227a11.018 11.018 0 00-1.39-2.795l2.127-2.476-3.724-3.724-2.841 2.443a10.982 10.982 0 00-2.367-.792L55.765 22H50.5l-.315 4.273c-.66.224-1.29.509-1.887.847L45 24.277l-3.724 3.724 2.843 3.296a11 11 0 00-.847 1.887L39 33.5v5.267l3.928.29c.176.828.445 1.623.795 2.372l-2.446 2.835 3.724 3.724 2.471-2.131c.854.59 1.795 1.061 2.8 1.394l.227 3.015zm8.163-13.518a4.916 4.916 0 11-9.831 0 4.916 4.916 0 019.831 0z"/></mask><path d="M55.766 50.265v1.516h1.406l.106-1.402-1.512-.114zm-5.267 0l-1.512.114.105 1.402H50.5v-1.516zm5.469-2.681l-.303-1.486-1.123.229-.086 1.143 1.512.114zm3.342-1.276l.988-1.15-.819-.705-.933.545.764 1.31zm1.953 1.68l-.988 1.15 1.066.916.995-.994-1.073-1.073zm3.724-3.725l1.073 1.073.995-.995-.918-1.066-1.15.988zm-1.679-1.953l-1.31-.764-.544.933.704.82 1.15-.99zm1.276-3.342l-.115-1.512-1.142.086-.23 1.123 1.487.303zm2.68-.202l.115 1.512 1.402-.106v-1.406h-1.516zm0-5.267h1.517v-1.406l-1.402-.106-.114 1.512zm-3.014-.227l-1.44.476.317.96 1.009.076.114-1.512zm-1.39-2.795l-1.15-.989-.763.887.663.963 1.25-.861zm2.127-2.476l1.15.99.917-1.067-.994-.995-1.073 1.073zm-3.724-3.724l1.073-1.072-.995-.995-1.066.917.988 1.15zm-2.841 2.443l-.642 1.375.887.414.743-.639-.988-1.15zm-2.367-.792l-1.513.111.084 1.136 1.114.236.315-1.483zM55.765 22l1.513-.111-.103-1.406h-1.41V22zM50.5 22v-1.517h-1.41l-.103 1.406L50.5 22zm-.315 4.273l.489 1.436.95-.323.074-1.002-1.513-.111zm-1.887.847l-.991 1.149.81.698.93-.527-.75-1.32zM45 24.277l.991-1.148-1.067-.92-.996.996L45 24.277zm-3.724 3.724l-1.072-1.072-.996.996.92 1.067 1.148-.99zm2.843 3.296l1.32.748.527-.93-.698-.81-1.148.992zm-.847 1.887l.111 1.513 1.002-.074.323-.95-1.436-.489zM39 33.5l-.111-1.513-1.406.104v1.41H39zm0 5.267h-1.517v1.409l1.406.103.111-1.512zm3.928.29l1.483-.316-.236-1.114-1.136-.084-.111 1.513zm.795 2.372l1.149.991.641-.744-.416-.89-1.374.643zm-2.446 2.835l-1.148-.99-.92 1.066.996.997 1.072-1.073zm3.724 3.724L43.93 49.06l.996.996 1.067-.92-.99-1.149zm2.471-2.131l.861-1.248-.964-.666-.888.766.991 1.148zm2.8 1.394l1.512-.114-.076-1.009-.96-.317-.476 1.44zm5.494 1.498h-5.267v3.033h5.267v-3.033zm-1.31-1.278l-.203 2.68 3.025.229.202-2.681-3.024-.228zm1.815 1.6a12.508 12.508 0 003.803-1.452l-1.528-2.62c-.881.513-1.85.89-2.881 1.1l.606 2.972zm5.981-2.233l-1.954-1.68-1.977 2.301 1.954 1.68 1.977-2.3zm1.663-3.646l-3.724 3.724 2.145 2.145 3.724-3.724-2.145-2.145zm-1.757.107l1.68 1.954 2.3-1.977-1.68-1.954-2.3 1.977zm2.46-.224a12.505 12.505 0 001.452-3.803l-2.972-.606a9.47 9.47 0 01-1.1 2.88l2.62 1.529zm2.532-5.82l-2.68.202.228 3.024 2.68-.202-.228-3.025zm-1.402-3.755v5.267h3.033v-5.267h-3.033zm-1.612 1.285l3.014.227.229-3.024-3.015-.228-.228 3.025zm1.554-1.989a12.54 12.54 0 00-1.582-3.179l-2.498 1.722a9.505 9.505 0 011.2 2.41l2.88-.953zm-1.853-5.782l-2.128 2.475 2.3 1.978 2.128-2.476-2.3-1.977zm-3.646-1.663l3.724 3.724 2.145-2.145-3.724-3.724-2.145 2.145zm-.78 2.52l2.841-2.443-1.977-2.3-2.842 2.443 1.977 2.3zm-.348-2.524a12.492 12.492 0 00-2.693-.902l-.63 2.968a9.464 9.464 0 012.04.683l1.283-2.749zm-4.81-3.235l.29 3.928 3.025-.223-.29-3.927-3.025.222zM50.5 23.517h5.267v-3.034h-5.267v3.034zm1.198 2.867l.315-4.273-3.026-.222-.314 4.273 3.025.222zm-2.001-1.547c-.75.255-1.469.58-2.148.964l1.497 2.639a9.487 9.487 0 011.627-.731l-.976-2.872zm-5.685.588l3.295 2.844 1.982-2.297-3.296-2.843-1.981 2.296zm-1.661 3.649l3.724-3.724-2.145-2.145-3.724 3.724 2.145 2.145zm2.919 1.232l-2.843-3.296-2.297 1.982 2.843 3.295 2.297-1.981zm-2.468.242c-.385.679-.709 1.398-.964 2.148l2.872.977a9.486 9.486 0 01.73-1.628l-2.638-1.497zm-3.69 4.464l4.273-.315-.223-3.025-4.272.314.222 3.026zm1.406 3.754v-5.267h-3.034v5.267h3.034zm2.522-1.224l-3.928-.289-.222 3.025 3.927.29.223-3.026zm-1.595 1.828c.2.944.507 1.849.906 2.701l2.747-1.285a9.462 9.462 0 01-.686-2.046l-2.967.63zm.981 5.884l2.447-2.835-2.297-1.982-2.446 2.836 2.297 1.981zm3.649 1.661l-3.724-3.724-2.145 2.145 3.724 3.724 2.145-2.145zm.407-2.207l-2.47 2.131 1.981 2.297 2.47-2.132-1.98-2.296zm.13 2.396a12.54 12.54 0 003.184 1.586l.953-2.88a9.5 9.5 0 01-2.414-1.203l-1.724 2.497zm5.4 3.047l-.227-3.015-3.025.228.228 3.015 3.024-.228zm1.736-6.972a6.432 6.432 0 006.432-6.432h-3.034a3.399 3.399 0 01-3.398 3.399v3.033zm-6.433-6.432a6.432 6.432 0 006.433 6.432v-3.033a3.399 3.399 0 01-3.4-3.4h-3.033zm6.433-6.433a6.432 6.432 0 00-6.433 6.433h3.034a3.399 3.399 0 013.399-3.4v-3.033zm6.432 6.433a6.432 6.432 0 00-6.432-6.433v3.034a3.399 3.399 0 013.398 3.399h3.034z" fill="#0ED3DF" mask="url(#prefix__a)"/><path d="M60.145 63.76l.076-.477-.4-.27a6.607 6.607 0 01-1.802-1.827l-.27-.408-.483.077-.97.155-.781-2.917.934-.357.452-.173.034-.483a6.647 6.647 0 01.657-2.45l.212-.436-.305-.375-.631-.776 2.136-2.136.762.62.38.307.437-.218a6.61 6.61 0 012.479-.68l.483-.035.172-.453.338-.894 2.915.781-.147.905-.08.487.413.27a6.605 6.605 0 011.874 1.855l.271.404.481-.078.887-.144.78 2.914-.82.311-.459.174-.029.49a6.657 6.657 0 01-.691 2.58l-.22.438.31.38.556.68-2.134 2.134-.696-.569-.377-.308-.437.215a6.606 6.606 0 01-2.546.67l-.491.027-.175.459-.329.86-2.918-.782.152-.947zm2.558-3.118a3.216 3.216 0 101.665-6.213 3.216 3.216 0 00-1.665 6.213z" stroke="#0ED3DF" stroke-width="1.517"/><path d="M52.702 36.518H30.333A2.333 2.333 0 0028 38.85v26.056a2.333 2.333 0 002.333 2.333h22.37a2.333 2.333 0 002.333-2.333V38.85a2.333 2.333 0 00-2.334-2.333z" fill="#2D3A44" stroke="#0ED3DF" stroke-width="1.75"/><circle cx="36.5" cy="50.5" r="1.5" fill="#0ED3DF"/><circle cx="41.5" cy="50.5" r="1.5" fill="#0ED3DF"/><circle cx="46.5" cy="50.5" r="1.5" fill="#0ED3DF"/></svg>