<svg width="121" height="82" fill="none" xmlns="http://www.w3.org/2000/svg"><path fill-rule="evenodd" clip-rule="evenodd" d="M29.846 0a9.033 9.033 0 00-9.033 9.033v4.962a6.064 6.064 0 016.022-.335V6.023h69.257V40.65H65.98a4.517 4.517 0 00-4.517 4.517v30.111H26.837V66h-6.023v6.267a9.033 9.033 0 009.034 9.034h36.069a4.517 4.517 0 003.194-1.323l31.681-31.681a4.517 4.517 0 001.323-3.194V9.033A9.034 9.034 0 0093.08 0H29.848zm37.64 46.673v26.111l26.111-26.111H67.486zM24.114 24.199L5.664 57h36.9l-18.45-32.801zm3.55-3.886c-1.557-2.77-5.543-2.77-7.1 0L.528 55.929C-.998 58.644.964 62 4.08 62h40.068c3.116 0 5.078-3.356 3.55-6.071L27.666 20.313zm-5.598 27.86L21.665 36h4.818l-.401 12.172h-4.016zm4.58 4.09c0 1.443-.953 2.284-2.572 2.284-1.619 0-2.56-.84-2.56-2.284 0-1.456.941-2.296 2.56-2.296 1.619 0 2.572.84 2.572 2.296z" fill="#0ED3DF"/></svg>