<svg width="23" height="23" viewBox="0 0 23 21" fill="none" xmlns="http://www.w3.org/2000/svg"><path d="M0 17.741l.004-.003L0 17.74l.009-.005 4.337-3.276a7.57 7.57 0 01-.033-.7V7.966l4.312-2.39v5.648l5.031-3.801V2.789L18.687 0v3.62L23 .36v.725l-4.313 3.123v.589L23 1.81v.724l-4.313 2.851v.59L23 3.258v.724l-4.313 2.579v.589L23 4.707v.725L18.687 7.74v.587L23 6.156v.724l-4.313 2.036v.587L23 7.603v.724l-4.313 1.765v3.667C18.687 17.757 15.47 21 11.5 21c-3.247 0-5.992-2.17-6.882-5.149L.004 17.74 0 17.74zm4.545-2.146l-4.54 2.143-.001.002 4.575-2.017a3.417 3.417 0 00-.034-.128zm-.152-.758l-4.384 2.9-.004.003 4.407-2.775a3.186 3.186 0 01-.02-.128zm.092.504L.01 17.736l4.502-2.267c-.009-.043-.02-.086-.028-.128zm-.126-.757L.014 17.731l4.36-3.02-.015-.127zm9.297-2.432l-4.993 2.044a2.523 2.523 0 002.479 2.097 2.527 2.527 0 002.516-2.534v-1.607h-.002zm0-.86l-5.03 2.376v.09c0 .061.001.12.005.179l5.025-2.216v-.43zm0-.86l-5.03 2.693v.27l5.03-2.534v-.429zm0-.861l-5.03 3.011v.272l5.03-2.852V9.57zm0-.86l-5.03 3.327v.272l5.03-3.168v-.43zm0-.86l-5.03 3.644v.27l5.03-3.484v-.43zM.004 17.74l.001-.002 4.453-2.524-.025-.126-4.43 2.652-.001.001.002-.001z" fill="#0ED3DF"/></svg>