<svg width="113" height="38" fill="none" xmlns="http://www.w3.org/2000/svg"><path d="M63.144 32.398c3.45.48 5.592-.16 7.218-1.797 1.031-1.038 1.825-2.236 2.499-3.514 2.776-5.152 9.52-17.571 9.52-17.571h-4.84l-5.037 10.183-1.587-10.183h-5.156v.24s1.745 9.304 2.618 14.096c.119.719.278 2.556-.992 3.714-.713.679-1.745 1.198-3.53.919l-.713 3.913zM59.296 9.516l-4.68 10.702-.12-.04-.634-10.383h-5.116l-4.958 10.423-.12-.08-.197-10.622h-4.879l.952 17.052h5.275l5.117-11.102h.119l.793 11.102h5.315l7.694-17.052h-4.56zm28.16 17.052H82.34c1.15-5.75 2.221-11.302 3.372-17.052h3.966v3.155c.516-1.278 1.27-2.516 2.499-3.035 1.19-.52 3.054-.48 4.958.08-.754 1.477-1.31 2.755-2.142 4.352-.714-.16-1.388-.32-2.063-.399-1.507-.16-2.578.44-3.093 1.877-.357.998-.595 2.076-.794 3.115-.555 2.635-1.03 5.271-1.586 7.907zm16.382-12.979c.714-.878 2.062-1.398 3.014-1.078 1.19.36 1.587 1.717.754 2.636-.278.32-.674.559-1.071.718-1.23.48-2.499.44-3.847.2.198-.958.555-1.757 1.15-2.476zm6.544 8.746h-.158c-1.944.758-4.125.958-5.633.519-1.665-.48-2.617-1.917-2.3-3.554 4.918.4 7.02-.52 8.171-1.198 3.054-1.837 3.807-6.75-.159-8.187-3.49-1.278-8.369-.679-10.67 2.117-2.102 2.556-2.697 5.35-2.38 8.506.239 2.356 1.825 5.71 7.061 6.27 3.173.319 5.196-.52 5.354-.56l.714-3.913z" fill="#fff"/><path d="M19.236 19.02h11.622L24.59 34.474a5.646 5.646 0 01-5.236 3.555H7.736L14 22.574a5.587 5.587 0 015.236-3.554z" fill="#94C5FF"/><path d="M30.858 19.02l-7.06 9.025c-1.071 1.438-2.697 2.356-4.601 2.356h-8.448l3.212-7.867a5.67 5.67 0 015.236-3.514h11.66z" fill="#1A32AF"/><path d="M15.35 9.516h11.62L20.705 24.97a5.646 5.646 0 01-5.235 3.554H3.847l6.267-15.454c.873-2.157 2.975-3.554 5.236-3.554z" fill="#0092FF"/><path d="M27.01 9.516l-7.06 9.025c-1.07 1.437-2.697 2.356-4.6 2.356H6.9l3.213-7.867a5.67 5.67 0 015.236-3.514h11.66z" fill="#1A32AF"/><path d="M11.502.012h11.622l-6.267 15.455a5.646 5.646 0 01-5.236 3.554H0L6.267 3.566A5.646 5.646 0 0111.502.012z" fill="#05F"/></svg>