<svg viewBox="0 0 512 512" xmlns="http://www.w3.org/2000/svg"><path d="M497 31h-46V15c0-8.284-6.716-15-15-15s-15 6.716-15 15v16h-30V15c0-8.284-6.716-15-15-15s-15 6.716-15 15v16h-30V15c0-8.284-6.716-15-15-15s-15 6.716-15 15v16h-30V15c0-8.284-6.716-15-15-15s-15 6.716-15 15v16h-30V15c0-8.284-6.716-15-15-15s-15 6.716-15 15v16h-44c-8.284 0-15 6.716-15 15v122.219C52.596 181.577 0 242.757 0 316c0 73.244 52.596 134.423 122 147.781V497c0 8.284 6.716 15 15 15h360c8.284 0 15-6.716 15-15V46c0-8.284-6.716-15-15-15zM181 61v15c0 8.284 6.716 15 15 15s15-6.716 15-15V61h30v15c0 8.284 6.716 15 15 15s15-6.716 15-15V61h30v15c0 8.284 6.716 15 15 15s15-6.716 15-15V61h30v15c0 8.284 6.716 15 15 15s15-6.716 15-15V61h30v15c0 8.284 6.716 15 15 15s15-6.716 15-15V61h31v60H152V61zM30 316c0-66.444 54.056-120.5 120.5-120.5S271 249.556 271 316s-54.056 120.5-120.5 120.5S30 382.444 30 316zm122 166v-15.519c23.293-.229 45.334-5.774 64.969-15.481H346c8.284 0 15-6.716 15-15s-6.716-15-15-15h-87.792a151.463 151.463 0 0022.738-30H346c8.284 0 15-6.716 15-15s-6.716-15-15-15h-51.874a149.46 149.46 0 006.128-30H346c8.284 0 15-6.716 15-15s-6.716-15-15-15h-45.746a149.39 149.39 0 00-6.128-30H346c8.284 0 15-6.716 15-15s-6.716-15-15-15h-65.055a151.387 151.387 0 00-22.738-30H346c8.284 0 15-6.716 15-15s-6.716-15-15-15H216.969c-19.635-9.707-41.676-15.252-64.969-15.481V151h330v331z" /><path d="M150 331h44c8.284 0 15-6.716 15-15s-6.716-15-15-15h-37.787l-48.64-48.64c-5.857-5.858-15.355-5.858-21.213 0-5.858 5.857-5.858 15.355 0 21.213l53.031 53.031A15.043 15.043 0 00150 331zM436 181h-30c-8.284 0-15 6.716-15 15s6.716 15 15 15h30c8.284 0 15-6.716 15-15s-6.716-15-15-15zM436 241h-30c-8.284 0-15 6.716-15 15s6.716 15 15 15h30c8.284 0 15-6.716 15-15s-6.716-15-15-15zM436 301h-30c-8.284 0-15 6.716-15 15s6.716 15 15 15h30c8.284 0 15-6.716 15-15s-6.716-15-15-15zM436 361h-30c-8.284 0-15 6.716-15 15s6.716 15 15 15h30c8.284 0 15-6.716 15-15s-6.716-15-15-15zM436 421h-30c-8.284 0-15 6.716-15 15s6.716 15 15 15h30c8.284 0 15-6.716 15-15s-6.716-15-15-15z" /></svg>
