<svg viewBox="0 0 512 512" xmlns="http://www.w3.org/2000/svg" ><path d="M256 40C118.176 40 10.208 217.504 0 367.456 43.232 443.424 147.552 472 256 472s212.768-28.576 256-104.544C501.792 217.504 393.824 40 256 40z" fill="#c8e6c9"/><path d="M415.552 226.368c-30.24-39.488-68.832-81.28-91.2-81.28S239.488 257.12 210.816 257.12s-43.584-51.008-78.848-50.784c-48.032.288-95.104 143.232-95.104 143.232S56.32 436.96 260.032 436.96 480 351.008 480 351.008s-20.96-67.872-64.448-124.64z" fill="#66bb6a"/><g fill="#37474f"><path d="M146.848 337.376c0-14.432 11.552-26.112 25.792-26.112s25.792 11.712 25.792 26.112c0 14.432-11.552 26.112-25.792 26.112-14.24 0-25.792-11.68-25.792-26.112M313.568 337.376c0 14.432 11.552 26.112 25.792 26.112s25.792-11.712 25.792-26.112c0-14.432-11.552-26.112-25.792-26.112s-25.792 11.68-25.792 26.112M308.928 375.296c2.016-3.904.512-8.704-3.36-10.784-3.84-2.08-8.64-.576-10.72 3.328-.416.832-10.784 19.68-38.208 19.68-26.944 0-39.168-19.232-39.744-20.128-2.272-3.776-7.136-4.96-10.88-2.656s-4.928 7.264-2.656 11.04c.672 1.152 17.12 27.84 53.28 27.84 37.344 0 51.68-27.136 52.288-28.32z"/></g><path d="M214.016 304.96c-31.648 0-47.84-31.584-56.64-51.104-7.904-17.568-9.28-45.312-31.712-46.08 2.208-.896 4.32-1.408 6.304-1.408 35.264 0 50.176 50.784 78.848 50.784S301.984 145.12 324.352 145.12c4.224 0 8.96 1.504 14.112 4.192-3.808-.512-8.704-.16-12.448 3.68-7.232 7.264-72.832 151.968-112 151.968z" fill="#43a047"/></svg>
