<svg xmlns="http://www.w3.org/2000/svg" viewBox="0 0 512 512"><path d="M296.442 251.772c8.301-9.468 13.349-21.855 13.349-35.406 0-29.658-24.131-53.787-53.791-53.787s-53.791 24.129-53.791 53.787c0 13.551 5.048 25.938 13.349 35.406-21.598 13.522-36.001 37.516-36.001 64.821v17.808c0 8.284 6.716 14.999 15 14.999h122.887c8.284 0 15-6.715 15-14.999v-17.808c-.001-27.305-14.403-51.298-36.002-64.821zm-64.233-35.406c0-13.117 10.673-23.789 23.791-23.789s23.791 10.671 23.791 23.789-10.673 23.79-23.791 23.79-23.791-10.672-23.791-23.79zm70.234 103.036h-92.887v-2.808c0-25.607 20.834-46.44 46.443-46.44 23.442 0 46.444 17.718 46.444 49.248zM492.932 370.965c-13.19-14.008-33.394-17.331-57.466-9.651-3.769-12.876-12.221-29.486-31.185-40.023-7.241-4.022-16.373-1.415-20.397 5.825-4.024 7.242-1.416 16.373 5.825 20.396 5.433 3.019 9.286 7.048 12.032 11.239-19.753-3.988-36.316.149-47.674 12.21-7.035 7.467-12.479 17.311-15.743 28.467-5.42 18.539-4.175 39.147 3.507 58.031 4.412 10.84 11.116 21.497 21.099 33.54 7.661 9.237 19.699 20.984 38.204 20.983 9.752 0 16.888-3.24 22.365-4.068 10.643 1.61 34.254 14.817 60.571-16.918 9.98-12.04 16.685-22.697 21.097-33.537l.002-.004c13.293-32.682 6.025-67.108-12.237-86.49zm-15.553 75.189c-3.225 7.92-8.438 16.086-16.405 25.697-7.594 9.158-12.17 10.613-17.095 10.004-4.674-.582-15.008-4.485-21.527-3.985-7.987.612-14.538 3.4-19.234 3.985-4.92.61-9.5-.845-17.093-10.001-7.97-9.615-13.184-17.782-16.407-25.7-5.14-12.635-6.027-26.24-2.5-38.305 1.941-6.634 4.979-12.276 8.787-16.318 7.141-7.581 22.687-3.428 32.297.459a40.817 40.817 0 0 0 30.593 0c7.127-2.881 24.541-8.696 32.3-.456 9.805 10.405 15.387 32.242 6.284 54.62zM165.581 364.368c-1.862-.21-43.079-4.666-76.137 9.575-33.059-14.241-74.273-9.786-76.137-9.575A15 15 0 0 0 0 379.272v106.392c0 8.903 7.771 15.896 16.672 14.905 20.585-2.287 45.902.003 66.221 9.893a14.994 14.994 0 0 0 13.696-.298c25.441-13.78 64.896-9.675 65.621-9.595 8.906.989 16.679-5.97 16.679-14.905V379.272c0-7.63-5.727-14.043-13.308-14.904zM30 469.939V393.55c11.788-.103 29.42.973 44.444 6.658v74.972c-14.169-3.797-29.589-5.29-44.444-5.241zm118.889 0c-11.762-.019-28.232.897-44.444 5.241v-74.972c15.026-5.685 32.637-6.743 44.444-6.659zM83.94 183.849c5.858 5.858 15.355 5.857 21.213 0l67.183-67.179c22.36-22.357 22.363-58.547 0-80.91-21.294-21.292-55.337-22.258-77.789-2.904C72.094 13.5 38.053 14.467 16.758 35.761c-22.308 22.306-22.308 58.603 0 80.91zM37.972 56.972c10.613-10.611 27.878-10.61 38.489.001l7.479 7.479c5.857 5.857 15.355 5.857 21.213 0l7.48-7.48c10.61-10.61 27.877-10.611 38.489.001 10.634 10.634 10.638 27.849 0 38.486l-56.576 56.573L37.971 95.46c-10.611-10.611-10.611-27.876.001-38.488zM500.86 20.523c-1.249-.333 7.717 1.393-107.483-20.261-9.223-1.732-17.771 5.347-17.771 14.741v72.179a45.3 45.3 0 0 0-15.515-2.726c-25.098 0-45.516 20.417-45.516 45.513 0 25.095 20.418 45.512 45.516 45.512 25.097 0 45.515-20.417 45.515-45.512V33.085L482 47.445v59.737a45.306 45.306 0 0 0-15.516-2.726c-25.097 0-45.515 20.417-45.515 45.513 0 25.095 20.418 45.512 45.515 45.512 25.098 0 45.516-20.417 45.516-45.512 0-.872.002-114.185-.005-115.057-.031-6.582-4.446-12.613-11.135-14.389zm-140.769 124.96c-8.556 0-15.516-6.96-15.516-15.514 0-8.555 6.96-15.515 15.516-15.515 8.555 0 15.515 6.96 15.515 15.515-.001 8.555-6.96 15.514-15.515 15.514zm106.393 19.999c-8.555 0-15.515-6.96-15.515-15.514 0-8.555 6.96-15.515 15.515-15.515 8.556 0 15.516 6.96 15.516 15.515s-6.96 15.514-15.516 15.514z" /><path d="M222.201 49.396c35.392-5.764 72.958-2.498 108.082 10.847 7.746 2.941 16.408-.953 19.35-8.695 2.941-7.744-.951-16.406-8.695-19.349-27.103-10.295-55.68-15.516-84.938-15.516a241.073 241.073 0 0 0-38.621 3.105c-8.177 1.331-13.726 9.039-12.394 17.215 1.331 8.176 9.035 13.722 17.216 12.393zM302.407 460.138c-25.827 5.847-53.572 6.879-81.054 2.304-8.17-1.363-15.898 4.16-17.26 12.331-1.361 8.171 4.16 15.898 12.332 17.259 30.903 5.145 62.574 4.163 92.606-2.636 8.079-1.829 13.146-9.862 11.317-17.941-1.827-8.079-9.864-13.142-17.941-11.317zM43.736 181.756c-7.987-2.204-16.248 2.476-18.454 10.461-5.708 20.652-8.603 42.108-8.603 63.773 0 24.662 3.741 48.982 11.12 72.284 2.503 7.905 10.942 12.272 18.828 9.771 7.897-2.5 12.272-10.929 9.772-18.827-6.45-20.369-9.721-41.642-9.721-63.228 0-18.965 2.529-37.732 7.519-55.781 2.208-7.985-2.476-16.246-10.461-18.453zM467.449 332.52c7.961 2.293 16.273-2.304 18.564-10.263 8.558-29.72 11.002-60.309 8.217-89.175-.795-8.245-8.116-14.276-16.37-13.49-8.246.795-14.286 8.124-13.491 16.369 2.421 25.121.332 51.89-7.184 77.996-2.291 7.96 2.303 16.271 10.264 18.563z" /></svg>
