<svg viewBox="0 0 512 512" xmlns="http://www.w3.org/2000/svg"><path d="M420.986 325.593c-.036-13.36 0-12.491 0-39.596 0-24.813-20.187-44.999-44.999-44.999a44.736 44.736 0 00-16.586 3.181c-5.205-19.096-22.691-33.181-43.413-33.181a44.736 44.736 0 00-16.586 3.181c-5.205-19.096-22.691-33.181-43.413-33.181a44.79 44.79 0 00-15 2.58v-60.551l36.68 24.453c6.897 4.597 16.209 2.729 20.801-4.161 4.596-6.893 2.733-16.206-4.16-20.801l-14.271-9.514c12.579-7.988 20.95-22.033 20.95-38.005C300.989 50.186 280.802 30 255.99 30c-7.057 0-13.588 1.782-16.571 3.236C234.231 14.112 216.73 0 195.989 0c-20.924 0-38.557 14.356-43.571 33.735-1.836-1.016-3.019-1.757-5.155-2.308-28.564-7.375-56.273 14.312-56.273 43.572 0 15.972 8.372 30.017 20.95 38.005l-14.271 9.514c-6.893 4.596-8.756 13.909-4.161 20.801 4.595 6.892 13.909 8.755 20.801 4.161l36.68-24.453v117.97h-15c-24.813 0-44.999 20.187-44.999 44.999v22.918c0 81.211 28.19 128.013 61.575 194.788a15.001 15.001 0 0013.412 8.292c39.794.013 103.312.005 210.01 0a15 15 0 0013.417-8.292c31.92-63.847 31.768-109.303 31.582-178.109zM252.024 60.524c9.555-2.606 18.963 4.62 18.963 14.475 0 9.847-9.397 17.083-18.963 14.475l-25.579-14.475 25.579-14.475zm-71.035-15.525c0-8.271 6.729-15 15-15s15 6.729 15 15v4.277l-15.08 8.534-14.92-8.259v-4.552zm-42.777 44.838c-9.153 1.349-17.224-5.762-17.224-14.838 0-9.086 8.081-16.186 17.224-14.838l26.805 14.838-26.805 14.838zM366.57 481.993c-83.427.004-148.728.011-191.339.002-31.088-61.582-54.242-102.747-54.242-173.082v-22.918c0-8.271 6.729-15 15-15h15v42.183c0 8.284 6.716 15 15 15s15-6.716 15-15V103.027l15-10 15 10v182.969c0 8.284 6.716 15 15 15s15-6.716 15-15v-59.999c0-8.271 6.729-15 15-15s15 6.729 15 15v89.999c0 8.284 6.716 15 15 15s15-6.716 15-15v-59.999c0-8.271 6.729-15 15-15s15 6.729 15 15v59.999c0 8.284 6.716 15 15 15s15-6.716 15-15v-30c0-8.271 6.729-15 15-15s15 6.729 15 15v39.677c.168 63.554.305 103.142-24.419 156.32z" /></svg>
