<svg viewBox="0 0 512 512" xmlns="http://www.w3.org/2000/svg"><path d="M383.19 167.189c3.892-.428 7.163 2.466 7.163 6.311 0 8.284 6.716 15 15 15s15-6.716 15-15c0-21.795-18.901-38.502-40.446-36.131-8.234.907-14.175 8.317-13.269 16.551.908 8.235 8.311 14.173 16.552 13.269zM121.646 173.5c0-3.86 3.29-6.738 7.163-6.311 8.243.902 15.646-5.034 16.552-13.269.906-8.234-5.034-15.645-13.269-16.551-21.623-2.379-40.446 14.425-40.446 36.131 0 8.284 6.716 15 15 15s15-6.716 15-15zM398.45 287.686c-7.245-4.019-16.376-1.401-20.393 5.843-4.018 7.245-1.401 16.375 5.844 20.393 7.433 4.123 8.844 12.474 6.396 18.24-2.201 5.189-8.156 8.944-13.872 8.758-8.274-.277-15.223 6.194-15.509 14.474-.269 7.797 5.538 15.534 15.916 15.534 17.506 0 34.254-10.957 41.082-27.046 8.892-20.954.524-45.112-19.464-56.196zM135.574 340.919c-5.716.186-11.671-3.569-13.872-8.758-2.447-5.766-1.036-14.117 6.396-18.24 7.245-4.018 9.861-13.147 5.844-20.393-4.02-7.245-13.148-9.862-20.393-5.843-19.987 11.084-28.355 35.242-19.465 56.194 7.046 16.604 24.581 27.641 42.524 27.021 8.279-.286 14.759-7.229 14.474-15.509-.286-8.278-7.237-14.758-15.508-14.472z" /><path d="M482.5 326.5c0-30.402-13.119-58.942-35.298-78.73A97.495 97.495 0 00481.5 173.5c0-50.386-38.555-92.894-89.454-97.155C392.581 35.793 359.845 0 316.5 0c-24.73 0-46.72 11.932-60.5 30.332C242.22 11.932 220.23 0 195.5 0c-43.327 0-76.082 35.778-75.546 76.345C68.948 80.618 30.5 123.23 30.5 173.5a97.5 97.5 0 0034.298 74.27C42.619 267.558 29.5 296.098 29.5 326.5c0 54.894 40.795 97.199 90.681 104.479C117.194 472.954 149.795 512 195.5 512c24.73 0 46.72-11.932 60.5-30.332 13.78 18.4 35.77 30.332 60.5 30.332 45.669 0 78.308-39.016 75.319-81.021C441.68 423.7 482.5 381.424 482.5 326.5zM241 436.625c0 25.02-20.411 45.375-45.5 45.375-32.099 0-52.85-31.801-43.115-60.101 3.414-9.925-4.159-20.208-14.702-19.87C96.789 403.45 59.5 370.917 59.5 326.5c0-27.421 14.923-52.73 38.944-66.052 10.557-5.855 10.203-21.188-.604-26.554C75.157 222.633 60.5 198.927 60.5 173.5c0-39.203 33.894-71.615 74.999-67.09 10.508 1.156 18.909-8.666 16.105-18.879C143.698 58.714 165.378 30 195.5 30c25.089 0 45.5 20.355 45.5 45.375V121h-16.5a15.001 15.001 0 00-14.063 9.78l-49 132c-3.665 9.872 3.737 20.388 14.313 20.218l38.595-.644-34.026 98.759c-5.306 15.397 14.261 26.792 25.149 15.119L241 358.147zm-9.333-112.451l18.015-52.288c3.397-9.859-4.068-20.065-14.432-19.884l-38.047.634L234.932 151h55.816l-19.269 50.668C267.755 211.462 274.99 222 285.5 222h41.491zm142.65 77.855c-10.576-.338-18.104 9.979-14.702 19.87C369.345 450.185 348.614 482 316.5 482c-25.089 0-45.5-20.355-45.5-45.375V325.991l101.468-108.759C381.393 207.666 374.593 192 361.5 192h-54.248l19.269-50.668C330.245 131.538 323.01 121 312.5 121H271V75.375C271 50.355 291.411 30 316.5 30c30.028 0 51.825 28.629 43.896 57.531-2.799 10.197 5.579 20.037 16.105 18.879 41.038-4.521 74.999 27.836 74.999 67.09 0 25.427-14.657 49.133-37.34 60.395-10.813 5.368-11.157 20.701-.604 26.554 24.021 13.321 38.944 38.63 38.944 66.051 0 44.111-36.969 76.953-78.183 75.529z" /></svg>
