<svg viewBox="0 0 512 512" xmlns="http://www.w3.org/2000/svg"><path d="M356.078 0h-92.664c-21.613 0-39.195 17.582-39.195 39.191v92.668c0 21.61 17.582 39.192 39.195 39.192h92.664c21.61 0 39.192-17.582 39.192-39.192V39.191C395.273 17.582 377.69 0 356.078 0zm9.195 131.86c0 5.066-4.125 9.19-9.195 9.19h-92.664c-5.07 0-9.191-4.124-9.191-9.19V39.19c0-5.066 4.12-9.191 9.191-9.191h92.664c5.07 0 9.195 4.125 9.195 9.191zm0 0" /><path d="M284.297 208.5c-7.2 0-13.985 1.785-19.942 4.938-7.675-11.5-20.765-19.086-35.597-19.086a42.498 42.498 0 00-21.082 5.566c-7.793-10.582-20.336-17.461-34.457-17.461-4.446 0-8.735.68-12.77 1.945v-13.351h3.563c21.613 0 39.195-17.582 39.195-39.196V39.191C203.207 17.582 185.625 0 164.012 0H71.348c-21.61 0-39.192 17.582-39.192 39.191v92.668c0 21.61 17.582 39.192 39.192 39.192h3.566v92.922a43.256 43.256 0 00-7.785-6.176c-9.215-5.723-20.02-7.715-30.613-5.676-11.395.457-21.618 5.43-28.258 13.8-6.977 8.794-9.399 20.583-6.653 32.349l19.715 84.363C32.562 453.02 87.47 505.68 89.81 507.895A15 15 0 00100.12 512h168.711c5.05 0 9.758-2.543 12.535-6.762 29.88-45.453 45.68-98.226 45.684-152.617l.015-101.351v-.004c0-23.582-19.187-42.766-42.77-42.766zM106.422 482c-12.09-12.86-47.715-54.383-55.555-104.563a14.343 14.343 0 00-.215-1.097l-19.836-84.895c-.66-2.836-.328-5.28.942-6.879 1.265-1.597 3.437-2.433 6.336-2.71 1.457-.137 2.062-.31 3.414-.391 3.402-.207 6.89.015 9.789 1.816s4.918 4.621 5.695 7.942l17.11 73.226a15.008 15.008 0 0012.742 11.473l1.203.148a14.996 14.996 0 0016.863-14.882V122.792c0-7.043 5.727-12.77 12.77-12.77 7.039 0 12.77 5.727 12.77 12.77v140.66c0 8.281 6.714 15 15 15 8.284 0 15-6.719 15-15v-38.226c0-7.043 5.726-12.77 12.769-12.77 7.039 0 12.77 5.727 12.77 12.77v39.933c0 8.285 6.714 15 15 15 8.284 0 15-6.715 15-15v-28.039c0-7.039 5.73-12.77 12.769-12.77 7.043 0 12.77 5.731 12.77 12.77v38.516c0 8.281 6.714 15 15 15s15-6.719 15-15V251.27c0-7.043 5.73-12.774 12.769-12.774 7.043 0 12.77 5.73 12.77 12.77l-.016 101.351c-.004 45.848-12.59 90.406-36.465 129.383zM62.156 131.86V39.19c0-5.066 4.125-9.191 9.192-9.191h92.664c5.07 0 9.195 4.125 9.195 9.191v92.668c0 5.067-4.125 9.192-9.195 9.192h-3.563v-18.262c0-23.582-19.187-42.77-42.77-42.77-23.581 0-42.769 19.188-42.769 42.77v18.262h-3.562c-5.067 0-9.192-4.125-9.192-9.192zm0 0" /></svg>
