<svg viewBox="0 0 512 512" xmlns="http://www.w3.org/2000/svg"><path d="M346 0H166c-8.285 0-15 6.715-15 15v110c0 8.285 6.715 15 15 15h180c8.285 0 15-6.715 15-15V15c0-8.285-6.715-15-15-15zm-15 110H181V30h150zm0 0M346 186H166c-8.285 0-15 6.715-15 15v110c0 8.285 6.715 15 15 15h180c8.285 0 15-6.715 15-15V201c0-8.285-6.715-15-15-15zm-15 110H181v-80h150zm0 0M346 372H166c-8.285 0-15 6.715-15 15v110c0 8.285 6.715 15 15 15h180c8.285 0 15-6.715 15-15V387c0-8.285-6.715-15-15-15zm-15 110H181v-80h150zm0 0M457 78h-60c-8.285 0-15 6.715-15 15s6.715 15 15 15h60c13.785 0 25 11.215 25 25v60c0 13.785-11.215 25-25 25h-23.785l14.39-14.395c5.86-5.855 5.86-15.355 0-21.21-5.855-5.86-15.355-5.86-21.21 0l-40 40c-5.86 5.855-5.86 15.351 0 21.21l40 40C429.32 286.535 433.16 288 437 288s7.68-1.465 10.605-4.395c5.86-5.855 5.86-15.355 0-21.21L433.215 248H457c30.328 0 55-24.672 55-55v-60c0-30.328-24.672-55-55-55zm0 0M55 294h60c8.285 0 15-6.715 15-15s-6.715-15-15-15H55c-30.328 0-55 24.672-55 55v60c0 30.328 24.672 55 55 55h23.785l-14.39 14.395c-5.86 5.855-5.86 15.355 0 21.21C67.32 472.535 71.16 474 75 474s7.68-1.465 10.605-4.395l40-40c5.86-5.855 5.86-15.355 0-21.21l-40-40c-5.855-5.86-15.355-5.86-21.21 0-5.86 5.855-5.86 15.351 0 21.21L78.785 404H55c-13.785 0-25-11.215-25-25v-60c0-13.785 11.215-25 25-25zm0 0" /></svg>
