<svg xmlns="http://www.w3.org/2000/svg" viewBox="0 0 215.35 215.35"><path d="M7.5 65.088a7.5 7.5 0 007.5-7.5V25.61l48.305 48.295a7.479 7.479 0 005.303 2.196c1.92 0 3.84-.732 5.304-2.197a7.498 7.498 0 00-.001-10.606L25.604 15.002h31.985a7.5 7.5 0 000-15H7.5a7.5 7.5 0 00-7.5 7.5v50.087a7.5 7.5 0 007.5 7.499zM207.85 150.262a7.5 7.5 0 00-7.5 7.5v31.979l-49.792-49.792a7.5 7.5 0 00-10.607 10.606l49.791 49.791h-31.977a7.5 7.5 0 00-7.5 7.5 7.5 7.5 0 007.5 7.5h50.086a7.5 7.5 0 007.5-7.5v-50.084a7.502 7.502 0 00-7.501-7.5zM64.792 139.949L15.005 189.74v-31.978c0-4.142-3.357-7.5-7.5-7.5s-7.5 3.358-7.5 7.5v50.086a7.5 7.5 0 007.5 7.5h50.084a7.5 7.5 0 000-15H25.611l49.788-49.793a7.5 7.5 0 10-10.607-10.606zM207.85.002h-50.086a7.5 7.5 0 00-7.5 7.5 7.5 7.5 0 007.5 7.5h31.979l-48.298 48.301a7.5 7.5 0 005.304 12.803 7.482 7.482 0 005.304-2.197l48.298-48.301v31.98a7.5 7.5 0 007.5 7.5 7.5 7.5 0 007.5-7.5V7.502a7.501 7.501 0 00-7.501-7.5z" /></svg>
