<svg viewBox="0 0 512 512" xmlns="http://www.w3.org/2000/svg"><path d="M467 45c0-24.813-20.187-45-45-45s-45 20.187-45 45 20.187 45 45 45 45-20.187 45-45zm-45 15c-8.271 0-15-6.729-15-15s6.729-15 15-15 15 6.729 15 15-6.729 15-15 15zM362 210h120c8.284 0 15-6.716 15-15v-30c0-41.355-33.645-75-75-75s-75 33.645-75 75v30c0 8.284 6.716 15 15 15zm15-45c0-24.813 20.187-45 45-45s45 20.187 45 45v15h-90v-15zM497 482H30V16c0-8.284-6.716-15-15-15S0 7.716 0 16v481c0 8.284 6.716 15 15 15h482c8.284 0 15-6.716 15-15s-6.716-15-15-15z" /><path d="M76 451h90c8.284 0 15-6.716 15-15v-90c0-8.284-6.716-15-15-15H76c-8.284 0-15 6.716-15 15v90c0 8.284 6.716 15 15 15zm15-90h60v60H91v-60zM316 271h-90c-8.284 0-15 6.716-15 15v150c0 8.284 6.716 15 15 15h90c8.284 0 15-6.716 15-15V286c0-8.284-6.716-15-15-15zm-15 150h-60V301h60v120zM377 241c-8.284 0-15 6.716-15 15v180c0 8.284 6.716 15 15 15h90c8.284 0 15-6.716 15-15V256c0-8.284-6.716-15-15-15h-90zm75 180h-60V271h60v150zM76 301c3.839 0 7.678-1.464 10.606-4.394L166 217.213l19.394 19.393c5.857 5.858 15.355 5.858 21.213 0L301 142.213V166c0 8.284 6.716 15 15 15s15-6.716 15-15v-60l-.002-.044C330.973 97.58 324.119 91 315.995 91H256c-8.284 0-15 6.716-15 15s6.716 15 15 15h23.787L196 204.787l-19.394-19.393c-5.857-5.858-15.355-5.858-21.213 0l-90 90c-5.858 5.858-5.858 15.355 0 21.213A14.953 14.953 0 0076 301z" /></svg>
