<svg viewBox="0 0 512 512" xmlns="http://www.w3.org/2000/svg"><path d="M496.91 49.848H290.945l-7.597-37.274A15.09 15.09 0 00268.558.5h-147.75a15.089 15.089 0 00-14.785 12.074l-7.601 37.274H82.418a15.087 15.087 0 00-15.09 15.113l.313 183.105C27.992 264.371 0 303.406 0 348.867c0 60.067 48.867 108.934 108.934 108.934 43.015 0 80.28-25.063 97.976-61.348h290c8.332 0 15.09-6.758 15.09-15.09V64.938c0-8.333-6.758-15.09-15.09-15.09zM133.133 30.684h123.105l3.907 19.164H129.227zm-24.2 396.933c-43.425 0-78.753-35.328-78.753-78.75 0-43.426 35.328-78.758 78.754-78.758 43.425 0 78.753 35.332 78.753 78.758 0 43.422-35.328 78.75-78.753 78.75zm372.887-61.344H216.473a109.329 109.329 0 001.398-17.406c0-60.07-48.871-108.937-108.937-108.937-3.754 0-7.465.191-11.125.566l-.274-160.469H481.82zm0 0" /><path d="M329.906 334.129h103.621c8.336 0 15.094-6.758 15.094-15.09 0-8.336-6.758-15.09-15.094-15.09h-103.62c-8.337 0-15.09 6.754-15.09 15.09 0 8.332 6.753 15.09 15.09 15.09zm0 0M148.563 333.773h-24.54v-24.535c0-8.332-6.753-15.09-15.09-15.09-8.331 0-15.09 6.758-15.09 15.09v24.535H69.31c-8.332 0-15.09 6.758-15.09 15.094 0 8.332 6.758 15.09 15.09 15.09h24.535v24.535c0 8.332 6.758 15.09 15.09 15.09 8.336 0 15.09-6.758 15.09-15.09v-24.535h24.538c8.333 0 15.09-6.758 15.09-15.09 0-8.336-6.757-15.094-15.09-15.094zm0 0" /></svg>
