<svg viewBox="0 0 512 512" xmlns="http://www.w3.org/2000/svg"><path d="M509.409 271.549c-52.804-77.589-49.339-72.696-50.798-74.168a15 15 0 00-3.215-2.436c-1.29-.732 7.198 2.871-142.421-59.473 3.93-7.484 7.043-8.528 13.009-19.883C353.735 62.486 314.578-.572 255.409.004c-42.581.189-77.978 34.938-78.381 78.22-.122 12.744 2.833 24.863 7.995 35.396 6.285 12.887 9.626 13.53 13.977 21.869-151.198 63.002-143.383 58.704-146.977 63.503-.738 1-14.261 20.9-49.416 72.557-5.351 7.862-2.116 18.66 6.657 22.296l39.744 16.474v105.67a14.999 14.999 0 009.169 13.82c205.659 86.763 192.65 81.473 195.115 81.922 1.558.288 2.864.258 2.715.258 4.41 0-6.357 3.962 197.831-82.18a15 15 0 009.169-13.82v-105.67l39.744-16.474c8.786-3.641 12.002-14.445 6.658-22.296zM207.055 77.171c.976-26.476 24.242-49.518 53.353-46.976 26.076 2.332 46.04 24.958 44.508 51.696-1.522 25.868-23.039 46.097-48.907 46.097-27.576 0-49.976-22.93-48.954-50.817zm30.465 106.817l-3.037-29.005c13.734 3.895 28.539 4.118 43.058-.003l-3.042 29.008zm-28.43 16.563c.8 7.638 7.239 13.438 14.918 13.438h17v9c0 8.284 6.716 15 15 15s15-6.716 15-15v-9h17c7.679 0 14.117-5.799 14.918-13.436l3.694-35.229 102.389 42.664-153.002 63.751-153.002-63.751L205.4 165.321zM69.529 226.538l163.893 68.289-31.056 46.584L37.78 273.189zm9.48 96.216l123.256 51.091c6.576 2.727 14.226.462 18.225-5.536l20.519-30.778v136.85l-162-68.344zm354 83.282l-162 68.344V337.53l20.519 30.778c3.946 5.919 11.565 8.299 18.225 5.536l123.256-51.091zm-123.357-64.625l-31.056-46.584 163.893-68.289 31.749 46.651-164.586 68.222zM383.99 54.99c1.782 0-1.906.526 50.484-8.206 8.172-1.362 13.692-9.09 12.33-17.262-1.362-8.171-9.09-13.689-17.262-12.33l-48 8c-8.172 1.362-13.692 9.09-12.33 17.262 1.223 7.337 7.578 12.536 14.778 12.536z" /><path d="M372.37 126.54c34.362 8.591 33.066 8.452 35.649 8.452 6.721 0 12.837-4.551 14.541-11.366 2.009-8.036-2.877-16.181-10.914-18.189l-32-8c-8.037-2.011-16.181 2.877-18.19 10.914-2.009 8.036 2.878 16.18 10.914 18.189zM77.543 46.784c52.441 8.74 48.702 8.206 50.484 8.206 7.2 0 13.555-5.199 14.778-12.536 1.362-8.172-4.158-15.899-12.33-17.262l-48-8c-8.175-1.365-15.9 4.158-17.262 12.33s4.158 15.9 12.33 17.262zM132.37 97.437l-32 8c-8.037 2.009-12.923 10.153-10.914 18.189 1.999 7.998 10.116 12.935 18.19 10.914l32-8c8.037-2.009 12.923-10.153 10.914-18.189-2.009-8.038-10.153-12.93-18.19-10.914z" /></svg>
