<svg xmlns="http://www.w3.org/2000/svg" viewBox="0 0 513.976 513.976"><path d="M318.976.988c-107.523 0-195 87.477-195 195 0 48.374 17.713 92.685 46.984 126.803l-27.577 27.577c-5.983-2.865-12.578-4.381-19.406-4.381-11.982 0-23.252 4.655-31.745 13.11L13.159 436.17c-17.544 17.544-17.544 46.091 0 63.635 8.5 8.501 19.8 13.182 31.817 13.182 11.981 0 23.25-4.654 31.742-13.107l79.076-77.075c13.826-13.826 16.748-34.482 8.782-51.204l27.597-27.597c34.119 29.271 78.429 46.984 126.803 46.984 107.523 0 195-87.477 195-195s-87.477-195-195-195zM134.637 401.535L55.58 478.592c-2.835 2.835-6.601 4.396-10.604 4.396s-7.77-1.561-10.604-4.396c-5.828-5.828-5.847-15.3-.057-21.152l79.057-77.057c5.848-5.848 15.361-5.848 21.209 0 5.827 5.829 5.846 15.3.056 21.152zm184.339-40.547c-90.981 0-165-74.019-165-165s74.019-165 165-165 165 74.019 165 165-74.019 165-165 165z" /><path d="M408.976 105.988h-180c-8.284 0-15 6.716-15 15v30c0 8.284 6.716 15 15 15s15-6.716 15-15v-15h60v150h-15c-8.284 0-15 6.716-15 15s6.716 15 15 15h60c8.284 0 15-6.716 15-15s-6.716-15-15-15h-15v-150h60v15c0 8.284 6.716 15 15 15s15-6.716 15-15v-30c0-8.284-6.716-15-15-15z" /></svg>
