<svg viewBox="0 0 128 128" xmlns="http://www.w3.org/2000/svg"><path d="M31.648 40H12a4 4 0 010-8h19.648a28.058 28.058 0 0122.785 11.725l4.651 6.511-4.916 6.882-6.245-8.743A20.038 20.038 0 0031.648 40zm87.18 49.172l-16-16c-1.563-1.563-4.094-1.563-5.656 0s-1.563 4.094 0 5.656L106.344 88h-9.992a20.04 20.04 0 01-16.275-8.375l-6.245-8.743-4.916 6.882 4.651 6.511A28.056 28.056 0 0096.352 96h9.992l-9.172 9.172a3.997 3.997 0 000 5.656c.781.781 1.805 1.172 2.828 1.172s2.047-.391 2.828-1.172l16-16a3.997 3.997 0 000-5.656zm0-56l-16-16c-1.563-1.563-4.094-1.563-5.656 0s-1.563 4.094 0 5.656L106.344 32h-9.992a28.06 28.06 0 00-22.787 11.727L47.926 79.623A20.044 20.044 0 0131.648 88H12a4 4 0 000 8h19.648a28.06 28.06 0 0022.787-11.727l25.639-35.896A20.044 20.044 0 0196.352 40h9.992l-9.172 9.172a3.997 3.997 0 000 5.656C97.953 55.609 98.977 56 100 56s2.047-.391 2.828-1.172l16-16a3.997 3.997 0 000-5.656z" /></svg>
