<svg viewBox="0 0 512 512" xmlns="http://www.w3.org/2000/svg"><path d="M165.051 121.887c-24.809 0-44.992 20.184-44.992 44.992s20.184 44.992 44.992 44.992 44.992-20.184 44.992-44.992-20.183-44.992-44.992-44.992zm0 59.99c-8.27 0-14.997-6.728-14.997-14.997s6.728-14.997 14.997-14.997 14.997 6.728 14.997 14.997-6.727 14.997-14.997 14.997zM105.061 211.872c-24.809 0-44.992 20.184-44.992 44.992 0 24.809 20.184 44.992 44.992 44.992s44.992-20.184 44.992-44.992c.001-24.808-20.183-44.992-44.992-44.992zm0 59.99c-8.27 0-14.997-6.728-14.997-14.997 0-8.27 6.728-14.997 14.997-14.997s14.997 6.728 14.997 14.997c.001 8.269-6.727 14.997-14.997 14.997zM135.056 331.852c-24.809 0-44.992 20.184-44.992 44.992 0 24.809 20.184 44.992 44.992 44.992s44.992-20.184 44.992-44.992c.001-24.809-20.183-44.992-44.992-44.992zm0 59.989c-8.27 0-14.997-6.728-14.997-14.997 0-8.27 6.728-14.997 14.997-14.997s14.997 6.728 14.997 14.997c.001 8.27-6.727 14.997-14.997 14.997z" /><path d="M490.564 71.222c15.043-22.064 30.34-49.363 14.957-64.744-7.259-7.259-18.181-8.424-32.466-3.462-9.144 3.176-20.246 8.946-32.994 17.15-26.254 16.894-60.308 44.817-91.726 78.146-57.61-37.558-128.99-45.705-192.013-25.544C52.201 106.077-17.897 212.466 4.14 330.203c16.257 86.848 85.119 157.749 171.353 176.428 16.519 3.578 33.088 5.37 49.546 5.37 11.229 0 22.408-.835 33.481-2.505 23.93-3.609 43.563-20.343 51.236-43.67 7.916-24.059 1.809-50.029-15.941-67.78-11.719-11.709-11.727-30.687.004-42.408 11.728-11.727 30.684-11.728 42.413 0 17.733 17.733 43.655 23.843 67.648 15.95 23.294-7.664 40.008-27.301 43.62-51.249 7.948-52.674-2.621-110.311-35.472-159.187 26.362-24.897 57.989-59.797 78.536-89.93zm-12.165-38.09c-7.306 15.324-22.145 34.914-32.873 48.072L429.17 64.848c13.651-10.687 33.274-24.745 49.229-31.716zM417.84 315.865c-1.943 12.883-10.667 23.062-23.335 27.23-10.329 3.397-25.489 2.906-37.064-8.668-23.387-23.387-61.444-23.389-84.827-.004-23.452 23.433-23.461 61.399-.004 84.837 11.59 11.59 12.07 26.811 8.655 37.192-4.179 12.702-14.354 21.443-27.218 23.383-23.691 3.574-47.982 2.726-72.204-2.521-74.59-16.156-134.155-77.494-148.22-152.631C7.922 187.38 125.443 69.928 262.866 95.652c22.99 4.303 45.21 12.961 65.15 25.276-17.182 20.121-36.031 45.096-44.425 66.211-20.264-5.756-42.982-.685-58.904 15.237-7.054 7.053-12.273 15.812-15.094 25.329-4.544 15.33-18.707 27.05-36.08 29.857a14.997 14.997 0 00-8.213 25.41l4.242 4.241c18.695 18.696 43.552 28.992 69.991 28.992s51.296-10.296 69.991-28.992c16.582-16.582 21.393-40.534 14.464-61.409 21.026-8.696 45.666-27.382 65.485-44.347 26.873 41.949 34.967 90.655 28.367 134.408zm-129.526-49.86c-13.031 13.03-30.355 20.207-48.783 20.207-12.082 0-23.691-3.086-33.925-8.883 15.701-9.27 27.621-23.823 32.742-41.099 1.426-4.808 3.965-9.062 7.547-12.644 11.693-11.695 30.724-11.695 42.419 0 11.613 11.617 11.76 30.659 0 42.419zm50.453-83.084c-13.114 9.026-21.932 13.498-27.498 15.71 2.214-5.566 6.684-14.384 15.71-27.497 20.467-29.734 51.654-62.772 79.058-87.002l19.871 19.871c-25.06 27.711-56.718 57.977-87.141 78.918z" /></svg>
