<svg viewBox="0 0 512 512" xmlns="http://www.w3.org/2000/svg"><path d="M497 482h-2.697v-74.042c0-8.284-6.716-15-15-15h-52.222V319.07c0-8.284-6.716-15-15-15H271v-61.151h112.512c35.045 0 63.556-28.583 63.556-63.717 0-15.948-5.908-31.21-16.635-42.974-7.782-8.535-17.615-14.708-28.457-18.002-5.716-29.289-31.512-51.458-62.375-51.458h-.254c-3.592-16.052-11.744-30.752-23.745-42.474C299.563 8.628 278.396 0 256 0s-43.563 8.628-59.602 24.294c-12 11.722-20.153 26.421-23.745 42.474-30.947-.155-56.897 22.089-62.629 51.458-10.842 3.293-20.674 9.467-28.457 18.002-10.728 11.764-16.635 27.025-16.635 42.974 0 35.134 28.511 63.717 63.556 63.717H241v61.151H99.918c-8.284 0-15 6.716-15 15v73.888h-52.22c-8.284 0-15 6.716-15 15V482H15c-8.284 0-15 6.716-15 15s6.716 15 15 15h169.837c8.284 0 15-6.716 15-15s-6.716-15-15-15h-2.698v-74.042c0-8.284-6.716-15-15-15h-52.221V334.07h282.163v58.888H344.86c-8.284 0-15 6.716-15 15V482h-2.697c-8.284 0-15 6.716-15 15s6.716 15 15 15H497c8.284 0 15-6.716 15-15s-6.716-15-15-15zM94.932 179.202c0-17.485 13.042-31.912 30.338-33.558 7.736-.736 13.629-7.258 13.579-15.029 0-.105-.002-.209-.005-.315.099-18.508 15.113-33.532 33.555-33.532 3.069 0 6.138.428 9.119 1.271a15.001 15.001 0 0019.078-14.006c.415-14.529 6.368-28.124 16.764-38.277C227.763 35.596 241.485 30 256 30s28.237 5.596 38.64 15.756c10.396 10.154 16.35 23.748 16.764 38.278a15.002 15.002 0 0019.079 14.005 33.466 33.466 0 019.118-1.271c18.442 0 33.458 15.027 33.556 33.536l-.005.214c-.101 7.807 5.806 14.386 13.578 15.126 17.296 1.646 30.338 16.072 30.338 33.558 0 18.592-15.053 33.717-33.556 33.717H128.488c-18.503 0-33.556-15.126-33.556-33.717zM152.14 482H47.698v-59.042H152.14zm207.72 0v-59.042h104.442V482z" /></svg>
