<svg viewBox="0 0 512 512" xmlns="http://www.w3.org/2000/svg"><path d="M497 392h-31v-46c0-8.284-6.716-15-15-15H331v-30s38.535-.012 38.799-.021C414.615 299.428 451 263.423 451 218.5c0-43.336-33.585-78.975-76.095-82.254C384.742 63.802 328.179 0 256 0c-66.989 0-121.247 55.164-119.979 122.247C93.497 129.398 61 166.475 61 211c0 49.626 40.374 90 90 90h30v30H61c-8.284 0-15 6.716-15 15v46H15c-8.284 0-15 6.716-15 15v90c0 8.284 6.716 15 15 15h90c8.284 0 15-6.716 15-15v-90c0-8.284-6.716-15-15-15H76v-31h120c8.284 0 15-6.716 15-15v-45h30v91h-30c-8.284 0-15 6.716-15 15v90c0 8.284 6.716 15 15 15h90c8.284 0 15-6.716 15-15v-90c0-8.284-6.716-15-15-15h-30v-91h30v45c0 8.284 6.716 15 15 15h120v31h-29c-8.284 0-15 6.716-15 15v90c0 8.284 6.716 15 15 15h90c8.284 0 15-6.716 15-15v-90c0-8.284-6.716-15-15-15zM90 482H30v-60h60zm196 0h-60v-60h60zM91 211c0-33.084 26.921-60.546 59.946-60 10.87.18 17.448-8.419 16.097-17.239C158.668 79.06 201.068 30 256 30c60.866 0 104.362 59.537 85.69 117.586-3.474 10.801 5.878 21.434 17.049 19.335C391.39 160.786 421 185.956 421 218.5c0 28.732-23.376 52.278-52.109 52.488a14.52 14.52 0 00-.512.012H151c-33.084 0-60-26.916-60-60zm391 271h-60v-60h60z" /></svg>
