<svg xmlns="http://www.w3.org/2000/svg" viewBox="0 0 219.15 219.15"><path d="M109.575 0C49.156 0 .002 49.155.002 109.576c0 60.419 49.154 109.574 109.573 109.574s109.573-49.155 109.573-109.574C219.148 49.155 169.994 0 109.575 0zm0 204.15c-52.148 0-94.573-42.426-94.573-94.574C15.002 57.427 57.427 15 109.575 15s94.573 42.427 94.573 94.576c0 52.149-42.425 94.574-94.573 94.574z" /><path d="M124.29 62.645a7.501 7.501 0 00-10.606 10.607l28.821 28.82-83.457.008a7.5 7.5 0 100 15l83.46-.008-28.827 28.825a7.5 7.5 0 000 10.606 7.474 7.474 0 005.303 2.197 7.477 7.477 0 005.303-2.196l41.629-41.627a7.5 7.5 0 000-10.608L124.29 62.645z" /></svg>
