<svg viewBox="0 0 192 192" xmlns="http://www.w3.org/2000/svg" ><path fill="none" d="M0 0h192v192H0z"/><circle fill="#4285F4" cx="96" cy="96" r="88"/><linearGradient id="tasks1" gradientUnits="userSpaceOnUse" x1="50.0002" y1="97.9998" x2="82.0002" y2="129.9997"><stop offset="0" stop-color="#1a237e" stop-opacity=".2"/><stop offset="1" stop-color="#1a237e" stop-opacity=".02"/></linearGradient><path fill="url(#tasks1)" d="M94.73 117.27l-25.46 25.46-32-32 25.46-25.46z"/><path fill="none" d="M25.66 122.34l48.68-48.68"/><linearGradient id="tasks2" gradientUnits="userSpaceOnUse" x1="110" y1="101.9999" x2="162.13" y2="154.13"><stop offset="0" stop-color="#1a237e" stop-opacity=".2"/><stop offset="1" stop-color="#1a237e" stop-opacity=".02"/></linearGradient><path fill="url(#tasks2)" d="M68.14 143.86l39.39 39.39C150.68 177.6 184 140.69 184 96c0-1.27-.03-2.54-.09-3.8l-32.06-32.06-83.71 83.72z"/><image overflow="visible" opacity=".2" width="251" height="250" transform="matrix(.24 0 0 .24 19.92 72)"/><circle fill="#FBBC04" cx="50" cy="98" r="18"/><image overflow="visible" opacity=".2" width="484" height="484" transform="matrix(.24 0 0 .24 51.84 48)"/><path fill="#FFF" d="M151.86 80.14c5.52-5.52 5.52-14.48 0-20s-14.48-5.52-20 0l-63.72 63.72c-5.52 5.52-5.52 14.48 0 20s14.48 5.52 20 0l63.72-63.72z"/><path opacity=".2" fill="#FFF" d="M50 81c9.77 0 17.71 7.79 17.97 17.5 0-.17.03-.33.03-.5 0-9.94-8.06-18-18-18s-18 8.06-18 18c0 .17.02.33.03.5C32.29 88.79 40.23 81 50 81z"/><path opacity=".2" fill="#FFF" d="M96 9c48.44 0 87.73 39.14 87.99 87.51 0-.17.01-.34.01-.51 0-48.6-39.4-88-88-88S8 47.4 8 96c0 .16.01.32.01.49C8.28 48.12 47.57 9 96 9z"/><path opacity=".2" fill="#FFF" d="M68.14 124.87l63.72-63.73c5.52-5.52 14.48-5.52 20 0 2.63 2.63 4.01 6.06 4.13 9.51.13-3.78-1.24-7.62-4.13-10.51-5.52-5.52-14.48-5.52-20 0l-63.72 63.73c-2.89 2.89-4.25 6.72-4.12 10.5.13-3.45 1.49-6.86 4.12-9.5z"/><path opacity=".2" fill="#1A237E" d="M96 183c-48.44 0-87.73-39.14-87.99-87.51 0 .17-.01.34-.01.51 0 48.6 39.4 88 88 88s88-39.4 88-88c0-.16-.01-.32-.01-.49C183.72 143.88 144.43 183 96 183z"/><path opacity=".2" fill="#1A237E" d="M50 116c-9.77 0-17.71-7.79-17.97-17.5 0 .17-.03.33-.03.5 0 9.94 8.06 18 18 18s18-8.06 18-18c0-.17-.02-.33-.03-.5-.26 9.71-8.2 17.5-17.97 17.5zM151.87 80.13l-63.73 63.73c-5.52 5.52-14.48 5.52-20 0-2.63-2.63-4-6.05-4.12-9.5-.13 3.78 1.23 7.61 4.12 10.5 5.52 5.52 14.48 5.52 20 0l63.73-63.73c2.89-2.89 4.25-6.72 4.12-10.5-.12 3.45-1.48 6.86-4.12 9.5z"/><radialGradient id="tasks3" cx="33.7802" cy="33.7769" r="175.9989" gradientUnits="userSpaceOnUse"><stop offset="0" stop-color="#fff" stop-opacity=".1"/><stop offset="1" stop-color="#fff" stop-opacity="0"/></radialGradient><circle fill="url(#tasks3)" cx="96" cy="96" r="88"/></svg>
