<svg viewBox="0 0 512 512" xmlns="http://www.w3.org/2000/svg"><path d="M312.112 95.714l10.596-5.298c7.41-3.705 10.413-12.715 6.708-20.125-3.704-7.41-12.713-10.414-20.124-6.708l-33.446 16.723C286.682 51.264 314.434 30 346 30c8.284 0 15-6.716 15-15s-6.716-15-15-15c-50.876 0-92.308 37.399-102.513 83.973l-40.779-20.39c-7.409-3.705-16.419-.701-20.124 6.708-3.705 7.41-.702 16.419 6.708 20.125l10.596 5.298C81.676 111.98 0 181.632 0 302c0 143.099 114.258 210 256 210 142.233 0 256-67.245 256-210 0-120.595-81.92-190.053-199.888-206.286zM256 482c-128.465 0-209.929-55.455-223.861-150H61v15c0 8.284 6.716 15 15 15s15-6.716 15-15v-15h30v45c0 8.284 6.716 15 15 15s15-6.716 15-15v-45h30v15c0 8.284 6.716 15 15 15s15-6.716 15-15v-15h30v45c0 8.284 6.716 15 15 15s15-6.716 15-15v-45h30v15c0 8.284 6.716 15 15 15s15-6.716 15-15v-15h30v45c0 8.284 6.716 15 15 15s15-6.716 15-15v-45h30v15c0 8.284 6.716 15 15 15s15-6.716 15-15v-15h28.861C465.929 426.545 384.465 482 256 482zM30 302c0-112.71 84.486-180 226-180s226 67.29 226 180z" /><path d="M275.394 216.394L256 235.787l-19.394-19.393c-5.857-5.858-15.355-5.858-21.213 0s-5.858 15.355 0 21.213l30 30c5.857 5.858 15.355 5.859 21.213 0l30-30c5.858-5.858 5.858-15.355 0-21.213-5.857-5.859-15.355-5.859-21.212 0z" /></svg>
