<svg xmlns="http://www.w3.org/2000/svg" viewBox="0 0 512 512"><path d="M471.806 72.059c-31.098-39.634-75.73-64.746-125.678-70.708-49.89-5.957-99.111 7.912-138.594 39.05-47.505 37.467-74.26 95.979-71.624 156.58-.233.23-.47.454-.701.686-37.369 37.467-46.317 92.795-26.86 138.824l-94.565 94.811c-18.379 18.427-18.379 48.408 0 66.835C22.7 507.077 34.559 512 47.175 512s24.475-4.923 33.391-13.863l94.476-94.722c15.404 6.565 32.115 10.018 49.359 10.018h.001c33.429 0 64.871-12.955 88.626-36.483.517.031 1.033.066 1.551.092 3.146.158 6.285.236 9.421.236 42.067-.001 83.039-14.166 116.277-40.38 81.521-64.291 95.664-183.098 31.529-264.839zm-23.61 18.515c34.834 44.395 42.212 101.782 24.62 151.435-.231-.04-.457-.092-.692-.121l-11.242-1.386c-6.934-.853-11.891-7.007-11.286-14.008 1.904-22.011-12.996-41.751-34.658-45.917l-32.92-6.332c-6.391-1.229-10.884-7.081-10.452-13.611l4.127-62.435a12.943 12.943 0 012.832-7.285l29.199-36.394c.084-.105.153-.217.234-.324 15.201 9.575 28.807 21.809 40.238 36.378zm-256.48 11.039c4.11 1.265 7.884 2.846 11.24 4.723 10.077 5.641 14.117 17.926 9.397 28.577l-11.523 25.998a15.028 15.028 0 00-.719 2.052 124.47 124.47 0 00-33.735 11.78 159.663 159.663 0 0125.34-73.13zM59.318 476.954c-3.246 3.255-7.559 5.047-12.143 5.047s-8.897-1.792-12.143-5.047c-6.729-6.746-6.729-17.724 0-24.47l88.865-89.096a126.834 126.834 0 0011.313 13.008 128.103 128.103 0 0013.033 11.404zm165.084-93.519c-25.664 0-49.794-10.022-67.945-28.221-37.498-37.595-37.498-98.769 0-136.364 18.151-18.199 42.281-28.221 67.945-28.221s49.794 10.022 67.946 28.221c37.498 37.595 37.498 98.769 0 136.364-18.152 18.198-42.282 28.221-67.946 28.221zm197.291-70.088a157.797 157.797 0 01-86.188 33.504c25.608-47.843 18.31-108.859-21.91-149.184-21.635-21.691-49.748-34.528-79.968-36.704l6.159-13.897c11.032-24.892 1.5-53.654-22.172-66.906a81.602 81.602 0 00-6.131-3.083 157.061 157.061 0 0114.635-13.124c28.146-22.197 62.175-33.95 97.442-33.95 6.305 0 12.652.376 19.01 1.135 13.16 1.571 25.88 4.726 37.95 9.342l-25.403 31.662a42.8 42.8 0 00-9.367 24.078l-4.127 62.435c-1.428 21.6 13.501 40.966 34.725 45.047l32.92 6.332c6.523 1.255 11.008 7.219 10.432 13.874-2.004 23.162 14.473 43.53 37.51 46.367l2.167.267c-9.599 16.017-22.189 30.585-37.684 42.805z" /></svg>
