<svg viewBox="0 0 512 512" xmlns="http://www.w3.org/2000/svg"><path d="M457.472 201.471c-24.799 0-45.771 16.648-52.363 39.351h-31.791c-2.737-21.279-11.156-40.801-23.673-57.003l22.506-22.506c7.967 4.403 16.955 6.754 26.31 6.754 14.566 0 28.259-5.671 38.556-15.971 21.261-21.261 21.261-55.853 0-77.114-10.299-10.3-23.991-15.971-38.556-15.971s-28.258 5.671-38.556 15.971c-17.536 17.536-20.593 44.137-9.201 64.85l-22.524 22.524c-16.203-12.518-35.724-20.936-57.003-23.673v-31.791c22.703-6.591 39.351-27.563 39.351-52.363C310.528 24.461 286.066 0 256 0s-54.528 24.461-54.528 54.528c0 24.8 16.648 45.772 39.351 52.363v31.79c-21.279 2.737-40.802 11.156-57.004 23.673l-22.523-22.523c11.391-20.714 8.335-47.314-9.2-64.851h-.001c-21.26-21.26-55.853-21.262-77.115 0-21.261 21.261-21.261 55.853 0 77.114 10.63 10.63 24.594 15.946 38.556 15.946a54.566 54.566 0 0026.295-6.745l22.523 22.523c-12.518 16.203-20.936 35.724-23.673 57.003h-31.789c-6.591-22.703-27.563-39.351-52.363-39.351C24.461 201.471 0 225.933 0 255.999c0 30.068 24.461 54.529 54.529 54.529 24.8 0 45.771-16.648 52.363-39.352h31.79c2.737 21.279 11.156 40.802 23.674 57.004l-22.523 22.524c-20.713-11.392-47.314-8.336-64.851 9.201-21.261 21.261-21.261 55.853 0 77.114 10.63 10.63 24.594 15.946 38.556 15.946 13.964 0 27.928-5.315 38.558-15.946 17.534-17.536 20.591-44.137 9.2-64.85l22.523-22.524c16.203 12.518 35.725 20.936 57.003 23.673v31.79c-22.703 6.591-39.351 27.563-39.351 52.363 0 30.068 24.461 54.529 54.528 54.529s54.528-24.461 54.528-54.529c0-24.799-16.648-45.771-39.351-52.363v-31.79c21.279-2.738 40.801-11.156 57.003-23.673l22.524 22.524c-11.392 20.713-8.336 47.314 9.201 64.85 10.3 10.3 23.992 15.971 38.556 15.971 14.566 0 28.259-5.671 38.556-15.971 21.261-21.261 21.261-55.853 0-77.114-10.299-10.3-23.991-15.971-38.556-15.971-9.354 0-18.343 2.352-26.31 6.754l-22.506-22.506c12.518-16.203 20.936-35.725 23.673-57.004h31.791c6.591 22.704 27.563 39.352 52.363 39.352 30.067 0 54.528-24.461 54.528-54.529.001-30.068-24.46-54.53-54.527-54.53zM381.369 96.445c4.566-4.565 10.636-7.08 17.093-7.08a24.012 24.012 0 0117.093 7.08c9.424 9.424 9.424 24.761 0 34.185-4.566 4.565-10.635 7.08-17.093 7.08a24.014 24.014 0 01-17.093-7.08c-9.424-9.424-9.424-24.76 0-34.185zm-250.737 34.186c-9.425 9.422-24.762 9.424-34.187 0-9.424-9.424-9.424-24.761 0-34.185 4.712-4.712 10.903-7.069 17.093-7.069 6.19 0 12.381 2.357 17.093 7.069 9.424 9.424 9.424 24.761.001 34.185zM54.529 280.173c-13.329 0-24.174-10.844-24.174-24.174 0-13.329 10.845-24.173 24.174-24.173 13.329 0 24.173 10.844 24.173 24.173-.001 13.331-10.845 24.174-24.173 24.174zm76.103 135.381c-9.424 9.423-24.762 9.424-34.186 0s-9.424-24.761 0-34.185c4.713-4.713 10.902-7.069 17.094-7.069 6.188 0 12.38 2.357 17.092 7.069 9.423 9.425 9.423 24.761 0 34.185zM231.828 54.528c0-13.329 10.844-24.173 24.173-24.173 13.329 0 24.173 10.844 24.173 24.173 0 13.33-10.844 24.174-24.173 24.174-13.329 0-24.173-10.845-24.173-24.174zm48.345 402.943c0 13.33-10.844 24.174-24.173 24.174-13.329 0-24.173-10.844-24.173-24.174 0-13.329 10.844-24.173 24.173-24.173 13.33 0 24.173 10.844 24.173 24.173zM256 343.934c-48.488 0-87.934-39.447-87.934-87.934 0-48.487 39.447-87.933 87.934-87.933 48.487 0 87.933 39.447 87.933 87.933.001 48.487-39.446 87.934-87.933 87.934zm125.368 37.435a24.02 24.02 0 0117.093-7.08c6.459 0 12.528 2.516 17.093 7.08 9.424 9.424 9.424 24.761 0 34.185-4.566 4.565-10.635 7.08-17.093 7.08a24.014 24.014 0 01-17.093-7.08c-9.424-9.424-9.424-24.761 0-34.185zm76.104-101.196c-13.329 0-24.173-10.844-24.173-24.174 0-13.329 10.844-24.173 24.173-24.173s24.173 10.844 24.173 24.173c0 13.331-10.844 24.174-24.173 24.174z" /><path d="M306.441 212.91c-5.725-6.126-15.329-6.45-21.453-.728l-44.511 41.592-13.242-12.869c-6.01-5.841-15.621-5.707-21.462.307-5.841 6.011-5.705 15.621.307 21.462l23.614 22.95a15.138 15.138 0 0010.579 4.293c3.72 0 7.442-1.361 10.361-4.088l55.08-51.467c6.124-5.723 6.45-15.327.727-21.452z" /></svg>
