<svg xmlns="http://www.w3.org/2000/svg" viewBox="0 0 512.048 512.048"><path d="M511.933 302.865c-.008-.095-.013-.192-.023-.287-.045-.417-.11-.833-.19-1.246-.027-.142-.061-.281-.092-.421a14.902 14.902 0 0 0-.226-.879c-.04-.14-.077-.281-.121-.418-.12-.375-.256-.745-.407-1.112-.059-.143-.124-.282-.187-.422a14.282 14.282 0 0 0-.371-.769c-.071-.137-.14-.274-.215-.409a14.934 14.934 0 0 0-.619-1.022l-.024-.036-.035-.052L446.5 201.41c-10.25-15.381-27.409-24.564-45.9-24.564a55.03 55.03 0 0 0-39.621 16.779L301.9 105.01c-10.25-15.381-27.409-24.564-45.9-24.564s-35.65 9.183-45.899 24.562l-58.139 87.205c-9.181-21.073-33.368-47.613-72.696-47.613C35.559 144.6 0 180.159 0 223.867V497c0 8.284 6.716 15 15 15h482c8.284 0 15-6.716 15-15V304.2c0-.063-.009-.123-.009-.186a15.238 15.238 0 0 0-.058-1.149zm-132.27-84.818c4.674-7.014 12.501-11.201 20.937-11.201s16.262 4.187 20.938 11.204l47.434 71.151H332.228zm-144.599-96.401c4.674-7.014 12.5-11.201 20.936-11.201s16.262 4.187 20.938 11.203l40.113 60.165c-3.367 4.86-8.223 8.626-13.98 10.718-12.969 4.72-27.824-.438-33.82-11.74a15.001 15.001 0 0 0-26.502 0c-5.996 11.303-20.853 16.46-33.827 11.737-5.752-2.09-10.606-5.855-13.973-10.715zm-76.531 114.795l19.188-28.786a59.173 59.173 0 0 0 20.948 13.067c20.142 7.33 42.03 3.112 57.33-9.6 15.299 12.711 37.187 16.929 57.324 9.603a59.213 59.213 0 0 0 20.954-13.069l8.128 12.194-46.233 69.35H158.533zM30 223.867c0-27.166 22.101-49.267 49.267-49.267 27.256 0 49.267 22.053 49.267 49.267V304.2c0 27.166-22.101 49.267-49.267 49.267C52.015 353.467 30 331.416 30 304.2zM30 482V366.261a78.97 78.97 0 0 0 34.267 15.765v50.707c0 8.284 6.716 15 15 15s15-6.716 15-15v-50.705c31.7-6.098 56.747-31.128 62.843-62.828h117.16c-10.764 13.533-17.203 30.655-17.203 49.25v64.299c0 18.596 6.439 35.717 17.204 49.25H30zm452-128.533h-49.267c-8.284 0-15 6.716-15 15s6.716 15 15 15H482v34.267h-17.133c-8.284 0-15 6.716-15 15s6.716 15 15 15H482V482H336.333c-27.166 0-49.267-22.101-49.267-49.267v-64.267c0-27.166 22.101-49.267 49.267-49.267H482zM448.8 126.4c34.849 0 63.2-28.351 63.2-63.2S483.648 0 448.8 0s-63.2 28.352-63.2 63.2 28.351 63.2 63.2 63.2zm0-96.4c18.307 0 33.2 14.894 33.2 33.2s-14.894 33.2-33.2 33.2-33.2-14.893-33.2-33.2S430.493 30 448.8 30z" /><path d="M321.333 432.733c0 8.284 6.716 15 15 15H400.6c8.284 0 15-6.716 15-15s-6.716-15-15-15h-64.267c-8.284 0-15 6.716-15 15zM321.333 368.467c0 8.284 6.716 15 15 15h32.133c8.284 0 15-6.716 15-15s-6.716-15-15-15h-32.133c-8.284 0-15 6.716-15 15zM47.133 94.267h80.333c26.278 0 47.133-21.325 47.133-47.133C174.6 20.855 153.275 0 127.467 0H47.133C20.855 0 0 21.325 0 47.133c0 26.278 21.325 47.134 47.133 47.134zm0-64.267h80.333c9.326 0 17.133 7.538 17.133 17.133 0 9.326-7.538 17.133-17.133 17.133H47.133C37.808 64.267 30 56.73 30 47.133 30 37.808 37.537 30 47.133 30z" /></svg>
