<svg viewBox="0 0 512 512" xmlns="http://www.w3.org/2000/svg"><path d="M269.044 186.018c-5.718-10.151-20.402-10.186-26.139.002l-106.06 188.314c-6.549 11.627 4.288 25.44 17.162 21.793L205.7 381.47l.011 82.916c.001 8.283 6.716 14.998 14.999 14.999l69.082.01h.002c8.279 0 15.002-6.718 15.001-15.003l-.012-83.333 53.211 15.097c12.871 3.645 23.718-10.162 17.163-21.794zm24.83 160.76c-9.557-2.711-19.096 4.472-19.095 14.433l.013 88.18-39.08-.006-.012-87.762c-.001-9.955-9.535-17.14-19.093-14.43l-35.753 10.137 75.124-133.385 75.16 133.405zM256.001 148.379c31.919 0 57.887-25.968 57.887-57.887s-25.968-57.887-57.887-57.887-57.887 25.968-57.887 57.887 25.969 57.887 57.887 57.887zm0-85.772c15.376 0 27.886 12.509 27.886 27.886s-12.509 27.886-27.886 27.886-27.886-12.509-27.886-27.886 12.51-27.886 27.886-27.886zM51.205 105.493h101.908c8.285 0 15.001-6.716 15.001-15.001s-6.716-15.001-15.001-15.001H51.205l10.607-10.607c5.858-5.858 5.858-15.356 0-21.214-5.858-5.859-15.356-5.859-21.214 0L4.386 79.883c-5.824 5.82-5.871 15.352 0 21.219l36.212 36.212c5.857 5.858 15.356 5.859 21.214 0 5.858-5.858 5.858-15.356 0-21.214zM507.617 79.883l-36.212-36.212c-5.858-5.859-15.356-5.859-21.214 0-5.858 5.858-5.858 15.356 0 21.214l10.607 10.607H358.891c-8.285 0-15.001 6.716-15.001 15.001s6.716 15.001 15.001 15.001h101.908L450.191 116.1c-5.858 5.858-5.858 15.356 0 21.214 5.857 5.858 15.356 5.859 21.214 0l36.212-36.212c5.93-5.926 5.757-15.466 0-21.219z" /></svg>
