<svg viewBox="0 0 512 512" xmlns="http://www.w3.org/2000/svg"><path d="M357.439 303.592c12.128 16.978 31.823 27.113 52.687 27.113h55.053c24.716 0 44.825-20.108 44.825-44.825s-20.108-44.825-44.825-44.825H431.52l-51.276-64.095c-16.864-21.079-41.471-33.759-68.193-35.343 7.976-11.337 12.678-25.134 12.678-40.016V69.727C324.729 31.28 293.449 0 255.002 0s-69.727 31.28-69.727 69.727v31.875c0 14.883 4.703 28.68 12.677 40.016-26.722 1.584-51.329 14.263-68.193 35.343l-51.275 64.095H44.825C20.108 241.056 0 261.165 0 285.881s20.108 44.825 44.825 44.825h55.053c20.863 0 40.559-10.135 52.687-27.113l7.807-10.931v86.261l-29.751-8.207c-21.526-5.938-44.061-1.585-61.826 11.943-17.766 13.527-27.956 34.094-27.956 56.423 0 39.107 31.814 70.921 70.921 70.921h286.481c39.106 0 70.92-31.815 70.92-70.921 0-22.33-10.189-42.895-27.955-56.424s-40.303-17.882-61.827-11.943l-29.751 8.207v-86.26zM215.158 69.727c0-21.97 17.874-39.844 39.844-39.844s39.844 17.874 39.844 39.844v31.875c0 21.97-17.874 39.844-39.844 39.844s-39.844-17.874-39.844-39.844zM316.376 480.12H111.761c-22.629 0-41.038-18.41-41.038-41.038 0-12.921 5.896-24.822 16.176-32.65 7.267-5.533 15.911-8.413 24.754-8.413 3.668 0 7.369.496 11.021 1.503l197.248 54.413c5.762 1.59 9.787 6.874 9.787 12.853 0 7.352-5.98 13.332-13.333 13.332zm70.953-80.598c12.457-3.438 25.496-.916 35.776 6.911 10.28 7.828 16.176 19.729 16.176 32.65 0 22.628-18.409 41.037-41.038 41.037h-40.764a43.025 43.025 0 002.115-13.333c0-19.376-13.045-36.507-31.724-41.66l-16.682-4.602zm-132.328 5.504l-64.746-17.861V246.037a14.943 14.943 0 00-27.1-8.685l-34.907 48.871a34.933 34.933 0 01-28.37 14.6H44.825c-8.239 0-14.942-6.703-14.942-14.941s6.703-14.941 14.942-14.941h40.84c4.539 0 8.832-2.063 11.667-5.608l55.762-69.702c12.355-15.443 30.782-24.3 50.559-24.3h102.698c19.777 0 38.204 8.857 50.559 24.3l55.762 69.703a14.938 14.938 0 0011.667 5.608h40.84c8.239 0 14.942 6.703 14.942 14.941s-6.703 14.941-14.942 14.941h-55.053a34.933 34.933 0 01-28.37-14.6l-34.907-48.871a14.942 14.942 0 00-27.1 8.684v141.128z" /></svg>
