<svg viewBox="0 0 512 512" xmlns="http://www.w3.org/2000/svg"><path d="M497 353.672c-30.438 0-59.023-11.742-80.5-33.067-21.469-21.312-33.29-49.699-33.29-79.93 0-8.284-6.718-15-15-15-8.284 0-15 6.716-15 15 0 30.231-11.823 58.618-33.292 79.93-21.477 21.325-50.063 33.067-80.5 33.067-8.285 0-15 6.715-15 15s6.715 15 15 15c62.742 0 113.793 50.84 113.793 113.328 0 8.285 6.715 15 15 15 8.281 0 15-6.715 15-15 0-62.488 51.047-113.328 113.789-113.328 8.285 0 15-6.715 15-15s-6.715-15-15-15zm-128.79 79.621c-13.929-27.863-36.698-50.602-64.62-64.54 13.691-6.788 26.332-15.804 37.465-26.858 11.183-11.102 20.297-23.72 27.152-37.391 6.86 13.672 15.973 26.289 27.152 37.39 11.133 11.055 23.778 20.07 37.465 26.86-27.918 13.937-50.687 36.676-64.613 64.539zm0 0M205.234 236.387c-44.175 0-80.117-35.676-80.117-79.532 0-8.28-6.715-15-15-15s-15 6.72-15 15c0 43.856-35.941 79.532-80.117 79.532-8.285 0-15 6.718-15 15 0 8.285 6.715 15 15 15 44.176 0 80.117 35.789 80.117 79.777 0 8.281 6.715 15 15 15s15-6.719 15-15c0-43.988 35.942-79.777 80.117-79.777 8.286 0 15-6.715 15-15 0-8.282-6.714-15-15-15zm-95.117 54.511a110.772 110.772 0 0 0-39.57-39.492c16.34-9.535 30.004-23.14 39.57-39.406 9.567 16.266 23.23 29.871 39.57 39.406a110.74 110.74 0 0 0-39.57 39.492zm0 0M229.637 103.656c32.488 0 58.922 26.23 58.922 58.469 0 8.281 6.714 15 15 15s15-6.719 15-15c0-32.344 26.433-58.656 58.921-58.656 8.286 0 15-6.719 15-15 0-8.285-6.714-15-15-15-32.488 0-58.921-26.23-58.921-58.469 0-8.285-6.715-15-15-15s-15 6.715-15 15c0 32.344-26.434 58.656-58.922 58.656-8.285 0-15 6.715-15 15s6.715 15 15 15zm73.957-39.48a89.451 89.451 0 0 0 24.422 24.308 89.515 89.515 0 0 0-24.493 24.465 89.451 89.451 0 0 0-24.421-24.308 89.462 89.462 0 0 0 24.492-24.465zm0 0" /></svg>
