<svg viewBox="0 0 512 512" xmlns="http://www.w3.org/2000/svg"><path d="M352 177c-18.464 0-41.605 11.574-70.746 35.384-9.99 8.163-18.82 16.271-25.254 22.446-6.435-6.175-15.264-14.283-25.254-22.446C201.605 188.574 178.464 177 160 177c-43.561 0-79 35.439-79 79s35.439 79 79 79c18.464 0 41.605-11.574 70.746-35.384 9.99-8.163 18.82-16.271 25.254-22.446 6.435 6.175 15.264 14.283 25.254 22.446C310.395 323.426 333.536 335 352 335c43.561 0 79-35.439 79-79s-35.439-79-79-79zM160 305c-27.019 0-49-21.981-49-49s21.981-49 49-49c17.223 0 50.936 26.028 74.837 49-23.903 22.974-57.614 49-74.837 49zm192 0c-17.223 0-50.936-26.028-74.837-49 23.903-22.974 57.614-49 74.837-49 27.019 0 49 21.981 49 49s-21.981 49-49 49z" /></svg>
