<svg viewBox="0 0 512.026 512.026" xmlns="http://www.w3.org/2000/svg"><path d="M497 399.775h-6s-.145-272.287-.395-273.373l4.314-4.314c22.809-22.809 22.809-59.922 0-82.731-22.809-22.81-59.923-22.81-82.731 0l-9.918 9.918H107.763c-8.284 0-15 6.716-15 15v50.5H36c-8.284 0-15 6.716-15 15v270h-6c-8.284 0-15 6.716-15 15 0 41.355 33.645 75 75 75h362c41.355 0 75-33.645 75-75 0-8.284-6.716-15-15-15zm-77.763 0v-201.75c0-.082-.011-.162-.012-.244L461 156.008v243.768h-41.763zM356.12 218.461l-40.305-40.305 95.312-95.312 40.305 40.305zm-29.083 13.343l-33.312 8.748 8.748-33.312zM473.706 60.571c11.112 11.112 11.112 29.193 0 40.305l-.914.913-40.305-40.305.913-.913c11.112-11.112 29.193-11.114 40.306 0zM372.27 79.275l-88.287 88.288c-1.872 1.847-3.221 4.24-3.888 6.782l-21.909 83.428a15.003 15.003 0 003.901 14.417 15.008 15.008 0 0014.417 3.901l83.428-21.909a15.142 15.142 0 006.796-3.901l22.511-22.511v172.005H122.763v-320.5zM51 144.775h41.763v255H51zm386 315H75c-19.556 0-36.238-12.539-42.429-30H479.43c-6.191 17.462-22.873 30-42.43 30z" /><path d="M167.388 149.275h83c19.902-.793 19.887-29.215 0-30h-83c-19.902.793-19.887 29.215 0 30zM167.387 209.275h52.189c19.902-.793 19.887-29.215 0-30h-52.189c-19.902.793-19.887 29.215 0 30zM167.387 269.275h39.656c19.902-.793 19.887-29.215 0-30h-39.656c-19.902.793-19.887 29.215 0 30zM167.387 328.775h39.656c19.902-.793 19.887-29.215 0-30h-39.656c-19.902.793-19.887 29.215 0 30z" /></svg>
