<svg viewBox="0 0 512 512" xmlns="http://www.w3.org/2000/svg"><path d="M407 0H105C47.102 0 0 47.102 0 105v302c0 57.898 47.102 105 105 105h302c57.898 0 105-47.102 105-105V105C512 47.102 464.898 0 407 0zm75 407c0 41.355-33.645 75-75 75H105c-41.355 0-75-33.645-75-75V105c0-41.355 33.645-75 75-75h302c41.355 0 75 33.645 75 75zm0 0" /><path d="M421.238 219.848h-26.07a82.898 82.898 0 00-13.469-32.328l17.84-17.84c5.856-5.86 5.856-15.356 0-21.211-5.86-5.86-15.355-5.86-21.215 0l-17.863 17.863a82.817 82.817 0 00-32.309-13.375v-25.445c0-8.285-6.718-15-15-15-8.285 0-15 6.715-15 15v25.46a82.91 82.91 0 00-32.218 13.356l-17.868-17.863c-5.855-5.856-15.351-5.856-21.21 0-5.86 5.86-5.86 15.355 0 21.215l17.84 17.836a83.359 83.359 0 00-9.071 16.949c-37.328 1.445-70.5 24.347-85.39 58.008a68.8 68.8 0 00-5.962-.258c-37.777 0-68.511 30.734-68.511 68.515 0 37.79 30.734 68.536 68.511 68.536 7.961 0 190.215.222 190.215.222 37.782 0 68.516-30.789 68.516-68.636 0-4.325-.418-8.551-1.188-12.657 3.422-5.758 2.676-13.304-2.277-18.258L389.23 289.63a69.338 69.338 0 00-7.02-7.957 82.935 82.935 0 0012.997-31.828h26.031c8.282 0 15-6.715 15-15 0-8.282-6.715-14.996-15-14.996zm-86.75 149.64s-182.238-.222-190.215-.222c-21.234 0-38.511-17.29-38.511-38.536 0-21.238 17.277-38.515 38.511-38.515 3.856 0 7.664.57 11.325 1.691a14.982 14.982 0 0011.593-1.18 14.982 14.982 0 007.25-9.12c8.106-28.977 34.813-49.215 64.942-49.215 30.129 0 56.832 20.238 64.937 49.214a14.988 14.988 0 007.254 9.122 14.992 14.992 0 0011.59 1.18 38.645 38.645 0 0111.324-1.692c21.239 0 38.516 17.332 38.516 38.637 0 21.304-17.277 38.636-38.516 38.636zm0-107.273c-1.992 0-3.98.086-5.96.258-11.626-26.282-34.403-45.996-61.598-54.07 9.226-16.008 26.5-26.817 46.265-26.817 29.43 0 53.371 23.941 53.371 53.371 0 11.535-3.691 22.219-9.937 30.957a68.017 68.017 0 00-22.14-3.7zm0 0" /></svg>
