<svg viewBox="0 0 1007.922 821.827" xmlns="http://www.w3.org/2000/svg" ><defs><radialGradient id="c" cx="410.201" cy="853.349" r="85" gradientTransform="rotate(45 546.8226 785.3543)" gradientUnits="userSpaceOnUse"><stop offset=".5" stop-opacity=".13"/><stop offset=".994" stop-opacity="0"/></radialGradient><radialGradient id="e" cx="1051.126" cy="1265.852" r="85" gradientTransform="rotate(-135 769.601 767.4997)" /><radialGradient id="h" cx="27.608" cy="2001.37" r="85" gradientTransform="scale(1 -1) rotate(45 2979.2315 860.2476)" /><linearGradient id="a" x1="700.766" y1="597.024" x2="749.765" y2="597.024" gradientTransform="matrix(.867 0 0 1.307 86.603 -142.296)" gradientUnits="userSpaceOnUse"><stop offset="0" stop-opacity=".13"/><stop offset=".994" stop-opacity="0"/></linearGradient><linearGradient id="f" x1="1880.8" y1="34.286" x2="1929.799" y2="34.286" gradientTransform="matrix(.867 0 0 -.796 -1446.031 767.147)" /><linearGradient id="i" x1="308.378" y1="811.629" x2="919.318" y2="200.689" gradientTransform="rotate(-45 613.8482 506.1597)" gradientUnits="userSpaceOnUse"><stop offset="0" stop-color="#2987e6"/><stop offset=".994" stop-color="#58c1f5"/></linearGradient><mask id="b" x="317.137" y="651.827" width="170" height="205.208" maskUnits="userSpaceOnUse"><path class="a" transform="rotate(45 546.8227 845.4584)" d="M367.701 870.953h85v85h-85z"/></mask><mask id="d" x="837.922" y="95.835" width="205.208" height="205.208" maskUnits="userSpaceOnUse"><path class="a" transform="rotate(-135 932.8732 245.922)" d="M876.038 260.012h170v85h-170z"/></mask><mask id="g" x="-35.208" y="299.482" width="205.208" height="205.208" maskUnits="userSpaceOnUse"><path class="a" transform="rotate(-45 -81.6732 457.6331)" d="M-21.988 463.659h170v85h-170z"/></mask></defs><path transform="rotate(45 852.2926 570.0402)" fill="#fff" d="M694.422 269.785h42.5v736.5h-42.5z"/><g mask="url(#b)"><circle cx="402.137" cy="736.827" r="85" fill="#fff"/></g><g mask="url(#d)"><circle cx="922.922" cy="216.043" r="85" fill="#fff"/></g><path transform="rotate(135 226.6548 679.927)" fill="#fff" d="M185.305 515.608h42.5v448.5h-42.5z"/><g mask="url(#g)"><circle cx="85" cy="419.69" r="85" fill="#fff"/></g><rect x="164.378" y="319.982" width="288" height="576" rx="42.5" transform="rotate(-45 163.6924 559.4564)" fill="#195abd"/><rect x="469.848" y="74.159" width="288" height="864" rx="42.5" transform="rotate(45 750.4696 438.1637)" fill="url(#i)"/></svg>
