<svg viewBox="0 0 512 512" xmlns="http://www.w3.org/2000/svg"><path d="M482.94 0H149.06C133.036 0 120 13.036 120 29.06v164.941h-12c-8.284 0-15 6.716-15 15s6.716 15 15 15h12v18.837a134.11 134.11 0 00-57.762 20.494c-.013-.018-.022-.037-.035-.055l-7.593-10.621.301-.208c6.807-4.722 8.499-14.067 3.777-20.874-4.721-6.809-14.066-8.498-20.874-3.778l-25.567 17.731c-6.807 4.722-8.499 14.067-3.777 20.874 2.913 4.201 7.587 6.453 12.339 6.453a14.93 14.93 0 008.535-2.675l.612-.425 7.842 10.969a15.2 15.2 0 001.196 1.468C14.899 306.587 0 340.084 0 377c0 74.439 60.561 135 135 135 70.395 0 128.368-54.161 134.461-123h213.48c16.023 0 29.06-13.036 29.06-29.061V29.06C512 13.036 498.964 0 482.94 0zM482 60h-30.001V30H482zm-60.001-30v30H150V30zM195.295 316.704a14.95 14.95 0 0010.607 4.394c3.838 0 7.678-1.465 10.606-4.394l2.554-2.554c10.301 13.743 17.31 30.086 19.862 47.85h-3.653c-8.284 0-15 6.716-15 15s6.716 15 15 15h3.653c-2.552 17.763-9.56 34.106-19.862 47.85l-2.554-2.554c-5.858-5.857-15.355-5.857-21.213 0-5.857 5.858-5.857 15.355 0 21.213l2.554 2.554c-13.743 10.301-30.086 17.309-47.85 19.861v-3.652c0-8.284-6.716-15-15-15s-15 6.716-15 15v3.652c-17.763-2.552-34.106-9.56-47.849-19.862l2.554-2.553c5.858-5.857 5.858-15.355 0-21.213-5.857-5.857-15.355-5.857-21.213 0l-2.554 2.553C40.636 426.106 33.628 409.763 31.076 392h3.653c8.284 0 15-6.716 15-15s-6.716-15-15-15h-3.653c2.552-17.763 9.56-34.106 19.862-47.849l2.554 2.553c2.929 2.929 6.768 4.394 10.606 4.394s7.678-1.465 10.606-4.394c5.858-5.857 5.858-15.355 0-21.213l-2.554-2.553c13.743-10.302 30.086-17.31 47.849-19.862v3.652c0 8.284 6.716 15 15 15s15-6.716 15-15v-3.652c17.763 2.552 34.106 9.56 47.85 19.861l-2.554 2.554c-5.857 5.858-5.857 15.355 0 21.213zM268.797 359C260.669 298.266 212.008 250.189 151 242.952v-17.914c0-.35-.029-.693-.052-1.037H164c8.284 0 15-6.716 15-15s-6.716-15-15-15h-14V90h332v269z" /><path d="M249.269 124.647l-11.242 11.241c-5.878-4.44-14.279-3.98-19.633 1.376-5.858 5.857-5.858 15.355 0 21.213l9.129 9.129c2.929 2.929 6.768 4.394 10.606 4.394s7.678-1.465 10.606-4.394l21.746-21.746c5.858-5.857 5.858-15.355 0-21.213-5.857-5.857-15.355-5.857-21.212 0zM430 131.127H320c-8.284 0-15 6.716-15 15s6.716 15 15 15h110c8.284 0 15-6.716 15-15s-6.716-15-15-15zM249.269 206.394l-11.242 11.241c-5.878-4.439-14.279-3.98-19.633 1.376-5.858 5.857-5.858 15.355 0 21.213l9.129 9.129c2.929 2.929 6.768 4.394 10.606 4.394s7.678-1.465 10.606-4.394l21.746-21.746c5.858-5.857 5.858-15.355 0-21.213-5.857-5.858-15.355-5.858-21.212 0zM430 202.001H320c-8.284 0-15 6.716-15 15s6.716 15 15 15h110c8.284 0 15-6.716 15-15s-6.716-15-15-15zM375 262h-55c-8.284 0-15 6.716-15 15s6.716 15 15 15h55c8.284 0 15-6.716 15-15s-6.716-15-15-15zM150 370.787v-38.059c0-8.284-6.716-15-15-15s-15 6.716-15 15V377c0 3.979 1.581 7.794 4.394 10.606l28.5 28.5c2.929 2.929 6.768 4.394 10.606 4.394s7.678-1.465 10.606-4.394c5.858-5.857 5.858-15.355 0-21.213z" /></svg>
