<svg xmlns="http://www.w3.org/2000/svg" viewBox="0 0 512 512"><circle cx="286" cy="376" r="15" /><path d="M217.68 388.481c6.882 4.586 16.198 2.744 20.801-4.161l60-90c4.596-6.893 2.733-16.206-4.16-20.801-6.893-4.594-16.206-2.732-20.801 4.161l-60 90c-4.596 6.892-2.734 16.205 4.16 20.801z" /><circle cx="226" cy="286" r="15" /><path d="M256 451c66.168 0 120-53.832 120-120s-53.832-120-120-120-120 53.832-120 120 53.832 120 120 120zm0-210c49.626 0 90 40.374 90 90s-40.374 90-90 90-90-40.374-90-90 40.374-90 90-90z" /><path d="M497 60h-46V45c0-24.813-20.187-45-45-45s-45 20.187-45 45v15h-60V45c0-24.813-20.187-45-45-45s-45 20.187-45 45v15h-60V45c0-24.813-20.187-45-45-45S61 20.187 61 45v15H15C6.716 60 0 66.716 0 75v422c0 8.284 6.716 15 15 15h482c8.284 0 15-6.716 15-15V75c0-8.284-6.716-15-15-15zM391 45c0-8.271 6.729-15 15-15s15 6.729 15 15v15h-30zm-150 0c0-8.271 6.729-15 15-15s15 6.729 15 15v15h-30zM91 45c0-8.271 6.729-15 15-15s15 6.729 15 15v15H91zm30 45v15c0 8.284 6.716 15 15 15s15-6.716 15-15V90h120v15c0 8.284 6.716 15 15 15s15-6.716 15-15V90h120v15c0 8.284 6.716 15 15 15s15-6.716 15-15V90h31v60H30V90zm361 392H30V180h452z" /></svg>
