<svg  viewBox="0 0 512 512" xmlns="http://www.w3.org/2000/svg"><path d="M149.984 347c0-19.555-12.541-36.228-30-42.42V76c0-8.284-6.716-15-15-15s-15 6.716-15 15v228.58c-17.459 6.192-30 22.865-30 42.42 0 24.813 20.187 45 45 45s45-20.187 45-45zm-45 15c-8.271 0-15-6.729-15-15s6.729-15 15-15 15 6.729 15 15-6.729 15-15 15z" /><path d="M284.07 62.028c-.128.002-.256-.002-.383.003-36.339.52-72.23 9.609-103.703 26.038V76c0-41.459-33.535-76-75-76-41.458 0-75 34.535-75 76v197.975C6.302 298.208-4.265 331.949 1.609 365.571c8.134 46.553 49.773 86.402 103.168 86.402 8.224 0 16.357-.968 24.258-2.82C170.795 489.189 227.834 512 286.984 512c60.1 0 116.602-23.404 159.099-65.901 39.72-39.72 62.756-91.677 65.597-147.369l.011-.175c.193-3.835.293-7.687.293-11.555 0-125.28-102.149-226.553-227.914-224.972zM31.162 360.408c-4.548-26.032 4.149-51.148 23.862-68.907a15.001 15.001 0 004.96-11.145V76c0-24.935 20.607-46 45-46s45 21.065 45 46v204.357c0 4.25 1.803 8.3 4.96 11.145 16.147 14.547 25.04 34.256 25.04 55.499 0 41.566-33.882 75.098-75 75.099-35.85.001-67.613-26.155-73.822-61.692zM209.984 347c0-27.155-10.856-53.401-30-73.021v-151.31c26.324-16.756 57.325-27.091 89.343-29.889 3.167 20.419 17.875 33.198 29.272 43.09 12.25 10.631 17.548 16.126 16.876 24.129-.775 9.229-10.194 15.267-25.498 24.353-18.661 11.079-41.884 24.866-48.14 54.556-4.68 22.212 1.691 41.517 17.942 54.357 23.676 18.709 62.155 18.404 85.678 7.3 30.425-14.363 37.653-6.66 50.769 7.329 12.771 13.62 25.151 24.678 46.967 24.678 10.454 0 22.037-2.74 35.212-8.352-5.484 28.258-17.084 54.355-33.37 76.855-20.624-.337-25.523-9.236-32.072-21.129-6.819-12.384-17.119-31.102-46.306-26.401-22.055 3.551-31.713 21.253-39.473 35.478-4.383 8.034-8.523 15.623-13.675 18.807-5.046 3.117-15.988 1.864-25.644.756-15.626-1.791-35.075-4.021-48.583 9.487-10.803 10.802-12.883 28.29-6.36 53.46.289 1.115.589 2.217.896 3.305-27.161-7.438-52.473-20.498-73.956-38.345 31.311-19.182 50.122-53.042 50.122-89.493zm57.508 134.045c-1.686-4.392-3.757-10.297-5.422-16.637-4.545-17.3-2.394-24.221-1.573-25.123 3.267-3.267 14.737-1.952 23.952-.895 14.501 1.663 30.936 3.546 44.833-5.042 11.911-7.361 18.46-19.367 24.239-29.958 7.051-12.925 11.116-19.134 17.906-20.228 7.854-1.264 8.711-.634 15.257 11.254 6.136 11.144 14.528 26.346 35.328 33.132C386.946 461.25 339.345 482 286.984 482a200.86 200.86 0 01-19.492-.955zm214.466-192.016c-18.703 10.387-33.149 14.84-42.974 13.211-7.813-1.294-13.021-6.492-20.872-14.866-14.89-15.879-35.277-37.628-85.461-13.938-14.68 6.929-40.579 7.11-54.272-3.71-4.555-3.599-10.254-10.067-7.186-24.633 3.54-16.802 17.701-25.209 34.099-34.945 17.798-10.566 37.971-22.542 40.078-47.638 2.018-24.021-14.131-38.036-27.106-49.297-9.193-7.978-15.468-13.773-18.118-20.758C401.553 99.246 481.984 183.9 481.984 287c0 .678-.019 1.353-.026 2.029z" /></svg>
