<svg viewBox="0 0 512 512" xmlns="http://www.w3.org/2000/svg"><path d="M180 75c0-41.355-33.645-75-75-75S30 33.645 30 75v258.04C10.855 352.722 0 379.304 0 407c0 57.898 47.102 105 105 105s105-47.102 105-105c0-27.695-10.855-54.277-30-73.96zm-30 106h-30v-30h30zm-45 211c8.27 0 15 6.73 15 15s-6.73 15-15 15-15-6.73-15-15 6.73-15 15-15zm15-181h30v30h-30zm-15 271c-41.355 0-75-33.645-75-75 0-21.207 9.363-42.309 25.047-56.453A15.002 15.002 0 0060 339.407V75c0-24.813 20.188-45 45-45s45 20.188 45 45v46h-30V75c0-8.285-6.715-15-15-15s-15 6.715-15 15v289.578C72.54 370.773 60 387.445 60 407c0 24.813 20.188 45 45 45s45-20.188 45-45c0-19.555-12.54-36.227-30-42.422V271h30v68.406c0 4.25 1.8 8.297 4.953 11.14C170.637 364.692 180 385.794 180 407c0 41.355-33.645 75-75 75zm0 0M497 61h-15V46c0-8.285-6.715-15-15-15h-60c-8.285 0-15 6.715-15 15v15H225c-8.285 0-15 6.715-15 15s6.715 15 15 15h167v15c0 8.285 6.715 15 15 15h60c8.285 0 15-6.715 15-15V91h15c8.285 0 15-6.715 15-15s-6.715-15-15-15zm-45 30h-30V61h30zm0 0M497 181H330v-15c0-8.285-6.715-15-15-15h-60c-8.285 0-15 6.715-15 15v15h-15c-8.285 0-15 6.715-15 15s6.715 15 15 15h15v15c0 8.285 6.715 15 15 15h60c8.285 0 15-6.715 15-15v-15h167c8.285 0 15-6.715 15-15s-6.715-15-15-15zm-197 30h-30v-30h30zm0 0M497 301h-15v-15c0-8.285-6.715-15-15-15h-60c-8.285 0-15 6.715-15 15v15H225c-8.285 0-15 6.715-15 15s6.715 15 15 15h167v15c0 8.285 6.715 15 15 15h60c8.285 0 15-6.715 15-15v-15h15c8.285 0 15-6.715 15-15s-6.715-15-15-15zm-45 30h-30v-30h30zm0 0" /></svg>
