<svg xmlns="http://www.w3.org/2000/svg" viewBox="0 0 512.048 512.048"><path d="M511.996 256.195C514.929 118.567 393.694-2.76 256.07.051 112.494-.101-.384 117.348.001 256.049c.057 144.409 118.192 257.314 257.915 255.975 136.769 1.815 256.778-118.948 254.079-255.737.001-.03.004-.061.001-.092zm-79.011 140.324c-17.397-8.722-35.894-15.944-54.25-21.851.269-.638.547-1.272.811-1.912 13.144-31.866 20.288-65.972 21.302-101.497h80.578c-3.041 46.03-19.85 89.379-48.441 125.26zm-316.629 1c-5.869-5.87-15.385-5.87-21.254 0l-8.279 8.279c-33.379-37.609-52.988-84.578-56.26-134.72H69.01c8.3 0 15.029-6.729 15.029-15.029S77.31 241.02 69.01 241.02H30.563c3.315-50.814 23.399-98.376 57.598-136.234l8.916 8.916c5.869 5.869 15.385 5.869 21.254 0 5.87-5.869 5.87-15.385 0-21.254l-8.605-8.605c36.735-31.306 81.961-49.793 130.167-53.166l.041 186.147-52.988-56.742c-5.664-6.065-15.176-6.391-21.241-.727-6.066 5.665-6.392 15.175-.727 21.242l70.125 75.093-89.315 89.315c-5.87 5.869-5.87 15.385 0 21.254 5.869 5.871 15.384 5.868 21.254 0l72.909-72.909c.007 44.647.031 142.803.042 188.074-48.916-3.401-94.773-22.357-131.805-54.485l8.168-8.168c5.869-5.867 5.869-15.382 0-21.252zm235.28-242.99c10.422 26.938 16.66 56.01 18.619 86.673H269.997l-.017-78.832c28.351-1.201 55.769-5.628 80.296-11.256.458 1.136.918 2.271 1.36 3.415zm-2.013 211.766c-31.265-7.984-60.031-12.245-79.601-13.797l-.018-81.239h100.769c-1.08 33.456-8.093 65.277-21.15 95.036zM270.028 382.6c17.026 1.446 40.333 5.059 65.513 11.165-14.824 26.594-44.612 59.279-65.494 75.022zm-.055-250.323l-.02-89.354c22.273 16.67 52.532 51.635 67.151 80.254-20.917 4.525-43.76 8.01-67.131 9.1zm62.493 317.526c12.674-15.024 23.7-31.017 32.982-47.783 15.725 4.9 31.505 10.761 46.359 17.655-29.525 28.149-65.377 47.402-104.288 56.434a312.628 312.628 0 0024.947-26.306zm67.888-208.602c-2.012-34.424-8.934-67.147-20.685-97.519l-.068-.171c26.216-7.569 47.022-15.633 58.967-20.632 25.27 34.489 40.102 75.238 42.879 118.322zm17.749-142.519c-12.28 4.8-29.931 11.13-50.955 17.026a295.919 295.919 0 00-59.384-79.661c40.571 9.465 77.808 30.045 108 60.238.79.791 1.561 1.597 2.339 2.397z" /></svg>
