<svg viewBox="0 0 512 512" xmlns="http://www.w3.org/2000/svg"><path d="M15 323.075h50.778c8.284 0 15-6.716 15-15s-6.716-15-15-15H15c-8.284 0-15 6.716-15 15s6.716 15 15 15zM15 383.69h106.318c8.284 0 15-6.716 15-15s-6.716-15-15-15H15c-8.284 0-15 6.716-15 15s6.716 15 15 15zM181.935 414.306H15c-8.284 0-15 6.716-15 15s6.716 15 15 15h166.935c8.284 0 15-6.716 15-15s-6.716-15-15-15zM499.229 368.666c-4.796-4.811-10.492-8.398-16.709-10.604v-7.813c0-43.492-35.383-78.875-78.875-78.875-7.44 0-14.407-1.827-20.505-5.08-29.841-15.266-22.658-53.077-25.776-78.671a15 15 0 00-13.629-14.012l-1.974-.177c-29.787-2.673-52.843-27.234-53.63-57.13a15.002 15.002 0 00-4.389-10.212l-27.674-27.675c-14.934-14.933-39.231-14.931-54.165 0l-79.373 79.374c-17.714-11.026-41.36-8.851-56.729 6.519-17.901 17.901-17.901 47.029 0 64.93l194.092 194.092c14.023 14.024 32.669 21.747 52.502 21.747h155.111c24.632 0 44.725-20.039 44.791-44.669.032-11.983-4.609-23.257-13.068-31.744zM234.855 99.63l23.663 23.664c3.697 38.62 32.086 70.247 69.656 78.361l.797 12.866-27.673.157c-8.284.047-14.962 6.8-14.915 15.084.047 8.255 6.754 14.915 14.998 14.915h.087l30.538-.173a75.396 75.396 0 008 20.108l-15.305.074c-8.284.04-14.968 6.788-14.928 15.072.04 8.26 6.747 14.928 14.998 14.928h.074l47.581-.229c9.642 4.52 20.254 6.917 31.217 6.917 26.95 0 48.875 21.925 48.875 48.875v5.166l-114.673-.532c-11.445-.052-22.193-4.552-30.263-12.671L200.57 234.552c13.721-16.474 21.201-37.023 21.201-58.728 0-20.481-6.672-39.927-18.951-55.899l20.295-20.295c3.237-3.236 8.503-3.236 11.74 0zm-53.506 41.768c6.78 10.104 10.424 21.985 10.424 34.427 0 13.648-4.393 26.615-12.492 37.308l-34.728-34.938zm286.157 273.681H312.395c-11.819 0-22.932-4.603-31.289-12.96L87.014 208.027c-6.204-6.205-6.204-16.3 0-22.504a15.863 15.863 0 0111.253-4.653c4.074 0 8.149 1.551 11.251 4.653l3.215 3.215 173.574 174.625c13.706 13.789 31.962 21.432 51.402 21.521l129.557.601c.083.001.163.013.247.013 3.957.002 7.675 1.546 10.469 4.349s4.326 6.525 4.315 10.483c-.022 8.132-6.657 14.749-14.791 14.749z" /></svg>
