<svg viewBox="0 0 512 512" xmlns="http://www.w3.org/2000/svg"><path d="M165.288 183.128a15 15 0 00-14.079 9.826l-30.163 82.07a15.002 15.002 0 0014.079 20.175h60.327a15.002 15.002 0 0014.079-20.175l-30.164-82.07a15.001 15.001 0 00-14.079-9.826zm-8.669 82.07l8.669-23.588 8.669 23.588z" /><path d="M209.106 86.826a15 15 0 00-14.08-9.825l-59.479.001a15 15 0 00-14.079 9.826L.921 414.827A15.002 15.002 0 0015 435.002h68.744a15 15 0 0014.079-9.826l24.056-65.453h86.82l24.057 65.454a15 15 0 0014.079 9.825h68.745a15.002 15.002 0 0014.079-20.175zm48.197 318.175l-24.057-65.454a15 15 0 00-14.079-9.825H111.411a15 15 0 00-14.079 9.826l-24.056 65.453H36.494l109.522-297.999 38.543-.001 109.526 298zM512.002 276.001c-.793-19.902-29.215-19.887-30 0v6.325c-55.154-48.645-144.289-8.584-143.999 65.675-.291 74.255 88.859 114.323 143.999 65.673V420c.793 19.902 29.215 19.887 30 0zm-86.999 129c-31.43 0-57-25.57-57-57 3.129-75.599 110.835-75.604 113.999-.038v.077c-.021 31.411-25.582 56.961-56.999 56.961z" /></svg>
