<svg xmlns="http://www.w3.org/2000/svg" width="512" height="514" viewBox="0 0 512 514"> <path class="moon" d="M218.852,212.15 C168.976,262.066 87.769,262.066 37.852,212.15 C-12.064,162.233 -12.064,81.025 37.852,31.129 C51.061,17.942 67.164,7.879 85.684,1.317 C91.518,-0.725 97.977,0.755 102.309,5.109 C106.685,9.484 108.164,15.942 106.102,21.734 C93.56,57.109 102.102,95.4 128.351,121.651 C154.56,147.879 192.852,156.401 228.268,143.901 C234.06,141.839 240.539,143.318 244.893,147.693 C249.269,152.026 250.727,158.505 248.664,164.318 C242.143,182.838 232.06,198.941 218.852,212.15 Z M60.477,53.754 C23.039,91.192 23.039,152.108 60.477,189.525 C100.477,229.546 168.602,225.942 203.477,181.358 C167.518,183.608 132.102,170.629 105.727,144.274 C79.352,117.92 66.394,82.503 68.643,46.545 C65.769,48.796 63.039,51.192 60.477,53.754 Z" transform="translate(132 132)"/></svg>
