<svg xmlns="http://www.w3.org/2000/svg" width="512" height="474" viewBox="0 0 512 474"><g fill-rule="evenodd"><path class="moon" d="M62.7468401,158.781115 C44.5268059,154.380263 25.0853626,153.132004 4.812,155.332 C-6.688,112.54 3.75,65.04 37.291,31.54 C50.5,18.331 66.583,8.29 85.125,1.708 C90.938,-0.335 97.417,1.166 101.75,5.499 C106.114461,9.85425147 107.589448,16.3290997 105.542,22.145 C93,57.52 101.542,95.79 127.792,122.041 C154,148.291 192.292,156.791 227.688,144.291 C233.495908,142.231242 239.970905,143.708303 244.311,148.083 C248.690454,152.42177 250.161205,158.904069 248.083,164.708 C241.562,183.229 231.499,199.333 218.291,212.562 C213.874,216.978 209.350039,220.178601 204.475039,223.803601 C190.631011,219.122909 172.732447,216.478153 153.144258,219.122909 C152.068442,217.707609 150.976394,216.313301 149.868403,214.940203 C149.842604,214.946145 149.816803,214.952078 149.791,214.958 C148.26297,213.018309 146.694891,211.118732 145.08828,209.260216 C134.03468,196.667176 121.55142,186.053915 107.892131,177.612964 C121.726672,186.111585 134.279475,196.756662 145.08828,209.260216 C146.712804,211.110988 148.306446,213.00452 149.868403,214.940203 C170.173212,210.263232 189.142502,199.331687 202.917,181.77 C166.937,183.999 131.542,171.041 105.166,144.666 C78.791,118.312 65.812,82.916 68.062,46.937 C65.187,49.187 62.458,51.583 59.916,54.166 C32.75,81.333 25.562,120.812 37.833,154.771 C46.3085394,155.451657 54.6334551,156.80101 62.7468401,158.781115 Z" transform="translate(231)"/><path class="cloud" d="M400,64 C461.75,64 512,114.25 512,176 C512,237.75 461.75,288 400,288 C386.312,288 372.916,285.5 360.291,280.667 C331.333,305.917 294.542,320 256,320 C217.5,320 180.666,305.917 151.709,280.667 C139.084,285.5 125.688,288 112,288 C50.25,288 0,237.75 0,176 C0,114.25 50.25,64 112,64 C117.312,64 122.562,64.375 127.792,65.125 C157.688,24.417 204.812,0 256,0 C307.188,0 354.334,24.417 384.208,65.125 C389.438,64.375 394.688,64 400,64 Z M400,256 C444.188,256 480,220.187 480,175.999 C480,131.811 444.188,95.999 400,95.999 C389.209,95.999 378.937,98.186 369.541,102.061 C368.334,99.707 366.833,97.582 365.5,95.332 C357.626,81.998 347.626,70.124 335.688,60.436 C323.188,50.29 308.791,42.416 293,37.582 C281.312,34.02 268.916,31.999 256,31.999 C253.562,31.999 251.188,32.375 248.75,32.52 C202.188,35.167 162.626,62.708 142.438,102.063 C133.062,98.189 122.812,96.001 112,96.001 C67.812,96.001 32,131.813 32,176.001 C32,220.188 67.812,256 112,256 C129.126,256 144.938,250.5 157.938,241.333 C181.416,269.625 216.375,288 256,288 C295.624,288 330.583,269.625 354.062,241.333 C367.084,250.5 382.875,256 400,256 Z" transform="translate(0 154)"/></g></svg>
