<svg xmlns="http://www.w3.org/2000/svg" width="512" height="512" viewBox="0 0 512 512"><g  fill-rule="evenodd"><path class="sun" d="M286.698608,195.19194 C286.701746,195.211291 286.704876,195.230644 286.708,195.25 C283.397602,194.589308 280.064615,194.010462 276.708173,193.531488 C222.047966,186.176163 166.598764,207.005625 127.809388,257.234842 C124.575545,256.322507 107.188532,256.127867 107.188532,256.127867 C68.9165123,169.362547 135.544905,96.4237763 208.354122,95.8631512 C268.192335,95.4024018 317.409916,143.638843 319.767977,205.334385 C308.922071,200.783756 297.849133,197.399473 286.698608,195.19194 Z M208,64 C199.167,64 192,56.833 192,48 L192,16 C192,7.167 199.167,0 208,0 C216.833,0 224,7.167 224,16 L224,48 C224,56.833 216.833,64 208,64 Z M332.438,106.167 C326.188,112.417 316.062,112.417 309.813,106.167 C303.563,99.917 303.563,89.792 309.813,83.542 L332.438,60.917 C338.688,54.667 348.813,54.667 355.063,60.917 C361.312,67.167 361.312,77.292 355.063,83.542 L332.438,106.167 Z M16,224 C7.167,224 1.42108547e-14,216.833 1.42108547e-14,208 C1.42108547e-14,199.167 7.167,192 16,192 L48,192 C56.833,192 64,199.167 64,208 C64,216.833 56.833,224 48,224 L16,224 Z M352,208 C352,199.167 359.167,192 368,192 L400,192 C408.833,192 416,199.167 416,208 C416,216.833 408.833,224 400,224 L368,224 C359.167,224 352,216.833 352,208 Z M83.541,106.167 L60.916,83.542 C54.666,77.292 54.666,67.167 60.916,60.917 C67.167,54.667 77.291,54.667 83.541,60.917 L106.166,83.542 C112.417,89.792 112.417,99.917 106.166,106.167 C99.917,112.417 89.792,112.417 83.541,106.167 Z M286.698608,195.19194 C280.528708,157.137359 247.791766,128 208,128 C163.812,128 128,163.812 128,208 C128,221.542 131.688,234.083 137.625,245.25 C167.5,211.812 210.062,192 256,192 C263.003911,192 269.904233,192.560546 276.708173,193.531488 C280.042575,193.98018 283.37404,194.533756 286.698608,195.19194 Z"/><path class="cloud" d="M400,64 C394.688,64 389.438,64.375 384.208,65.125 C354.334,24.417 307.188,0 256,0 C204.812,0 157.688,24.417 127.792,65.125 C122.562,64.375 117.312,64 112,64 C50.25,64 0,114.25 0,176 C0,237.75 50.25,288 112,288 C125.688,288 139.084,285.5 151.709,280.667 C180.666,305.917 217.5,320 256,320 C294.542,320 331.333,305.917 360.291,280.667 C372.916,285.5 386.312,288 400,288 C461.75,288 512,237.75 512,176 C512,114.25 461.75,64 400,64 Z M400,256 C382.875,256 367.084,250.5 354.062,241.333 C330.584,269.624 295.624,288 256,288 C216.375,288 181.416,269.624 157.938,241.333 C144.938,250.5 129.125,256 112,256 C67.812,256 32,220.188 32,176 C32,131.812 67.812,96 112,96 C122.812,96 133.062,98.208 142.438,102.083 C163.667,60.667 206.291,32 256,32 C305.709,32 348.334,60.667 369.541,102.083 C378.938,98.208 389.209,96 400,96 C444.188,96 480,131.812 480,176 C480,220.188 444.188,256 400,256 Z" transform="translate(0 192)"/></g></svg>
