<svg xmlns="http://www.w3.org/2000/svg" width="512" height="512" viewBox="0 0 512 512"><path class="snow" d="M269.872,196.25 L237.247,177.416 C238.289,171.75 238.997,165.958 238.997,160 C238.997,154.021 238.289,148.208 237.205,142.542 L269.83,123.688 C285.163,114.813 290.372,95.25 281.559,80 C272.705,64.688 253.184,59.438 237.871,68.25 L204.933,87.271 C196.121,79.771 186.079,73.854 174.995,69.917 L174.995,32 C174.995,14.333 160.683,0 142.995,0 C125.329,0 110.995,14.333 110.995,32 L110.995,69.896 C99.912,73.834 89.87,79.751 81.058,87.25 L48.182,68.271 C32.87,59.438 13.286,64.667 4.433,79.979 C-4.38,95.271 0.871,114.833 16.182,123.667 L48.745,142.48 C47.683,148.168 46.994,154.001 46.994,160.001 C46.994,165.959 47.682,171.772 48.745,177.439 L16.161,196.251 C0.827,205.085 -4.423,224.689 4.432,240.001 C13.243,255.251 32.827,260.501 48.161,251.689 L80.994,232.71 C89.807,240.21 99.869,246.168 110.994,250.127 L110.994,288 C110.994,305.688 125.328,320 142.994,320 C160.682,320 174.994,305.688 174.994,288 L174.994,250.083 C186.119,246.125 196.182,240.208 204.952,232.688 L237.869,251.687 C253.181,260.499 272.745,255.249 281.557,239.999 C290.414,224.688 285.185,205.125 269.872,196.25 Z M110.997,160 C110.997,142.333 125.309,128 142.997,128 C160.664,128 174.997,142.333 174.997,160 C174.997,177.666 160.664,192 142.997,192 C125.31,192 110.997,177.666 110.997,160 Z" transform="translate(114 97)"/></svg>
