<svg xmlns="http://www.w3.org/2000/svg" width="512" height="512" viewBox="0 0 512 512"><g fill-rule="evenodd"><path class="cloud" fill-rule="nonzero" d="M400,64 C394.688,64 389.438,64.375 384.208,65.125 C354.334,24.417 307.188,0 256,0 C204.812,0 157.688,24.417 127.792,65.125 C122.562,64.375 117.312,64 112,64 C50.25,64 0,114.25 0,176 C0,237.75 50.25,288 112,288 C125.688,288 139.084,285.5 151.709,280.667 C180.666,305.917 217.5,320 256,320 C294.542,320 331.333,305.917 360.291,280.667 C372.916,285.5 386.312,288 400,288 C461.75,288 512,237.75 512,176 C512,114.25 461.75,64 400,64 Z M400,256 C390.291,256 380.791,254.25 371.75,250.792 L353.75,243.875 L339.25,256.542 C316,276.833 286.438,288 256,288 C225.562,288 196,276.833 172.75,256.542 L158.25,243.875 L140.25,250.792 C131.25,254.25 121.709,256 112,256 C67.875,256 32,220.104 32,176 C32,131.896 67.875,96 112,96 C115.792,96 119.5,96.271 123.25,96.792 L142.208,99.542 L153.562,84.084 C177.875,50.979 215.209,32 256,32 C296.812,32 334.125,50.958 358.417,84.063 L369.792,99.542 L388.791,96.792 C392.5,96.271 396.208,96 400,96 C444.125,96 480,131.896 480,176 C480,220.104 444.125,256 400,256 Z"/><path class="snow" d="M32,0 C49.688,0 64,14.312 64,32 C64,49.688 49.688,64 32,64 C14.312,64 0,49.688 0,32 C0,14.312 14.312,0 32,0 Z M192,32 C209.688,32 224,46.312 224,64 C224,81.688 209.688,96 192,96 C174.312,96 160,81.688 160,64 C160,46.312 174.312,32 192,32 Z M352,0 C369.688,0 384,14.312 384,32 C384,49.688 369.688,64 352,64 C334.312,64 320,49.688 320,32 C320,14.312 334.312,0 352,0 Z M288,128 C305.688,128 320,142.312 320,160 C320,177.688 305.688,192 288,192 C270.312,192 256,177.688 256,160 C256,142.312 270.312,128 288,128 Z M96,128 C113.688,128 128,142.312 128,160 C128,177.688 113.688,192 96,192 C78.312,192 64,177.688 64,160 C64,142.312 78.312,128 96,128 Z" transform="translate(64 320)"/></g></svg>
