<svg xmlns="http://www.w3.org/2000/svg" width="512" height="512" viewBox="0 0 512 512"><g fill-rule="evenodd"><path class="cloud" d="M400,64 C394.688,64 389.438,64.375 384.208,65.125 C354.334,24.417 307.188,0 256,0 C204.812,0 157.688,24.417 127.792,65.125 C122.562,64.375 117.312,64 112,64 C50.25,64 0,114.25 0,176 C0,237.75 50.25,288 112,288 C125.688,288 139.084,285.5 151.709,280.667 C180.666,305.917 217.5,320 256,320 C294.542,320 331.333,305.917 360.291,280.667 C372.916,285.5 386.312,288 400,288 C461.75,288 512,237.75 512,176 C512,114.25 461.75,64 400,64 Z M400,256 C382.875,256 367.084,250.5 354.062,241.333 C330.584,269.625 295.624,288 256,288 C216.375,288 181.416,269.625 157.938,241.333 C144.938,250.5 129.125,256 112,256 C67.812,256 32,220.188 32,176 C32,131.812 67.812,96 112,96 C122.812,96 133.062,98.208 142.438,102.083 C163.667,60.667 206.291,32 256,32 C305.709,32 348.334,60.667 369.541,102.083 C378.938,98.208 389.209,96 400,96 C444.188,96 480,131.812 480,176 C480,220.188 444.188,256 400,256 Z"/><path class="snow" d="M148.903769,108.313 C157.361769,113.25 160.236769,124.063 155.362769,132.5 C150.486769,140.938 139.695769,143.813 131.237769,138.938 L113.070769,128.438 C108.237769,132.625 102.674769,135.875 96.5497694,138.063 L96.5497694,159.001 C96.5497694,168.75 88.6117694,176.625 78.8617694,176.625 C69.1117694,176.625 61.1957694,168.75 61.1957694,159.001 L61.1957694,138.063 C55.0497694,135.876 49.5277694,132.626 44.6537694,128.501 L26.4867694,138.939 C18.0497694,143.813 7.23676935,140.939 2.36176935,132.501 C-2.51323065,124.063 0.402769353,113.188 8.86176935,108.313 L26.8197694,97.938 C26.2357694,94.814 25.8607694,91.627 25.8607694,88.314 C25.8607694,85.002 26.2357694,81.814 26.8197694,78.668 L8.86076935,68.293 C0.422769353,63.417 -2.51423065,52.584 2.36076935,44.167 C7.23576935,35.688 18.0487694,32.813 26.5277694,37.688 L44.6737694,48.188 C49.5487694,44.042 55.0687694,40.751 61.1947694,38.563 L61.1947694,17.688 C61.1947694,7.917 69.1107694,0 78.8607694,0 C88.6107694,0 96.5487694,7.917 96.5487694,17.688 L96.5487694,38.584 C102.673769,40.792 108.172769,44.042 113.048769,48.188 L131.236769,37.688 C139.694769,32.813 150.485769,35.709 155.361769,44.188 C160.194769,52.563 157.320769,63.375 148.903769,68.292 L130.861769,78.688 C131.445769,81.813 131.861769,85.001 131.861769,88.313 C131.861769,91.626 131.445769,94.813 130.903769,97.937 L148.903769,108.313 Z M78.8617694,106 C88.6117694,106 96.5287694,98.062 96.5287694,88.312 C96.5287694,78.562 88.6117694,70.666 78.8617694,70.666 C69.1117694,70.666 61.1737694,78.562 61.1737694,88.312 C61.1737694,98.062 69.1117694,106 78.8617694,106 Z" transform="translate(177 334)"/></g></svg>
