<svg xmlns="http://www.w3.org/2000/svg" width="512" height="512" viewBox="0 0 512 512">  <g fill-rule="evenodd"><path class="cloud" d="M400,64 C461.75,64 512,114.25 512,176 C512,237.75 461.75,288 400,288 C386.312,288 372.916,285.5 360.291,280.667 C331.333,305.917 294.542,320 256,320 C217.5,320 180.666,305.917 151.709,280.667 C139.084,285.5 125.688,288 112,288 C50.25,288 0,237.75 0,176 C0,114.25 50.25,64 112,64 C117.312,64 122.562,64.375 127.792,65.125 C157.688,24.417 204.812,0 256,0 C307.188,0 354.334,24.417 384.208,65.125 C389.438,64.375 394.688,64 400,64 Z M400,256 C444.188,256 480,220.188 480,176 C480,131.812 444.188,96 400,96 C389.209,96 378.938,98.208 369.541,102.083 C348.334,60.667 305.709,32 256,32 C206.291,32 163.667,60.667 142.438,102.083 C133.062,98.208 122.812,96 112,96 C67.812,96 32,131.812 32,176 C32,220.188 67.812,256 112,256 C129.125,256 144.938,250.5 157.938,241.333 C181.416,269.625 216.375,288 256,288 C295.624,288 330.584,269.625 354.062,241.333 C367.084,250.5 382.875,256 400,256 Z"/><path class="rain" d="M129,160 C129,142.312 161,96 161,96 C161,96 193,142.312 193,160 C193,177.688 178.688,192 161,192 C143.312,192 129,177.688 129,160 Z M256,128 C256,110.312 288,64 288,64 C288,64 320,110.312 320,128 C320,145.688 305.688,160 288,160 C270.312,160 256,145.688 256,128 Z M0,64 C0,46.312 32,0 32,0 C32,0 64,46.312 64,64 C64,81.688 49.688,96 32,96 C14.312,96 0,81.688 0,64 Z" transform="translate(96 320)"/></g></svg>
