<svg xmlns="http://www.w3.org/2000/svg" width="512" height="512" viewBox="0 0 512 512"><g fill-rule="evenodd"><path class="cloud" d="M512,176 C512,114.25 461.75,64 400,64 C394.688,64 389.438,64.375 384.208,65.125 C354.334,24.417 307.188,0 256,0 C204.812,0 157.688,24.417 127.792,65.125 C122.562,64.375 117.312,64 112,64 C50.25,64 0,114.25 0,176 C0,237.75 50.25,288 112,288 C125.688,288 139.084,285.5 151.709,280.667 C180.666,305.917 217.5,320 256,320 C294.542,320 331.333,305.917 360.291,280.667 C372.916,285.5 386.312,288 400,288 C461.75,288 512,237.75 512,176 Z M354.062,241.333 C330.584,269.625 295.624,288 256,288 C216.375,288 181.416,269.625 157.938,241.333 C144.938,250.5 129.125,256 112,256 C67.812,256 32,220.188 32,176 C32,131.812 67.812,96 112,96 C122.812,96 133.062,98.208 142.438,102.083 C163.667,60.667 206.291,32 256,32 C305.709,32 348.334,60.667 369.541,102.083 C378.938,98.208 389.209,96 400,96 C444.188,96 480,131.812 480,176 C480,220.188 444.188,256 400,256 C382.875,256 367.084,250.5 354.062,241.333 Z"/><path class="snow" d="M296.042,131.688 C304.5,136.625 307.375,147.438 302.501,155.875 C297.625,164.313 286.834,167.188 278.376,162.313 L260.209,151.813 C255.376,156 249.813,159.25 243.688,161.438 L243.688,182.376 C243.688,192.125 235.75,200 226,200 C216.25,200 208.334,192.125 208.334,182.376 L208.334,161.438 C202.188,159.251 196.666,156.001 191.792,151.876 L173.625,162.314 C165.188,167.188 154.375,164.314 149.5,155.876 C144.625,147.438 147.541,136.563 156,131.688 L173.958,121.313 C173.374,118.189 172.999,115.002 172.999,111.689 C172.999,108.377 173.374,105.189 173.958,102.043 L155.999,91.668 C147.561,86.792 144.624,75.959 149.499,67.542 C154.374,59.063 165.187,56.188 173.666,61.063 L191.812,71.563 C196.687,67.417 202.207,64.126 208.333,61.938 L208.333,41.063 C208.333,31.292 216.249,23.375 225.999,23.375 C235.749,23.375 243.687,31.292 243.687,41.063 L243.687,61.959 C249.812,64.167 255.311,67.417 260.187,71.563 L278.375,61.063 C286.833,56.188 297.624,59.084 302.5,67.563 C307.333,75.938 304.459,86.75 296.042,91.667 L278,102.063 C278.584,105.188 279,108.376 279,111.688 C279,115.001 278.584,118.188 278.042,121.312 L296.042,131.688 Z M226,129.375 C235.75,129.375 243.667,121.437 243.667,111.687 C243.667,101.937 235.75,94.041 226,94.041 C216.25,94.041 208.312,101.937 208.312,111.687 C208.312,121.437 216.25,129.375 226,129.375 Z M444.166,84.25 C449.75,85.792 453.062,91.541 451.562,97.126 C450.083,102.689 444.312,106.043 438.708,104.543 L426.791,101.334 C425.709,102.875 424.542,104.417 423.167,105.813 C421.75,107.188 420.208,108.376 418.708,109.438 L421.917,121.334 C423.416,127.002 420.042,132.751 414.459,134.251 C408.833,135.751 403.125,132.417 401.583,126.813 L398.417,114.792 C394.584,114.501 390.875,113.542 387.416,111.835 L378.584,120.668 C374.5,124.751 367.875,124.709 363.792,120.626 C359.688,116.543 359.667,109.918 363.75,105.814 L372.562,97.002 C370.875,93.501 369.917,89.814 369.583,86.043 L357.583,82.814 C352.042,81.293 348.667,75.564 350.166,69.939 C351.666,64.377 357.458,61.002 363.062,62.501 L374.958,65.71 C376.042,64.167 377.209,62.668 378.584,61.251 C380,59.876 381.5,58.668 383.084,57.584 L379.875,45.688 C378.417,40.084 381.688,34.334 387.292,32.813 C392.916,31.313 398.667,34.668 400.166,40.251 L403.375,52.313 C407.188,52.626 410.875,53.563 414.334,55.188 L423.125,46.438 C427.25,42.313 433.875,42.334 437.958,46.438 C442.062,50.5 442.083,57.167 437.958,61.292 L429.187,70.063 C430.875,73.563 431.792,77.209 432.083,81.042 L444.166,84.25 Z M408.312,90.938 C412.375,86.875 412.375,80.188 408.312,76.084 C404.208,72.001 397.541,72.001 393.437,76.084 C389.333,80.209 389.375,86.876 393.437,90.938 C397.541,95.042 404.187,95.063 408.312,90.938 Z M88.938,30.5 C94.584,29.042 100.334,32.376 101.835,37.936 C103.335,43.561 100.001,49.29 94.439,50.811 L82.377,53.999 C82.127,57.812 81.127,61.54 79.439,65 L88.251,73.812 C92.376,77.916 92.313,84.562 88.251,88.624 C84.126,92.707 77.501,92.79 73.417,88.666 L64.626,79.874 C61.126,81.541 57.438,82.5 53.626,82.812 L50.376,94.812 C48.876,100.417 43.168,103.75 37.542,102.25 C31.96,100.75 28.626,94.958 30.126,89.333 L33.314,77.437 C31.751,76.416 30.251,75.187 28.876,73.812 C27.438,72.416 26.25,70.915 25.188,69.311 L13.313,72.541 C7.688,73.999 1.938,70.707 0.417,65.124 C-1.084,59.499 2.25,53.791 7.875,52.249 L19.917,49.041 C20.209,45.25 21.167,41.562 22.813,38.062 L14.042,29.291 C9.938,25.187 9.938,18.541 14.042,14.437 C18.126,10.333 24.751,10.312 28.876,14.437 L37.688,23.208 C41.168,21.562 44.814,20.624 48.626,20.312 L51.876,8.25 C53.376,2.667 59.126,-0.667 64.751,0.833 C70.292,2.312 73.626,8.083 72.126,13.687 L68.938,25.625 C70.501,26.688 72.001,27.875 73.417,29.25 C74.813,30.667 75.959,32.188 77.063,33.688 L88.938,30.5 Z M58.562,58.958 C62.625,54.875 62.666,48.208 58.562,44.125 C54.458,40.042 47.812,40.042 43.687,44.125 C39.625,48.187 39.625,54.875 43.687,58.958 C47.812,63.062 54.458,63.062 58.562,58.958 Z" transform="translate(30 312)"/></g></svg>
