<svg xmlns="http://www.w3.org/2000/svg" width="512" height="514" viewBox="0 0 512 514"><path class="unknown" d="M108.094,121.646 L107.052,121.646 L73.531,70.458 L32.593,10.021 L0.843,10.021 L0.843,186.416 L35.905,186.416 L35.905,75.312 L37.426,75.312 L66.53,119.854 L111.218,186.416 L143.156,186.416 L143.156,10.021 L108.094,10.021 L108.094,121.646 Z M155.469,197.166 L181.303,197.166 L246.094,0.834 L219.969,0.834 L155.469,197.166 Z M347.719,10.021 L311.886,10.021 L249.907,186.416 L287.282,186.416 L298.803,150.041 L360.262,150.041 L371.011,186.416 L409.157,186.416 L347.719,10.021 Z M308.281,120.625 L315.427,97.333 L329.031,51.501 L330.031,51.501 L343.885,98.105 L350.781,120.626 L308.281,120.626 L308.281,120.625 Z" transform="translate(52 158)"/></svg>
