<svg xmlns="http://www.w3.org/2000/svg" viewBox="0 0 512 512" width="512" height="512"><path class="wind" d="M431 192c-26.5 0-48 21.5-48 48 0 5.646 1.167 10.958 2.938 16H79c-8.833 0-16 7.167-16 16s7.167 16 16 16h352c26.5 0 48-21.5 48-48s-21.5-48-48-48zM79 224h192c26.5 0 48-21.5 48-48s-21.5-48-48-48-48 21.5-48 48c0 5.646 1.167 10.958 2.938 16H79c-8.833 0-16 7.167-16 16s7.167 16 16 16zm256 96c-.938 0-1.834.208-2.791.291-.625-.041-1.146-.291-1.771-.291H83.584C72.209 320 63 327.167 63 336s9.209 16 20.584 16h206.354c-1.771 5.042-2.938 10.376-2.938 16 0 26.5 21.5 48 48 48s48-21.5 48-48-21.5-48-48-48z"/></svg>
