<svg xmlns="http://www.w3.org/2000/svg" viewBox="0 0 512 512"><path d="m59.9,13.1c-10.1-5-22.4-0.7-27.3,9.4l-19.5,40c-5,10.1-0.7,22.4 9.4,27.3 10.1,5 22.4,0.7 27.3-9.4l19.5-40c4.9-10.1 0.7-22.4-9.4-27.3z"/><path d="m203.1,13.1c-10.1-5-22.4-0.7-27.3,9.4l-19.5,40c-5,10.1-0.7,22.4 9.4,27.3 10.1,5 22.4,0.7 27.3-9.4l19.5-40c5-10.1 0.8-22.4-9.4-27.3z"/><path d="m346.3,13.1c-10.1-5-22.4-0.7-27.3,9.4l-19.5,40c-5,10.1-0.7,22.4 9.4,27.3 10.1,5 22.4,0.7 27.3-9.4l19.5-40c5-10.1 0.8-22.4-9.4-27.3z"/><path d="m489.5,13.1c-10.1-5-22.4-0.7-27.3,9.4l-19.5,40c-5,10.1-0.7,22.4 9.4,27.3 10.1,5 22.4,0.7 27.3-9.4l19.5-40c5-10.1 0.8-22.4-9.4-27.3z"/><path d="m131.5,149.5c-10.1-5-22.4-0.7-27.3,9.4l-19.5,40c-5,10.1-0.7,22.4 9.4,27.3 10.1,5 22.4,0.7 27.3-9.4l19.5-40c5-10.1 0.7-22.4-9.4-27.3z"/><path d="m274.7,149.5c-10.1-5-22.4-0.7-27.3,9.4l-19.5,40c-5,10.1-0.7,22.4 9.4,27.3 10.1,5 22.4,0.7 27.3-9.4l19.5-40c5-10.1 0.8-22.4-9.4-27.3z"/><path d="m417.9,149.5c-10.1-5-22.4-0.7-27.3,9.4l-19.5,40c-5,10.1-0.7,22.4 9.4,27.3 10.1,5 22.4,0.7 27.3-9.4l19.5-40c5-10.1 0.8-22.4-9.4-27.3z"/><path d="m59.9,285.9c-10.1-5-22.4-0.7-27.3,9.4l-19.5,40c-5,10.1-0.7,22.4 9.4,27.3 10.1,5 22.4,0.7 27.3-9.4l19.5-40c4.9-10.1 0.7-22.4-9.4-27.3z"/><path d="m203.1,285.9c-10.1-5-22.4-0.7-27.3,9.4l-19.5,40c-5,10.1-0.7,22.4 9.4,27.3 10.1,5 22.4,0.7 27.3-9.4l19.5-40c5-10.1 0.8-22.4-9.4-27.3z"/><path d="m346.3,285.9c-10.1-5-22.4-0.7-27.3,9.4l-19.5,40c-5,10.1-0.7,22.4 9.4,27.3 10.1,5 22.4,0.7 27.3-9.4l19.5-40c5-10.1 0.8-22.4-9.4-27.3z"/><path d="m489.5,285.9c-10.1-5-22.4-0.7-27.3,9.4l-19.5,40c-5,10.1-0.7,22.4 9.4,27.3 10.1,5 22.4,0.7 27.3-9.4l19.5-40c5-10.1 0.8-22.4-9.4-27.3z"/><path d="m131.5,422.3c-10.1-5-22.4-0.7-27.3,9.4l-19.5,40c-5,10.1-0.7,22.4 9.4,27.3 10.1,5 22.4,0.7 27.3-9.4l19.5-40c5-10.1 0.7-22.4-9.4-27.3z"/><path d="m274.7,422.3c-10.1-5-22.4-0.7-27.3,9.4l-19.5,40c-5,10.1-0.7,22.4 9.4,27.3 10.1,5 22.4,0.7 27.3-9.4l19.5-40c5-10.1 0.8-22.4-9.4-27.3z"/><path d="m417.9,422.3c-10.1-5-22.4-0.7-27.3,9.4l-19.5,40c-5,10.1-0.7,22.4 9.4,27.3 10.1,5 22.4,0.7 27.3-9.4l19.5-40c5-10.1 0.8-22.4-9.4-27.3z"/></svg>
