<svg xmlns="http://www.w3.org/2000/svg" viewBox="0 0 493.796 493.796"><path d="M355.938 200.956L81.414 12.128C70.134 4.352 58.402.248 48.358.248c-22.052 0-36.672 18.496-36.672 48.26v397.036c0 14.54 4.228 26.688 10.496 35.144 6.364 8.572 16.32 13.108 27.076 13.108 10.04 0 21.308-4.112 32.584-11.876l274.276-188.828c17.632-12.152 27.3-28.508 27.296-46.076 0-17.56-9.82-33.916-27.476-46.06zM456.446 493.672l-.293-.004c-.048 0-.095.004-.143.004h.436zM455.638 0L444.29.032c-14.86 0-27.724 12.112-27.724 26.992v439.368c0 14.896 12.652 27.124 27.532 27.124l12.055.152c14.805-.079 25.957-12.412 25.957-27.252V26.996C482.11 12.116 470.51 0 455.638 0z" /></svg>
