<svg xmlns="http://www.w3.org/2000/svg" viewBox="0 0 512 512"><path d="m425.097 363.468c45.089 0 81.771-36.683 81.771-81.771 0-8.284-6.716-15-15-15h-125.929v-65.275c12.086-3.079 22.722-9.797 30.691-18.9 11.134 12.719 27.482 20.776 45.69 20.776 33.466 0 60.691-27.181 60.691-60.59v-44.202c.417-3.093-.128-6.291-1.657-9.127-29.73-55.131-87.417-89.379-150.545-89.379-62.718 0-120.294 34.23-150.262 89.333-1.549 2.849-2.104 6.069-1.682 9.182v44.193c0 33.409 27.226 60.59 60.691 60.59 18.209 0 34.558-8.058 45.691-20.776 7.969 9.103 18.605 15.821 30.69 18.9v65.275h-125.926c-8.284 0-15 6.716-15 15 0 45.089 36.682 81.771 81.771 81.771h59.158v63.353c-28.959 5.328-53.397 25.815-63.229 54.319l-3.784 10.968c-2.702 7.831 1.456 16.37 9.287 19.072 7.829 2.703 16.37-1.456 19.072-9.287l3.784-10.969c5.639-16.346 18.826-28.553 34.87-33.304v39.38c0 8.284 6.716 15 15 15s15-6.716 15-15v-39.38c16.044 4.751 29.232 16.958 34.871 33.304l3.783 10.968c2.143 6.212 7.957 10.113 14.179 10.112 1.622 0 3.272-.266 4.893-.824 7.831-2.701 11.99-11.239 9.288-19.071l-3.783-10.968c-9.833-28.505-34.271-48.992-63.23-54.32v-63.353zm47.916-220.76c0 16.867-13.769 30.59-30.691 30.59s-30.69-13.723-30.69-30.59v-31.209h61.382v31.209zm-122.204-112.708c43.005 0 82.932 19.232 109.33 51.499h-218.31c26.493-32.27 66.291-51.499 108.98-51.499zm-91.252 143.298c-16.923 0-30.691-13.723-30.691-30.59v-31.209h61.383v31.209c0 16.867-13.769 30.59-30.692 30.59zm60.692-30.59v-31.209h61.382v31.209c0 16.867-13.769 30.59-30.691 30.59s-30.691-13.723-30.691-30.59zm-93.024 153.988h247.428c-6.445 21.257-26.223 36.771-49.556 36.771h-148.316c-23.333.001-43.11-15.514-49.556-36.771z"/><path d="m128.991 353.638h-29.253v-104.606c0-26.131-21.26-47.391-47.391-47.391h-17.21v-2.441c0-8.284-6.716-15-15-15s-15 6.716-15 15v297.117c0 8.284 6.716 15 15 15s15-6.716 15-15v-49.215h121.448v49.215c0 8.284 6.716 15 15 15s15-6.716 15-15v-85.085c0-31.757-25.837-57.594-57.594-57.594zm-59.253-104.606v104.605h-34.601v-121.995h17.211c9.588 0 17.39 7.801 17.39 17.39zm-34.601 134.606h93.854c15.215 0 27.594 12.379 27.594 27.595v5.87h-121.448z"/></svg>
