<svg xmlns="http://www.w3.org/2000/svg" viewBox="0 -72 384.09804 384"><path d="m359.277344 156.910156c-23.832032 15.753906-46.050782 27.992188-66.023438 36.394532-47.945312 20.140624-76.722656 15.757812-96.449218 9.671874-15.472657-4.777343-29.519532-12.730468-44.410157-21.152343-28.445312-16.113281-57.925781-32.738281-98.390625-27.433594-23.808594 3.136719-33.816406 13.496094-41.128906 21.054687-2.269531 2.355469-4.230469 4.386719-6.429688 6.042969-7.058593 5.328125-8.457031 15.359375-3.136718 22.414063 5.320312 7.039062 15.335937 8.449218 22.414062 3.136718 4.183594-3.167968 7.363282-6.457031 10.167969-9.351562 5.953125-6.167969 9.554687-9.878906 22.28125-11.550781 29.921875-3.9375 52.417969 8.796875 78.464844 23.535156 15.710937 8.894531 31.953125 18.09375 50.734375 23.878906 13.898437 4.289063 27.953125 6.449219 42.480468 6.449219 23.59375 0 48.425782-5.695312 75.792969-17.191406 21.816407-9.167969 45.792969-22.351563 71.273438-39.183594 7.375-4.875 9.398437-14.808594 4.527343-22.167969-4.875-7.378906-14.808593-9.402343-22.167968-4.546875zm0 0"/><path d="m359.277344 84.910156c-23.832032 15.753906-46.050782 27.992188-66.023438 36.394532-47.945312 20.132812-76.722656 15.75-96.449218 9.671874-15.472657-4.777343-29.519532-12.730468-44.410157-21.152343-28.445312-16.113281-57.925781-32.738281-98.390625-27.433594-23.808594 3.136719-33.816406 13.496094-41.128906 21.054687-2.269531 2.355469-4.230469 4.386719-6.429688 6.042969-7.058593 5.328125-8.457031 15.359375-3.136718 22.414063 5.320312 7.039062 15.335937 8.457031 22.414062 3.136718 4.183594-3.167968 7.363282-6.457031 10.167969-9.351562 5.953125-6.167969 9.554687-9.878906 22.28125-11.550781 29.921875-3.960938 52.417969 8.804687 78.464844 23.535156 15.710937 8.894531 31.953125 18.09375 50.734375 23.878906 13.898437 4.289063 27.953125 6.449219 42.480468 6.449219 23.59375 0 48.425782-5.695312 75.792969-17.191406 21.816407-9.167969 45.792969-22.351563 71.273438-39.183594 7.375-4.875 9.398437-14.808594 4.527343-22.167969-4.875-7.386719-14.808593-9.394531-22.167968-4.546875zm0 0"/><path d="m25.644531 53.6875c4.183594-3.167969 7.367188-6.457031 10.167969-9.351562 5.960938-6.167969 9.550781-9.890626 22.28125-11.554688 29.917969-3.957031 52.414062 8.800781 78.460938 23.539062 15.714843 8.894532 31.953124 18.09375 50.738281 23.878907 13.886719 4.28125 27.941406 6.441406 42.464843 6.441406 23.589844 0 48.429688-5.699219 75.804688-17.195313 21.816406-9.167968 45.792969-22.34375 71.273438-39.175781 7.375-4.871093 9.398437-14.796875 4.527343-22.167969-4.863281-7.367187-14.773437-9.390624-22.167969-4.527343-23.832031 15.753906-46.046874 27.984375-66.023437 36.386719-47.96875 20.148437-76.726563 15.765624-96.449219 9.679687-15.46875-4.777344-29.519531-12.730469-44.40625-21.152344-28.449218-16.113281-57.832031-32.738281-98.390625-27.433593-23.808593 3.128906-33.816406 13.496093-41.128906 21.054687-2.273437 2.355469-4.234375 4.394531-6.433594 6.042969-7.054687 5.328125-8.457031 15.359375-3.136719 22.414062 5.328126 7.023438 15.34375 8.441406 22.417969 3.121094zm0 0"/></svg>
