<svg xmlns="http://www.w3.org/2000/svg" viewBox="0 0 512 512"><path d="m143 65h-64c-8.284 0-15 6.716-15 15s6.716 15 15 15h64c8.284 0 15-6.716 15-15s-6.716-15-15-15z"/><path d="m497 193h-67v-34h33c8.284 0 15-6.716 15-15v-128c0-8.284-6.716-15-15-15h-448c-8.284 0-15 6.716-15 15v128c0 8.284 6.716 15 15 15h33v258h-1c-25.916 0-47 21.084-47 47v32c0 8.284 6.716 15 15 15h448c8.284 0 15-6.716 15-15v-32c0-25.916-21.084-47-47-47h-1v-194h67c8.284 0 15-6.716 15-15s-6.716-15-15-15zm-97 0h-90.663l6.182-34h84.481zm-196.481 24-10.545-58h92.054l-10.545 58zm-173.519-186h418v98h-418zm418 433v17h-418v-17c0-9.374 7.626-17 17-17h384c9.374 0 17 7.626 17 17zm-255.698-113h95.396l-5.5 66h-84.396zm207.698 66h-87.698l2.75-33h28.948c8.284 0 15-6.716 15-15s-6.716-15-15-15h-26.448l1.396-16.754c.348-4.181-1.07-8.315-3.91-11.402s-6.843-4.844-11.038-4.844h-128c-4.195 0-8.198 1.757-11.038 4.844s-4.258 7.222-3.91 11.402l6.646 79.754h-89.698v-258h84.482l13.761 75.684c1.296 7.131 7.507 12.316 14.757 12.316h33v25c0 8.284 6.716 15 15 15s15-6.716 15-15v-25h33c7.25 0 13.461-5.185 14.758-12.316l2.124-11.684h96.118z"/><circle cx="335" cy="80.001" r="15"/><circle cx="399" cy="80.001" r="15"/></svg>
