<svg xmlns="http://www.w3.org/2000/svg" viewBox="0 0 480.122 480.122"><path d="M256.061 128.922v-16.8c0-8.8-7.2-16-16-16s-16 7.2-16 16v16.8c-98.4 8-176 91.2-176 191.2v16c0 8.8 7.2 16 16 16s16-7.2 16-16c0-13.6 12.8-24 28-24s28 10.4 28 24c0 8.8 7.2 16 16 16s16-7.2 16-16c0-13.6 12.8-24 28-24s28 10.4 28 24v104c0 4.8-3.2 8-8 8s-8-3.2-8-8v-8c0-8.8-7.2-16-16-16s-16 7.2-16 16v8c0 22.4 17.6 40 40 40s40-17.6 40-40v-104c0-13.6 12.8-24 28-24s28 10.4 28 24c0 8.8 7.2 16 16 16s16-7.2 16-16c0-13.6 12.8-24 28-24s28 10.4 28 24c0 8.8 7.2 16 16 16s16-7.2 16-16v-16c0-100.8-77.6-183.2-176-191.2zm116 151.2c-17.6 0-32.8 7.2-44 17.6-11.2-11.2-26.4-17.6-44-17.6s-32.8 7.2-44 17.6c-11.2-11.2-26.4-17.6-44-17.6s-32.8 7.2-44 17.6c-11.2-11.2-26.4-17.6-44-17.6-8.8 0-16.8 1.6-24 4.8 16-71.2 80-124.8 156-124.8s140 53.6 156 124.8c-7.2-3.2-15.2-4.8-24-4.8zM351.261 25.722c-8-4-17.6-.8-21.6 7.2l-16 32c-4 8-.8 17.6 7.2 21.6 2.4.8 4.8 1.6 7.2 1.6 5.6 0 11.2-3.2 14.4-8.8l16-32c4-8 .8-17.6-7.2-21.6zM279.261 1.722c-8-4-17.6-.8-21.6 7.2l-16 32c-4 8-.8 17.6 7.2 21.6 2.4.8 4.8 1.6 7.2 1.6 5.6 0 11.2-3.2 14.4-8.8l16-32c4-8 .8-17.6-7.2-21.6zM391.261 65.722c-8-4-17.6-.8-21.6 7.2l-16 32c-4 8-.8 17.6 7.2 21.6 2.4.8 4.8 1.6 7.2 1.6 5.6 0 11.2-3.2 14.4-8.8l16-32c4-8 .8-17.6-7.2-21.6zM151.261 1.722c-8-4-17.6-.8-21.6 7.2l-16 32c-4 8-.8 17.6 7.2 21.6 2.4.8 4.8 1.6 7.2 1.6 5.6 0 11.2-3.2 14.4-8.8l16-32c4-8 .8-17.6-7.2-21.6zM191.261 41.722c-8-4-17.6-.8-21.6 7.2l-16 32c-4 8-.8 17.6 7.2 21.6 2.4.8 4.8 1.6 7.2 1.6 5.6 0 11.2-3.2 14.4-8.8l16-32c4-8 .8-17.6-7.2-21.6z"/></svg>
