<svg xmlns="http://www.w3.org/2000/svg" viewBox="0 0 512 512"><path d="m432.733 238.863c25.989 0 47.133-21.144 47.133-47.133 0-25.99-21.144-47.134-47.133-47.134h-17.133v-34.266h17.133c25.989 0 47.133-21.144 47.133-47.133s-21.144-47.134-47.133-47.134h-17.133v-1.063c0-8.284-6.716-15-15-15h-64.267c-8.284 0-15 6.716-15 15v1.063h-130.664v-1.063c0-8.284-6.716-15-15-15h-64.268c-8.284 0-15 6.716-15 15v1.063h-17.133c-25.99 0-47.134 21.145-47.134 47.134s21.144 47.133 47.134 47.133h17.133v34.267h-17.133c-25.99 0-47.134 21.144-47.134 47.134 0 25.989 21.144 47.133 47.134 47.133h17.133v34.27h-17.133c-25.99 0-47.134 21.144-47.134 47.133 0 25.99 21.144 47.134 47.134 47.134h17.133v34.267h-17.133c-25.99 0-47.134 21.143-47.134 47.133s21.144 47.134 47.134 47.134h17.133v1.065c0 8.284 6.716 15 15 15h64.268c8.284 0 15-6.716 15-15v-1.069h130.665v1.069c0 8.284 6.716 15 15 15h64.266c8.284 0 15-6.716 15-15v-1.066h17.133c25.989 0 47.133-21.144 47.133-47.134 0-25.989-21.144-47.133-47.133-47.133h-17.133v-34.267h17.133c25.989 0 47.133-21.144 47.133-47.134 0-25.989-21.144-47.133-47.133-47.133h-17.133v-34.27zm0-64.266c9.447 0 17.133 7.686 17.133 17.134 0 9.447-7.686 17.133-17.133 17.133h-17.133v-34.267zm0-128.534c9.447 0 17.133 7.687 17.133 17.134s-7.686 17.133-17.133 17.133h-17.133v-34.267zm-111.4 162.8h-130.664v-34.268h130.665v34.268zm-130.664 30h130.665v34.266h-130.665zm0 64.266h130.665v34.269h-130.665zm130.664-158.533h-130.664v-34.266h130.665v34.266zm-130.664 222.801h130.665v34.265h-130.665zm130.664-321.334v34.267h-130.664v-34.267zm-242.065 34.267c-9.448 0-17.134-7.686-17.134-17.133s7.686-17.134 17.134-17.134h17.133v34.267zm0 128.533c-9.448 0-17.134-7.686-17.134-17.133 0-9.448 7.686-17.134 17.134-17.134h17.133v34.267zm0 128.537c-9.448 0-17.134-7.686-17.134-17.134 0-9.447 7.686-17.133 17.134-17.133h17.133v34.267zm0 128.534c-9.448 0-17.134-7.686-17.134-17.134 0-9.447 7.686-17.133 17.134-17.133h17.133v34.267zm81.401 16.066h-34.268v-1.066-64.267-64.267-64.267-64.27-64.267-64.266-64.267-1.063h34.268v1.063 64.267 64.266 64.268 64.266 64.269 64.265 64.269zm30-16.069v-34.269h130.665v34.269zm194.931 16.069h-34.267v-1.069-64.269-64.265-64.269-64.266-64.268-64.264-64.267-1.063h34.267v1.063 64.267 64.267 64.267 64.27 64.266 64.267 64.267zm47.133-50.333c9.447 0 17.133 7.686 17.133 17.133 0 9.448-7.686 17.134-17.133 17.134h-17.133v-34.267zm0-128.533c9.447 0 17.133 7.686 17.133 17.133 0 9.448-7.686 17.134-17.133 17.134h-17.133v-34.267z"/></svg>
