<svg xmlns="http://www.w3.org/2000/svg" viewBox="0 0 512 512"><path d="M467 174.796H45c-24.813 0-45 20.187-45 45v72.408c0 24.814 20.187 45 45 45h422c24.813 0 45-20.186 45-45v-72.408c0-24.814-20.187-45-45-45zm-65 30v102.408H110V204.796zM30 292.204v-72.408c0-8.271 6.729-15 15-15h35v102.408H45c-8.271 0-15-6.728-15-15zm452 0c0 8.271-6.729 15-15 15h-35V204.796h35c8.271 0 15 6.729 15 15zM256 144.796c8.284 0 15-6.716 15-15V41c0-8.284-6.716-15-15-15s-15 6.716-15 15v88.796c0 8.284 6.716 15 15 15zM355.857 143c3.839 0 7.678-1.465 10.607-4.394l48.003-48.003c5.858-5.857 5.858-15.355 0-21.213-5.857-5.857-15.355-5.857-21.213 0l-48.003 48.003c-5.858 5.857-5.858 15.355 0 21.213A14.95 14.95 0 0 0 355.857 143zM145.537 140.402a14.954 14.954 0 0 0 10.606 4.394c3.839 0 7.678-1.465 10.607-4.394 5.857-5.857 5.857-15.355-.001-21.213l-48.003-48.002c-5.857-5.857-15.355-5.857-21.213 0-5.857 5.857-5.857 15.355 0 21.213zM256 367.204c-8.284 0-15 6.716-15 15V471c0 8.284 6.716 15 15 15s15-6.716 15-15v-88.796c0-8.284-6.716-15-15-15zM145.537 373.394l-48.003 48.003c-5.858 5.857-5.858 15.355 0 21.213a14.953 14.953 0 0 0 10.606 4.393c3.839 0 7.678-1.465 10.606-4.393l48.003-48.003c5.858-5.857 5.858-15.355 0-21.213-5.857-5.858-15.355-5.858-21.212 0zM366.463 371.598c-5.857-5.857-15.355-5.857-21.213 0-5.857 5.857-5.857 15.355 0 21.213l48.003 48.002c2.929 2.929 6.768 4.394 10.607 4.394s7.678-1.465 10.607-4.394c5.857-5.857 5.857-15.355 0-21.213z"/><path d="M176.607 271h158.786c8.284 0 15-6.716 15-15s-6.716-15-15-15H176.607c-8.284 0-15 6.716-15 15s6.716 15 15 15z"/></svg>
