<svg xmlns="http://www.w3.org/2000/svg" viewBox="0 0 512 512"><path d="M497 196H271v-15c0-8.271 6.729-15 15-15h90c24.813 0 45-20.187 45-45s-20.187-45-45-45H136c-8.271 0-15-6.729-15-15 0-8.284-6.716-15-15-15s-15 6.716-15 15c0 24.813 20.187 45 45 45h240c8.271 0 15 6.729 15 15s-6.729 15-15 15h-90c-24.813 0-45 20.187-45 45v15H15c-8.284 0-15 6.716-15 15v240c0 8.284 6.716 15 15 15h482c8.284 0 15-6.716 15-15V211c0-8.284-6.716-15-15-15zm-15 240H30V226h452z"/><path d="M106 316H76c-8.284 0-15 6.716-15 15s6.716 15 15 15h30c8.284 0 15-6.716 15-15s-6.716-15-15-15zM151 331c0 8.284 6.716 15 15 15h30c8.284 0 15-6.716 15-15s-6.716-15-15-15h-30c-8.284 0-15 6.716-15 15zM346 376h-30c-8.284 0-15 6.716-15 15s6.716 15 15 15h30c8.284 0 15-6.716 15-15s-6.716-15-15-15zM256 376h-90c-8.284 0-15 6.716-15 15s6.716 15 15 15h90c8.284 0 15-6.716 15-15s-6.716-15-15-15zM241 331c0 8.284 6.716 15 15 15h30c8.284 0 15-6.716 15-15s-6.716-15-15-15h-30c-8.284 0-15 6.716-15 15zM106 376H76c-8.284 0-15 6.716-15 15s6.716 15 15 15h30c8.284 0 15-6.716 15-15s-6.716-15-15-15zM331 331c0 8.284 6.716 15 15 15h30c8.284 0 15-6.716 15-15s-6.716-15-15-15h-30c-8.284 0-15 6.716-15 15zM226 256c-8.284 0-15 6.716-15 15s6.716 15 15 15h30c8.284 0 15-6.716 15-15s-6.716-15-15-15zM76 286h90c8.284 0 15-6.716 15-15s-6.716-15-15-15H76c-8.284 0-15 6.716-15 15s6.716 15 15 15zM316 286h30c8.284 0 15-6.716 15-15s-6.716-15-15-15h-30c-8.284 0-15 6.716-15 15s6.716 15 15 15zM406 286h30c8.284 0 15-6.716 15-15s-6.716-15-15-15h-30c-8.284 0-15 6.716-15 15s6.716 15 15 15zM436 316c-8.284 0-15 6.716-15 15v45h-15c-8.284 0-15 6.716-15 15s6.716 15 15 15h30c8.284 0 15-6.716 15-15v-60c0-8.284-6.716-15-15-15z"/></svg>
