<svg xmlns="http://www.w3.org/2000/svg" viewBox="0 0 512 512"><path d="M149.244 241.336c-16.148-16.149-41.611-17.421-59.244-3.843V137c0-24.813-20.187-45-45-45S0 112.187 0 137v165.778c0 18.818 5.517 37.04 15.955 52.696L80 451.542V497c0 8.284 6.716 15 15 15h130c8.284 0 15-6.716 15-15V371.446c0-25.375-9.881-49.231-27.823-67.174zM210 482H110v-35c0-2.961-.877-5.856-2.52-8.32l-66.564-99.846A64.795 64.795 0 0 1 30 302.778V137c0-8.271 6.729-15 15-15s15 6.729 15 15v111.299c0 20.034 7.802 38.868 21.968 53.033l63.847 63.852c5.856 5.857 15.354 5.858 21.213 0 5.858-5.858 5.858-15.355.001-21.213l-.002-.002.002-.002-60.229-60.228a14.897 14.897 0 0 1-4.374-10.585c0-4.006 1.561-7.773 4.394-10.605 5.848-5.848 15.363-5.847 21.211 0l62.932 62.936C203.239 337.761 210 354.084 210 371.446zM411 69.777c0-59.047-68.868-91.303-114.229-53.502L256 50.251l-40.771-33.976C169.868-21.526 101 10.73 101 69.777c0 59.047 68.868 91.303 114.229 53.502L256 89.303l40.771 33.976C342.132 161.08 411 128.824 411 69.777zm-214.977 30.455C170.202 121.75 131 103.388 131 69.777s39.202-51.973 65.023-30.455l36.546 30.455zm119.954-60.911C341.798 17.804 381 36.165 381 69.777c0 33.611-39.202 51.973-65.023 30.455l-36.546-30.455zM467 92c-24.813 0-45 20.187-45 45v100.492c-17.633-13.578-43.096-12.305-59.244 3.843l-62.933 62.936C281.881 322.215 272 346.071 272 371.446V497c0 8.284 6.716 15 15 15h130c8.284 0 15-6.716 15-15v-45.458l64.045-96.067C506.483 339.818 512 321.596 512 302.778V137c0-24.813-20.187-45-45-45zm15 210.778a64.795 64.795 0 0 1-10.916 36.056L404.52 438.68A14.997 14.997 0 0 0 402 447v35H302V371.446c0-17.362 6.761-33.685 19.037-45.961l62.932-62.936c5.848-5.848 15.363-5.848 21.211 0a14.9 14.9 0 0 1 4.394 10.605 14.893 14.893 0 0 1-4.374 10.585l-60.228 60.228.002.002-.002.002c-5.857 5.858-5.857 15.355.001 21.213 5.858 5.857 15.356 5.857 21.213 0l63.847-63.852c14.166-14.165 21.968-33 21.968-53.033V137c0-8.271 6.729-15 15-15s15 6.729 15 15v165.778z"/></svg>
