<svg xmlns="http://www.w3.org/2000/svg" viewBox="0 0 490 490"><path d="M53.252,431.063c0,32.495,26.442,58.937,58.937,58.937h265.622c32.495,0,58.937-26.442,58.937-58.937c0-32.51-26.442-58.952-58.937-58.952H334.42c12.065-11.459,21.387-25.046,27.87-40.705c28.165-68.046-8.465-150.025-10.038-153.485l-15.955-35.057l-12.509,36.42c-10.667,31.027-27.566,45.229-41.349,51.716c22.412-83.282-21.708-170.609-23.791-174.685L229.659,0v63.342c0,43.911-22.727,64.001-49.035,87.267c-26.412,23.356-56.345,49.829-63.117,102.144c-7.025,54.321,12.466,94.038,35.333,119.358h-40.652C79.694,372.111,53.252,398.553,53.252,431.063z M406.066,431.063c0,15.581-12.674,28.255-28.255,28.255H112.189c-15.581,0-28.255-12.674-28.255-28.255c0-15.581,12.674-28.27,28.255-28.27h265.622C393.392,402.793,406.066,415.482,406.066,431.063z M147.95,256.678c5.273-40.884,28.45-61.379,52.99-83.072c17.334-15.326,36.09-31.911,47.791-56.166c9.708,35.342,16.24,84.826-4,127.717l-9.558,20.27L257.525,267c2.247,0.24,46.847,2.667,78.039-42.727c6.682,26.278,11.566,63.537-1.633,95.402c-9.853,23.796-28.98,41.421-56.818,52.435h-75.999C188.392,364.92,138.256,331.54,147.95,256.678z"/></svg>
