<svg xmlns="http://www.w3.org/2000/svg" viewBox="0 0 512 512"><path d="m497 300h-15v-75c0-91.15-74.159-165-165-165h-15v-45c0-8.284-6.716-15-15-15s-15 6.716-15 15v45h-180v-45c0-8.284-6.716-15-15-15s-15 6.716-15 15v45h-47c-8.284 0-15 6.716-15 15v150c0 8.284 6.716 15 15 15h287v60h-15c-8.284 0-15 6.716-15 15v60c0 8.284 6.716 15 15 15h210c8.284 0 15-6.716 15-15v-60c0-8.284-6.716-15-15-15zm-195-210v120h-120v-120zm30 .838c26 2.888 49.792 13.186 69.216 28.733l-69.216 69.216zm90.429 49.946c15.547 19.424 25.845 43.216 28.733 69.216h-97.949zm-392.429-50.784h122v120h-122zm302 150h120v60h-120zm150 120h-180v-30h180z"/><path d="m437 420c-8.284 0-15 6.716-15 15v62c0 8.284 6.716 15 15 15s15-6.716 15-15v-62c0-8.284-6.716-15-15-15z"/><path d="m347 420c-8.284 0-15 6.716-15 15v62c0 8.284 6.716 15 15 15s15-6.716 15-15v-62c0-8.284-6.716-15-15-15z"/></svg>
