<svg xmlns="http://www.w3.org/2000/svg" viewBox="0 0 512 512"><path d="M490.267 298.556c-7.608-46.942-45.535-81.998-90.911-83.767-5.925-32.194-34.18-56.669-68.06-56.669H218.354c-5.977 0-10.837-4.862-10.837-10.838 0-13.352 10.861-24.214 24.214-24.214h40.711c27.53 0 49.927-22.397 49.927-49.926V48.068c0-26.042-21.186-47.229-47.229-47.229H109.6C49.165.84 0 50.006 0 110.441v87.171c0 62.417 50.779 113.197 113.196 113.197h79.945c18.858 0 34.199 15.342 34.199 34.2v74.58c0 50.491 41.078 91.569 91.569 91.569h30.945v.003h92.089v-73.082C481.693 431.042 512 396.013 512 353.96c0-20.628-7.493-39.675-21.733-55.404zM349.855 479.818H318.91v-.001c-33.21 0-60.228-27.018-60.228-60.229v-74.58c0-36.139-29.401-65.541-65.54-65.541h-79.945c-45.137 0-81.857-36.721-81.857-81.856V110.44c0-43.152 35.106-78.26 78.26-78.26h165.54c8.762 0 15.888 7.128 15.888 15.888V73.14c0 10.248-8.338 18.586-18.587 18.586H231.73c-30.633 0-55.555 24.922-55.555 55.555 0 23.258 18.92 42.179 42.178 42.179h112.94c18.001 0 33.099 12.625 36.932 29.483-34.463 10.831-61.014 41.49-67.066 80.173-14.091 15.77-21.226 34.194-21.226 54.844 0 42.006 30.239 77.003 69.921 84.094v41.764zm92.09-73.866v-13.829l21.723-26.662-24.297-19.795-28.766 35.308v98.848h-29.409v-98.848l-28.766-35.308-24.297 19.795 21.723 26.662v13.791c-22.256-6.526-38.581-27.338-38.581-51.954 0-14.015 5.186-26.024 15.853-36.71l3.917-3.925.578-5.515c3.683-35.213 31.258-61.766 64.138-61.766 32.698 0 60.254 26.391 64.095 61.386l.609 5.55 3.982 3.914c10.909 10.727 16.214 22.851 16.214 37.066-.001 24.665-16.391 45.511-38.716 51.992z"/><path d="M246.73 212.459h-79.945c-26.023 0-47.195-21.172-47.195-47.195v-62.046H88.25v62.046c0 43.305 35.232 78.535 78.535 78.535h79.945c3.93 0 7.126 3.197 7.126 7.127v35.302h31.34v-35.302c-.001-21.211-17.256-38.467-38.466-38.467z"/></svg>
