<svg xmlns="http://www.w3.org/2000/svg" viewBox="0 0 512 512"><path d="m15.008 189.001h60.288c8.284 0 15-6.716 15-15s-6.716-15-15-15h-60.288c-8.284 0-15 6.716-15 15 0 8.284 6.716 15 15 15z"/><path d="m195.242 288.004c-8.284 0-15 6.716-15 15v16.001c0 8.284 6.716 15 15 15s15-6.716 15-15v-16.001c0-8.284-6.716-15-15-15z"/><path d="m255.492 288.004c-8.284 0-15 6.716-15 15v16.001c0 8.284 6.716 15 15 15s15-6.716 15-15v-16.001c0-8.284-6.716-15-15-15z"/><path d="m316.745 288.004c-8.284 0-15 6.716-15 15v16.001c0 8.284 6.716 15 15 15s15-6.716 15-15v-16.001c0-8.284-6.716-15-15-15z"/><path d="m195.242 212.002c-8.284 0-15 6.716-15 15v16.001c0 8.284 6.716 15 15 15s15-6.716 15-15v-16.001c0-8.284-6.716-15-15-15z"/><path d="m255.492 212.002c-8.284 0-15 6.716-15 15v16.001c0 8.284 6.716 15 15 15s15-6.716 15-15v-16.001c0-8.284-6.716-15-15-15z"/><path d="m316.745 212.002c-8.284 0-15 6.716-15 15v16.001c0 8.284 6.716 15 15 15s15-6.716 15-15v-16.001c0-8.284-6.716-15-15-15z"/><path d="m195.242 136c-8.284 0-15 6.716-15 15v16c0 8.284 6.716 15 15 15s15-6.716 15-15v-16c0-8.284-6.716-15-15-15z"/><path d="m255.492 136c-8.284 0-15 6.716-15 15v16c0 8.284 6.716 15 15 15s15-6.716 15-15v-16c0-8.284-6.716-15-15-15z"/><path d="m316.745 136c-8.284 0-15 6.716-15 15v16c0 8.284 6.716 15 15 15s15-6.716 15-15v-16c0-8.284-6.716-15-15-15z"/><path d="m195.242 59.998c-8.284 0-15 6.716-15 15v16c0 8.284 6.716 15 15 15s15-6.716 15-15v-16c0-8.284-6.716-15-15-15z"/><path d="m255.492 59.998c-8.284 0-15 6.716-15 15v16c0 8.284 6.716 15 15 15s15-6.716 15-15v-16c0-8.284-6.716-15-15-15z"/><path d="m316.745 59.998c-8.284 0-15 6.716-15 15v16c0 8.284 6.716 15 15 15s15-6.716 15-15v-16c0-8.284-6.716-15-15-15z"/><path d="m255.492 364.006c-8.284 0-15 6.716-15 15v16.001c0 8.284 6.716 15 15 15s15-6.716 15-15v-16.001c0-8.284-6.716-15-15-15z"/><path d="m316.745 364.006c-8.284 0-15 6.716-15 15v16.001c0 8.284 6.716 15 15 15s15-6.716 15-15v-16.001c0-8.284-6.716-15-15-15z"/><path d="m497 482h-16.771v-38.962c17.419-5.334 30.125-21.563 30.125-40.706v-40.94c0-23.471-19.095-42.565-42.565-42.565h-5.118c-23.471 0-42.565 19.095-42.565 42.565v40.94c0 19.143 12.705 35.372 30.124 40.706v38.962h-58.235v-392.002h73.235c8.284 0 15-6.716 15-15s-6.716-15-15-15h-73.235v-44.998c0-8.284-6.716-15-15-15h-242.002c-8.284 0-15 6.716-15 15v467h-104.993c-8.284 0-15 6.716-15 15s6.716 15 15 15h482c8.284 0 15-6.716 15-15s-6.716-15-15-15zm-46.895-120.608c0-6.929 5.637-12.565 12.565-12.565h5.118c6.929 0 12.565 5.637 12.565 12.565v40.94c0 6.929-5.637 12.565-12.565 12.565h-5.118c-6.929 0-12.565-5.637-12.565-12.565zm-238.367 120.608v-41.992c0-8.284-6.716-15-15-15s-15 6.716-15 15v41.992h-31.745v-452h212.002v452z"/></svg>
