<svg xmlns="http://www.w3.org/2000/svg" viewBox="0 0 512 512"><path d="m504.673 102.113-76.409-45.481c-5.121-9.842-11.846-18.914-20.051-26.896-20.492-19.936-47.512-30.497-76.164-29.693-55.372 1.523-101.145 47.844-102.035 103.257-.214 13.319 2.136 26.506 6.85 38.873-35.312 17.071-76.029 55.379-121.504 114.421-42.499 55.178-73.29 107.848-74.58 110.063-2.56 4.396-2.717 9.792-.417 14.33 2.3 4.539 6.744 7.602 11.804 8.136.256.027 1.671.17 4.092.333l-54.248 93.962c-2.31 4-2.647 8.841-.916 13.124 1.731 4.282 5.339 7.528 9.78 8.798 11.037 3.157 22.226 4.683 33.29 4.682 39.122-.003 76.594-19.088 99.468-52.59 4.537-6.645 9.237-11.131 14.371-13.715 11.096-5.585 24.095-6.415 38.633-2.472 29.292 7.947 42.088 8.698 73.364 8.752v32.004h-5c-8.284 0-15 6.716-15 15s6.716 15 15 15h100c8.284 0 15-6.716 15-15s-6.716-15-15-15h-5v-63.493c5.98-4.744 11.711-9.978 17.125-15.676 26.847-28.26 42.875-64.832 42.875-97.831 0-35.972-8.399-69.797-24.29-97.819-3.722-6.562-2.365-14.703 3.155-18.935 12.338-9.457 22.189-21.211 29.156-34.441l73.722-24.574c5.566-1.855 9.54-6.786 10.17-12.62.63-5.833-2.199-11.498-7.241-14.499zm-365.545 172.787c52.284-67.882 98.988-107.854 131.51-112.55 2.186-.316 4.293-.475 6.335-.475 9.32 0 17.231 3.318 24.525 10.204 13.562 12.804 19.723 29.318 18.309 49.082-2.263 31.629-23.402 62.237-43.115 76.126-54.077 38.1-111.214 52.935-149.623 58.67-18.607 2.779-34.755 3.754-46.998 3.977 12.868-20.409 34.029-52.54 59.057-85.034zm190.873 207.102h-30v-34.655c10.18-2.141 20.249-5.554 30-10.145zm50.614-317.564c-17.338 13.291-22.067 38.03-11 57.544 13.146 23.182 20.386 52.666 20.386 83.02 0 51.766-53.066 115-115 115-33.362 0-43.215-.306-70.51-7.71-27.271-7.398-47.667-1.566-59.975 4.628-9.654 4.859-18.287 12.798-25.66 23.596-18.239 26.713-48.829 41.224-80.146 39.335l52.097-90.236c11.336-.522 24.736-1.646 39.656-3.835 75.901-11.135 130.809-40.933 163.506-63.97 14.169-9.983 27.451-24.848 37.4-41.858 10.664-18.231 17.012-37.821 18.359-56.651 2.059-28.77-7.499-54.025-27.639-73.038-15.421-14.558-34.701-20.649-55.742-17.606-.308.045-.622.11-.932.159-3.709-9.199-5.567-19.067-5.407-29.036.636-39.578 33.322-72.662 72.864-73.75 20.456-.562 39.782 6.969 54.419 21.208 6.645 6.465 11.919 13.936 15.716 22.07.066.147.129.295.199.441 4.437 9.67 6.792 20.264 6.792 31.253 0 10.438-2.126 20.519-6.125 29.757-.259.506-.49 1.025-.691 1.557-5.012 10.886-12.671 20.536-22.567 28.122zm58.524-45.961c.564-4.431.862-8.928.862-13.476 0-2.211-.076-4.41-.21-6.597l21.383 12.728z"/><circle cx="360.001" cy="100.002" r="15"/></svg>
