<svg xmlns="http://www.w3.org/2000/svg" viewBox="0 0 512 512"><path d="m497 0h-482c-8.284 0-15 6.716-15 15v90c0 8.284 6.716 15 15 15h46v62.862h-15c-8.284 0-15 6.716-15 15v299.138c0 8.284 6.716 15 15 15h60c8.284 0 15-6.716 15-15v-299.138c0-8.284-6.716-15-15-15h-15v-62.862h90v62.862h-15c-8.284 0-15 6.716-15 15v244.138c0 8.284 6.716 15 15 15h60c8.284 0 15-6.716 15-15v-244.138c0-8.284-6.716-15-15-15h-15v-62.862h90v62.862h-15c-8.284 0-15 6.716-15 15v173.138c0 8.284 6.716 15 15 15h60c8.284 0 15-6.716 15-15v-173.138c0-8.284-6.716-15-15-15h-15v-62.862h90v62.862h-15c-8.284 0-15 6.716-15 15v126.138c0 8.284 6.716 15 15 15h60c8.284 0 15-6.716 15-15v-126.138c0-8.284-6.716-15-15-15h-15v-62.862h46c8.284 0 15-6.716 15-15v-90c0-8.284-6.716-15-15-15zm-406 482h-30v-269.138h30zm120-55h-30v-214.138h30zm120-71h-30v-143.138h30zm120-47h-30v-96.138h30zm31-219h-452v-60h452z"/></svg>
