<svg xmlns="http://www.w3.org/2000/svg" viewBox="0 0 512 512"><path d="m444.326 224.793c9.57-11.803 15.318-26.824 15.318-43.168 0-37.863-30.804-68.667-68.667-68.667-37.862 0-68.666 30.804-68.666 68.667 0 16.354 5.756 31.383 15.336 43.19-9.07 2.892-17.681 7.128-25.527 12.563-12.387-18.033-33.147-29.888-56.63-29.888s-44.242 11.855-56.63 29.888c-7.846-5.436-16.457-9.671-25.527-12.563 9.58-11.807 15.336-26.836 15.336-43.19 0-37.863-30.804-68.667-68.666-68.667-37.863 0-68.667 30.804-68.667 68.667 0 16.344 5.749 31.364 15.318 43.168-38.611 12.316-66.654 48.526-66.654 91.167v85c0 8.284 6.716 15 15 15h120.49v79.53c0 8.284 6.716 15 15 15h210c8.284 0 15-6.716 15-15v-79.53h120.49c8.284 0 15-6.716 15-15v-85c0-42.641-28.043-78.851-66.654-91.167zm-53.348-81.835c21.321 0 38.667 17.346 38.667 38.667 0 21.307-17.325 38.644-38.628 38.665h-.077c-21.303-.021-38.627-17.358-38.627-38.665-.001-21.321 17.344-38.667 38.665-38.667zm-135.488 94.532c21.468 0 38.958 17.609 38.653 39.236-.312 21.137-17.596 38.097-38.653 38.097-21.39 0-38.667-17.449-38.667-38.666 0-21.037 17.089-38.667 38.667-38.667zm-135.487-94.532c21.32 0 38.666 17.346 38.666 38.667 0 21.307-17.325 38.644-38.627 38.665h-.077c-21.304-.021-38.628-17.358-38.628-38.665-.001-21.321 17.345-38.667 38.666-38.667zm-90.003 173.002c0-36.211 29.459-65.67 65.67-65.67h48.67c15.902 0 31.269 5.828 43.162 16.19-2.685 18.946 2.712 38.149 14.596 52.847-31.084 9.907-55.115 35.223-63.423 66.633h-44.685v-56.137c0-8.284-6.716-15-15-15s-15 6.716-15 15v56.137h-33.99zm315.49 164.53h-30v-44.333c0-8.284-6.716-15-15-15s-15 6.716-15 15v44.333h-60v-44.333c0-8.284-6.716-15-15-15s-15 6.716-15 15v44.333h-30v-70c0-36.066 29.338-65.667 65.667-65.667h48.666c36.28 0 65.667 29.548 65.667 65.667zm135.49-94.53h-33.99v-56.137c0-8.284-6.716-15-15-15s-15 6.716-15 15v56.137h-44.685c-8.253-31.203-32.136-56.661-63.423-66.633 11.469-14.185 17.372-33.256 14.596-52.847 11.894-10.362 27.26-16.19 43.162-16.19h48.67c36.211 0 65.67 29.459 65.67 65.67z"/><path d="m174.484 76.502c3.427 7.54 12.319 10.878 19.862 7.448 7.542-3.428 10.877-12.32 7.448-19.862l-20-44c-3.429-7.542-12.323-10.878-19.862-7.448-7.542 3.428-10.877 12.32-7.448 19.862z"/><path d="m316.634 83.95c7.551 3.431 16.438.086 19.862-7.448l20-44c3.429-7.542.094-16.435-7.448-19.862-7.543-3.429-16.435-.094-19.862 7.448l-20 44c-3.429 7.542-.094 16.434 7.448 19.862z"/><path d="m255.49 74.323c8.284 0 15-6.716 15-15v-43.833c0-8.284-6.716-15-15-15s-15 6.716-15 15v43.833c0 8.284 6.716 15 15 15z"/></svg>
