<svg xmlns="http://www.w3.org/2000/svg" viewBox="0 0 512 512"><path d="m302.825 436.775c-7.176-4.14-16.35-1.675-20.487 5.501l-27.231 47.227c-4.138 7.177-1.675 16.35 5.502 20.487 2.36 1.361 4.936 2.009 7.479 2.009 5.187 0 10.232-2.694 13.009-7.51l27.231-47.227c4.137-7.176 1.674-16.349-5.503-20.487z"/><path d="m142.663 436.996c-7.177-4.139-16.35-1.675-20.487 5.502l-27.104 47.006c-4.138 7.176-1.675 16.349 5.502 20.486 2.36 1.361 4.937 2.009 7.479 2.009 5.187 0 10.232-2.694 13.009-7.511l27.103-47.006c4.138-7.175 1.674-16.348-5.502-20.486z"/><path d="m422.688 367.672c-7.177-4.14-16.35-1.675-20.487 5.501l-48.625 84.331c-4.138 7.177-1.675 16.35 5.502 20.487 2.36 1.361 4.937 2.009 7.479 2.009 5.187 0 10.232-2.694 13.009-7.51l48.625-84.331c4.137-7.177 1.674-16.349-5.503-20.487z"/><path d="m261.229 370.142c-7.176-4.139-16.35-1.674-20.487 5.501l-47.199 81.857c-4.138 7.177-1.675 16.35 5.502 20.487 2.36 1.361 4.937 2.009 7.479 2.009 5.187 0 10.232-2.694 13.009-7.51l47.199-81.856c4.137-7.178 1.674-16.351-5.503-20.488z"/><path d="m107.358 368.161c-7.179-4.139-16.35-1.675-20.487 5.502l-47.615 82.58c-4.138 7.177-1.675 16.349 5.502 20.486 2.361 1.361 4.937 2.009 7.479 2.009 5.187 0 10.232-2.694 13.009-7.511l47.615-82.58c4.137-7.176 1.674-16.348-5.503-20.486z"/><path d="m386.976 88.018c-9.036 0-17.973.961-26.71 2.866-9.694-23.972-25.862-45.309-46.522-61.111-25.464-19.476-55.91-29.771-88.046-29.771-31.383 0-61.253 9.862-86.382 28.521-22.332 16.581-39.147 38.721-49.001 64.393-24.222 7.008-46.046 21.371-62.133 41.045-18.173 22.224-28.182 50.301-28.182 79.057 0 68.925 56.086 125 125.024 125h57.395l-28.424 49.297c-4.138 7.177-1.675 16.349 5.502 20.486 2.361 1.361 4.936 2.009 7.478 2.009 5.187 0 10.232-2.694 13.009-7.511l37.064-64.281h125.406l-28.428 49.304c-4.138 7.177-1.675 16.35 5.502 20.487 2.36 1.361 4.937 2.009 7.479 2.009 5.187 0 10.232-2.694 13.009-7.51l37.07-64.29h9.892c68.938 0 125.024-56.075 125.024-125s-56.087-125-125.026-125zm0 220h-261.952c-52.396 0-95.024-42.617-95.024-95 0-21.854 7.603-43.187 21.407-60.068 13.623-16.661 32.637-28.31 53.54-32.802 5.257-1.13 9.507-4.986 11.14-10.108 7.247-22.729 21.848-43.126 41.115-57.432 19.918-14.789 43.604-22.606 68.497-22.606 25.491 0 49.634 8.161 69.819 23.601 16.5 12.621 29.365 29.686 37.037 48.834-7.313 3.847-14.262 8.433-20.713 13.723-6.405 5.254-7.339 14.705-2.086 21.11 2.965 3.616 7.269 5.488 11.607 5.488 3.346 0 6.714-1.114 9.503-3.401 16.845-13.815 37.235-21.117 58.966-21.117 2.054 0 4.107.075 6.154.209 48.186 4.551 86.014 45.224 86.014 94.569 0 52.382-42.627 95-95.024 95z"/></svg>
