<svg xmlns="http://www.w3.org/2000/svg" viewBox="0 0 512 512"><path d="m367.713 24.371c3.602-4.503 4.304-10.671 1.807-15.868-2.499-5.198-7.754-8.503-13.52-8.503h-90c-4.205 0-8.216 1.765-11.057 4.864l-10.272 11.206c-37.941 41.39-47.33 101.111-23.919 152.146 2.379 5.187 2.523 10.961.406 16.261s-6.201 9.385-11.5 11.504l-89.88 35.952c-35.495 14.198-65.585 38.435-87.018 70.092-21.431 31.656-32.76 68.596-32.76 106.825v88.15c0 8.284 6.716 15 15 15h205c8.284 0 15-6.716 15-15v-56.483c0-55.334 32.218-106.595 82.078-130.592 28.266-13.604 49.336-38.729 57.808-68.932 8.472-30.204 3.542-62.621-13.526-88.941-25.652-39.556-23.098-90.867 6.353-127.681zm-21.712 208.52c-6.146 21.909-21.429 40.134-41.933 50.002-29.714 14.301-54.696 36.619-72.244 64.539-17.549 27.92-26.824 60.108-26.824 93.085v41.483h-175v-30h45c8.284 0 15-6.716 15-15s-6.716-15-15-15h-45v-13.15c0-34.625 10.898-67.177 30.099-93.85h89.901c8.284 0 15-6.716 15-15s-6.716-15-15-15h-61.758c12.591-10.35 26.915-18.907 42.679-25.212l89.88-35.952c13.001-5.201 23.022-15.226 28.217-28.229s4.841-27.173-.998-39.9c-7.455-16.252-10.669-33.627-9.868-50.707h25.848c8.284 0 15-6.716 15-15s-6.716-15-15-15h-20.144c4.783-14.048 12.465-27.244 22.929-38.659l5.814-6.341h56.023c-18.104 35.881-19.785 77.932-4.532 115.213h-30.534c-8.284 0-15 6.716-15 15s6.716 15 15 15h46.592c9.117 17.708 11.283 38.318 5.853 57.678z"/><path d="m432 168.904v27.096c0 8.284 6.716 15 15 15s15-6.716 15-15v-27.096c23.057-6.547 40-27.777 40-52.904v-40c0-30.327-24.673-55-55-55s-55 24.673-55 55v40c0 25.127 16.943 46.356 40 52.904zm-10-92.904c0-13.785 11.215-25 25-25s25 11.215 25 25v40c0 13.785-11.215 25-25 25s-25-11.215-25-25z"/><path d="m90 149.904v25.096c0 8.284 6.716 15 15 15s15-6.716 15-15v-25.096c23.057-6.547 40-27.777 40-52.904v-42c0-30.327-24.673-55-55-55s-55 24.673-55 55v42c0 25.127 16.943 46.356 40 52.904zm-10-94.904c0-13.785 11.215-25 25-25s25 11.215 25 25v42c0 13.785-11.215 25-25 25s-25-11.215-25-25z"/><path d="m457 322c-30.327 0-55 24.673-55 55v40c0 25.127 16.943 46.356 40 52.904v27.096c0 8.284 6.716 15 15 15s15-6.716 15-15v-27.096c23.057-6.547 40-27.777 40-52.904v-40c0-30.327-24.673-55-55-55zm25 95c0 13.785-11.215 25-25 25s-25-11.215-25-25v-40c0-13.785 11.215-25 25-25s25 11.215 25 25z"/><path d="m327 352c-24.813 0-45 20.187-45 45v30c0 19.555 12.541 36.228 30 42.42v27.58c0 8.284 6.716 15 15 15s15-6.716 15-15v-27.58c17.459-6.192 30-22.865 30-42.42v-30c0-24.813-20.187-45-45-45zm15 75c0 8.271-6.729 15-15 15s-15-6.729-15-15v-30c0-8.271 6.729-15 15-15s15 6.729 15 15z"/><path d="m171.108 366.208h-40c-8.284 0-15 6.716-15 15s6.716 15 15 15h40c8.284 0 15-6.716 15-15s-6.715-15-15-15z"/><path d="m300 225h-40c-8.284 0-15 6.716-15 15s6.716 15 15 15h40c8.284 0 15-6.716 15-15s-6.716-15-15-15z"/></svg>
