<svg xmlns="http://www.w3.org/2000/svg" viewBox="0 0 512 512"><path d="m506.602 372.477-96-80A14.999 14.999 0 0 0 386 304v33h-49c-44.448 0-82-37.093-82-81s37.552-81 82-81h49v33a15 15 0 0 0 24.603 11.523l96-80a15 15 0 0 0 0-23.046l-96-80A14.999 14.999 0 0 0 386 48v33h-49c-49.036 0-96 20.563-128.993 55.745C175.089 101.564 128.481 81 80 81H47c-25.916 0-47 21.084-47 47s21.084 47 47 47h33c44.664 0 81 36.336 81 81s-36.337 81-81 81H47c-25.916 0-47 21.084-47 47s21.084 47 47 47h33c48.481 0 95.089-20.563 128.007-55.745C241 410.437 287.964 431 337 431h49v33a15 15 0 0 0 24.602 11.523l96-80a15 15 0 0 0 0-23.046zM337 111h64c8.284 0 15-6.716 15-15V80.026L473.569 128 416 175.975V160c0-8.284-6.716-15-15-15h-64c-29.563 0-57.56 11.546-78.829 32.513a113.976 113.976 0 0 0-14.178 16.964l-.054-.138a168.13 168.13 0 0 0-1.652-4.228l-.082-.197a169.731 169.731 0 0 0-1.94-4.558 171.751 171.751 0 0 0-1.818-3.984c-.66-1.395-1.34-2.78-2.038-4.157l-.161-.313a168.067 168.067 0 0 0-1.924-3.663l-.313-.578a170.36 170.36 0 0 0-4.532-7.814c-.104-.169-.21-.336-.315-.505a170.893 170.893 0 0 0-2.117-3.324c-.083-.127-.16-.256-.243-.382C254.273 129.379 294.701 111 337 111zM80 401H47c-9.374 0-17-7.626-17-17 0-9.374 7.626-17 17-17h33c38.324 0 72.177-19.526 92.13-49.149l.01.025a175.484 175.484 0 0 0 1.649 4.197c.066.162.135.322.201.483a169.883 169.883 0 0 0 1.531 3.603c.1.228.199.455.3.682a170.863 170.863 0 0 0 3.823 8.047c.075.149.153.297.229.445a172.28 172.28 0 0 0 1.86 3.532l.31.572a170.606 170.606 0 0 0 4.495 7.741l.332.533a173.626 173.626 0 0 0 2.085 3.273c.083.127.161.257.245.384C161.784 382.622 121.72 401 80 401zm336 30.975V416c0-8.284-6.716-15-15-15h-64c-45.95 0-89.692-21.688-117.051-58.067C201.011 317.975 191 287.914 191 256c0-61.205-49.794-111-111-111H47c-9.374 0-17-7.626-17-17 0-9.374 7.626-17 17-17h33c45.324 0 88.692 21.688 116.051 58.067C214.989 194.026 225 224.087 225 256c0 29.528 11.78 57.402 33.171 78.487C279.44 355.454 307.437 367 337 367h64c8.284 0 15-6.716 15-15v-15.975L473.569 384 416 431.975z"/></svg>
