<svg xmlns="http://www.w3.org/2000/svg" viewBox="0 0 512 512"><path d="m203.2,51.8c-45.2,0-82,44.1-82,98.2 0,10.1-7.4,19.5-17.4,21-29.6,4.4-51.9,34.9-51.9,71 0,39.5 26.5,71.7 59.1,71.7h290.1c32.6,0 59.1-32.1 59.1-71.7s-24.2-71.7-59.1-71.7c-21.2,0-24.2-7.6-25.6-17.7-4.2-31.2-26.9-54.7-52.8-54.7-7.8,0-15.4,2.3-22.7,6.3-8.9,4.9-20.9,5-28.1-7.9-15.4-27.7-40.9-44.5-68.7-44.5zm197.9,302.9h-290.2c-55.1,0-99.9-50.5-99.9-112.5 0-49.7 29.2-92.9 70.2-107.3 6.9-70 59-123.9 122-123.9 37.1,0 71.3,18.4 94.5,50.1 8.1-2.5 16.5-3.8 25-3.8 41.7,0 77.3,29.9 89.7,73.1 49.8,6.4 88.6,54.1 88.6,111.8 0,62-44.8,112.5-99.9,112.5z"/><path d="m136.2,501c-2.2,0-4.4-0.4-6.6-1.1-10.7-3.6-16.4-15.3-12.7-25.9l16.2-47.4c3.6-10.7 15.3-16.3 25.9-12.7 10.7,3.6 16.4,15.3 12.7,25.9l-16.2,47.4c-2.9,8.5-10.8,13.8-19.3,13.8z"/><path d="m247.9,501c-2.2,0-4.4-0.4-6.6-1.1-10.7-3.6-16.4-15.3-12.7-25.9l16.2-47.4c3.6-10.7 15.3-16.3 25.9-12.7 10.7,3.6 16.4,15.3 12.7,25.9l-16.2,47.4c-2.9,8.5-10.8,13.8-19.3,13.8z"/><path d="m359.6,501c-2.2,0-4.4-0.4-6.6-1.1-10.7-3.6-16.4-15.3-12.7-25.9l16.2-47.4c3.7-10.7 15.2-16.3 25.9-12.7 10.7,3.6 16.4,15.3 12.7,25.9l-16.2,47.4c-2.9,8.5-10.8,13.8-19.3,13.8z"/></svg>
