<svg xmlns="http://www.w3.org/2000/svg" viewBox="0 0 512 512"><path d="m512 412c-20.464 0-40.453-11.508-59.411-34.206-.939-1.124-2.654-1.794-4.589-1.794s-3.65.67-4.589 1.794c-18.958 22.698-38.947 34.206-59.411 34.206s-40.453-11.508-59.411-34.206c-.939-1.124-2.654-1.794-4.589-1.794s-3.65.67-4.589 1.794c-18.958 22.698-38.947 34.206-59.411 34.206s-40.453-11.508-59.411-34.206c-.939-1.124-2.654-1.794-4.589-1.794s-3.65.67-4.589 1.794c-18.958 22.698-38.947 34.206-59.411 34.206s-40.453-11.508-59.411-34.206c-.939-1.124-2.654-1.794-4.589-1.794s-3.65.67-4.589 1.794c-18.958 22.698-38.947 34.206-59.411 34.206v-40c7.711 0 18.176-7.234 28.712-19.848 8.573-10.265 21.435-16.152 35.288-16.152s26.715 5.887 35.288 16.152c10.536 12.613 21.001 19.848 28.712 19.848s18.176-7.234 28.712-19.848c8.573-10.265 21.435-16.152 35.288-16.152s26.715 5.887 35.288 16.152c10.536 12.613 21.001 19.848 28.712 19.848s18.176-7.234 28.712-19.848c8.573-10.265 21.435-16.152 35.288-16.152s26.715 5.887 35.288 16.152c10.536 12.613 21.001 19.848 28.712 19.848s18.176-7.234 28.712-19.848c8.573-10.265 21.435-16.152 35.288-16.152s26.715 5.887 35.288 16.152c10.536 12.613 21.001 19.848 28.712 19.848zm0 60c-7.711 0-18.176-7.234-28.712-19.848-8.573-10.265-21.435-16.152-35.288-16.152s-26.715 5.887-35.288 16.152c-10.536 12.613-21.001 19.848-28.712 19.848s-18.176-7.234-28.712-19.848c-8.573-10.265-21.435-16.152-35.288-16.152s-26.715 5.887-35.288 16.152c-10.536 12.613-21.001 19.848-28.712 19.848s-18.176-7.234-28.712-19.848c-8.573-10.265-21.435-16.152-35.288-16.152s-26.715 5.887-35.288 16.152c-10.536 12.613-21.001 19.848-28.712 19.848s-18.176-7.234-28.712-19.848c-8.573-10.265-21.435-16.152-35.288-16.152s-26.715 5.887-35.288 16.152c-10.536 12.613-21.001 19.848-28.712 19.848v40c20.464 0 40.453-11.508 59.411-34.206.939-1.124 2.654-1.794 4.589-1.794s3.65.67 4.589 1.794c18.958 22.698 38.947 34.206 59.411 34.206s40.453-11.508 59.411-34.206c.939-1.124 2.654-1.794 4.589-1.794s3.65.67 4.589 1.794c18.958 22.698 38.947 34.206 59.411 34.206s40.453-11.508 59.411-34.206c.939-1.124 2.654-1.794 4.589-1.794s3.65.67 4.589 1.794c18.958 22.698 38.947 34.206 59.411 34.206s40.453-11.508 59.411-34.206c.939-1.124 2.654-1.794 4.589-1.794s3.65.67 4.589 1.794c18.958 22.698 38.947 34.206 59.411 34.206zm-349.271-315.174c5.737-2.049 10.23-6.61 12.201-12.374.23-.674 23.563-67.913 67.84-109.947 8.011-7.605 8.339-20.264.734-28.274-7.605-8.01-20.264-8.339-28.275-.734-35.007 33.234-58.019 78.007-69.521 104.313-25.95-12.598-73.206-31.33-125.526-31.808-.062-.002-.123-.002-.186-.002-10.96 0-19.894 8.834-19.995 19.817-.102 11.045 8.771 20.081 19.816 20.182 65.85.603 125.072 36.646 125.638 36.995 3.201 1.986 6.854 3 10.534 3 2.271 0 4.551-.386 6.74-1.168zm227.499 50.843c5.853-2.234 10.325-7.098 12.076-13.113.142-.487 14.519-48.957 45.621-75.293 8.429-7.138 9.477-19.758 2.338-28.188-7.138-8.43-19.757-9.477-28.188-2.339-25.125 21.276-41.213 51.694-49.972 72.296-19.902-8.755-52.086-19.73-90.431-21.021-11-.388-20.291 8.276-20.661 19.315-.372 11.04 8.275 20.29 19.315 20.662 52.338 1.763 91.823 25.762 92.169 25.974 3.211 2.006 6.88 3.026 10.573 3.026 2.418.001 4.845-.436 7.16-1.319z"/></svg>
