<svg xmlns="http://www.w3.org/2000/svg" viewBox="0 0 512 512"><path d="M506.218 465.892c-85.762-66.816-186.603-27.676-286-1.759l-44.787-167.16c8.768.098 17.639 2.285 25.885 6.761 7.185 4.162 16.221 1.638 20.369-5.222 14.083-23.287 44.338-35.186 74.526-19.745 11.546 5.906 24.618-4.69 21.321-17.174-21.706-82.186-102.357-131.827-183.173-117.916l-7.116-26.561c-2.143-8.001-10.366-12.753-18.37-10.607-8.002 2.144-12.75 10.369-10.606 18.372l7.116 26.559C28.092 179.929-16.568 263.526 5.745 345.31c3.449 12.637 20.484 15.126 27.314 3.799 14.704-24.381 46.175-34.942 74.437-19.864 7.102 3.769 15.811 1.283 19.893-5.464 4.89-8.087 11.5-14.483 19.076-19.002l44.606 166.483c-57.346 12.893-114.973 17.962-169.802-7.172-7.529-3.452-16.433-.145-19.885 7.385-3.452 7.531-.146 16.435 7.385 19.887 171.887 78.793 352.344-100.494 479.012-1.803 6.534 5.09 15.959 3.921 21.051-2.614 5.091-6.536 3.921-15.962-2.614-21.053zM278.097 242.157a85.322 85.322 0 0 0-60.478 16.81c-9.867-33.521-28.385-63.891-54.799-87.624 47.703.425 92.805 27.407 115.277 70.814zm-247.96 66.501c-2.212-47.762 22.405-94.329 64.561-119.104-10.911 33.428-11.969 68.974-3.67 103.307a85.232 85.232 0 0 0-60.891 15.797zm90.238-22.086c-8.538-34.573-6.096-70.568 9.005-103.677 29.619 21.107 49.752 50.98 59.666 85.257a85.232 85.232 0 0 0-68.671 18.42zM285.293 135.955h15.95c8.284 0 14.999-6.716 14.999-15s-6.716-15-14.999-15h-15.95c-8.284 0-14.999 6.716-14.999 15s6.715 15 14.999 15zM391.054 171.359c27.791 0 50.401-22.612 50.401-50.404 0-27.793-22.61-50.405-50.401-50.405s-50.401 22.612-50.401 50.405c0 27.792 22.61 50.404 50.401 50.404zm0-70.809c11.25 0 20.402 9.153 20.402 20.404 0 11.25-9.152 20.404-20.402 20.404s-20.402-9.153-20.402-20.404 9.152-20.404 20.402-20.404zM391.054 45.952c8.284 0 14.999-6.716 14.999-15V15c0-8.284-6.716-15-14.999-15s-14.999 6.716-14.999 15v15.951c0 8.285 6.715 15.001 14.999 15.001zM316.811 67.919c5.856 5.858 15.355 5.859 21.212 0 5.858-5.858 5.858-15.355 0-21.214l-11.278-11.279c-5.857-5.859-15.355-5.859-21.212 0-5.858 5.858-5.858 15.355 0 21.214zM316.811 173.989l-11.278 11.279c-5.858 5.858-5.858 15.355 0 21.214 5.856 5.858 15.355 5.859 21.212 0l11.278-11.279c5.858-5.858 5.858-15.355 0-21.214-5.857-5.859-15.355-5.859-21.212 0zM376.055 210.957v15.95c0 8.284 6.716 15 14.999 15s14.999-6.716 14.999-15v-15.95c0-8.284-6.716-15-14.999-15s-14.999 6.716-14.999 15zM444.085 173.989c-5.858 5.858-5.858 15.355 0 21.214l11.278 11.279c5.856 5.858 15.355 5.859 21.212 0 5.858-5.858 5.858-15.355 0-21.214l-11.278-11.279c-5.857-5.859-15.355-5.859-21.212 0zM466.051 120.954c0 8.284 6.716 15 14.999 15H497c8.284 0 14.999-6.716 14.999-15s-6.716-15-14.999-15h-15.95c-8.284 0-14.999 6.716-14.999 15zM465.297 67.919l11.278-11.279c5.858-5.858 5.858-15.355 0-21.214-5.857-5.859-15.355-5.859-21.212 0l-11.278 11.279c-5.858 5.858-5.858 15.355 0 21.214 5.856 5.858 15.355 5.859 21.212 0z"/></svg>
