<svg xmlns="http://www.w3.org/2000/svg" viewBox="0 0 512 512"><path d="M391 195.971h30v30h-30z"/><path d="M406 135.971c-41.355 0-75 33.645-75 75 0 5.05.543 10.058 1.623 15h-62.197c-16.542 0-30-13.458-30-30H210v75c0 5.093.372 10.099 1.076 15h-62.805c3.284-79.946 35.505-102.568 57.335-124.393l38.293-38.293-52.537 13.135c-18.394 4.598-35.01 11.073-49.793 19.374 5.631-16.553 18.077-38.255 49.037-69.215L228.9 48.284l-56.121 14.03c-36.705 9.176-68.966 30.519-91.892 59.734-5.287-30.559-12.823-59.89-22.471-79.185L45 16.029 31.584 42.863C10.976 84.079 0 171.089 0 218.053v277.918h512v-210h-62.514a74.336 74.336 0 0 0-3.351-11.626 75.076 75.076 0 0 0 21.567-20.725C493.395 246.25 512 222.599 512 195.971v-15h-36.298c-11.892-26.647-39.514-45-69.702-45zm-75 120c16.542 0 30 13.458 30 30h-15c-19.59 0-36.791-12.718-43.265-30zm-190.021-64.038c-11.725 21.399-21.06 50.825-22.716 93.577l-.018.461h-27.52c2.56-26.69 13.132-66.04 50.254-94.038zm-14.717-73.556c-15.117 25.053-17.588 43.009-19.46 56.61-.427 3.105-.817 5.914-1.32 8.336a152.69 152.69 0 0 0-15.828 19.117c-.421-10.23-1.228-21.568-2.41-33.444 8.961-19.85 22.427-37.131 39.018-50.619zM30 218.053c0-30.867 5.241-82.141 15-122.102 9.759 39.961 15 91.235 15 122.102v67.918H30zm0 247.918v-150.01c32.215 0 39.878.01 75.035.01C95.6 328.514 90 344.075 90 360.971c0 41.355 33.645 75 75 75h30c19.557 0 36.239 12.539 42.43 30H30zm452 0H268.494c-6.967-34.192-37.273-60-73.494-60h-30c-24.813 0-45-20.187-45-45s20.187-45 45-45h55.145c16.882 35.443 53.053 59.99 94.855 59.99h58.287c37.396-.01 69.429-25.224 76.241-59.99H482zm-33.222-239.233l-3.537 6.279c-11.691 20.751-31.138 21.516-42.617 26.846l10.789 16.092c6.659 9.931 9.038 22.059 6.698 34.149-3.953 20.442-24.087 35.861-46.828 35.867H315c-41.355 0-75-33.645-75-75V247.67a59.65 59.65 0 0 0 30.426 8.301h1.111c6.962 33.591 37.517 60 74.463 60h45v-30c0-16.544-6.73-31.545-17.597-42.41-3.447-6.963-12.403-16.973-12.403-32.59 0-24.813 20.187-45 45-45 20.802 0 39.552 14.189 44.583 33.739l2.897 11.251h24.229c-9.607 15.711-25.887 14.743-28.931 15.777z"/></svg>
