<svg xmlns="http://www.w3.org/2000/svg" viewBox="0 0 512.838 512.838"><path d="M489.454 426.377c0-48.483-26.355-86.46-59.999-86.46h-13.633a84.65 84.65 0 003.195-23.017c0-27.7-11.843-46.233-24.381-65.854-16.365-25.611-34.914-54.64-34.914-116.886a15 15 0 00-26.686-9.404c-1.1 1.366-22.993 28.733-44.178 66.876-15.388-27.377-29.657-63.92-29.657-125.625a15 15 0 00-26.686-9.405c-1.075 1.336-26.626 33.235-52.5 78.649-35.246 61.868-53.118 116.637-53.118 162.787 0 14.894 3.16 29.063 8.834 41.879H83.383c-33.645 0-59.999 37.979-59.999 86.461 0 48.483 26.354 86.46 59.999 86.46h346.071c29.538 0 53.45-29.276 58.85-69.23.484-2.968 1.15-14.331 1.15-17.231zm-257.84-317.292c7.182 60.827 28.968 94.972 45.672 121.155a15.02 15.02 0 0013.554 6.905 15 15 0 0012.62-8.493c9.342-19.506 20.008-37.425 29.308-51.736 6.637 43.406 22.909 68.874 36.59 90.283 11.413 17.862 19.66 30.768 19.66 49.701 0 17.036-7.795 32.286-20.007 42.37 3.373-14.172.937-29.096-7.225-41.939l-1.859-2.917c-6.625-10.368-14.135-22.12-20.818-36.379a15.003 15.003 0 00-13.52-8.634h-.063a15 15 0 00-13.528 8.521l-6.448 13.465c-3.645 7.61-10.564 8.828-13.37 8.998-2.814.174-9.822-.201-14.361-7.315l-9.966-15.62c-10.24-16.051-22.984-36.025-32.954-63.654a15.002 15.002 0 00-13.049-9.871 15.012 15.012 0 00-14.312 7.933c-25.282 47.653-38.875 90.867-39.426 125.221-7.095-11.333-11.214-24.711-11.214-39.039 0-66.938 45.406-145.329 74.716-188.955zm-1.057 262.746c-.516-.001-1.025-.028-1.538-.039-17.144-.868-30.87-14.977-30.93-32.195-.081-23.198 7.412-52.116 21.85-84.76 7.726 15.398 15.705 27.904 22.623 38.749l9.966 15.62c9.093 14.252 24.599 22.138 41.471 21.124 12.303-.747 23.31-6.114 31.199-14.877 3.243 5.401 6.431 10.39 9.446 15.109l1.821 2.857c4.97 7.821 5.275 17.338.815 25.456-4.458 8.114-12.649 12.959-21.911 12.959h-84.674c-.047 0-.092-.003-.138-.003zm-147.174-1.914c14.189 0 30 23.188 30 56.461 0 33.272-15.811 56.46-30 56.46s-29.999-23.188-29.999-56.46c0-33.274 15.81-56.461 29.999-56.461zm346.072 112.921H129.151c8.904-15.047 14.232-34.686 14.232-56.46s-5.328-41.413-14.232-56.461h26.736c18.898 19.661 45.447 31.917 74.806 31.917H334.084c26.789 0 50.706-12.48 66.284-31.917h29.087c6.583 0 13.555 5.075 19.126 13.923 6.402 10.167 10.268 24.225 10.803 39.01h-44.382c-8.284 0-15 6.716-15 15s6.716 15 15 15h40.683c-1.792 5.963-4.18 11.423-7.104 16.065-5.572 8.848-12.543 13.923-19.126 13.923zM344.722 48.324c8.284 0 15-6.716 15-15V15c0-8.284-6.716-15-15-15s-15 6.716-15 15v18.324c0 8.284 6.716 15 15 15z"/></svg>
