<svg xmlns="http://www.w3.org/2000/svg" viewBox="0 0 512 512"><path d="m432.566406 129.207031h-21.960937c-7.449219-72.476562-68.863281-129.207031-143.277344-129.207031-60.734375 0-111.605469 37.234375-133.117187 88.992188-64.753907-21.667969-134.210938 26.449218-134.210938 96.976562 0 56.300781 45.792969 102.105469 102.085938 102.105469h71.523437l-15.613281 77.234375c-.023438.113281-.046875.230468-.066406.34375-3.410157 19.15625 11.339843 36.734375 30.777343 36.734375h34.171875l-10.613281 92.839843c-1.816406 15.914063 19.203125 23.183594 27.691406 9.757813l88.488281-139.957031c.035157-.058594.074219-.117188.109376-.179688 13.410156-21.890625-2.382813-50.113281-28.070313-50.113281h-35.871094l4.972657-26.660156h162.984374c43.796876 0 79.433594-35.632813 79.433594-79.433594 0-43.796875-35.636718-79.433594-79.4375-79.433594zm-132.082031 215.644531c2.191406 0 3.515625 2.34375 2.421875 4.203126l-53.246094 84.21875 5.058594-44.234376c1.019531-8.925781-5.96875-16.769531-14.960938-16.769531h-51.050781c-.730469 0-1.214843-.652343-1.140625-1.246093l16.773438-82.949219h34.605468l-7.265624 38.957031c-1.726563 9.253906 5.378906 17.820312 14.804687 17.820312zm132.082031-86.894531c-9.191406 0-325.5 0-330.480468 0-39.683594 0-71.96875-32.292969-71.96875-71.988281 0-54.375 58.179687-89.050781 105.894531-63.507812 8.480469 4.542968 19.011719.058593 21.605469-9.214844 13.707031-48.945313 58.820312-83.128906 109.707031-83.128906 64.585937 0 114.550781 53.507812 113.917969 114.148437 0 8.316406 6.742187 15.058594 15.058593 15.058594h36.265625c27.191406 0 49.316406 22.125 49.316406 49.316406s-22.121093 49.316406-49.316406 49.316406zm0 0"/><path d="m104.691406 308.089844c-8.171875-1.570313-16.058594 3.773437-17.628906 11.941406l-3.476562 18.078125c-1.570313 8.167969 3.773437 16.0625 11.941406 17.632813 8.199218 1.570312 16.066406-3.800782 17.632812-11.941407l3.476563-18.082031c1.570312-8.164062-3.777344-16.058594-11.945313-17.628906zm0 0"/><path d="m138.761719 404.472656c-8.171875-1.570312-16.058594 3.777344-17.628907 11.945313l-3.476562 18.078125c-1.570312 8.167968 3.773438 16.0625 11.941406 17.632812 8.199219 1.570313 16.066406-3.800781 17.632813-11.945312l3.476562-18.078125c1.570313-8.167969-3.777343-16.0625-11.945312-17.632813zm0 0"/><path d="m388.988281 326.167969c-8.160156-1.566407-16.058593 3.777343-17.632812 11.945312l-3.476563 18.078125c-1.570312 8.167969 3.777344 16.0625 11.945313 17.632813 8.175781 1.570312 16.0625-3.785157 17.632812-11.945313l3.476563-18.078125c1.570312-8.167969-3.777344-16.0625-11.945313-17.632812zm0 0"/><path d="m437.789062 388.3125c-8.160156-1.566406-16.0625 3.773438-17.632812 11.941406l-3.476562 18.082032c-1.570313 8.164062 3.777343 16.058593 11.941406 17.628906 8.191406 1.574218 16.066406-3.796875 17.632812-11.941406l3.476563-18.082032c1.574219-8.164062-3.773438-16.058594-11.941407-17.628906zm0 0"/><path d="m387.25 434.011719c-8.160156-1.574219-16.0625 3.773437-17.632812 11.941406l-3.476563 18.078125c-1.570313 8.167969 3.773437 16.0625 11.941406 17.632812 8.152344 1.570313 16.058594-3.761718 17.632813-11.941406l3.476562-18.078125c1.574219-8.167969-3.773437-16.0625-11.941406-17.632812zm0 0"/><path d="m55.65625 434.011719c-8.160156-1.566407-16.058594 3.777343-17.628906 11.941406l-3.476563 18.078125c-1.570312 8.167969 3.773438 16.0625 11.941407 17.632812 8.1875 1.570313 16.0625-3.792968 17.632812-11.941406l3.476562-18.082031c1.570313-8.164063-3.777343-16.058594-11.945312-17.628906zm0 0"/></svg>
