<svg xmlns="http://www.w3.org/2000/svg" viewBox="0 0 512 512"><path d="M497 113.001H143V84.657l315.524-53.87c8.166-1.395 13.656-9.145 12.262-17.311-1.394-8.167-9.148-13.655-17.311-12.262L143 54.223V16.001c0-8.284-6.716-15-15-15H15c-8.284 0-15 6.716-15 15v480c0 8.284 6.716 15 15 15h482c8.284 0 15-6.716 15-15v-368c0-8.284-6.716-15-15-15zm-15 128H271v-98h211zm-169 144H199v-34h114zm15-64H184c-8.284 0-15 6.716-15 15v49H30v-114h452v114H343v-49c0-8.284-6.716-15-15-15zm-215-290v97c0 8.284 6.716 15 15 15h113v98H30v-210zm-83 450v-66h452v66z"/><path d="M80 207.001h96c8.284 0 15-6.716 15-15s-6.716-15-15-15H80c-8.284 0-15 6.716-15 15s6.716 15 15 15z"/><circle cx="368" cy="191.999" r="15"/><circle cx="432" cy="191.998" r="16"/></svg>
