<svg xmlns="http://www.w3.org/2000/svg" viewBox="0 0 512 512"><path d="M406,421c58.449,0,106-47.103,106-105c0-34.303-17.079-66.251-44.718-85.703C476.863,215.769,482,198.787,482,181c0-38.554-25.226-72.608-61.467-85.037C415.507,42.205,370.543,0,316,0c-21.659,0-42.592,6.675-60.143,18.955C238.866,7.011,218.229,0,196,0C141.457,0,96.493,42.205,91.467,95.963C55.226,108.392,30,142.446,30,181c0,17.787,5.137,34.769,14.718,49.297C17.079,249.749,0,281.697,0,316c0,57.897,47.551,105,106,105h75v61h-75c-8.284,0-15,6.716-15,15s6.716,15,15,15h300c8.284,0,15-6.716,15-15s-6.716-15-15-15h-75v-61H406z M316,30c41.027,0,75.594,33.855,74.853,77.238c-0.125,7.241,4.942,13.538,12.043,14.964C431.349,127.919,452,152.647,452,181c0,16.165-6.383,31.344-17.973,42.74c-7.473,7.348-5.283,19.925,4.232,24.315C464.831,260.316,482,286.986,482,316c0,41.355-34.093,75-76,75h-46.596C378.887,371.927,391,345.354,391,316c0-34.303-17.079-66.251-44.718-85.703C355.863,215.769,361,198.787,361,181c0-38.602-24.804-72.621-60.464-85.011c-1.953-20.958-9.977-40.16-22.272-55.792C289.638,33.568,302.624,30,316,30z M301,482h-90v-61c14.8,0,80.875,0,90,0V482z M286,391c-7.836,0-67.566,0-75,0v-98.787l55.606-55.606c5.858-5.858,5.858-15.355,0-21.213c-5.857-5.858-15.355-5.858-21.213,0L211,249.787V106c0-8.284-6.716-15-15-15s-15,6.716-15,15v83.787l-34.394-34.393c-5.857-5.858-15.355-5.858-21.213,0c-5.858,5.858-5.858,15.355,0,21.213L181,232.213v77.574l-34.394-34.394c-5.857-5.858-15.355-5.858-21.213,0c-5.858,5.858-5.858,15.355,0,21.213L181,352.213V391h-75c-41.907,0-76-33.645-76-75c0-29.014,17.169-55.684,43.741-67.944c9.516-4.391,11.705-16.968,4.232-24.315C66.383,212.344,60,197.165,60,181c0-28.353,20.651-53.082,49.105-58.798c7.255-1.457,12.98-8.196,11.899-16.97C121.411,63.677,154.897,30,196,30c41.103,0,74.589,33.676,74.996,75.231c-1.071,8.684,4.56,15.497,11.899,16.971C310.769,127.802,331,152.53,331,181c0,16.165-6.383,31.344-17.973,42.74c-7.473,7.348-5.283,19.925,4.232,24.315C343.831,260.316,361,286.986,361,316C361,357.355,327.355,391,286,391z"/></svg>
