<svg xmlns="http://www.w3.org/2000/svg" viewBox="0 0 485 485"><circle cx="345.644" cy="44.104" r="0.5"/><path d="M345.644,59.604c8.547,0,15.5-6.953,15.5-15.5s-6.953-15.5-15.5-15.5s-15.5,6.953-15.5,15.5S337.097,59.604,345.644,59.604z"/><circle cx="276.881" cy="115" r="0.5"/><path d="M276.881,130.5c8.547,0,15.5-6.953,15.5-15.5s-6.953-15.5-15.5-15.5s-15.5,6.953-15.5,15.5S268.334,130.5,276.881,130.5z" /><circle cx="414.407" cy="115" r="0.5"/><path d="M414.407,130.5c8.547,0,15.5-6.953,15.5-15.5s-6.953-15.5-15.5-15.5s-15.5,6.953-15.5,15.5S405.86,130.5,414.407,130.5z"/><path d="M360.644,430v-50h109.271L345.644,131.459L221.374,380h109.271v50H0v30h485v-30H360.644z M345.644,198.541L421.374,350H269.915L345.644,198.541z"/><circle cx="70.593" cy="256.791" r="0.5"/><path d="M55.093,256.791c0,8.547,6.953,15.5,15.5,15.5s15.5-6.953,15.5-15.5s-6.953-15.5-15.5-15.5S55.093,248.244,55.093,256.791z"/><path d="M123.855,327.687c0,8.547,6.953,15.5,15.5,15.5s15.5-6.953,15.5-15.5s-6.953-15.5-15.5-15.5S123.855,319.14,123.855,327.687z"/><path d="M140,205c15.796,0,31.361-4.176,45.013-12.076l22.434-12.982l-22.434-12.983C166.5,156.245,155,136.335,155,115c0-21.336,11.5-41.245,30.013-51.958l22.434-12.982l-22.434-12.983C171.362,29.176,155.797,25,140,25c-49.626,0-90,40.374-90,90S90.374,205,140,205z M140,55c2.532,0,5.056,0.161,7.554,0.479C133.262,71.712,125,92.841,125,115c0,22.159,8.262,43.288,22.555,59.521C145.056,174.839,142.533,175,140,175c-33.084,0-60-26.916-60-60S106.916,55,140,55z"/></svg>
