<svg xmlns="http://www.w3.org/2000/svg" viewBox="0 0 234 345"><path fill="#fff" d="M82.24 278.33L82.24 65.4096C82.2573 58.6964 80.6314 52.081 77.5043 46.1406C74.3772 40.2002 69.844 35.1153 64.3 31.3295C64.043 31.1796 63.8 31.0085 63.57 30.8195L21.5 3.33955C19.429 1.94531 17.018 1.14033 14.5248 1.01075C12.0315 0.881169 9.55 1.43185 7.34562 2.60389C5.14125 3.77592 3.29699 5.52521 2.01016 7.6646C0.723323 9.80398 0.0423308 12.253 0.0400391 14.7496V254.75C0.0700391 256.42 0.160039 258.07 0.290039 259.75C0.390039 260.64 0.510039 261.56 0.670039 262.45C0.709688 262.671 0.751125 262.891 0.794343 263.111C2.44975 276.614 7.09295 289.581 14.39 301.07C22.4404 313.802 33.4671 324.385 46.5193 331.906C59.5715 339.427 74.2572 343.66 89.31 344.24C90.49 344.31 91.68 344.31 92.88 344.31H95.48C114.07 343.85 128.85 337.03 144.48 327.4L165.81 314.4C167.729 313.17 170.304 311.581 173.259 309.76C185.099 302.458 203.024 291.404 209.17 284.61L209.184 284.595C225.133 267.44 233.999 244.884 234 221.46C234 219.28 233.91 217.12 233.79 214.93C232.172 191.247 221.505 169.094 204 153.06C199.303 148.715 194.161 144.877 188.66 141.61L178.27 136.3L125.58 109.3C123.68 108.496 121.619 108.149 119.561 108.286C116.456 108.494 113.525 109.793 111.285 111.953C109.045 114.113 107.641 116.995 107.32 120.09C107.295 120.54 107.295 120.99 107.32 121.44C107.319 123.182 107.658 124.908 108.32 126.52L108.9 127.7L111.17 133.52L123 163.68L133.29 190.06C136.227 195.41 140.937 199.569 146.61 201.82L148.38 202.47H148.66L187.658 215.872L83.63 277.5L82.24 278.33Z"/></svg>