<svg width="71" height="90" xmlns="http://www.w3.org/2000/svg"><g fill="#FFF" fill-rule="evenodd"><path d="M30.39 58.81c0 10.455 7.314 24.387 10.914 30.55.517.884-18.385.633-25.78.457-2.135-.051-3.315-1.145-2.783-.908C15.11 89.966 2.69 46.75.94 29.28-.27 16.93 6.4 10.2 19.3 8.53 13.65 6.7 3.76 7.24 3.76 7.24 4 3.79 9 3.12 9 3.12a31.7 31.7 0 0 0-4.92-2c13.8-1.94 22.5 2.82 26.2 7.7 14.96 3.58 17.41 20.75 17.41 25.69 0 20.59-17.3-1.51-17.3 24.3zm12.79-37.55c-3.08-1.79-5.89-1.42-8.18.4 1.45-3.61 5.78-3.51 8.18-.4zm-26.74.1c-4.67-.51-6.83.24-8.45 4.06-.37-6.22 5.17-6.06 8.45-4.06zm24.7 5.8a3.31 3.31 0 1 0 0 6.62 3.31 3.31 0 0 0 0-6.62zm-25.55 1.8a3.81 3.81 0 1 0 0 7.62 3.81 3.81 0 0 0 0-7.62z"/><path d="M27.22 49.25c0-6.61 9-8.71 12.38-8.71 9.22 0 22.17-5.9 25.42-5.8 3.25.1 5.35 1.41 5.35 2.94 0 2.23-18.36 10.46-25.54 9.79-6.78-.64-8.38.11-8.38 2.93 0 2.44 4.88 4.58 10.27 4.58 8.07 0 16-3.64 18.42-1.86C67.21 54.64 59.6 60 50.93 60c-8.67 0-23.71-4.14-23.71-10.75zM42.37 30.23a1 1 0 1 1 0-2 1 1 0 0 1 0 2zM17 32.5a1.12 1.12 0 1 1 1.11-1.12A1.11 1.11 0 0 1 17 32.5z"/><path d="M7.25 12.77c-4.8 3.48-7 8.94-6.29 16.51 1.73 17.48 9.09 48.79 11.73 59.66.89.32 1.8.62 2.71.89-1.61-6.64-9.28-38.77-12.71-63.51-.89-6.59 1.65-10.42 4.56-13.55zM19.15 8.47l.68-.05C14.58 5.89 6.4 5.82 4.19 5.85a3.47 3.47 0 0 0-.41 1.39s9.69-.56 15.37 1.23zM9.81 3.12A36.1 36.1 0 0 0 6.12.89c-.66.06-1.33.14-2 .24a30.54 30.54 0 0 1 4.92 2h-.16c.55-.02.93-.01.93-.01zM50.05 69.61c-1.73-.41-8.31 4.29-10.78 6.11a6.62 6.62 0 0 0-.31-1.04c-.33-1-6.69-.44-8.23 1.17-4-2-12-5.59-12.06-3.32-.25 3 0 15.53 1.64 16.41 1.22.66 8-3 11.41-4.93 2.2.5 6.06 0 7.49-.88.172-.127.304-.3.38-.5 3.13 1.2 9.78 3.63 11.22 3.15 1.76-.64 1.38-15.66-.76-16.17z" fill-rule="nonzero"/><path d="M31.78 84c-2.15-.38-1.39-2.52-1.39-7.45-.54.32-.88.7-.88 1.14 0 4.92-.76 7.07 1.38 7.45a13.56 13.56 0 0 0 7.57-.89c.3-.251.49-.61.53-1a13.35 13.35 0 0 1-7.21.75z" fill-rule="nonzero"/></g></svg>