<svg viewBox="0 0 61 61" fill="white" xmlns="http://www.w3.org/2000/svg"><path d="M57.8512 41.988L45.7387 54.1005C45.5645 54.2748 45.3577 54.4131 45.1301 54.5075C44.9025 54.6018 44.6585 54.6504 44.4121 54.6504C44.1657 54.6504 43.9217 54.6018 43.6941 54.5075C43.4665 54.4131 43.2597 54.2748 43.0855 54.1005L30.973 41.988C30.6212 41.6362 30.4236 41.159 30.4236 40.6614C30.4236 40.1639 30.6212 39.6867 30.973 39.3349C31.3249 38.983 31.802 38.7854 32.2996 38.7854C32.7972 38.7854 33.2743 38.983 33.6262 39.3349L42.5418 48.2505C42.5517 38.0255 38.5001 28.2153 31.2779 20.9772C24.0556 13.7392 14.2543 9.66603 4.0293 9.6536C3.53202 9.6536 3.0551 9.45606 2.70347 9.10443C2.35184 8.7528 2.1543 8.27588 2.1543 7.7786C2.1543 7.28132 2.35184 6.80441 2.70347 6.45278C3.0551 6.10114 3.53202 5.9036 4.0293 5.9036C15.2488 5.91603 26.004 10.3842 33.9295 18.3256C41.855 26.2669 46.3017 37.031 46.2918 48.2505L55.2074 39.3349C55.559 38.9862 56.0342 38.7907 56.5293 38.7911C56.899 38.7927 57.26 38.9035 57.5669 39.1096C57.8738 39.3157 58.1129 39.608 58.2541 39.9496C58.3954 40.2913 58.4325 40.667 58.3608 41.0297C58.2891 41.3924 58.1118 41.7258 57.8512 41.988V41.988Z"/></svg>
