<svg viewBox="0 0 20 20" width="20" height="20"> <g clip-path="url(#clip0_197_928)"> <path d="M13.7491 0C12.6829 0.0737496 11.4367 0.756245 10.7104 1.64499C10.0479 2.45124 9.50292 3.64873 9.71542 4.81247C10.8804 4.84872 12.0841 4.14998 12.7816 3.24623C13.4341 2.40499 13.9279 1.21499 13.7491 0Z"/> <path d="M17.9629 6.70989C16.9391 5.42615 15.5004 4.68115 14.1416 4.68115C12.3479 4.68115 11.5891 5.5399 10.3429 5.5399C9.05791 5.5399 8.08167 4.68365 6.53043 4.68365C5.00669 4.68365 3.3842 5.6149 2.35545 7.20739C0.909212 9.44988 1.15671 13.6661 3.50045 17.2573C4.33919 18.5423 5.45919 19.9873 6.92418 19.9998C8.22792 20.0123 8.59542 19.1636 10.3617 19.1548C12.1279 19.1448 12.4629 20.0111 13.7641 19.9973C15.2304 19.9861 16.4116 18.3848 17.2504 17.0998C17.8516 16.1786 18.0754 15.7149 18.5416 14.6749C15.1504 13.3836 14.6066 8.56113 17.9629 6.70989Z"/> </g> </svg>