<svg xmlns="http://www.w3.org/2000/svg" viewBox="0 0 16 16"><g><path d="M4.667 3.764c2.918 0 5.282 1.864 5.325 4.174 0 .013.007.025.007.039V8c0 .029-.014.224-.024.292a1.989 1.989 0 01-.4.932 2.291 2.291 0 01-.165.19v.005a.285.285 0 00-.052.076.343.343 0 00-.046.162.6.6 0 00.295.452 1.425 1.425 0 00.173.109 4.882 4.882 0 002.2.435h.227a3.717 3.717 0 001.891-.524A3.838 3.838 0 0016 6.826a6.13 6.13 0 00-.15-1.338c-.011-.038-.021-.076-.032-.113a8.092 8.092 0 00-.526-1.295A8.016 8.016 0 008 0 8 8 0 00.415 5.467a5.851 5.851 0 014.252-1.703z"/><path d="M4.238 11.022a5.333 5.333 0 012.784-4.765h.007c.049-.027.1-.052.152-.075l.036-.018.048-.018a1.881 1.881 0 01.968-.124A5.294 5.294 0 004.68 4.734C2.107 4.734.013 6.335.013 8.3c0 .051 0 .1.005.153v.013a7.993 7.993 0 005.543 7.15 8.055 8.055 0 001.9.339 5.3 5.3 0 01-3.223-4.933z"/><path d="M4.905 11.022a4.532 4.532 0 004.4 4.645 5.787 5.787 0 001.753-.3 8.007 8.007 0 003.715-3.1.251.251 0 00-.334-.353 5.744 5.744 0 01-.658.294 6.371 6.371 0 01-2.244.4 6.305 6.305 0 01-2.666-.58c-.02-.009-.04-.021-.06-.031a4.68 4.68 0 01-2.79-3.723C6.012 8.169 6 8.065 6 7.959v-.008a4.8 4.8 0 00-1.095 3.071z"/></g></svg>
