<svg xmlns="http://www.w3.org/2000/svg" viewBox="-2 0 47 51"><g fill-rule="nonzero"><path d="M22.977 22.75c-6.202 0-11.227-5.037-11.227-11.248 0-6.21 5.025-11.247 11.227-11.247s11.227 5.037 11.227 11.247c0 6.211-5.025 11.248-11.227 11.248zm0-4.5c3.714 0 6.727-3.02 6.727-6.748 0-3.727-3.013-6.747-6.727-6.747-3.714 0-6.727 3.02-6.727 6.747 0 3.728 3.013 6.748 6.727 6.748zM14.365 29a8.755 8.755 0 0 0-8.496 6.643l-.405 1.628a5.5 5.5 0 0 0 3.711 6.58c4.627 1.433 9.231 2.146 13.827 2.146 4.565 0 9-.703 13.323-2.112a5.5 5.5 0 0 0 3.69-6.302l-.426-2.148A7.994 7.994 0 0 0 31.749 29H14.364zm0-4.5h17.383c5.96 0 11.091 4.21 12.254 10.057l.427 2.149a10 10 0 0 1-6.71 11.458 47.21 47.21 0 0 1-14.717 2.333c-5.053 0-10.105-.782-15.158-2.347a10 10 0 0 1-6.747-11.964l.405-1.629A13.255 13.255 0 0 1 14.365 24.5z"></path></g></svg>
