<svg xmlns="http://www.w3.org/2000/svg" viewBox="0 0 21 24"><path d="M18.592 9H3.279a.5.5 0 0 0-.5.5L3.904 22a2 2 0 0 0 2 2H16.05a2 2 0 0 0 2-2l1.043-12.5a.5.5 0 0 0-.5-.5zm-12.41 3.512c0-.346.324-.509.656-.509s.645.163.645.51l.038 1.797c.998-1.735 2.405-2.504 4.691-2.006 2.287.5 3.258 2.6 3.134 4.622-.123 2.021-1.692 3.725-3.599 4.078-1.906.353-4.048-.663-4.826-2.518-.131-.317.298-.821.6-.96.302-.14.622.052.854.307.805.887 1.28 1.43 2.617 1.43s2.27-.73 2.49-1.904c.22-1.173 0-2.36-1.002-3.171-1.001-.811-2.754-.637-3.57.499l.794.042c.331 0 .521.378.521.725 0 .346-.112.807-.443.807H7.019c-.159 0-.613.052-.725-.066-.113-.118-.112-.714-.112-.88v-2.803zm8.783-9.06a.25.25 0 0 1-.293-.198l-.238-1.229A2.5 2.5 0 0 0 11.505.049L6.6 1a2.5 2.5 0 0 0-1.98 2.929l.237 1.228a.248.248 0 0 1-.196.292l-3.822.757a1 1 0 0 0-.794 1.17c.119.534.633.88 1.172.794l18.516-3.66a1 1 0 0 0-.38-1.964l-4.388.906zm-8.385.1a.5.5 0 0 1 .397-.585l4.912-.95a.5.5 0 0 1 .585.398l.238 1.23a.25.25 0 0 1-.2.293L7.11 4.973a.25.25 0 0 1-.293-.198L6.58 3.552z" fill-rule="nonzero"/></svg>
