<svg xmlns="http://www.w3.org/2000/svg" fill="currentColor" viewBox="0 0 512 512"><path fill-rule="evenodd" d="M199.434 89C243.066 89 281.423 111.627 303.397 145.863C306.98 151.445 313.283 154.546 319.77 154.122C321.001 154.041 322.244 154 323.5 154C346.931 154 367.135 168.408 375.68 189.09C379.113 197.4 388.201 202.005 397.024 199.659C403.533 197.928 410.394 197 417.5 197C461.015 197 496 231.858 496 274.5C496 316.731 461.687 351.327 418.758 351.99C418.637 351.992 418.516 351.995 418.395 352H417.5H364.696C360.378 352 357 355.682 357 360C357 364.318 360.378 368 364.696 368H417.5H418.994C418.995 368 418.996 368 418.997 367.999L418.998 367.999L418.999 367.998C419 367.997 419 367.996 419 367.994C419 367.991 419.003 367.988 419.006 367.988C470.502 367.192 512 325.641 512 274.5C512 222.861 469.691 181 417.5 181C408.995 181 400.752 182.112 392.912 184.196C391.91 184.463 390.863 183.939 390.467 182.981C379.555 156.57 353.681 138 323.5 138C321.895 138 320.303 138.052 318.724 138.156C317.98 138.205 317.265 137.848 316.862 137.22C292.07 98.5934 248.741 73 199.434 73C134.033 73 79.1498 118.026 64.0908 178.77C63.9293 179.422 63.4541 179.955 62.8257 180.191C26.1159 194.013 0 229.457 0 271C0 324.572 43.4284 368 97 368H147.304C151.622 368 155 364.318 155 360C155 355.682 151.622 352 147.304 352H97C52.2649 352 16 315.735 16 271C16 236.334 37.7837 206.717 68.4636 195.165C73.9993 193.081 78.1876 188.401 79.6207 182.62C92.952 128.845 141.56 89 199.434 89ZM256 429C294.108 429 325 398.108 325 360C325 321.892 294.108 291 256 291C217.892 291 187 321.892 187 360C187 398.108 217.892 429 256 429ZM256 445C302.944 445 341 406.944 341 360C341 313.056 302.944 275 256 275C209.056 275 171 313.056 171 360C171 406.944 209.056 445 256 445ZM231.343 386.657C228.219 383.533 228.219 378.467 231.343 375.343L244.272 362.414C245.053 361.633 245.053 360.367 244.272 359.586L231.343 346.657C228.219 343.533 228.219 338.467 231.343 335.343C234.467 332.219 239.533 332.219 242.657 335.343L255.586 348.272C256.367 349.053 257.633 349.053 258.414 348.272L271.343 335.343C274.467 332.219 279.533 332.219 282.657 335.343C285.781 338.467 285.781 343.533 282.657 346.657L269.728 359.586C268.947 360.367 268.947 361.633 269.728 362.414L282.657 375.343C285.781 378.467 285.781 383.533 282.657 386.657C279.533 389.781 274.467 389.781 271.343 386.657L258.414 373.728C257.633 372.947 256.367 372.947 255.586 373.728L242.657 386.657C239.533 389.781 234.467 389.781 231.343 386.657ZM387.743 321.743C390.086 319.399 390.086 315.601 387.743 313.257C385.4 310.914 381.601 310.914 379.257 313.257L366.757 325.757C364.414 328.101 364.414 331.9 366.757 334.243C369.101 336.586 372.9 336.586 375.243 334.243L387.743 321.743ZM375.243 385.757C372.9 383.414 369.101 383.414 366.757 385.757C364.414 388.1 364.414 391.9 366.757 394.243L379.257 406.743C381.601 409.086 385.4 409.086 387.743 406.743C390.086 404.399 390.086 400.6 387.743 398.257L375.243 385.757ZM124.257 406.743C121.914 404.4 121.914 400.6 124.257 398.257L136.757 385.757C139.101 383.414 142.899 383.414 145.243 385.757C147.586 388.1 147.586 391.9 145.243 394.243L132.743 406.743C130.399 409.086 126.601 409.086 124.257 406.743ZM145.243 334.243C142.9 336.586 139.101 336.586 136.757 334.243L124.257 321.743C121.914 319.399 121.914 315.601 124.257 313.257C126.601 310.914 130.4 310.914 132.743 313.257L145.243 325.757C147.586 328.101 147.586 331.9 145.243 334.243Z" clip-rule="evenodd"/></svg>