<svg xmlns="http://www.w3.org/2000/svg" viewBox="0 0 32 32"><g transform="translate(-1)" fill-rule="nonzero"><path d="M3.578 2.586a.299.299 0 0 0-.078.224v20.903a.28.28 0 0 0 .077.2.273.273 0 0 0 .173.087h2.976a.28.28 0 0 0 .197-.086c.052-.054.08-.127.077-.234V2.785a.28.28 0 0 0-.078-.2.273.273 0 0 0-.172-.085H3.767a.28.28 0 0 0-.19.086zM3.726 0h3.048A2.78 2.78 0 0 1 9.5 2.81v20.837A2.78 2.78 0 0 1 6.75 26.5H3.726a2.78 2.78 0 0 1-1.957-.86A2.76 2.76 0 0 1 1 23.68V2.835A2.78 2.78 0 0 1 3.726 0zM13.578 9.59c-.053.057-.081.132-.078.25v13.861a.29.29 0 0 0 .078.209.285.285 0 0 0 .172.09h2.968a.29.29 0 0 0 .204-.09c.053-.057.081-.132.078-.25V9.799a.29.29 0 0 0-.078-.209.285.285 0 0 0-.172-.09h-2.978a.29.29 0 0 0-.194.09zm.14-2.59h3.064a2.79 2.79 0 0 1 1.958.875c.51.54.784 1.263.76 1.965v13.779a2.79 2.79 0 0 1-.76 2.006c-.51.54-1.215.856-1.99.875h-3.032a2.79 2.79 0 0 1-1.958-.875A2.764 2.764 0 0 1 11 23.66V9.881a2.79 2.79 0 0 1 2.718-2.88zM31.473 22.6a2.84 2.84 0 0 1-.403 2.15 2.865 2.865 0 0 1-1.86 1.234l-2.976.482a2.76 2.76 0 0 1-2.07-.528 2.737 2.737 0 0 1-1.068-1.811L20.02 4.851a2.834 2.834 0 0 1 2.258-3.281l2.978-.536a2.75 2.75 0 0 1 3.131 2.357l3.086 19.208zM25.916 3.767c-.015-.112-.05-.173-.103-.213a.253.253 0 0 0-.151-.055l-2.92.526c-.177.035-.294.205-.258.407L25.57 23.77a.26.26 0 0 0 .1.174c.056.042.127.06.18.052l2.912-.471a.34.34 0 0 0 .217-.147c.05-.076.067-.169.037-.32l-3.1-19.29z" /><rect x="1.05" y="28.75" width="30.5" height="2.5" rx="1.25" /></g></svg>
