<svg xmlns="http://www.w3.org/2000/svg" viewBox="0 0 438.53 438.53"><path d="M421.12,134.19q-17.4-40.54-46.81-69.95t-70-46.82a216.26,216.26,0,0,0-166.3-1.57A221.7,221.7,0,0,0,68.24,60.53L31.12,23.7q-8.57-8.86-19.7-4Q0,24.56,0,36.55v127.9A17.56,17.56,0,0,0,5.43,177.3a17.56,17.56,0,0,0,12.85,5.43h127.9q12,0,16.85-11.42,4.84-11.15-4-19.71l-39.12-39.39a141.7,141.7,0,0,1,45.69-29,144.9,144.9,0,0,1,53.67-10.14A142.56,142.56,0,0,1,276,84.65a144.79,144.79,0,0,1,77.94,77.95,144.69,144.69,0,0,1,0,113.34A144.79,144.79,0,0,1,276,353.89a145,145,0,0,1-172-45.26q-2-2.85-6.57-3.43a10.28,10.28,0,0,0-7.14,2.57l-39.11,39.4A8.49,8.49,0,0,0,48.68,353a10.24,10.24,0,0,0,1.86,6.43,214.2,214.2,0,0,0,75.37,58.38,217.74,217.74,0,0,0,93.36,20.7,213.31,213.31,0,0,0,85.08-17.41q40.54-17.42,69.95-46.82t46.82-69.95a216.59,216.59,0,0,0,0-170.16Z" transform="translate(0 0)"/></svg>
