<svg class="icon" xmlns="http://www.w3.org/2000/svg" viewBox="0 0 249.05 132.12">
	<circle cx="115.5" cy="108.62" r="23" />
	<path d="M291.5,281A22.5,22.5,0,1,1,269,303.5,22.52,22.52,0,0,1,291.5,281m0-1A23.5,23.5,0,1,0,315,303.5,23.5,23.5,0,0,0,291.5,280Z" transform="translate(-176 -194.88)"></path>
	<path class="arrow" d="M399,257.5a135.18,135.18,0,0,0-41.16-42.17c-22.7-14.74-49.38-21.92-75.15-20.2a108.71,108.71,0,0,0-65.16,27c-19.91,17.5-33.76,41.79-41.18,72.19a13.52,13.52,0,0,0,9.92,16.32,13.66,13.66,0,0,0,3.21.38,13.51,13.51,0,0,0,13.11-10.3c6.07-24.92,17.1-44.54,32.76-58.31a82,82,0,0,1,49.13-20.32c20-1.33,40.81,4.32,58.65,15.9A108.07,108.07,0,0,1,374,268.51l-30,13.2,72.43,40.36,8.6-76Z" transform="translate(-176 -194.88)"></path>
</svg>
