<svg xmlns="http://www.w3.org/2000/svg" viewBox="0 0 530 420"><g fill-rule="nonzero"><path d="M425.0500439286232,109.85933957481384 V15.818339574813841 a10.973,10.973 0 0 0 -5.224,-8.882 a13.06,13.06 0 0 0 -9.927,-1.5670000000000002 l-207.412,82.547 h-102.4 a53.293,53.293 0 0 0 -45.976,28.212 l-9.404,3.657 C20.8980439286232,128.03633957481384 4.950043928623199,150.48933957481384 5.001043928623199,175.68733957481385 c-0.1500000000000001,25.109 15.877,47.463 39.706,55.38 l6.269,2.612 a53.812,53.812 0 0 0 26.122,28.735 l27.69,100.31 c7.428,27.284 35.568,43.38 62.852,35.952 a51.197,51.197 0 0 0 27.532,-18.711 a53.81,53.81 0 0 0 8.359,-45.453 l-18.808,-68.963 h17.763 l207.412,84.114 l3.657,1.045 a12.543,12.543 0 0 0 6.269,-1.5670000000000002 a9.926,9.926 0 0 0 5.224,-8.359 v-99.265 c36.356,-0.0010000000000000009 65.828,-29.474 65.827,-65.831 c0,-36.355 -29.47,-65.826 -65.825,-65.827 zM48.8870439286232,210.16933957481385 a35.004,35.004 0 0 1 -21.943,-34.482 A35.004,35.004 0 0 1 48.8870439286232,141.20533957481385 v68.964 zm129.567,156.735 a29.779,29.779 0 0 1 -24.555,12.016 a31.346,31.346 0 0 1 -29.257,-22.988 l-24.555,-90.384 h63.216 l19.853,74.188 a31.347,31.347 0 0 1 -4.702,27.168 zm16.719,-122.254 H100.0870439286232 c-15.846,0.8690000000000004 -29.396,-11.273 -30.265,-27.119 a28.23,28.23 0 0 1 -0.03700000000000001,-2.138 V141.20533957481385 c-0.5860000000000004,-17.302 12.965,-31.804 30.267,-32.391 l0.035,-0.0010000000000000009 h95.086 v135.837 zm208.979,80.458 L216.0700439286232,249.87533957481384 V106.72433957481385 l188.082,-75.233 v293.617 zm20.898,-104.49 v-89.861 c24.815,0.0010000000000000009 44.93,20.118 44.929,44.933 c-0.0020000000000000018,24.812 -20.116,44.927 -44.929,44.928 z" stroke="currentColor" stroke-width="8" /></g></svg>
