<svg xmlns="http://www.w3.org/2000/svg" viewBox="0 0 448 451.37"><path d="M443.31,81.31,350.63,174l32.92,31c15.12,15.12,4.41,41-17,41h-112a24,24,0,0,1-24-24V110c0-21.38,25.8-32.09,40.92-17l31.08,33,92.68-92.69a16,16,0,0,1,22.63,0l25.37,25.38A16,16,0,0,1,443.31,81.31Z" transform="translate(0 -28.63)"></path><path d="M4.69,427.31l92.68-92.68-32.92-31c-15.12-15.12-4.41-41,17-41h112a24,24,0,0,1,24,24v112c0,21.38-25.8,32.09-40.92,17l-31.08-33L52.69,475.31a16,16,0,0,1-22.63,0L4.69,449.94a16,16,0,0,1,0-22.63Z" transform="translate(0 -28.63)"/></svg>
