<svg xmlns="http://www.w3.org/2000/svg" viewBox="0 0 22 24"><path d="M19.15 7.5H2.838a.5.5 0 0 0-.5.5l1.81 14a2 2 0 0 0 2 2h9.954a2 2 0 0 0 2-2L19.65 8a.5.5 0 0 0-.5-.5zm-9.9 13a.75.75 0 0 1-1.5 0v-9a.75.75 0 0 1 1.5 0v9zm5 0a.75.75 0 0 1-1.5 0v-9a.75.75 0 0 1 1.5 0v9zM20.43 4h-4.18a.25.25 0 0 1-.25-.25V2.5A2.5 2.5 0 0 0 13.5 0h-5A2.5 2.5 0 0 0 6 2.5v1.25a.25.25 0 0 1-.25.25h-4.5a1 1 0 0 0 0 2h19.18a1 1 0 0 0 0-2zM8 3.75V2.5a.5.5 0 0 1 .5-.5h5a.5.5 0 0 1 .5.5v1.25a.25.25 0 0 1-.25.25h-5.5A.25.25 0 0 1 8 3.75z" fill-rule="nonzero"/></svg>
