<svg viewBox="0 0 512 512" xmlns="http://www.w3.org/2000/svg"><path d="M427.252 93.939c-42.503-26.268-97.046-35.291-143.541-25.641l.01-.021C293.236 49.25 309.9 40 334.667 40c11.046 0 20-8.954 20-20s-8.954-20-20-20C303.084 0 274.696 11.109 256 	37.029 237.305 11.111 208.918 0 177.333 0c-11.046 0-20 8.954-20 20s8.954 20 20 20c24.333 0 40.828 8.919 50.428 27.267.18.343.351.687.523 1.031C126.652 47.206 0 110.518 0 255.958 0 394.862 96.599 512 256 512c159.009 0 256-116.731 256-256.042 0-70.703-30.098-128.243-84.748-162.019zm-180.196 22.616a20.07 20.07 0 0 0 17.889 0c68.531-34.269 218.655-.395 206.296 158.778h-96.574V256c0-11.046-8.954-20-20-20s-20 8.954-20 20v19.333H276v-58.667c0-11.046-8.954-20-20-20s-20 8.954-20 20v58.667h-58.667V256c0-11.046-8.954-20-20-20s-20 8.954-20 20v19.333H40.76C28.521 117.712 177.219 81.638 247.056 116.555zM256 472c-111.908 0-185.684-65.315-208.727-156.667h417.453C441.728 406.508 368.115 472 256 472zm33.809-92.476c7.811 7.811 7.811 20.474 0 28.284-7.811 7.811-20.474 7.81-28.284 0L256 402.284l-5.524 5.524c-7.811 7.811-20.474 7.811-28.284 0s-7.811-20.474 0-28.284l19.667-19.667c7.811-7.811 20.474-7.811 28.284 0z" /></svg>
