<svg xmlns="http://www.w3.org/2000/svg" viewBox="0 0 487.55 487.55" fill="white"><path d="M481.325 227.515c-27.818-32-55.305-56.9-82.209-75.868l-71.547 71.547a86.194 86.194 0 0 1 2.256 27.521c-3.3 41.4-36.8 75-78.3 78.3a86.053 86.053 0 0 1-27.557-2.22l-50.8 50.8c149.186 45.178 269.006-72.279 308.156-117.179a24.848 24.848 0 0 0 .001-32.901zM409.382 78.168a15 15 0 0 0-21.213 0L345.4 120.943C178.878 47.491 43.284 185.378 4.925 230.315a20.309 20.309 0 0 0-.1 26.4c37.365 43.612 74.149 74.351 109.746 95.052l-36.4 36.4a15 15 0 0 0 21.213 21.213l310-310a15 15 0 0 0-.002-21.212zM159.425 236.915c3.3-41.4 36.8-75 78.3-78.3A84.968 84.968 0 0 1 293 173.343l-118.87 118.87a85.122 85.122 0 0 1-14.705-55.298z" /></svg>
