<svg version="1.1" xmlns="http://www.w3.org/2000/svg" xmlns:xlink="http://www.w3.org/1999/xlink" x="0px" y="0px" viewBox="0 0 1000 1000" fill="#fff">
<path class="outline" d="M42.9,332.9c4.5-73.8,29.8-135.1,76-183.8h1.9l1.9-1.9C179.2,98.4,243.1,74,314.3,74s132.5,22.5,183.8,67.4
	c20.5-18,42-32.4,64.5-43.3l1.9-1.9h1.9C602.4,81.4,639.9,74,679.1,74c56.5-1.3,108.1,12.5,155,41.4
	c46.8,28.9,82.1,68.7,105.9,119.3v1.9l1.9,3.8c19.2,68,22.5,132.8,9.6,194.4c-12.8,61.6-38.5,117.7-77,168.4
	c-39.8,56.5-91.8,111.6-155.9,165.5c0,1.3-0.6,1.9-1.9,1.9c-31.4,28.9-65.8,57.7-103,86.6c-21.8,16-40.7,29.2-56.8,39.5
	c-21.2,14.8-38.8,22.1-52.9,22.1l-5.8,1.9l-4.8-1.9c-18-1.9-36.9-11.2-56.8-27.9c-6.4-3.8-13.2-9-20.2-15.4s-12.2-10.6-15.4-12.5
	H399C241.2,742.6,135.9,633.5,83.3,536v-1.9C51.9,473.8,38.4,406.7,42.9,332.9z M124.7,342.6c-3.8,55.2,6.7,107.2,31.8,155.9
	c47.5,86.6,144.7,186.1,291.6,298.4h1.9c3.8,3.8,9.6,9,17.3,15.4c7.7,6.4,13.8,10.9,18.3,13.5c5.1,3.8,9.9,7.1,14.4,9.6
	c5.1-1.3,9.6-3.2,13.5-5.8c14.1-9,30.5-20.9,49.1-35.6c37.2-27.6,70.9-55.8,101.1-84.7c60.3-51.3,108.8-103,145.3-155
	c68.7-91.1,87.3-186.7,55.8-286.8c-17.3-36.6-42.3-64.8-75.1-84.7c-32.7-19.9-69-29.2-108.8-27.9c-27.6,0-55.2,5.5-82.8,16.4
	c-25,14.1-46.8,32.4-65.4,54.9L502,267.5l-33.7-41.4c-33.4-41.7-78.6-65.1-135.7-70.3s-108.8,11.9-155,51
	C146.2,242.2,128.5,287.4,124.7,342.6z"/>
<path class="fill" d="M41.7,332.9c4.5-73.8,29.9-135.1,76-183.8h1.9l1.9-1.9C178.1,98.4,241.9,74,313.1,74
	c71.2,0,132.5,22.5,183.8,67.4c19.4-17.3,41.1-31.8,64.5-43.3l1.9-1.9h1.9C601,81.5,639.3,74,677.9,74c56.5-1.3,108.1,12.5,155,41.4
	c46.9,28.9,82.2,68.7,105.9,119.3v1.9l1.9,3.8c19.2,68,22.5,132.8,9.6,194.4c-12.8,61.6-38.5,117.7-77,168.4
	c-39.7,56.5-91.7,111.7-155.9,165.5c0.1,1-0.6,1.8-1.5,1.9c-0.1,0-0.3,0-0.4,0c-31.5,28.9-65.8,57.7-103,86.6
	c-21.8,16.1-40.7,29.2-56.8,39.5c-21.2,14.7-38.8,22.1-52.9,22.1l-5.8,1.9l-4.8-1.9c-18-1.9-36.9-11.3-56.8-27.9
	c-7.2-4.4-14-9.6-20.2-15.4c-7-6.4-12.2-10.6-15.4-12.5h-1.9C240,742.7,134.7,633.6,82.1,536v-1.9C50.7,473.7,37.2,406.7,41.7,332.9
	z"/>
</svg>
