<svg viewBox="0 0 512 512" xmlns="http://www.w3.org/2000/svg"><g><path d="M256,512A256,256,0,0,1,75,75,256,256,0,0,1,437,437,254.33,254.33,0,0,1,256,512Zm0-472A216,216,0,0,0,103.26,408.74,216,216,0,0,0,408.74,103.26,214.62,214.62,0,0,0,256,40Z" /><path d="M192.22,239.42a50.23,50.23,0,1,1,50.23-50.23A50.28,50.28,0,0,1,192.22,239.42Zm0-70.41a20.19,20.19,0,1,0,20.19,20.18A20.21,20.21,0,0,0,192.22,169Z" /><path d="M321.78,368A50.23,50.23,0,1,1,372,317.81,50.28,50.28,0,0,1,321.78,368Zm0-70.41A20.19,20.19,0,1,0,342,317.81,20.22,20.22,0,0,0,321.78,297.62Z" /><path d="M164.38,363.28a16.9,16.9,0,0,1-11.95-28.84L333.51,153.36a16.9,16.9,0,1,1,23.89,23.9L176.33,358.33A16.86,16.86,0,0,1,164.38,363.28Z" /></g></svg>
