<svg xmlns="http://www.w3.org/2000/svg" viewBox="0 0 487.55 487.55" fill="white"><path d="M481.325 227.515c-224.8-258.6-428-53.9-476.4 2.8-6.5 7.6-6.6 18.8-.1 26.4 221.9 259 423.4 64.6 476.5 3.7 8.3-9.4 8.3-23.4 0-32.9zm-151.5 23.2c-3.3 41.4-36.8 75-78.3 78.3-52.7 4.2-96.3-39.5-92.1-92.1 3.3-41.4 36.8-75 78.3-78.3 52.6-4.2 96.2 39.5 92.1 92.1z" /><path d="M244.625 188.615c-30.4 0-55.2 24.8-55.2 55.2 0 7.3 5.9 13.2 13.2 13.2s13.2-5.9 13.2-13.2c0-15.9 12.9-28.8 28.8-28.8 7.3 0 13.2-5.9 13.2-13.2s-6-13.2-13.2-13.2z" /></svg>
