<svg viewBox="0 0 32 31" xmlns="http://www.w3.org/2000/svg"><g fill-rule="evenodd"><path d="M3.813 5.938a.626.626 0 0 0-.626.625v20.625c0 .344.28.625.626.625h24.375c.344 0 .625-.28.625-.625V6.563a.626.626 0 0 0-.625-.625H3.813zm0-2.5h24.375c1.725 0 3.125 1.4 3.125 3.124v20.625c0 1.726-1.4 3.125-3.125 3.125H3.813a3.126 3.126 0 0 1-3.126-3.125V6.563c0-1.725 1.4-3.125 3.125-3.125z" fill-rule="nonzero"/><rect x="8" width="2.5" height="9" rx="1.25"/><rect x="22" width="2.5" height="9" rx="1.25"/><path d="M3.228 13.438A1.24 1.24 0 0 1 2 12.188c0-.69.55-1.25 1.228-1.25h25.544c.678 0 1.228.56 1.228 1.25s-.55 1.25-1.228 1.25H3.228z" fill-rule="nonzero"/><g fill-rule="nonzero"><path d="M20.77 19.03a.75.75 0 1 1 1.06-1.06l3.75 3.75a.75.75 0 0 1-1.06 1.06l-3.75-3.75z"/><path d="M21.83 22.78a.75.75 0 0 1-1.06-1.06l3.75-3.75a.75.75 0 0 1 1.06 1.06l-3.75 3.75z"/></g><circle cx="15.3" cy="20.5" r="1.5"/><circle cx="7.85" cy="20.5" r="1.5"/></g></svg>
