<svg xmlns="http://www.w3.org/2000/svg" viewBox="0 0 512 448" fill="#000"><circle cx="192" cy="106.667" r="106.667"/><path d="M282.667,288H101.333A101.452,101.452,0,0,0,0,389.333V464a16.006,16.006,0,0,0,16,16H368a16.006,16.006,0,0,0,16-16V389.333A101.452,101.452,0,0,0,282.667,288Z" transform="translate(0 -32)"/><path d="M506.9,212.267l-74.666-69.334a16,16,0,0,0-10.88-4.245c-10.582,0-16.022,9-16.022,15.979v48H320a21.333,21.333,0,0,0,0,42.666h85.333v48a16.018,16.018,0,0,0,26.9,11.734L506.9,235.733a16.049,16.049,0,0,0,0-23.466Z" transform="translate(0 -32)"/></svg>
