<svg viewBox="0 0 36 33" xmlns="http://www.w3.org/2000/svg"><g fill-rule="nonzero"><path d="M2 32.934c-.69 0-1.25-.571-1.25-1.276 0-.705.56-1.277 1.25-1.277h32c.69 0 1.25.572 1.25 1.277s-.56 1.276-1.25 1.276H2z"/><path d="M6.8 30.381h2.661v-4.595H6.8v4.595zm-.562-7.148h3.785c1.107 0 1.938.96 1.938 2.07v6.355c0 .705-.56 1.276-1.25 1.276H5.55c-.69 0-1.25-.571-1.25-1.276v-6.355c0-1.11.832-2.07 1.938-2.07zM16.67 30.381h2.66V16.595h-2.66V30.38zm-.562-16.34h3.784c1.033 0 1.939.797 1.939 1.882v15.735c0 .705-.56 1.276-1.25 1.276h-5.162c-.69 0-1.25-.571-1.25-1.276V15.923c0-1.085.906-1.881 1.939-1.881zM26.5 30.381h2.661v-8.68H26.5v8.68zm-.562-11.233h3.785c1.04 0 1.938.815 1.938 1.9v10.61c0 .705-.56 1.276-1.25 1.276H25.25c-.69 0-1.25-.571-1.25-1.276v-10.61c0-1.085.899-1.9 1.938-1.9zM27.4 2.723c-.69 0-1.25-.61-1.25-1.361C26.15.61 26.71 0 27.4 0h6.194c.69 0 1.25.61 1.25 1.362v5.446c0 .752-.56 1.362-1.25 1.362s-1.25-.61-1.25-1.362V2.723H27.4z"/><path d="M30.882 2.134a1.447 1.447 0 0 1 1.877-.003c.52.46.521 1.207.004 1.668l-7.117 6.354c-1.17 1.044-2.89 1.432-4.437 1.016l-8.045-1.92c-.635-.15-1.312.012-1.777.427l-8.22 7.337a1.447 1.447 0 0 1-1.876.004 1.09 1.09 0 0 1-.004-1.669l8.219-7.337c1.135-1.014 2.792-1.41 4.346-1.04l8.084 1.93c.648.173 1.35.015 1.83-.413l7.116-6.354z"/></g></svg>
