<svg class="weather-location-reset-icon" xmlns="http://www.w3.org/2000/svg" viewBox="0 0 937.4 937.4"><path d="M887.4,418.7H855.6A390,390,0,0,0,518.7,81.8V50a50,50,0,0,0-100,0V81.8A390,390,0,0,0,81.8,418.7H50a50,50,0,0,0,0,100H81.8A390,390,0,0,0,418.7,855.6v31.8a50,50,0,0,0,100,0V855.6A390,390,0,0,0,855.6,518.7h31.8a50,50,0,0,0,0-100ZM730,518.7h24.4A290.53,290.53,0,0,1,518.6,754.5V730.1a50,50,0,0,0-100,0v24.4A290.53,290.53,0,0,1,182.8,518.7h24.4a50,50,0,0,0,0-100H182.8A290.53,290.53,0,0,1,418.6,182.9v24.4a50,50,0,1,0,100,0V182.9A290.53,290.53,0,0,1,754.4,418.7H730a50,50,0,1,0,0,100Z"/></svg>
