<svg xmlns="http://www.w3.org/2000/svg" width="64" height="64" viewBox="0 0 64 64">
	<path d="M32.0013 0C14.334 0 0.0012207 14.3147 0.0012207 31.9832C0.0012207 49.6685 14.334 64 32.0011 64C49.678 64 63.9987 49.6684 63.9987 31.9832C63.9989 14.3147 49.678 0 32.0013 0ZM34.2816 49.7889C33.5384 50.4503 32.6771 50.7827 31.7013 50.7827C30.6918 50.7827 29.8112 50.4562 29.0596 49.802C28.3067 49.1491 27.9296 48.2349 27.9296 47.0602C27.9296 46.0183 28.2946 45.1412 29.0222 44.4305C29.7499 43.7197 30.6425 43.3643 31.7013 43.3643C32.7433 43.3643 33.6204 43.7197 34.3323 44.4305C35.0431 45.1412 35.3996 46.0181 35.3996 47.0602C35.3983 48.218 35.026 49.1276 34.2816 49.7889ZM43.5489 26.814C42.9779 27.8729 42.2997 28.786 41.5131 29.5558C40.7288 30.3256 39.3183 31.6194 37.2823 33.4383C36.721 33.9515 36.2692 34.4021 35.9308 34.7899C35.5923 35.1791 35.3393 35.5343 35.1742 35.8572C35.0079 36.18 34.8803 36.5029 34.7899 36.8257C34.6995 37.1473 34.5635 37.7147 34.3791 38.5254C34.066 40.2457 33.0818 41.1056 31.4278 41.1056C30.5676 41.1056 29.8449 40.825 29.2558 40.2624C28.6691 39.6998 28.3764 38.865 28.3764 37.7568C28.3764 36.3679 28.592 35.1644 29.0221 34.1466C29.4498 33.1286 30.022 32.236 30.7327 31.4663C31.4447 30.6965 32.4035 29.7833 33.6118 28.7245C34.6706 27.7981 35.4356 27.0995 35.9066 26.6283C36.3788 26.1562 36.7752 25.631 37.0968 25.0527C37.4209 24.4732 37.5799 23.8456 37.5799 23.1675C37.5799 21.8436 37.0897 20.7281 36.1043 19.8187C35.1201 18.9092 33.8504 18.4538 32.2952 18.4538C30.475 18.4538 29.1354 18.9127 28.2753 19.8307C27.4152 20.7486 26.6888 22.1002 26.0925 23.8867C25.5288 25.7563 24.4614 26.691 22.8917 26.691C21.9653 26.691 21.1836 26.3646 20.5463 25.7116C19.9103 25.0586 19.5922 24.3516 19.5922 23.5903C19.5922 22.0194 20.097 20.4269 21.1053 18.8139C22.1149 17.2009 23.5869 15.8649 25.5227 14.8072C27.4573 13.7483 29.7161 13.2182 32.2952 13.2182C34.6936 13.2182 36.8102 13.6615 38.646 14.547C40.4819 15.4311 41.9009 16.6346 42.902 18.1572C43.9019 19.6786 44.4029 21.3326 44.4029 23.1192C44.4053 24.5227 44.1199 25.7552 43.5489 26.814Z"/>
</svg>
