<svg viewBox="0 0 506.34 506.34" xmlns="http://www.w3.org/2000/svg"><path d="M481.162 395.052L283.465 197.354c9.939-23.978 13.243-50.72 9.301-76.499C275.176 5.869 132.419-41.309 50.03 42.757c-54.698 55.81-54.317 145.219 1.028 200.564 42.499 42.498 104.556 52.174 155.652 30.818l111.077 111.077-19.467 19.467c-15.1 15.099-15.1 39.668 0 54.768l35.537 35.537c15.134 15.134 39.632 15.137 54.768 0l19.642-19.642c9.697 8.015 21.769 12.375 34.51 12.375 48.737 0 72.161-58.894 38.385-92.669zM180.374 171.033c-15.748 15.748-41.28 15.748-57.028 0s-15.748-41.28 0-57.028 41.28-15.748 57.028 0 15.748 41.281 0 57.028z"/></svg>
