<svg xmlns="http://www.w3.org/2000/svg" viewBox="0 0 32 32"><g fill-rule="nonzero"><path d="M12.083 3.591a1.2 1.2 0 0 0-2.084.862l.083 1.74a3.697 3.697 0 0 1-3.884 3.895l-1.747-.09a1.198 1.198 0 0 0-.861 2.083l1.297 1.179a3.7 3.7 0 0 1 .002 5.493l-1.3 1.174a1.197 1.197 0 0 0 .868 2.083l1.757-.089a3.697 3.697 0 0 1 3.874 3.883l-.09 1.742a1.198 1.198 0 0 0 2.083.864l1.178-1.296a3.699 3.699 0 0 1 5.492-.003l1.17 1.295c.24.262.584.404.939.388a1.197 1.197 0 0 0 1.144-1.243l-.089-1.758a3.697 3.697 0 0 1 3.882-3.874l1.75.089a1.198 1.198 0 0 0 .866-2.086l-1.302-1.174a3.7 3.7 0 0 1-.001-5.494l1.302-1.174a1.199 1.199 0 0 0-.861-2.087l-1.756.09a3.698 3.698 0 0 1-3.87-3.88l.09-1.75a1.198 1.198 0 0 0-2.091-.861l-1.177 1.292a3.696 3.696 0 0 1-5.492.001l-1.172-1.294zm3.026-.383a1.197 1.197 0 0 0 1.785-.002l1.178-1.294a3.698 3.698 0 0 1 6.439 2.668l-.089 1.749a1.197 1.197 0 0 0 1.252 1.256l1.752-.089a3.699 3.699 0 0 1 2.661 6.44l-1.301 1.174a1.201 1.201 0 0 0-.001 1.78l1.303 1.176a3.698 3.698 0 0 1-2.668 6.439l-1.751-.09a1.196 1.196 0 0 0-1.257 1.26l.09 1.757a3.698 3.698 0 0 1-6.43 2.656l-1.176-1.302a1.197 1.197 0 0 0-1.782.003l-1.182 1.302a3.699 3.699 0 0 1-6.43-2.665l.09-1.75a1.196 1.196 0 0 0-1.259-1.258l-1.748.09a3.696 3.696 0 0 1-2.673-6.436l1.3-1.174a1.201 1.201 0 0 0 0-1.784l-1.302-1.18a3.699 3.699 0 0 1 2.665-6.432l1.752.088a1.199 1.199 0 0 0 1.258-1.267l-.084-1.752a3.699 3.699 0 0 1 6.433-2.66l1.175 1.297z"/><path d="M16 11.626a4.375 4.375 0 1 0 0 8.751 4.375 4.375 0 0 0 0-8.75zm0-2.5a6.875 6.875 0 1 1 0 13.751 6.875 6.875 0 0 1 0-13.75z"/></g></svg>
