<svg xmlns="http://www.w3.org/2000/svg" viewBox="0 0 32 32"><g fill-rule="nonzero"><path d="M3.825 3.191a.626.626 0 0 0-.625.625v7.5c0 .345.28.625.625.625h7.5c.345 0 .625-.28.625-.625v-7.5a.626.626 0 0 0-.625-.625h-7.5zm0-2.5h7.5c1.725 0 3.125 1.4 3.125 3.125v7.5c0 1.726-1.4 3.125-3.125 3.125h-7.5A3.126 3.126 0 0 1 .7 11.316v-7.5C.7 2.091 2.1.691 3.825.691z" /><path d="M1.95 6.941a1.25 1.25 0 1 1 0-2.5H13.2a1.25 1.25 0 0 1 0 2.5H1.95zM20.7 3.191a.626.626 0 0 0-.625.625v7.5c0 .345.28.625.625.625h7.5c.345 0 .625-.28.625-.625v-7.5a.626.626 0 0 0-.625-.625h-7.5zm0-2.5h7.5c1.725 0 3.125 1.4 3.125 3.125v7.5c0 1.726-1.4 3.125-3.125 3.125h-7.5a3.126 3.126 0 0 1-3.125-3.125v-7.5c0-1.725 1.4-3.125 3.125-3.125z" /><path d="M18.825 6.941a1.25 1.25 0 0 1 0-2.5h11.25a1.25 1.25 0 0 1 0 2.5h-11.25zM3.825 20.066a.626.626 0 0 0-.625.625v7.5c0 .345.28.625.625.625h7.5c.345 0 .625-.28.625-.625v-7.5a.626.626 0 0 0-.625-.625h-7.5zm0-2.5h7.5c1.725 0 3.125 1.4 3.125 3.125v7.5c0 1.726-1.4 3.125-3.125 3.125h-7.5A3.126 3.126 0 0 1 .7 28.191v-7.5c0-1.725 1.4-3.125 3.125-3.125z" /><path d="M1.95 23.816a1.25 1.25 0 0 1 0-2.5H13.2a1.25 1.25 0 0 1 0 2.5H1.95zM20.7 20.066a.626.626 0 0 0-.625.625v7.5c0 .345.28.625.625.625h7.5c.345 0 .625-.28.625-.625v-7.5a.626.626 0 0 0-.625-.625h-7.5zm0-2.5h7.5c1.725 0 3.125 1.4 3.125 3.125v7.5c0 1.726-1.4 3.125-3.125 3.125h-7.5a3.126 3.126 0 0 1-3.125-3.125v-7.5c0-1.725 1.4-3.125 3.125-3.125z" /><path d="M18.825 23.816a1.25 1.25 0 0 1 0-2.5h11.25a1.25 1.25 0 0 1 0 2.5h-11.25z" /></g></svg>
