<svg width="86" height="14" viewBox="0 0 86 14" fill="none" xmlns="http://www.w3.org/2000/svg"> <g opacity="0.7" clip-path="url(#clip0_197_901)"> <path d="M85.9635 5.37023C85.8719 5.08675 85.6204 4.8854 85.3229 4.85859L81.2822 4.49168L79.6843 0.751797C79.5665 0.477711 79.2982 0.300293 79.0001 0.300293C78.702 0.300293 78.4336 0.477711 78.3158 0.752438L76.718 4.49168L72.6766 4.85859C72.3796 4.88604 72.1288 5.08675 72.0366 5.37023C71.9445 5.65372 72.0296 5.96465 72.2542 6.16066L75.3086 8.83934L74.4079 12.8067C74.342 13.0985 74.4552 13.4 74.6973 13.575C74.8274 13.6689 74.9796 13.7168 75.1331 13.7168C75.2654 13.7168 75.3967 13.6811 75.5145 13.6106L79.0001 11.5274L82.4844 13.6106C82.7393 13.764 83.0607 13.75 83.3022 13.575C83.5444 13.3995 83.6575 13.0978 83.5916 12.8067L82.6909 8.83934L85.7453 6.16119C85.9699 5.96465 86.0557 5.65425 85.9635 5.37023Z" fill="#C0CECE"/> </g> <mask id="mask0_197_901" style="mask-type:alpha" maskUnits="userSpaceOnUse" x="72" y="0" width="7" height="14"> <rect x="72" width="7" height="14" fill="#C4C4C4"/> </mask> <g mask="url(#mask0_197_901)"> <path d="M85.9635 5.37023C85.8719 5.08675 85.6204 4.8854 85.3229 4.85859L81.2822 4.49168L79.6843 0.751797C79.5665 0.477711 79.2982 0.300293 79.0001 0.300293C78.702 0.300293 78.4336 0.477711 78.3158 0.752438L76.718 4.49168L72.6766 4.85859C72.3796 4.88604 72.1288 5.08675 72.0366 5.37023C71.9445 5.65372 72.0296 5.96465 72.2542 6.16066L75.3086 8.83934L74.4079 12.8067C74.342 13.0985 74.4552 13.4 74.6973 13.575C74.8274 13.6689 74.9796 13.7168 75.1331 13.7168C75.2654 13.7168 75.3967 13.6811 75.5145 13.6106L79.0001 11.5274L82.4844 13.6106C82.7393 13.764 83.0607 13.75 83.3022 13.575C83.5444 13.3995 83.6575 13.0978 83.5916 12.8067L82.6909 8.83934L85.7453 6.16119C85.9699 5.96465 86.0557 5.65425 85.9635 5.37023Z" fill="#FFC107"/> </g> <g clip-path="url(#clip1_197_901)"> <path d="M67.9635 5.37023C67.8719 5.08675 67.6204 4.8854 67.3229 4.85859L63.2822 4.49168L61.6843 0.751797C61.5665 0.477711 61.2982 0.300293 61.0001 0.300293C60.702 0.300293 60.4336 0.477711 60.3158 0.752438L58.718 4.49168L54.6766 4.85859C54.3796 4.88604 54.1288 5.08675 54.0366 5.37023C53.9445 5.65372 54.0296 5.96465 54.2542 6.16066L57.3086 8.83934L56.4079 12.8067C56.342 13.0985 56.4552 13.4 56.6973 13.575C56.8274 13.6689 56.9796 13.7168 57.1331 13.7168C57.2654 13.7168 57.3967 13.6811 57.5145 13.6106L61.0001 11.5274L64.4844 13.6106C64.7393 13.764 65.0607 13.75 65.3022 13.575C65.5444 13.3995 65.6575 13.0978 65.5916 12.8067L64.6909 8.83934L67.7453 6.16119C67.9699 5.96465 68.0557 5.65425 67.9635 5.37023Z" fill="#FFC107"/> </g> <g clip-path="url(#clip2_197_901)"> <path d="M31.9635 5.37023C31.8719 5.08675 31.6204 4.8854 31.3229 4.85859L27.2822 4.49168L25.6843 0.751797C25.5665 0.477711 25.2982 0.300293 25.0001 0.300293C24.702 0.300293 24.4336 0.477711 24.3158 0.752438L22.718 4.49168L18.6766 4.85859C18.3796 4.88604 18.1288 5.08675 18.0366 5.37023C17.9445 5.65372 18.0296 5.96465 18.2542 6.16066L21.3086 8.83934L20.4079 12.8067C20.342 13.0985 20.4552 13.4 20.6973 13.575C20.8274 13.6689 20.9796 13.7168 21.1331 13.7168C21.2654 13.7168 21.3967 13.6811 21.5145 13.6106L25.0001 11.5274L28.4844 13.6106C28.7393 13.764 29.0607 13.75 29.3022 13.575C29.5444 13.3995 29.6575 13.0978 29.5916 12.8067L28.6909 8.83934L31.7453 6.16119C31.9699 5.96465 32.0557 5.65425 31.9635 5.37023Z" fill="#FFC107"/> </g> <g clip-path="url(#clip3_197_901)"> <path d="M49.9635 5.37023C49.8719 5.08675 49.6204 4.8854 49.3229 4.85859L45.2822 4.49168L43.6843 0.751797C43.5665 0.477711 43.2982 0.300293 43.0001 0.300293C42.702 0.300293 42.4336 0.477711 42.3158 0.752438L40.718 4.49168L36.6766 4.85859C36.3796 4.88604 36.1288 5.08675 36.0366 5.37023C35.9445 5.65372 36.0296 5.96465 36.2542 6.16066L39.3086 8.83934L38.4079 12.8067C38.342 13.0985 38.4552 13.4 38.6973 13.575C38.8274 13.6689 38.9796 13.7168 39.1331 13.7168C39.2654 13.7168 39.3967 13.6811 39.5145 13.6106L43.0001 11.5274L46.4844 13.6106C46.7393 13.764 47.0607 13.75 47.3022 13.575C47.5444 13.3995 47.6575 13.0978 47.5916 12.8067L46.6909 8.83934L49.7453 6.16119C49.9699 5.96465 50.0557 5.65425 49.9635 5.37023Z" fill="#FFC107"/> </g> <g clip-path="url(#clip4_197_901)"> <path d="M13.9635 5.37023C13.8719 5.08675 13.6204 4.8854 13.3229 4.85859L9.28216 4.49168L7.68433 0.751797C7.56651 0.477711 7.29819 0.300293 7.00007 0.300293C6.70195 0.300293 6.43364 0.477711 6.31582 0.752438L4.71799 4.49168L0.67656 4.85859C0.379616 4.88604 0.128816 5.08675 0.0366355 5.37023C-0.0555452 5.65372 0.0295858 5.96465 0.254216 6.16066L3.30857 8.83934L2.40791 12.8067C2.34201 13.0985 2.45523 13.4 2.69727 13.575C2.82737 13.6689 2.97958 13.7168 3.13307 13.7168C3.26542 13.7168 3.39669 13.6811 3.51451 13.6106L7.00007 11.5274L10.4844 13.6106C10.7393 13.764 11.0607 13.75 11.3022 13.575C11.5444 13.3995 11.6575 13.0978 11.5916 12.8067L10.6909 8.83934L13.7453 6.16119C13.9699 5.96465 14.0557 5.65425 13.9635 5.37023Z" fill="#FFC107"/> </g> <defs> <clipPath id="clip0_197_901"> <rect width="14" height="14" fill="white" transform="translate(72)"/> </clipPath> <clipPath id="clip1_197_901"> <rect width="14" height="14" fill="white" transform="translate(54)"/> </clipPath> <clipPath id="clip2_197_901"> <rect width="14" height="14" fill="white" transform="translate(18)"/> </clipPath> <clipPath id="clip3_197_901"> <rect width="14" height="14" fill="white" transform="translate(36)"/> </clipPath> <clipPath id="clip4_197_901"> <rect width="14" height="14" fill="white"/> </clipPath> </defs> </svg>