<svg width="126" height="126" viewBox="0 0 126 126" fill="none" xmlns="http://www.w3.org/2000/svg"> <path d="M3.9375 108.289H6.93C7.13475 108.872 7.37297 109.441 7.63678 109.998L5.52037 112.114C5.15025 112.485 4.94353 112.985 4.94353 113.506C4.94353 114.028 5.15025 114.53 5.52037 114.898L11.0998 120.478C11.8381 121.216 13.1453 121.216 13.8836 120.478L16.002 118.359C16.5592 118.625 17.1281 118.859 17.7089 119.064V122.062C17.7089 123.149 18.5909 124.031 19.6777 124.031H27.5684C28.6552 124.031 29.5372 123.149 29.5372 122.062V119.06C30.116 118.855 30.6849 118.619 31.2382 118.355L33.3624 120.48C33.7326 120.85 34.2326 121.056 34.7543 121.056C35.2761 121.056 35.7781 120.85 36.1463 120.48L41.7257 114.9C42.0958 114.53 42.3025 114.03 42.3025 113.508C42.3025 112.987 42.0958 112.485 41.7257 112.116L39.5994 109.99C39.8633 109.437 40.0975 108.87 40.3023 108.291H43.3125C44.3993 108.291 45.2812 107.409 45.2812 106.322V98.4316C45.2812 97.3448 44.3993 96.4628 43.3125 96.4628H40.3042C40.0995 95.884 39.8652 95.317 39.6014 94.7638L41.7277 92.6376C42.0978 92.2674 42.3045 91.7674 42.3045 91.2457C42.3045 90.7239 42.0978 90.2219 41.7277 89.8537L36.1482 84.2743C35.4099 83.536 34.1027 83.536 33.3644 84.2743L31.2401 86.3986C30.6869 86.1348 30.1179 85.9005 29.5391 85.6938V82.6875C29.5391 81.6008 28.6571 80.7188 27.5704 80.7188H19.6796C18.5929 80.7188 17.7109 81.6008 17.7109 82.6875V85.6839C17.1301 85.8887 16.5611 86.1249 16.004 86.3888L13.8856 84.2704C13.5155 83.9003 13.0154 83.6935 12.4937 83.6935C11.972 83.6935 11.4699 83.9003 11.1018 84.2704L5.52234 89.8498C5.15222 90.2199 4.9455 90.72 4.9455 91.2417C4.9455 91.7634 5.15222 92.2655 5.52234 92.6336L7.63875 94.75C7.37297 95.3092 7.13672 95.8781 6.93 96.4609H3.9375C2.85075 96.4609 1.96875 97.3429 1.96875 98.4296V106.32C1.96875 107.407 2.85075 108.289 3.9375 108.289ZM5.90625 100.398H8.38491C9.28266 100.398 10.0662 99.79 10.2907 98.9218C10.6116 97.6795 11.1037 96.4904 11.7534 95.3899C12.2102 94.6162 12.0842 93.6318 11.4502 92.9978L9.69609 91.2437L12.4917 88.4481L14.2459 90.2042C14.8778 90.8381 15.8603 90.9641 16.6379 90.5074C17.7384 89.8597 18.9256 89.3675 20.1679 89.0485C21.0381 88.8241 21.6444 88.0405 21.6444 87.1428V84.6562H25.5977V87.1447C25.5977 88.0425 26.2041 88.8261 27.0723 89.0505C28.3165 89.3734 29.5017 89.8656 30.6003 90.5133C31.372 90.9681 32.3603 90.844 32.9923 90.2101L34.7524 88.4481L37.548 91.2437L35.784 93.0077C35.1501 93.6416 35.0241 94.626 35.4808 95.3997C36.1266 96.4963 36.6168 97.6815 36.9377 98.9258C37.1621 99.794 37.9457 100.402 38.8434 100.402H41.3438V104.356H38.8493C37.9516 104.356 37.168 104.962 36.9436 105.832C36.6227 107.074 36.1305 108.262 35.4867 109.358C35.03 110.132 35.156 111.116 35.7899 111.75L37.5519 113.512L34.7563 116.308L32.9963 114.542C32.3643 113.908 31.3779 113.782 30.6042 114.239C29.5076 114.886 28.3205 115.379 27.0762 115.701C26.208 115.926 25.6016 116.709 25.6016 117.607V120.094H21.6484V117.609C21.6484 116.711 21.04 115.928 20.1718 115.703C18.9295 115.383 17.7404 114.892 16.6418 114.245C15.8642 113.79 14.8818 113.916 14.2498 114.548L12.4957 116.302L9.70003 113.506L11.4522 111.754C12.0881 111.12 12.2122 110.136 11.7554 109.362C11.1057 108.26 10.6135 107.072 10.2926 105.83C10.0682 104.962 9.28463 104.354 8.38688 104.354H5.90625V100.398Z" fill="black"/> <path d="M23.625 112.219C29.0528 112.219 33.4688 107.803 33.4688 102.375C33.4688 96.9472 29.0528 92.5312 23.625 92.5312C18.1972 92.5312 13.7812 96.9472 13.7812 102.375C13.7812 107.803 18.1972 112.219 23.625 112.219ZM23.625 96.4688C26.8813 96.4688 29.5312 99.1187 29.5312 102.375C29.5312 105.631 26.8813 108.281 23.625 108.281C20.3687 108.281 17.7188 105.631 17.7188 102.375C17.7188 99.1187 20.3687 96.4688 23.625 96.4688Z" fill="black"/> <path d="M123.929 12.3362C123.695 11.6373 123.088 11.1254 122.36 11.0152L115.237 9.92841L112.034 3.10275C111.709 2.40975 111.014 1.96875 110.25 1.96875C109.486 1.96875 108.791 2.40975 108.468 3.10078L105.265 9.92644L98.1421 11.0132C97.4117 11.1254 96.8073 11.6353 96.573 12.3342C96.3388 13.0331 96.5159 13.8068 97.0298 14.3345L102.241 19.6757L101.009 27.2436C100.887 27.9878 101.202 28.7359 101.818 29.171C102.434 29.6041 103.243 29.6474 103.905 29.2852L110.25 25.7768L116.597 29.2852C116.894 29.4486 117.223 29.5312 117.55 29.5312C117.948 29.5312 118.345 29.4092 118.684 29.171C119.3 28.7378 119.615 27.9878 119.493 27.2436L118.261 19.6757L123.472 14.3345C123.988 13.8088 124.163 13.0371 123.929 12.3362ZM114.747 17.64C114.309 18.0869 114.113 18.7149 114.213 19.3312L114.953 23.877L111.201 21.8039C110.906 21.6405 110.577 21.5578 110.248 21.5578C109.919 21.5578 109.592 21.6405 109.295 21.8039L105.543 23.877L106.283 19.3312C106.383 18.7149 106.186 18.0869 105.749 17.64L102.519 14.3286L106.893 13.6612C107.543 13.5608 108.1 13.1453 108.378 12.5508L110.25 8.57194L112.118 12.5508C112.398 13.1453 112.955 13.5608 113.603 13.6612L117.977 14.3286L114.747 17.64Z" fill="black"/> <path d="M93.2736 25.7433C92.2026 25.5799 91.0962 25.8634 90.2417 26.5328L74.7949 38.617C75.6435 36.9849 76.0352 35.152 75.8777 33.2738C75.6572 30.6534 74.4287 28.2771 72.4186 26.58C70.4086 24.883 67.863 24.0738 65.2406 24.2923C62.6202 24.5148 60.2439 25.7433 58.5468 27.7514C56.8517 29.7615 56.0386 32.3091 56.2591 34.9295C56.4481 37.1503 57.3931 39.1682 58.8894 40.7727C56.5978 41.3397 54.5759 42.6962 53.2194 44.6354L37.7076 65.8074C36.8217 67.0733 36.7508 68.6916 37.5226 70.0303C38.2923 71.3671 39.7177 72.1113 41.2671 71.9892L45.9842 71.5896C47.1301 71.4931 48.1735 70.9025 48.8173 70.0067L58.1826 57.6863L58.8914 66.0928L54.2392 98.0023C52.4831 98.3626 50.7191 98.6855 48.9452 98.9335L49.4906 102.832C55.6685 101.967 61.7657 100.449 67.611 98.3173C78.951 94.1829 88.0151 88.2314 95.0041 82.2563L95.4451 82.1244L95.3841 81.9196C102.127 76.0882 106.907 70.2666 109.882 66.1145C110.262 65.5829 110.354 64.8998 110.128 64.2895C109.904 63.6772 109.39 63.2165 108.758 63.059L105.722 62.2991L116.777 56.1585L119.387 67.908L116.78 67.0398C115.932 66.7563 115.005 67.0811 114.514 67.8234L114.188 68.3156C89.4385 105.995 61.9272 115.13 43.2044 116.158L43.419 120.09C62.9155 119.019 91.4446 109.653 116.966 71.251L121.437 72.7413C122.108 72.9677 122.85 72.8102 123.378 72.3357C123.905 71.8613 124.134 71.1387 123.98 70.4477L120.043 52.729C119.909 52.1226 119.495 51.6146 118.928 51.3607C118.361 51.1087 117.71 51.1323 117.164 51.4355L99.4456 61.2792C98.7389 61.671 98.3451 62.4566 98.4514 63.2578C98.5558 64.0591 99.1425 64.7147 99.926 64.9096L104.936 66.1617C102.34 69.5204 98.7546 73.6095 94.1418 77.7616L90.6315 65.9865C90.3047 64.9746 89.5704 64.1261 88.6589 63.6791L80.5653 59.4641L79.2994 49.8408L97.3253 36.1068C98.9928 34.8389 99.3748 32.4883 98.1935 30.7577L95.9176 27.4148C95.3113 26.521 94.3466 25.9107 93.2736 25.7433ZM65.5713 28.218C65.7406 28.2043 65.91 28.1964 66.0793 28.1964C67.4712 28.1964 68.804 28.6827 69.879 29.5903C71.0838 30.6081 71.8201 32.0335 71.954 33.6065C72.0859 35.1795 71.5996 36.7092 70.5818 37.9141C69.564 39.119 68.1386 39.8573 66.5655 39.9892C64.9906 40.125 63.4628 39.6348 62.2579 38.617C61.053 37.5991 60.3148 36.1738 60.1829 34.6007C59.9092 31.3543 62.3268 28.4917 65.5713 28.218ZM68.2469 93.8443L72.3438 70.2016L79.581 73.7139L83.8591 85.7232C79.2975 88.7394 74.1019 91.5369 68.2469 93.8443ZM76.0096 47.4015C75.4486 47.8287 75.1591 48.5237 75.2497 49.2246L76.7971 60.9957C76.8818 61.6316 77.2696 62.1888 77.8406 62.4841L86.8732 67.154L90.8737 80.575C89.7102 81.5239 88.4836 82.465 87.2079 83.3981L83.2665 72.3338C82.9042 71.4163 82.2191 70.6741 81.3371 70.243L71.7158 65.5219C71.1606 65.2502 70.509 65.2561 69.9538 65.5357C69.4006 65.8172 69.0127 66.3429 68.9084 66.9532L63.9825 95.3859C62.128 96.0021 60.2537 96.5691 58.3578 97.0573L62.823 66.4413C62.8446 66.2917 62.8485 66.1421 62.8367 65.9905L61.6771 52.2584C61.6082 51.4453 61.0471 50.7602 60.2655 50.5338C59.482 50.3035 58.6413 50.585 58.1491 51.2327L45.6555 67.6698L40.9127 68.1029L56.4245 46.931C57.4325 45.4918 59.0154 44.5803 60.7676 44.4307L66.8963 43.9129H66.9002H66.9022L74.7477 43.2494C75.1296 43.216 75.4938 43.0742 75.7951 42.838L92.6712 29.6355L94.949 32.9785L76.0096 47.4015Z" fill="black"/> <path d="M7.875 3.9375H11.8125V7.875H7.875V3.9375Z" fill="black"/> <path d="M11.8125 7.875H15.75V11.8125H11.8125V7.875Z" fill="black"/> <path d="M3.9375 7.875H7.875V11.8125H3.9375V7.875Z" fill="black"/> <path d="M7.875 11.8125H11.8125V15.75H7.875V11.8125Z" fill="black"/> <path d="M23.625 9.84375H27.5625V13.7812H23.625V9.84375Z" fill="black"/> <path d="M27.5625 13.7812H31.5V17.7188H27.5625V13.7812Z" fill="black"/> <path d="M19.6875 13.7812H23.625V17.7188H19.6875V13.7812Z" fill="black"/> <path d="M23.625 17.7188H27.5625V21.6562H23.625V17.7188Z" fill="black"/> <path d="M114.188 110.25H118.125V114.188H114.188V110.25Z" fill="black"/> <path d="M118.125 114.188H122.062V118.125H118.125V114.188Z" fill="black"/> <path d="M110.25 114.188H114.188V118.125H110.25V114.188Z" fill="black"/> <path d="M114.188 118.125H118.125V122.062H114.188V118.125Z" fill="black"/> </svg>