<svg xmlns="http://www.w3.org/2000/svg" viewBox="0 0 512 512"><g fill-rule="evenodd" clip-rule="evenodd"><path d="M502 105.799c-5.522 0-10 4.477-10 10v236.052L336.471 220.69a9.998 9.998 0 0 0-12.893 0L194.762 329.323l-67.577-56.99a9.998 9.998 0 0 0-12.893 0L20 351.851V85.799h442c5.522 0 10-4.477 10-10s-4.478-10-10-10H10c-5.523 0-10 4.477-10 10v360.402c0 5.523 4.477 10 10 10h492c5.522 0 10-4.477 10-10V115.799c0-5.523-4.478-10-10-10zm-10 320.402H20v-48.188l100.738-84.955 67.576 56.99a9.997 9.997 0 0 0 12.894 0l128.816-108.633L492 378.013v48.188z"/><path d="M61.965 177.661c0 32.408 26.366 58.774 58.773 58.774 32.408 0 58.774-26.366 58.774-58.774s-26.366-58.774-58.774-58.774c-32.407 0-58.773 26.366-58.773 58.774zm97.548 0c0 21.38-17.395 38.774-38.774 38.774s-38.773-17.394-38.773-38.774c0-21.38 17.394-38.774 38.773-38.774s38.774 17.394 38.774 38.774zM502 85.799c5.508 0 10-4.491 10-10 0-5.508-4.492-10-10-10s-10 4.492-10 10c0 5.509 4.492 10 10 10z"/></g></svg>
