<svg viewBox="0 -73 512 512" xmlns="http://www.w3.org/2000/svg"><path d="M402.586 119.063V28.918C402.586 12.973 389.613 0 373.668 0h-70.84c-5.523 0-10 4.477-10 10s4.477 10 10 10h70.84c4.918 0 8.918 4 8.918 8.918v89.465c-45.469 2.11-84.602 28.89-104.277 67.238l-28.47-40.14a10.014 10.014 0 0 0-8.14-4.215h-.02a9.99 9.99 0 0 0-8.132 4.187l-72.719 101.75-34.855-48.777a10.01 10.01 0 0 0-8.137-4.184 9.999 9.999 0 0 0-8.137 4.184L29.49 310.668a10 10 0 0 0 8.136 15.812h84.984c.172 0 .34-.003.504-.011.164.008.332.011.5.011H298.32a124.51 124.51 0 0 0 22.703 19.016H28.918c-4.918 0-8.918-4-8.918-8.918V28.918C20 24 24 20 28.918 20h183.867c5.524 0 10-4.477 10-10s-4.476-10-10-10H28.918C12.973 0 0 12.973 0 28.918v307.66c0 15.945 12.973 28.918 28.918 28.918h359.457C456.543 365.496 512 310.04 512 241.875c0-63.363-47.914-115.742-109.414-122.813zM117.836 221.44l30.703 42.961-30.07 42.078H57.063zm25.215 85.04l98.601-137.973 27.871 39.297a123.404 123.404 0 0 0-4.77 34.066c0 23.664 6.68 45.797 18.263 64.61zm245.324 39.015c-57.137 0-103.625-46.484-103.625-103.621 0-57.14 46.488-103.625 103.625-103.625 57.14 0 103.625 46.484 103.625 103.625 0 57.137-46.484 103.621-103.625 103.621zm0 0"/><path d="M439.898 213.555h-23.203v-23.203c0-5.524-4.476-10-10-10H370.06c-5.524 0-10 4.476-10 10v23.203h-23.204c-5.52 0-10 4.476-10 10v36.636c0 5.524 4.48 10 10 10h23.204v23.204c0 5.523 4.476 10 10 10h36.636c5.524 0 10-4.477 10-10V270.19h23.203c5.52 0 10-4.476 10-10v-36.636c0-5.524-4.48-10-10-10zm-10 36.636h-23.203c-5.523 0-10 4.477-10 10v23.204H380.06V260.19c0-5.523-4.477-10-10-10h-23.204v-16.636h23.204c5.523 0 10-4.477 10-10v-23.203h16.636v23.203c0 5.523 4.477 10 10 10h23.203zm0 0M131.945 153.191c-30.707 0-55.687-24.98-55.687-55.687 0-30.703 24.98-55.688 55.687-55.688 30.703 0 55.688 24.98 55.688 55.688 0 30.707-24.985 55.687-55.688 55.687zm0-91.375c-19.68 0-35.687 16.008-35.687 35.688 0 19.68 16.008 35.687 35.687 35.687 19.676 0 35.688-16.007 35.688-35.687 0-19.676-16.012-35.688-35.688-35.688zm0 0M257.828 20c-4.168 0-8.015-2.703-9.414-6.633-1.379-3.879-.2-8.328 2.945-10.988 3.29-2.781 8.086-3.121 11.746-.867 3.5 2.156 5.336 6.422 4.524 10.449-.93 4.61-5.086 8.039-9.8 8.039zm0 0"/></svg>
