<svg viewBox="0 0 512.001 512" xmlns="http://www.w3.org/2000/svg"><path d="M206.715 120H19.437a10.001 10.001 0 0 1-7.39-3.262C4.39 108.344 0 97.145 0 86.016c0-23.688 19.273-42.961 42.96-42.961 1.462 0 2.923.074 4.376.222a36.302 36.302 0 0 1 27.023-10.476C82.625 13.094 101.855 0 123.926 0c14.847 0 29.176 6.223 39.32 17.07.305.328.586.672.844 1.035l6.785 9.54c.258.363.488.742.7 1.136a53.527 53.527 0 0 1 2.581 5.692 49.636 49.636 0 0 1 3.145-.11h.176c26.75 0 48.859 21.7 49.324 48.453.219 12.54-4.274 24.567-12.653 33.875a10.007 10.007 0 0 1-7.433 3.309zM24.293 100h177.57a29.26 29.26 0 0 0 4.942-16.836v.004c-.278-15.906-13.426-28.805-29.328-28.805h-.11c-2.617.012-5.21.364-7.703 1.051a10.003 10.003 0 0 1-12.492-7.812 33.464 33.464 0 0 0-3.012-8.946l-5.96-8.379C141.776 23.645 133.183 20 123.925 20c-15.656 0-29.528 11.074-32.973 26.328a10 10 0 0 1-12.918 7.281 16.275 16.275 0 0 0-5.168-.84 16.311 16.311 0 0 0-13.398 7.032 9.994 9.994 0 0 1-10.723 3.988 23.279 23.279 0 0 0-5.785-.734C30.3 63.055 20 73.355 20 86.015c0 4.872 1.535 9.794 4.293 13.985zm0 0M510.508 147.742l-61.18-99.062a10.002 10.002 0 0 0-17.015 0l-61.18 99.062a10.006 10.006 0 0 0-.227 10.125 10.003 10.003 0 0 0 8.735 5.13h17.261V502c0 5.523 4.477 10 10 10h67.836c5.524 0 10-4.477 10-10V162.996H502a9.997 9.997 0 1 0 8.508-15.254zm-35.77-4.746c-5.52 0-10 4.477-10 10V492h-47.836V162.996h13.356c5.52 0 10-4.476 10-10 0-5.523-4.48-10-10-10H397.57l43.25-70.027 43.25 70.027zm0 0"/><path d="M440.82 279.66c-.648 0-1.308-.07-1.949-.2-.64-.128-1.27-.32-1.879-.57a9.86 9.86 0 0 1-1.722-.921 9.479 9.479 0 0 1-1.52-1.239 9.478 9.478 0 0 1-1.238-1.52 9.657 9.657 0 0 1-.922-1.73 9.494 9.494 0 0 1-.57-1.87 9.912 9.912 0 0 1-.2-1.95c0-.648.07-1.308.2-1.96.12-.63.32-1.259.57-1.868.25-.602.558-1.18.922-1.723a9.653 9.653 0 0 1 1.238-1.52c.46-.46.969-.878 1.52-1.25a10.11 10.11 0 0 1 3.601-1.487 9.776 9.776 0 0 1 3.899 0 10.11 10.11 0 0 1 3.602 1.488c.55.37 1.058.789 1.519 1.25.46.46.879.973 1.242 1.52.36.542.668 1.12.918 1.722.25.61.449 1.238.57 1.867.129.653.2 1.313.2 1.961 0 .652-.071 1.309-.2 1.95-.121.64-.32 1.269-.57 1.87a9.896 9.896 0 0 1-2.16 3.25c-.461.461-.97.88-1.52 1.239a9.86 9.86 0 0 1-1.723.922 10.217 10.217 0 0 1-3.828.77zm0 0M440.82 478.89c-5.52 0-10-4.476-10-10V312.66c0-5.523 4.48-10 10-10 5.524 0 10 4.477 10 10v156.23c0 5.524-4.476 10-10 10zm0 0M140.867 268.633l-61.18-99.059a9.997 9.997 0 0 0-17.015 0l-61.18 99.059A9.998 9.998 0 0 0 10 283.887h17.262V502c0 5.523 4.476 10 10 10h67.836c5.52 0 10-4.477 10-10V283.887h17.261a9.992 9.992 0 0 0 8.73-5.13 9.988 9.988 0 0 0-.222-10.124zm-35.77-4.746c-5.519 0-10 4.476-10 10V492H47.263V283.887h13.355c5.52 0 10-4.477 10-10 0-5.524-4.48-10-10-10H27.93l43.25-70.028 43.25 70.028zm0 0"/><path d="M71.18 349.66a9.644 9.644 0 0 1-1.95-.191c-.64-.13-1.27-.317-1.878-.567-.602-.25-1.18-.562-1.72-.922a9.725 9.725 0 0 1-1.523-1.238 10.093 10.093 0 0 1-2.93-7.082c0-.648.071-1.308.2-1.95.121-.64.32-1.269.57-1.87.25-.598.563-1.18.91-1.73.371-.54.79-1.06 1.25-1.52.461-.461.973-.88 1.52-1.238.543-.36 1.121-.672 1.723-.922.609-.25 1.238-.438 1.878-.57a9.922 9.922 0 0 1 5.77.57c.61.25 1.188.562 1.73.922.551.359 1.06.777 1.52 1.238.46.46.879.98 1.238 1.52.36.55.672 1.132.922 1.73.25.601.45 1.23.57 1.87.13.642.2 1.302.2 1.95 0 .66-.07 1.309-.2 1.961-.12.64-.32 1.27-.57 1.871-.25.598-.562 1.18-.922 1.727a9.865 9.865 0 0 1-1.238 1.523c-.46.457-.969.88-1.52 1.238a10.055 10.055 0 0 1-3.601 1.489 9.589 9.589 0 0 1-1.95.191zm0 0M71.18 478.89c-5.52 0-10-4.476-10-10v-86.222c0-5.523 4.48-10 10-10 5.523 0 10 4.477 10 10v86.223c0 5.523-4.477 10-10 10zm0 0M353.07 331.129a68.064 68.064 0 0 0-12.507-6.582c.054-.34.101-.629.136-.867.012-.075.02-.145.028-.215 5.207-41.668-1.262-85.68-17.743-120.754a9.85 9.85 0 0 0-1.164-1.899c-14.773-30.417-41.66-60.398-59.89-73.488-3.73-2.683-8.864-2.433-12.364.551-.168.14-.441.36-.808.656-24.453 19.781-45.543 45.977-59.383 73.758a9.812 9.812 0 0 0-.762 2.082c-6.758 13.95-11.863 28.54-15.191 43.406-5.152 23.043-4.422 51.785-2.02 71 .012.067.02.133.028.2.015.109.027.183.972 5.199a68.19 68.19 0 0 0-13.476 6.957c-23.938 15.976-33.844 47.672-24.156 77.164l13.503 50.887a9.988 9.988 0 0 0 9.665 7.433 9.994 9.994 0 0 0 7.855-3.812l36.36-46.145H207a50.205 50.205 0 0 0-.945 9.684c0 39.761 42.875 66.644 44.699 67.77a9.993 9.993 0 0 0 10.465.019c1.824-1.117 44.73-27.809 44.73-67.79 0-3.261-.32-6.503-.949-9.683h4.848l36.363 46.145a9.993 9.993 0 0 0 9.879 3.605 10.006 10.006 0 0 0 7.64-7.226l13.504-50.887c9.684-29.496-.222-61.188-24.164-77.168zM206.41 396.66c-3.98-21.117-14.37-76.258-15.195-80.66-2.719-21.977-2.043-47.012 1.726-63.855a178.08 178.08 0 0 1 9.149-28.958c16.793 11.348 37.168 13.047 54.008 13.047 16.797 0 37.12-1.683 53.859-12.93 10.934 29.301 15.012 64.798 10.938 97.567-.946 6.293-9.7 51.188-14.524 75.79zm49.883-248.355c14.836 12.59 33.46 34.605 45.125 56.507-9.965 7.95-24.008 11.422-45.32 11.422-21.34 0-35.418-3.5-45.422-11.523 11.472-20.93 27.37-40.594 45.617-56.406zm-93.824 286.402l-8.446-31.828a7.527 7.527 0 0 0-.175-.598c-6.907-20.719-.098-43.648 16.175-54.511a48.764 48.764 0 0 1 6.164-3.485c2.348 12.45 5.856 31.063 11.106 58.922zm123.48-8.363c0 21.812-20.097 39.64-29.906 47.039-9.797-7.485-29.988-25.528-29.988-47.04 0-3.308.547-6.581 1.601-9.683h56.692a30.092 30.092 0 0 1 1.601 9.684zm72.207-24.063a9.64 9.64 0 0 0-.18.598l-8.445 31.828-24.219-30.734c2.172-11.051 7.688-39.18 11.508-59.2a48.47 48.47 0 0 1 5.149 2.993c16.285 10.867 23.094 33.796 16.187 54.515zm0 0"/><path d="M256 358.61c-28.957 0-52.516-23.56-52.516-52.516s23.559-52.516 52.516-52.516 52.516 23.559 52.516 52.516-23.559 52.515-52.516 52.515zm0-85.032c-17.93 0-32.516 14.586-32.516 32.516S238.07 338.609 256 338.609s32.516-14.586 32.516-32.515S273.93 273.578 256 273.578zm0 0"/></svg>
