<svg xmlns="http://www.w3.org/2000/svg" viewBox="0 0 512 512"><path d="M492 357.122c11.046 0 20-8.954 20-20v-141c0-40.804-33.196-74-74-74s-74 33.196-74 74V438c0 40.804 33.196 74 74 74s74-33.196 74-74c0-11.046-8.954-20-20-20s-20 8.954-20 20c0 18.748-15.252 34-34 34s-34-15.252-34-34V196.122c0-18.748 15.252-34 34-34s34 15.252 34 34v141c0 11.046 8.954 20 20 20zM74 183.122c-40.804 0-74 33.196-74 74V438c0 40.804 33.196 74 74 74s74-33.196 74-74V257.122c0-40.804-33.196-74-74-74zM108 438c0 18.748-15.252 34-34 34s-34-15.252-34-34V257.122c0-18.748 15.252-34 34-34s34 15.252 34 34V438zM256 0c-40.804 0-74 33.196-74 74v364c0 40.804 33.196 74 74 74s74-33.196 74-74V74c0-40.804-33.196-74-74-74zm34 438c0 18.748-15.252 34-34 34s-34-15.252-34-34V74c0-18.748 15.252-34 34-34s34 15.252 34 34v364z"/></svg>
