<svg xmlns="http://www.w3.org/2000/svg" viewBox="0 0 502 502"><path d="M159 171h303c22.056 0 40-17.944 40-40s-17.944-40-40-40H159c-22.056 0-40 17.944-40 40s17.944 40 40 40zm0-60h303c11.028 0 20 8.972 20 20s-8.972 20-20 20H159c-11.028 0-20-8.972-20-20s8.972-20 20-20zM462 211H159c-22.056 0-40 17.944-40 40s17.944 40 40 40h303c22.056 0 40-17.944 40-40s-17.944-40-40-40zm0 60H159c-11.028 0-20-8.972-20-20s8.972-20 20-20h303c11.028 0 20 8.972 20 20s-8.972 20-20 20zM462 331H159c-22.056 0-40 17.944-40 40s17.944 40 40 40h303c22.056 0 40-17.944 40-40s-17.944-40-40-40zm0 60H159c-11.028 0-20-8.972-20-20s8.972-20 20-20h303c11.028 0 20 8.972 20 20s-8.972 20-20 20zM49 82c-27.019 0-49 21.981-49 49s21.981 49 49 49 49-21.981 49-49-21.981-49-49-49zm0 78c-15.991 0-29-13.009-29-29s13.009-29 29-29 29 13.009 29 29-13.009 29-29 29zM49 202c-27.019 0-49 21.981-49 49s21.981 49 49 49 49-21.981 49-49-21.981-49-49-49zm0 78c-15.991 0-29-13.009-29-29s13.009-29 29-29 29 13.009 29 29-13.009 29-29 29zM49 322c-27.019 0-49 21.981-49 49s21.981 49 49 49 49-21.981 49-49-21.981-49-49-49zm0 78c-15.991 0-29-13.009-29-29s13.009-29 29-29 29 13.009 29 29-13.009 29-29 29z"/><path d="M216 139h171c5.523 0 10-4.477 10-10s-4.477-10-10-10H216c-5.523 0-10 4.477-10 10s4.477 10 10 10zM158 139h18c5.523 0 10-4.477 10-10s-4.477-10-10-10h-18c-5.523 0-10 4.477-10 10s4.477 10 10 10z"/></svg>
