<svg xmlns="http://www.w3.org/2000/svg" viewBox="0 0 512 512"><path d="M467.712 112.032c-3.11-4.565-9.33-5.744-13.895-2.634-4.565 3.11-5.744 9.331-2.634 13.895C477.886 162.488 492 208.377 492 256c0 130.131-105.869 236-236 236S20 386.131 20 256 125.869 20 256 20c48.663 0 95.382 14.688 135.106 42.473 4.526 3.166 10.76 2.064 13.926-2.462 3.166-4.526 2.063-10.76-2.462-13.926C359.468 15.936 308.785 0 256 0 187.62 0 123.333 26.628 74.981 74.981 26.628 123.333 0 187.62 0 256s26.628 132.667 74.981 181.02C123.333 485.371 187.62 512 256 512s132.667-26.629 181.019-74.98C485.372 388.667 512 324.38 512 256c0-51.656-15.315-101.439-44.288-143.968z"/><path d="M437.363 75.323l-.342-.343c-3.906-3.905-10.238-3.905-14.143 0-3.905 3.906-3.905 10.238 0 14.143l.342.343c1.952 1.953 4.512 2.929 7.071 2.929s5.118-.977 7.072-2.929c3.905-3.906 3.905-10.238 0-14.143zM199.965 257.022h-30.349c2.826-48.435 26.462-56.432 44.515-58.075a10 10 0 0 0 9.094-9.959v-55.989c0-2.749-1.132-5.378-3.13-7.267a10.017 10.017 0 0 0-7.431-2.717c-40.081 2.255-70.76 16.15-91.185 41.299-20.06 24.7-30.231 60.551-30.231 106.558v84.091c0 18.768 15.269 34.037 34.037 34.037h74.681c18.768 0 34.037-15.269 34.036-34.038v-63.903c0-18.768-15.269-34.037-34.037-34.037zm14.038 97.941c0 7.74-6.297 14.037-14.037 14.037h-74.681c-7.74 0-14.037-6.297-14.037-14.037v-84.091c0-41.297 8.666-72.906 25.756-93.949 15.191-18.704 36.921-29.561 66.222-33.027v36.469c-26.389 5.441-53.889 25.735-53.889 86.658 0 5.522 4.477 10 10 10h40.629c7.74 0 14.037 6.297 14.037 14.037v63.903zM386.714 257.023h-30.349c2.826-48.434 26.462-56.432 44.515-58.075a10 10 0 0 0 9.094-9.959V133c0-2.749-1.132-5.378-3.13-7.267a10.017 10.017 0 0 0-7.431-2.717c-40.082 2.255-70.761 16.15-91.186 41.299-20.059 24.7-30.23 60.551-30.23 106.558v3.461c0 5.522 4.477 10 10 10s10-4.478 10-10v-3.461c0-41.297 8.665-72.906 25.755-93.949 15.191-18.704 36.92-29.561 66.222-33.027v36.468c-26.389 5.442-53.889 25.735-53.889 86.658 0 5.522 4.477 10 10 10h40.629c7.74 0 14.037 6.297 14.037 14.037v63.903c0 7.74-6.297 14.037-14.037 14.037h-74.681c-7.74 0-14.037-6.297-14.037-14.037V349.5c0-5.522-4.477-10-10-10s-10 4.478-10 10v5.463c0 18.768 15.269 34.037 34.037 34.037h74.681c18.768 0 34.037-15.269 34.037-34.037V291.06c0-18.768-15.269-34.037-34.037-34.037z"/><path d="M287.997 299.583c-5.523 0-10 4.478-10 10V310c0 5.522 4.477 10 10 10s10-4.478 10-10v-.417c0-5.522-4.477-10-10-10z"/></svg>
