<svg xmlns="http://www.w3.org/2000/svg" viewBox="0 -26 512 512"><path d="M166 50c0 5.523-4.477 10-10 10s-10-4.477-10-10 4.477-10 10-10 10 4.477 10 10zm0 0M126 50c0 5.523-4.477 10-10 10s-10-4.477-10-10 4.477-10 10-10 10 4.477 10 10zm0 0M86 50c0 5.523-4.477 10-10 10s-10-4.477-10-10 4.477-10 10-10 10 4.477 10 10zm0 0M436 140H76c-5.523 0-10 4.477-10 10v60c0 5.523 4.477 10 10 10h360c5.523 0 10-4.477 10-10v-60c0-5.523-4.477-10-10-10zm-10 60H86v-40h340zm0 0M256 260H76c-5.523 0-10 4.477-10 10v120c0 5.523 4.477 10 10 10h180c5.523 0 10-4.477 10-10V270c0-5.523-4.477-10-10-10zm-10 120H86V280h160zm0 0M436 260H316c-5.523 0-10 4.477-10 10v120c0 5.523 4.477 10 10 10h120c5.523 0 10-4.477 10-10V270c0-5.523-4.477-10-10-10zm-10 120H326V280h100zm0 0M266 10c0 5.523-4.477 10-10 10s-10-4.477-10-10 4.477-10 10-10 10 4.477 10 10zm0 0"/><path d="M482 0H301c-5.523 0-10 4.477-10 10s4.477 10 10 10h181c5.516 0 10 4.484 10 10v50H20V30c0-5.516 4.484-10 10-10h181c5.523 0 10-4.477 10-10s-4.477-10-10-10H30C13.457 0 0 13.457 0 30v400c0 16.543 13.457 30 30 30h452c16.543 0 30-13.457 30-30V30c0-16.543-13.457-30-30-30zm0 440H30c-5.516 0-10-4.484-10-10V100h472v330c0 5.516-4.484 10-10 10zm0 0"/></svg>
