<svg xmlns="http://www.w3.org/2000/svg" viewBox="0 0 512 512"><path d="M256 332a76 76 0 1142.37-139.1A76 76 0 01256 332zm0-132a56 56 0 1031.21 9.5A56.06 56.06 0 00256 200zM482 452h-50a10 10 0 010-20h50a10 10 0 0010-10V90a10 10 0 00-10-10h-50a10 10 0 010-20h50a30 30 0 0130 30v332a30 30 0 01-30 30zM10 155.25a10 10 0 01-10-10V90a30 30 0 0130-30h50a10 10 0 010 20H30a10 10 0 00-10 10v55.25a10 10 0 01-10 10zM10 206a9.86 9.86 0 01-2-.2 9.4 9.4 0 01-1.87-.57 9.88 9.88 0 01-1.73-.92 9.6 9.6 0 01-1.52-1.24A10.08 10.08 0 010 196a9.86 9.86 0 01.2-2 9.4 9.4 0 01.57-1.87 9.85 9.85 0 01.92-1.73 9.71 9.71 0 012.76-2.76 9.85 9.85 0 011.73-.92A9.4 9.4 0 018 186.2a10.08 10.08 0 019 2.73 9.6 9.6 0 011.24 1.52 9.88 9.88 0 01.92 1.73 9.4 9.4 0 01.64 1.82 9.86 9.86 0 01.2 2 10 10 0 01-10 10zM80 452H30a30 30 0 01-30-30V246a10 10 0 0120 0v176a10 10 0 0010 10h50a10 10 0 010 20z"/><path d="M10 206a9.86 9.86 0 01-2-.2 9.4 9.4 0 01-1.87-.57 9.88 9.88 0 01-1.73-.92 9.6 9.6 0 01-1.52-1.24A10.08 10.08 0 010 196a9.86 9.86 0 01.2-2 9.4 9.4 0 01.57-1.87 9.85 9.85 0 01.92-1.73 9.71 9.71 0 012.76-2.76 9.85 9.85 0 011.73-.92A9.4 9.4 0 018 186.2a10.08 10.08 0 019 2.73 9.6 9.6 0 011.24 1.52 9.88 9.88 0 01.92 1.73 9.4 9.4 0 01.64 1.82 9.86 9.86 0 01.2 2 10 10 0 01-10 10z"/></svg>
