<svg xmlns="http://www.w3.org/2000/svg" viewBox="0 0 512.001 512.001"><path d="M427.782 339.969c46.438 0 84.219-37.78 84.219-84.219 0-39.156-26.598-72.412-63.536-81.667A140.192 140.192 0 0 0 452.647 140c0-77.196-62.804-140-140-140-48.516 0-93.203 24.982-118.72 65.772a72.054 72.054 0 0 0-23.942-4.11c-36.261 0-66.317 27.069-71.021 62.063C43.6 128.486 0 175.07 0 231.646c0 59.73 48.594 108.322 108.323 108.322h49.942v78.572H82.49c-5.523 0-10 4.477-10 10 0 5.522 4.477 10 10 10h85.775c5.523 0 10-4.478 10-10v-88.572H246v162.033c0 5.522 4.477 10 10 10 5.522 0 10-4.478 10-10V339.969h83.248v88.572c0 5.522 4.478 10 10 10h85.775c5.522 0 10-4.478 10-10 0-5.523-4.478-10-10-10h-75.774v-78.572h58.533zm-75.604-27.261a10.003 10.003 0 0 0-2.929 7.071v.19H266V205.17l38.217-38.217a34.29 34.29 0 0 0 16.27 4.088c19.023 0 34.5-15.477 34.5-34.5 0-19.024-15.477-34.5-34.5-34.5-19.022 0-34.499 15.477-34.499 34.5 0 5.881 1.482 11.42 4.087 16.269l-41.145 41.146a10.101 10.101 0 0 0-2.929 7.075v118.938h-67.735v-25.201c0-2.626-1.072-5.218-2.929-7.075l-36.898-36.897a34.282 34.282 0 0 0 4.088-16.271c0-19.023-15.477-34.5-34.5-34.5s-34.5 15.477-34.5 34.5 15.477 34.5 34.5 34.5c5.88 0 11.419-1.482 16.269-4.087l33.97 33.97v21.063h-49.942c-48.703-.002-88.325-39.623-88.325-88.325 0-48.701 39.622-88.322 88.323-88.322 5.523 0 10-4.478 10-10 0-28.486 23.175-51.662 51.661-51.662 8.308 0 16.237 1.91 23.568 5.676 4.845 2.49 10.791.643 13.374-4.152C227.918 44.211 268.428 20 312.646 20c66.168 0 120 53.832 120 120 0 13.262-2.149 26.292-6.388 38.73a10 10 0 0 0 8.407 13.17C467.352 195.379 492 222.828 492 255.75c0 35.41-28.809 64.219-64.219 64.219h-54.58l30.016-30.016a34.29 34.29 0 0 0 16.27 4.088c19.023 0 34.5-15.477 34.5-34.5 0-19.024-15.477-34.5-34.5-34.5-19.022 0-34.499 15.476-34.499 34.5 0 5.881 1.482 11.42 4.087 16.27l-36.897 36.897zm-46.19-176.167c0-7.995 6.504-14.5 14.499-14.5s14.5 6.505 14.5 14.5-6.505 14.5-14.5 14.5-14.499-6.505-14.499-14.5zm-183.462 97.982c0 7.995-6.505 14.5-14.5 14.5s-14.5-6.505-14.5-14.5 6.505-14.5 14.5-14.5 14.5 6.505 14.5 14.5zm282.462 25.018c0-7.995 6.504-14.5 14.499-14.5s14.5 6.505 14.5 14.5-6.505 14.5-14.5 14.5-14.499-6.505-14.499-14.5z"/><path d="M316.607 41.573a9.986 9.986 0 0 0-10.592-9.371 107.975 107.975 0 0 0-68.858 30.544c-3.95 3.86-4.023 10.191-.163 14.142a9.969 9.969 0 0 0 7.152 3.011 9.967 9.967 0 0 0 6.989-2.848 87.966 87.966 0 0 1 56.101-24.886c5.512-.337 9.708-5.079 9.371-10.592zM231.362 84.27c-4.855-2.632-10.925-.83-13.557 4.025l-.302.557c-2.632 4.855-.829 10.925 4.026 13.557a10 10 0 0 0 13.557-4.025l.302-.557c2.631-4.856.829-10.926-4.026-13.557z"/></svg>
