<svg viewBox="0 0 512 512" xmlns="http://www.w3.org/2000/svg"><path d="M512 256c0 68.379-26.629 132.668-74.98 181.02C388.668 485.37 324.379 512 256 512s-132.668-26.629-181.02-74.98C26.63 388.668 0 324.379 0 256c0-11.047 8.953-20 20-20s20 8.953 20 20c0 119.102 96.898 216 216 216s216-96.898 216-216S375.102 40 256 40c-11.047 0-20-8.953-20-20s8.953-20 20-20c68.379 0 132.668 26.629 181.02 74.98C485.37 123.332 512 187.621 512 256zm-371.809-28.75c6.77 8.734 19.332 10.324 28.059 3.559l7.75-6.004V328c0 11.047 8.953 20 20 20s20-8.953 20-20V184a20.004 20.004 0 0 0-11.195-17.96 20 20 0 0 0-21.055 2.151l-40 31c-8.73 6.766-10.324 19.329-3.559 28.059zM246 283v-54c0-35.84 29.16-65 65-65s65 29.16 65 65v54c0 35.84-29.16 65-65 65s-65-29.16-65-65zm40 0c0 13.785 11.215 25 25 25s25-11.215 25-25v-54c0-13.785-11.215-25-25-25s-25 11.215-25 25zM183 51c11.047 0 20-8.953 20-20s-8.953-20-20-20-20 8.953-20 20 8.953 20 20 20zm-66 34c11.047 0 20-8.953 20-20s-8.953-20-20-20-20 8.953-20 20 8.953 20 20 20zm-52 52c11.047 0 20-8.953 20-20s-8.953-20-20-20-20 8.953-20 20 8.953 20 20 20zm-34 66c11.047 0 20-8.953 20-20s-8.953-20-20-20-20 8.953-20 20 8.953 20 20 20zm0 0"/></svg>
